<?xml version="1.0" encoding="utf-8" standalone="no"?>
<!DOCTYPE svg PUBLIC "-//W3C//DTD SVG 1.1//EN"
  "http://www.w3.org/Graphics/SVG/1.1/DTD/svg11.dtd">
<svg xmlns:xlink="http://www.w3.org/1999/xlink" width="501.677486pt" height="281.634375pt" viewBox="0 0 501.677486 281.634375" xmlns="http://www.w3.org/2000/svg" version="1.1">
 <metadata>
  <rdf:RDF xmlns:dc="http://purl.org/dc/elements/1.1/" xmlns:cc="http://creativecommons.org/ns#" xmlns:rdf="http://www.w3.org/1999/02/22-rdf-syntax-ns#">
   <cc:Work>
    <dc:type rdf:resource="http://purl.org/dc/dcmitype/StillImage"/>
    <dc:date>2025-12-04T15:09:43.882694</dc:date>
    <dc:format>image/svg+xml</dc:format>
    <dc:creator>
     <cc:Agent>
      <dc:title>Matplotlib v3.10.5, https://matplotlib.org/</dc:title>
     </cc:Agent>
    </dc:creator>
   </cc:Work>
  </rdf:RDF>
 </metadata>
 <defs>
  <style type="text/css">*{stroke-linejoin: round; stroke-linecap: butt}</style>
 </defs>
 <g id="figure_1">
  <g id="patch_1">
   <path d="M 0 281.634375 
L 501.677486 281.634375 
L 501.677486 0 
L 0 0 
z
" style="fill: #ffffff"/>
  </g>
  <g id="axes_1">
   <g id="patch_2">
    <path d="M 45.478125 244.078125 
L 491.878125 244.078125 
L 491.878125 22.318125 
L 45.478125 22.318125 
z
" style="fill: #ffffff"/>
   </g>
   <g id="patch_3">
    <path d="M 65.769034 71801.936363 
L 69.827216 71801.936363 
L 69.827216 32.398125 
L 65.769034 32.398125 
z
" clip-path="url(#pb2d94138bd)" style="fill: #1f77b4"/>
   </g>
   <g id="patch_4">
    <path d="M 69.827216 71801.936363 
L 73.885398 71801.936363 
L 73.885398 71801.936363 
L 69.827216 71801.936363 
z
" clip-path="url(#pb2d94138bd)" style="fill: #1f77b4"/>
   </g>
   <g id="patch_5">
    <path d="M 73.885398 71801.936363 
L 77.94358 71801.936363 
L 77.94358 71801.936363 
L 73.885398 71801.936363 
z
" clip-path="url(#pb2d94138bd)" style="fill: #1f77b4"/>
   </g>
   <g id="patch_6">
    <path d="M 77.94358 71801.936363 
L 82.001761 71801.936363 
L 82.001761 71801.936363 
L 77.94358 71801.936363 
z
" clip-path="url(#pb2d94138bd)" style="fill: #1f77b4"/>
   </g>
   <g id="patch_7">
    <path d="M 82.001761 71801.936363 
L 86.059943 71801.936363 
L 86.059943 71801.936363 
L 82.001761 71801.936363 
z
" clip-path="url(#pb2d94138bd)" style="fill: #1f77b4"/>
   </g>
   <g id="patch_8">
    <path d="M 86.059943 71801.936363 
L 90.118125 71801.936363 
L 90.118125 71801.936363 
L 86.059943 71801.936363 
z
" clip-path="url(#pb2d94138bd)" style="fill: #1f77b4"/>
   </g>
   <g id="patch_9">
    <path d="M 90.118125 71801.936363 
L 94.176307 71801.936363 
L 94.176307 71801.936363 
L 90.118125 71801.936363 
z
" clip-path="url(#pb2d94138bd)" style="fill: #1f77b4"/>
   </g>
   <g id="patch_10">
    <path d="M 94.176307 71801.936363 
L 98.234489 71801.936363 
L 98.234489 71801.936363 
L 94.176307 71801.936363 
z
" clip-path="url(#pb2d94138bd)" style="fill: #1f77b4"/>
   </g>
   <g id="patch_11">
    <path d="M 98.234489 71801.936363 
L 102.29267 71801.936363 
L 102.29267 71801.936363 
L 98.234489 71801.936363 
z
" clip-path="url(#pb2d94138bd)" style="fill: #1f77b4"/>
   </g>
   <g id="patch_12">
    <path d="M 102.29267 71801.936363 
L 106.350852 71801.936363 
L 106.350852 71801.936363 
L 102.29267 71801.936363 
z
" clip-path="url(#pb2d94138bd)" style="fill: #1f77b4"/>
   </g>
   <g id="patch_13">
    <path d="M 106.350852 71801.936363 
L 110.409034 71801.936363 
L 110.409034 71801.936363 
L 106.350852 71801.936363 
z
" clip-path="url(#pb2d94138bd)" style="fill: #1f77b4"/>
   </g>
   <g id="patch_14">
    <path d="M 110.409034 71801.936363 
L 114.467216 71801.936363 
L 114.467216 71801.936363 
L 110.409034 71801.936363 
z
" clip-path="url(#pb2d94138bd)" style="fill: #1f77b4"/>
   </g>
   <g id="patch_15">
    <path d="M 114.467216 71801.936363 
L 118.525398 71801.936363 
L 118.525398 71801.936363 
L 114.467216 71801.936363 
z
" clip-path="url(#pb2d94138bd)" style="fill: #1f77b4"/>
   </g>
   <g id="patch_16">
    <path d="M 118.525398 71801.936363 
L 122.58358 71801.936363 
L 122.58358 71801.936363 
L 118.525398 71801.936363 
z
" clip-path="url(#pb2d94138bd)" style="fill: #1f77b4"/>
   </g>
   <g id="patch_17">
    <path d="M 122.58358 71801.936363 
L 126.641761 71801.936363 
L 126.641761 71801.936363 
L 122.58358 71801.936363 
z
" clip-path="url(#pb2d94138bd)" style="fill: #1f77b4"/>
   </g>
   <g id="patch_18">
    <path d="M 126.641761 71801.936363 
L 130.699943 71801.936363 
L 130.699943 71801.936363 
L 126.641761 71801.936363 
z
" clip-path="url(#pb2d94138bd)" style="fill: #1f77b4"/>
   </g>
   <g id="patch_19">
    <path d="M 130.699943 71801.936363 
L 134.758125 71801.936363 
L 134.758125 71801.936363 
L 130.699943 71801.936363 
z
" clip-path="url(#pb2d94138bd)" style="fill: #1f77b4"/>
   </g>
   <g id="patch_20">
    <path d="M 134.758125 71801.936363 
L 138.816307 71801.936363 
L 138.816307 71801.936363 
L 134.758125 71801.936363 
z
" clip-path="url(#pb2d94138bd)" style="fill: #1f77b4"/>
   </g>
   <g id="patch_21">
    <path d="M 138.816307 71801.936363 
L 142.874489 71801.936363 
L 142.874489 71801.936363 
L 138.816307 71801.936363 
z
" clip-path="url(#pb2d94138bd)" style="fill: #1f77b4"/>
   </g>
   <g id="patch_22">
    <path d="M 142.874489 71801.936363 
L 146.93267 71801.936363 
L 146.93267 71801.936363 
L 142.874489 71801.936363 
z
" clip-path="url(#pb2d94138bd)" style="fill: #1f77b4"/>
   </g>
   <g id="patch_23">
    <path d="M 146.93267 71801.936363 
L 150.990852 71801.936363 
L 150.990852 71801.936363 
L 146.93267 71801.936363 
z
" clip-path="url(#pb2d94138bd)" style="fill: #1f77b4"/>
   </g>
   <g id="patch_24">
    <path d="M 150.990852 71801.936363 
L 155.049034 71801.936363 
L 155.049034 71801.936363 
L 150.990852 71801.936363 
z
" clip-path="url(#pb2d94138bd)" style="fill: #1f77b4"/>
   </g>
   <g id="patch_25">
    <path d="M 155.049034 71801.936363 
L 159.107216 71801.936363 
L 159.107216 71801.936363 
L 155.049034 71801.936363 
z
" clip-path="url(#pb2d94138bd)" style="fill: #1f77b4"/>
   </g>
   <g id="patch_26">
    <path d="M 159.107216 71801.936363 
L 163.165398 71801.936363 
L 163.165398 71801.936363 
L 159.107216 71801.936363 
z
" clip-path="url(#pb2d94138bd)" style="fill: #1f77b4"/>
   </g>
   <g id="patch_27">
    <path d="M 163.165398 71801.936363 
L 167.22358 71801.936363 
L 167.22358 71801.936363 
L 163.165398 71801.936363 
z
" clip-path="url(#pb2d94138bd)" style="fill: #1f77b4"/>
   </g>
   <g id="patch_28">
    <path d="M 167.22358 71801.936363 
L 171.281761 71801.936363 
L 171.281761 71801.936363 
L 167.22358 71801.936363 
z
" clip-path="url(#pb2d94138bd)" style="fill: #1f77b4"/>
   </g>
   <g id="patch_29">
    <path d="M 171.281761 71801.936363 
L 175.339943 71801.936363 
L 175.339943 71801.936363 
L 171.281761 71801.936363 
z
" clip-path="url(#pb2d94138bd)" style="fill: #1f77b4"/>
   </g>
   <g id="patch_30">
    <path d="M 175.339943 71801.936363 
L 179.398125 71801.936363 
L 179.398125 71801.936363 
L 175.339943 71801.936363 
z
" clip-path="url(#pb2d94138bd)" style="fill: #1f77b4"/>
   </g>
   <g id="patch_31">
    <path d="M 179.398125 71801.936363 
L 183.456307 71801.936363 
L 183.456307 71801.936363 
L 179.398125 71801.936363 
z
" clip-path="url(#pb2d94138bd)" style="fill: #1f77b4"/>
   </g>
   <g id="patch_32">
    <path d="M 183.456307 71801.936363 
L 187.514489 71801.936363 
L 187.514489 71801.936363 
L 183.456307 71801.936363 
z
" clip-path="url(#pb2d94138bd)" style="fill: #1f77b4"/>
   </g>
   <g id="patch_33">
    <path d="M 187.514489 71801.936363 
L 191.57267 71801.936363 
L 191.57267 71801.936363 
L 187.514489 71801.936363 
z
" clip-path="url(#pb2d94138bd)" style="fill: #1f77b4"/>
   </g>
   <g id="patch_34">
    <path d="M 191.57267 71801.936363 
L 195.630852 71801.936363 
L 195.630852 71801.936363 
L 191.57267 71801.936363 
z
" clip-path="url(#pb2d94138bd)" style="fill: #1f77b4"/>
   </g>
   <g id="patch_35">
    <path d="M 195.630852 71801.936363 
L 199.689034 71801.936363 
L 199.689034 71801.936363 
L 195.630852 71801.936363 
z
" clip-path="url(#pb2d94138bd)" style="fill: #1f77b4"/>
   </g>
   <g id="patch_36">
    <path d="M 199.689034 71801.936363 
L 203.747216 71801.936363 
L 203.747216 71801.936363 
L 199.689034 71801.936363 
z
" clip-path="url(#pb2d94138bd)" style="fill: #1f77b4"/>
   </g>
   <g id="patch_37">
    <path d="M 203.747216 71801.936363 
L 207.805398 71801.936363 
L 207.805398 71801.936363 
L 203.747216 71801.936363 
z
" clip-path="url(#pb2d94138bd)" style="fill: #1f77b4"/>
   </g>
   <g id="patch_38">
    <path d="M 207.805398 71801.936363 
L 211.86358 71801.936363 
L 211.86358 71801.936363 
L 207.805398 71801.936363 
z
" clip-path="url(#pb2d94138bd)" style="fill: #1f77b4"/>
   </g>
   <g id="patch_39">
    <path d="M 211.86358 71801.936363 
L 215.921761 71801.936363 
L 215.921761 71801.936363 
L 211.86358 71801.936363 
z
" clip-path="url(#pb2d94138bd)" style="fill: #1f77b4"/>
   </g>
   <g id="patch_40">
    <path d="M 215.921761 71801.936363 
L 219.979943 71801.936363 
L 219.979943 71801.936363 
L 215.921761 71801.936363 
z
" clip-path="url(#pb2d94138bd)" style="fill: #1f77b4"/>
   </g>
   <g id="patch_41">
    <path d="M 219.979943 71801.936363 
L 224.038125 71801.936363 
L 224.038125 71801.936363 
L 219.979943 71801.936363 
z
" clip-path="url(#pb2d94138bd)" style="fill: #1f77b4"/>
   </g>
   <g id="patch_42">
    <path d="M 224.038125 71801.936363 
L 228.096307 71801.936363 
L 228.096307 71801.936363 
L 224.038125 71801.936363 
z
" clip-path="url(#pb2d94138bd)" style="fill: #1f77b4"/>
   </g>
   <g id="patch_43">
    <path d="M 228.096307 71801.936363 
L 232.154489 71801.936363 
L 232.154489 71801.936363 
L 228.096307 71801.936363 
z
" clip-path="url(#pb2d94138bd)" style="fill: #1f77b4"/>
   </g>
   <g id="patch_44">
    <path d="M 232.154489 71801.936363 
L 236.21267 71801.936363 
L 236.21267 71801.936363 
L 232.154489 71801.936363 
z
" clip-path="url(#pb2d94138bd)" style="fill: #1f77b4"/>
   </g>
   <g id="patch_45">
    <path d="M 236.21267 71801.936363 
L 240.270852 71801.936363 
L 240.270852 71801.936363 
L 236.21267 71801.936363 
z
" clip-path="url(#pb2d94138bd)" style="fill: #1f77b4"/>
   </g>
   <g id="patch_46">
    <path d="M 240.270852 71801.936363 
L 244.329034 71801.936363 
L 244.329034 71801.936363 
L 240.270852 71801.936363 
z
" clip-path="url(#pb2d94138bd)" style="fill: #1f77b4"/>
   </g>
   <g id="patch_47">
    <path d="M 244.329034 71801.936363 
L 248.387216 71801.936363 
L 248.387216 71801.936363 
L 244.329034 71801.936363 
z
" clip-path="url(#pb2d94138bd)" style="fill: #1f77b4"/>
   </g>
   <g id="patch_48">
    <path d="M 248.387216 71801.936363 
L 252.445398 71801.936363 
L 252.445398 71801.936363 
L 248.387216 71801.936363 
z
" clip-path="url(#pb2d94138bd)" style="fill: #1f77b4"/>
   </g>
   <g id="patch_49">
    <path d="M 252.445398 71801.936363 
L 256.50358 71801.936363 
L 256.50358 71801.936363 
L 252.445398 71801.936363 
z
" clip-path="url(#pb2d94138bd)" style="fill: #1f77b4"/>
   </g>
   <g id="patch_50">
    <path d="M 256.50358 71801.936363 
L 260.561761 71801.936363 
L 260.561761 71801.936363 
L 256.50358 71801.936363 
z
" clip-path="url(#pb2d94138bd)" style="fill: #1f77b4"/>
   </g>
   <g id="patch_51">
    <path d="M 260.561761 71801.936363 
L 264.619943 71801.936363 
L 264.619943 71801.936363 
L 260.561761 71801.936363 
z
" clip-path="url(#pb2d94138bd)" style="fill: #1f77b4"/>
   </g>
   <g id="patch_52">
    <path d="M 264.619943 71801.936363 
L 268.678125 71801.936363 
L 268.678125 71801.936363 
L 264.619943 71801.936363 
z
" clip-path="url(#pb2d94138bd)" style="fill: #1f77b4"/>
   </g>
   <g id="patch_53">
    <path d="M 268.678125 71801.936363 
L 272.736307 71801.936363 
L 272.736307 71801.936363 
L 268.678125 71801.936363 
z
" clip-path="url(#pb2d94138bd)" style="fill: #1f77b4"/>
   </g>
   <g id="patch_54">
    <path d="M 272.736307 71801.936363 
L 276.794489 71801.936363 
L 276.794489 71801.936363 
L 272.736307 71801.936363 
z
" clip-path="url(#pb2d94138bd)" style="fill: #1f77b4"/>
   </g>
   <g id="patch_55">
    <path d="M 276.794489 71801.936363 
L 280.85267 71801.936363 
L 280.85267 71801.936363 
L 276.794489 71801.936363 
z
" clip-path="url(#pb2d94138bd)" style="fill: #1f77b4"/>
   </g>
   <g id="patch_56">
    <path d="M 280.85267 71801.936363 
L 284.910852 71801.936363 
L 284.910852 71801.936363 
L 280.85267 71801.936363 
z
" clip-path="url(#pb2d94138bd)" style="fill: #1f77b4"/>
   </g>
   <g id="patch_57">
    <path d="M 284.910852 71801.936363 
L 288.969034 71801.936363 
L 288.969034 71801.936363 
L 284.910852 71801.936363 
z
" clip-path="url(#pb2d94138bd)" style="fill: #1f77b4"/>
   </g>
   <g id="patch_58">
    <path d="M 288.969034 71801.936363 
L 293.027216 71801.936363 
L 293.027216 71801.936363 
L 288.969034 71801.936363 
z
" clip-path="url(#pb2d94138bd)" style="fill: #1f77b4"/>
   </g>
   <g id="patch_59">
    <path d="M 293.027216 71801.936363 
L 297.085398 71801.936363 
L 297.085398 71801.936363 
L 293.027216 71801.936363 
z
" clip-path="url(#pb2d94138bd)" style="fill: #1f77b4"/>
   </g>
   <g id="patch_60">
    <path d="M 297.085398 71801.936363 
L 301.14358 71801.936363 
L 301.14358 71801.936363 
L 297.085398 71801.936363 
z
" clip-path="url(#pb2d94138bd)" style="fill: #1f77b4"/>
   </g>
   <g id="patch_61">
    <path d="M 301.14358 71801.936363 
L 305.201761 71801.936363 
L 305.201761 71801.936363 
L 301.14358 71801.936363 
z
" clip-path="url(#pb2d94138bd)" style="fill: #1f77b4"/>
   </g>
   <g id="patch_62">
    <path d="M 305.201761 71801.936363 
L 309.259943 71801.936363 
L 309.259943 71801.936363 
L 305.201761 71801.936363 
z
" clip-path="url(#pb2d94138bd)" style="fill: #1f77b4"/>
   </g>
   <g id="patch_63">
    <path d="M 309.259943 71801.936363 
L 313.318125 71801.936363 
L 313.318125 71801.936363 
L 309.259943 71801.936363 
z
" clip-path="url(#pb2d94138bd)" style="fill: #1f77b4"/>
   </g>
   <g id="patch_64">
    <path d="M 313.318125 71801.936363 
L 317.376307 71801.936363 
L 317.376307 71801.936363 
L 313.318125 71801.936363 
z
" clip-path="url(#pb2d94138bd)" style="fill: #1f77b4"/>
   </g>
   <g id="patch_65">
    <path d="M 317.376307 71801.936363 
L 321.434489 71801.936363 
L 321.434489 71801.936363 
L 317.376307 71801.936363 
z
" clip-path="url(#pb2d94138bd)" style="fill: #1f77b4"/>
   </g>
   <g id="patch_66">
    <path d="M 321.434489 71801.936363 
L 325.49267 71801.936363 
L 325.49267 71801.936363 
L 321.434489 71801.936363 
z
" clip-path="url(#pb2d94138bd)" style="fill: #1f77b4"/>
   </g>
   <g id="patch_67">
    <path d="M 325.49267 71801.936363 
L 329.550852 71801.936363 
L 329.550852 71801.936363 
L 325.49267 71801.936363 
z
" clip-path="url(#pb2d94138bd)" style="fill: #1f77b4"/>
   </g>
   <g id="patch_68">
    <path d="M 329.550852 71801.936363 
L 333.609034 71801.936363 
L 333.609034 71801.936363 
L 329.550852 71801.936363 
z
" clip-path="url(#pb2d94138bd)" style="fill: #1f77b4"/>
   </g>
   <g id="patch_69">
    <path d="M 333.609034 71801.936363 
L 337.667216 71801.936363 
L 337.667216 71801.936363 
L 333.609034 71801.936363 
z
" clip-path="url(#pb2d94138bd)" style="fill: #1f77b4"/>
   </g>
   <g id="patch_70">
    <path d="M 337.667216 71801.936363 
L 341.725398 71801.936363 
L 341.725398 71801.936363 
L 337.667216 71801.936363 
z
" clip-path="url(#pb2d94138bd)" style="fill: #1f77b4"/>
   </g>
   <g id="patch_71">
    <path d="M 341.725398 71801.936363 
L 345.78358 71801.936363 
L 345.78358 71801.936363 
L 341.725398 71801.936363 
z
" clip-path="url(#pb2d94138bd)" style="fill: #1f77b4"/>
   </g>
   <g id="patch_72">
    <path d="M 345.78358 71801.936363 
L 349.841761 71801.936363 
L 349.841761 71801.936363 
L 345.78358 71801.936363 
z
" clip-path="url(#pb2d94138bd)" style="fill: #1f77b4"/>
   </g>
   <g id="patch_73">
    <path d="M 349.841761 71801.936363 
L 353.899943 71801.936363 
L 353.899943 71801.936363 
L 349.841761 71801.936363 
z
" clip-path="url(#pb2d94138bd)" style="fill: #1f77b4"/>
   </g>
   <g id="patch_74">
    <path d="M 353.899943 71801.936363 
L 357.958125 71801.936363 
L 357.958125 71801.936363 
L 353.899943 71801.936363 
z
" clip-path="url(#pb2d94138bd)" style="fill: #1f77b4"/>
   </g>
   <g id="patch_75">
    <path d="M 357.958125 71801.936363 
L 362.016307 71801.936363 
L 362.016307 71801.936363 
L 357.958125 71801.936363 
z
" clip-path="url(#pb2d94138bd)" style="fill: #1f77b4"/>
   </g>
   <g id="patch_76">
    <path d="M 362.016307 71801.936363 
L 366.074489 71801.936363 
L 366.074489 71801.936363 
L 362.016307 71801.936363 
z
" clip-path="url(#pb2d94138bd)" style="fill: #1f77b4"/>
   </g>
   <g id="patch_77">
    <path d="M 366.074489 71801.936363 
L 370.13267 71801.936363 
L 370.13267 71801.936363 
L 366.074489 71801.936363 
z
" clip-path="url(#pb2d94138bd)" style="fill: #1f77b4"/>
   </g>
   <g id="patch_78">
    <path d="M 370.13267 71801.936363 
L 374.190852 71801.936363 
L 374.190852 71801.936363 
L 370.13267 71801.936363 
z
" clip-path="url(#pb2d94138bd)" style="fill: #1f77b4"/>
   </g>
   <g id="patch_79">
    <path d="M 374.190852 71801.936363 
L 378.249034 71801.936363 
L 378.249034 71801.936363 
L 374.190852 71801.936363 
z
" clip-path="url(#pb2d94138bd)" style="fill: #1f77b4"/>
   </g>
   <g id="patch_80">
    <path d="M 378.249034 71801.936363 
L 382.307216 71801.936363 
L 382.307216 71801.936363 
L 378.249034 71801.936363 
z
" clip-path="url(#pb2d94138bd)" style="fill: #1f77b4"/>
   </g>
   <g id="patch_81">
    <path d="M 382.307216 71801.936363 
L 386.365398 71801.936363 
L 386.365398 71801.936363 
L 382.307216 71801.936363 
z
" clip-path="url(#pb2d94138bd)" style="fill: #1f77b4"/>
   </g>
   <g id="patch_82">
    <path d="M 386.365398 71801.936363 
L 390.42358 71801.936363 
L 390.42358 71801.936363 
L 386.365398 71801.936363 
z
" clip-path="url(#pb2d94138bd)" style="fill: #1f77b4"/>
   </g>
   <g id="patch_83">
    <path d="M 390.42358 71801.936363 
L 394.481761 71801.936363 
L 394.481761 71801.936363 
L 390.42358 71801.936363 
z
" clip-path="url(#pb2d94138bd)" style="fill: #1f77b4"/>
   </g>
   <g id="patch_84">
    <path d="M 394.481761 71801.936363 
L 398.539943 71801.936363 
L 398.539943 71801.936363 
L 394.481761 71801.936363 
z
" clip-path="url(#pb2d94138bd)" style="fill: #1f77b4"/>
   </g>
   <g id="patch_85">
    <path d="M 398.539943 71801.936363 
L 402.598125 71801.936363 
L 402.598125 71801.936363 
L 398.539943 71801.936363 
z
" clip-path="url(#pb2d94138bd)" style="fill: #1f77b4"/>
   </g>
   <g id="patch_86">
    <path d="M 402.598125 71801.936363 
L 406.656307 71801.936363 
L 406.656307 71801.936363 
L 402.598125 71801.936363 
z
" clip-path="url(#pb2d94138bd)" style="fill: #1f77b4"/>
   </g>
   <g id="patch_87">
    <path d="M 406.656307 71801.936363 
L 410.714489 71801.936363 
L 410.714489 71801.936363 
L 406.656307 71801.936363 
z
" clip-path="url(#pb2d94138bd)" style="fill: #1f77b4"/>
   </g>
   <g id="patch_88">
    <path d="M 410.714489 71801.936363 
L 414.77267 71801.936363 
L 414.77267 71801.936363 
L 410.714489 71801.936363 
z
" clip-path="url(#pb2d94138bd)" style="fill: #1f77b4"/>
   </g>
   <g id="patch_89">
    <path d="M 414.77267 71801.936363 
L 418.830852 71801.936363 
L 418.830852 71801.936363 
L 414.77267 71801.936363 
z
" clip-path="url(#pb2d94138bd)" style="fill: #1f77b4"/>
   </g>
   <g id="patch_90">
    <path d="M 418.830852 71801.936363 
L 422.889034 71801.936363 
L 422.889034 71801.936363 
L 418.830852 71801.936363 
z
" clip-path="url(#pb2d94138bd)" style="fill: #1f77b4"/>
   </g>
   <g id="patch_91">
    <path d="M 422.889034 71801.936363 
L 426.947216 71801.936363 
L 426.947216 71801.936363 
L 422.889034 71801.936363 
z
" clip-path="url(#pb2d94138bd)" style="fill: #1f77b4"/>
   </g>
   <g id="patch_92">
    <path d="M 426.947216 71801.936363 
L 431.005398 71801.936363 
L 431.005398 71801.936363 
L 426.947216 71801.936363 
z
" clip-path="url(#pb2d94138bd)" style="fill: #1f77b4"/>
   </g>
   <g id="patch_93">
    <path d="M 431.005398 71801.936363 
L 435.06358 71801.936363 
L 435.06358 71801.936363 
L 431.005398 71801.936363 
z
" clip-path="url(#pb2d94138bd)" style="fill: #1f77b4"/>
   </g>
   <g id="patch_94">
    <path d="M 435.06358 71801.936363 
L 439.121761 71801.936363 
L 439.121761 71801.936363 
L 435.06358 71801.936363 
z
" clip-path="url(#pb2d94138bd)" style="fill: #1f77b4"/>
   </g>
   <g id="patch_95">
    <path d="M 439.121761 71801.936363 
L 443.179943 71801.936363 
L 443.179943 71801.936363 
L 439.121761 71801.936363 
z
" clip-path="url(#pb2d94138bd)" style="fill: #1f77b4"/>
   </g>
   <g id="patch_96">
    <path d="M 443.179943 71801.936363 
L 447.238125 71801.936363 
L 447.238125 71801.936363 
L 443.179943 71801.936363 
z
" clip-path="url(#pb2d94138bd)" style="fill: #1f77b4"/>
   </g>
   <g id="patch_97">
    <path d="M 447.238125 71801.936363 
L 451.296307 71801.936363 
L 451.296307 71801.936363 
L 447.238125 71801.936363 
z
" clip-path="url(#pb2d94138bd)" style="fill: #1f77b4"/>
   </g>
   <g id="patch_98">
    <path d="M 451.296307 71801.936363 
L 455.354489 71801.936363 
L 455.354489 71801.936363 
L 451.296307 71801.936363 
z
" clip-path="url(#pb2d94138bd)" style="fill: #1f77b4"/>
   </g>
   <g id="patch_99">
    <path d="M 455.354489 71801.936363 
L 459.41267 71801.936363 
L 459.41267 71801.936363 
L 455.354489 71801.936363 
z
" clip-path="url(#pb2d94138bd)" style="fill: #1f77b4"/>
   </g>
   <g id="patch_100">
    <path d="M 459.41267 71801.936363 
L 463.470852 71801.936363 
L 463.470852 71801.936363 
L 459.41267 71801.936363 
z
" clip-path="url(#pb2d94138bd)" style="fill: #1f77b4"/>
   </g>
   <g id="patch_101">
    <path d="M 463.470852 71801.936363 
L 467.529034 71801.936363 
L 467.529034 71801.936363 
L 463.470852 71801.936363 
z
" clip-path="url(#pb2d94138bd)" style="fill: #1f77b4"/>
   </g>
   <g id="patch_102">
    <path d="M 467.529034 71801.936363 
L 471.587216 71801.936363 
L 471.587216 233.998125 
L 467.529034 233.998125 
z
" clip-path="url(#pb2d94138bd)" style="fill: #1f77b4"/>
   </g>
   <g id="matplotlib.axis_1">
    <g id="xtick_1">
     <g id="line2d_1">
      <defs>
       <path id="md0f7d7321f" d="M 0 0 
L 0 3.5 
" style="stroke: #000000; stroke-width: 0.8"/>
      </defs>
      <g>
       <use xlink:href="#md0f7d7321f" x="65.769034" y="244.078125" style="stroke: #000000; stroke-width: 0.8"/>
      </g>
     </g>
     <g id="text_1">
      <!-- 0.000 -->
      <g transform="translate(51.454972 258.676562) scale(0.1 -0.1)">
       <defs>
        <path id="DejaVuSans-30" d="M 2034 4250 
Q 1547 4250 1301 3770 
Q 1056 3291 1056 2328 
Q 1056 1369 1301 889 
Q 1547 409 2034 409 
Q 2525 409 2770 889 
Q 3016 1369 3016 2328 
Q 3016 3291 2770 3770 
Q 2525 4250 2034 4250 
z
M 2034 4750 
Q 2819 4750 3233 4129 
Q 3647 3509 3647 2328 
Q 3647 1150 3233 529 
Q 2819 -91 2034 -91 
Q 1250 -91 836 529 
Q 422 1150 422 2328 
Q 422 3509 836 4129 
Q 1250 4750 2034 4750 
z
" transform="scale(0.015625)"/>
        <path id="DejaVuSans-2e" d="M 684 794 
L 1344 794 
L 1344 0 
L 684 0 
L 684 794 
z
" transform="scale(0.015625)"/>
       </defs>
       <use xlink:href="#DejaVuSans-30"/>
       <use xlink:href="#DejaVuSans-2e" transform="translate(63.623047 0)"/>
       <use xlink:href="#DejaVuSans-30" transform="translate(95.410156 0)"/>
       <use xlink:href="#DejaVuSans-30" transform="translate(159.033203 0)"/>
       <use xlink:href="#DejaVuSans-30" transform="translate(222.65625 0)"/>
      </g>
     </g>
    </g>
    <g id="xtick_2">
     <g id="line2d_2">
      <g>
       <use xlink:href="#md0f7d7321f" x="124.968233" y="244.078125" style="stroke: #000000; stroke-width: 0.8"/>
      </g>
     </g>
     <g id="text_2">
      <!-- 0.025 -->
      <g transform="translate(110.65417 258.676562) scale(0.1 -0.1)">
       <defs>
        <path id="DejaVuSans-32" d="M 1228 531 
L 3431 531 
L 3431 0 
L 469 0 
L 469 531 
Q 828 903 1448 1529 
Q 2069 2156 2228 2338 
Q 2531 2678 2651 2914 
Q 2772 3150 2772 3378 
Q 2772 3750 2511 3984 
Q 2250 4219 1831 4219 
Q 1534 4219 1204 4116 
Q 875 4013 500 3803 
L 500 4441 
Q 881 4594 1212 4672 
Q 1544 4750 1819 4750 
Q 2544 4750 2975 4387 
Q 3406 4025 3406 3419 
Q 3406 3131 3298 2873 
Q 3191 2616 2906 2266 
Q 2828 2175 2409 1742 
Q 1991 1309 1228 531 
z
" transform="scale(0.015625)"/>
        <path id="DejaVuSans-35" d="M 691 4666 
L 3169 4666 
L 3169 4134 
L 1269 4134 
L 1269 2991 
Q 1406 3038 1543 3061 
Q 1681 3084 1819 3084 
Q 2600 3084 3056 2656 
Q 3513 2228 3513 1497 
Q 3513 744 3044 326 
Q 2575 -91 1722 -91 
Q 1428 -91 1123 -41 
Q 819 9 494 109 
L 494 744 
Q 775 591 1075 516 
Q 1375 441 1709 441 
Q 2250 441 2565 725 
Q 2881 1009 2881 1497 
Q 2881 1984 2565 2268 
Q 2250 2553 1709 2553 
Q 1456 2553 1204 2497 
Q 953 2441 691 2322 
L 691 4666 
z
" transform="scale(0.015625)"/>
       </defs>
       <use xlink:href="#DejaVuSans-30"/>
       <use xlink:href="#DejaVuSans-2e" transform="translate(63.623047 0)"/>
       <use xlink:href="#DejaVuSans-30" transform="translate(95.410156 0)"/>
       <use xlink:href="#DejaVuSans-32" transform="translate(159.033203 0)"/>
       <use xlink:href="#DejaVuSans-35" transform="translate(222.65625 0)"/>
      </g>
     </g>
    </g>
    <g id="xtick_3">
     <g id="line2d_3">
      <g>
       <use xlink:href="#md0f7d7321f" x="184.167431" y="244.078125" style="stroke: #000000; stroke-width: 0.8"/>
      </g>
     </g>
     <g id="text_3">
      <!-- 0.050 -->
      <g transform="translate(169.853369 258.676562) scale(0.1 -0.1)">
       <use xlink:href="#DejaVuSans-30"/>
       <use xlink:href="#DejaVuSans-2e" transform="translate(63.623047 0)"/>
       <use xlink:href="#DejaVuSans-30" transform="translate(95.410156 0)"/>
       <use xlink:href="#DejaVuSans-35" transform="translate(159.033203 0)"/>
       <use xlink:href="#DejaVuSans-30" transform="translate(222.65625 0)"/>
      </g>
     </g>
    </g>
    <g id="xtick_4">
     <g id="line2d_4">
      <g>
       <use xlink:href="#md0f7d7321f" x="243.366629" y="244.078125" style="stroke: #000000; stroke-width: 0.8"/>
      </g>
     </g>
     <g id="text_4">
      <!-- 0.075 -->
      <g transform="translate(229.052567 258.676562) scale(0.1 -0.1)">
       <defs>
        <path id="DejaVuSans-37" d="M 525 4666 
L 3525 4666 
L 3525 4397 
L 1831 0 
L 1172 0 
L 2766 4134 
L 525 4134 
L 525 4666 
z
" transform="scale(0.015625)"/>
       </defs>
       <use xlink:href="#DejaVuSans-30"/>
       <use xlink:href="#DejaVuSans-2e" transform="translate(63.623047 0)"/>
       <use xlink:href="#DejaVuSans-30" transform="translate(95.410156 0)"/>
       <use xlink:href="#DejaVuSans-37" transform="translate(159.033203 0)"/>
       <use xlink:href="#DejaVuSans-35" transform="translate(222.65625 0)"/>
      </g>
     </g>
    </g>
    <g id="xtick_5">
     <g id="line2d_5">
      <g>
       <use xlink:href="#md0f7d7321f" x="302.565828" y="244.078125" style="stroke: #000000; stroke-width: 0.8"/>
      </g>
     </g>
     <g id="text_5">
      <!-- 0.100 -->
      <g transform="translate(288.251765 258.676562) scale(0.1 -0.1)">
       <defs>
        <path id="DejaVuSans-31" d="M 794 531 
L 1825 531 
L 1825 4091 
L 703 3866 
L 703 4441 
L 1819 4666 
L 2450 4666 
L 2450 531 
L 3481 531 
L 3481 0 
L 794 0 
L 794 531 
z
" transform="scale(0.015625)"/>
       </defs>
       <use xlink:href="#DejaVuSans-30"/>
       <use xlink:href="#DejaVuSans-2e" transform="translate(63.623047 0)"/>
       <use xlink:href="#DejaVuSans-31" transform="translate(95.410156 0)"/>
       <use xlink:href="#DejaVuSans-30" transform="translate(159.033203 0)"/>
       <use xlink:href="#DejaVuSans-30" transform="translate(222.65625 0)"/>
      </g>
     </g>
    </g>
    <g id="xtick_6">
     <g id="line2d_6">
      <g>
       <use xlink:href="#md0f7d7321f" x="361.765026" y="244.078125" style="stroke: #000000; stroke-width: 0.8"/>
      </g>
     </g>
     <g id="text_6">
      <!-- 0.125 -->
      <g transform="translate(347.450964 258.676562) scale(0.1 -0.1)">
       <use xlink:href="#DejaVuSans-30"/>
       <use xlink:href="#DejaVuSans-2e" transform="translate(63.623047 0)"/>
       <use xlink:href="#DejaVuSans-31" transform="translate(95.410156 0)"/>
       <use xlink:href="#DejaVuSans-32" transform="translate(159.033203 0)"/>
       <use xlink:href="#DejaVuSans-35" transform="translate(222.65625 0)"/>
      </g>
     </g>
    </g>
    <g id="xtick_7">
     <g id="line2d_7">
      <g>
       <use xlink:href="#md0f7d7321f" x="420.964225" y="244.078125" style="stroke: #000000; stroke-width: 0.8"/>
      </g>
     </g>
     <g id="text_7">
      <!-- 0.150 -->
      <g transform="translate(406.650162 258.676562) scale(0.1 -0.1)">
       <use xlink:href="#DejaVuSans-30"/>
       <use xlink:href="#DejaVuSans-2e" transform="translate(63.623047 0)"/>
       <use xlink:href="#DejaVuSans-31" transform="translate(95.410156 0)"/>
       <use xlink:href="#DejaVuSans-35" transform="translate(159.033203 0)"/>
       <use xlink:href="#DejaVuSans-30" transform="translate(222.65625 0)"/>
      </g>
     </g>
    </g>
    <g id="xtick_8">
     <g id="line2d_8">
      <g>
       <use xlink:href="#md0f7d7321f" x="480.163423" y="244.078125" style="stroke: #000000; stroke-width: 0.8"/>
      </g>
     </g>
     <g id="text_8">
      <!-- 0.175 -->
      <g transform="translate(465.849361 258.676562) scale(0.1 -0.1)">
       <use xlink:href="#DejaVuSans-30"/>
       <use xlink:href="#DejaVuSans-2e" transform="translate(63.623047 0)"/>
       <use xlink:href="#DejaVuSans-31" transform="translate(95.410156 0)"/>
       <use xlink:href="#DejaVuSans-37" transform="translate(159.033203 0)"/>
       <use xlink:href="#DejaVuSans-35" transform="translate(222.65625 0)"/>
      </g>
     </g>
    </g>
    <g id="text_9">
     <!-- Score -->
     <g transform="translate(254.675781 272.354687) scale(0.1 -0.1)">
      <defs>
       <path id="DejaVuSans-53" d="M 3425 4513 
L 3425 3897 
Q 3066 4069 2747 4153 
Q 2428 4238 2131 4238 
Q 1616 4238 1336 4038 
Q 1056 3838 1056 3469 
Q 1056 3159 1242 3001 
Q 1428 2844 1947 2747 
L 2328 2669 
Q 3034 2534 3370 2195 
Q 3706 1856 3706 1288 
Q 3706 609 3251 259 
Q 2797 -91 1919 -91 
Q 1588 -91 1214 -16 
Q 841 59 441 206 
L 441 856 
Q 825 641 1194 531 
Q 1563 422 1919 422 
Q 2459 422 2753 634 
Q 3047 847 3047 1241 
Q 3047 1584 2836 1778 
Q 2625 1972 2144 2069 
L 1759 2144 
Q 1053 2284 737 2584 
Q 422 2884 422 3419 
Q 422 4038 858 4394 
Q 1294 4750 2059 4750 
Q 2388 4750 2728 4690 
Q 3069 4631 3425 4513 
z
" transform="scale(0.015625)"/>
       <path id="DejaVuSans-63" d="M 3122 3366 
L 3122 2828 
Q 2878 2963 2633 3030 
Q 2388 3097 2138 3097 
Q 1578 3097 1268 2742 
Q 959 2388 959 1747 
Q 959 1106 1268 751 
Q 1578 397 2138 397 
Q 2388 397 2633 464 
Q 2878 531 3122 666 
L 3122 134 
Q 2881 22 2623 -34 
Q 2366 -91 2075 -91 
Q 1284 -91 818 406 
Q 353 903 353 1747 
Q 353 2603 823 3093 
Q 1294 3584 2113 3584 
Q 2378 3584 2631 3529 
Q 2884 3475 3122 3366 
z
" transform="scale(0.015625)"/>
       <path id="DejaVuSans-6f" d="M 1959 3097 
Q 1497 3097 1228 2736 
Q 959 2375 959 1747 
Q 959 1119 1226 758 
Q 1494 397 1959 397 
Q 2419 397 2687 759 
Q 2956 1122 2956 1747 
Q 2956 2369 2687 2733 
Q 2419 3097 1959 3097 
z
M 1959 3584 
Q 2709 3584 3137 3096 
Q 3566 2609 3566 1747 
Q 3566 888 3137 398 
Q 2709 -91 1959 -91 
Q 1206 -91 779 398 
Q 353 888 353 1747 
Q 353 2609 779 3096 
Q 1206 3584 1959 3584 
z
" transform="scale(0.015625)"/>
       <path id="DejaVuSans-72" d="M 2631 2963 
Q 2534 3019 2420 3045 
Q 2306 3072 2169 3072 
Q 1681 3072 1420 2755 
Q 1159 2438 1159 1844 
L 1159 0 
L 581 0 
L 581 3500 
L 1159 3500 
L 1159 2956 
Q 1341 3275 1631 3429 
Q 1922 3584 2338 3584 
Q 2397 3584 2469 3576 
Q 2541 3569 2628 3553 
L 2631 2963 
z
" transform="scale(0.015625)"/>
       <path id="DejaVuSans-65" d="M 3597 1894 
L 3597 1613 
L 953 1613 
Q 991 1019 1311 708 
Q 1631 397 2203 397 
Q 2534 397 2845 478 
Q 3156 559 3463 722 
L 3463 178 
Q 3153 47 2828 -22 
Q 2503 -91 2169 -91 
Q 1331 -91 842 396 
Q 353 884 353 1716 
Q 353 2575 817 3079 
Q 1281 3584 2069 3584 
Q 2775 3584 3186 3129 
Q 3597 2675 3597 1894 
z
M 3022 2063 
Q 3016 2534 2758 2815 
Q 2500 3097 2075 3097 
Q 1594 3097 1305 2825 
Q 1016 2553 972 2059 
L 3022 2063 
z
" transform="scale(0.015625)"/>
      </defs>
      <use xlink:href="#DejaVuSans-53"/>
      <use xlink:href="#DejaVuSans-63" transform="translate(63.476562 0)"/>
      <use xlink:href="#DejaVuSans-6f" transform="translate(118.457031 0)"/>
      <use xlink:href="#DejaVuSans-72" transform="translate(179.638672 0)"/>
      <use xlink:href="#DejaVuSans-65" transform="translate(218.501953 0)"/>
     </g>
    </g>
   </g>
   <g id="matplotlib.axis_2">
    <g id="ytick_1">
     <g id="line2d_9">
      <path d="M 45.478125 233.998125 
L 491.878125 233.998125 
" clip-path="url(#pb2d94138bd)" style="fill: none; stroke-dasharray: 2.96,1.28; stroke-dashoffset: 0; stroke: #b0b0b0; stroke-width: 0.8"/>
     </g>
     <g id="line2d_10">
      <defs>
       <path id="mfe334869f5" d="M 0 0 
L -3.5 0 
" style="stroke: #000000; stroke-width: 0.8"/>
      </defs>
      <g>
       <use xlink:href="#mfe334869f5" x="45.478125" y="233.998125" style="stroke: #000000; stroke-width: 0.8"/>
      </g>
     </g>
     <g id="text_10">
      <!-- $\mathdefault{10^{0}}$ -->
      <g transform="translate(20.878125 237.797344) scale(0.1 -0.1)">
       <use xlink:href="#DejaVuSans-31" transform="translate(0 0.765625)"/>
       <use xlink:href="#DejaVuSans-30" transform="translate(63.623047 0.765625)"/>
       <use xlink:href="#DejaVuSans-30" transform="translate(128.203125 39.046875) scale(0.7)"/>
      </g>
     </g>
    </g>
    <g id="ytick_2">
     <g id="line2d_11">
      <path d="M 45.478125 162.430187 
L 491.878125 162.430187 
" clip-path="url(#pb2d94138bd)" style="fill: none; stroke-dasharray: 2.96,1.28; stroke-dashoffset: 0; stroke: #b0b0b0; stroke-width: 0.8"/>
     </g>
     <g id="line2d_12">
      <g>
       <use xlink:href="#mfe334869f5" x="45.478125" y="162.430187" style="stroke: #000000; stroke-width: 0.8"/>
      </g>
     </g>
     <g id="text_11">
      <!-- $\mathdefault{10^{1}}$ -->
      <g transform="translate(20.878125 166.229406) scale(0.1 -0.1)">
       <use xlink:href="#DejaVuSans-31" transform="translate(0 0.684375)"/>
       <use xlink:href="#DejaVuSans-30" transform="translate(63.623047 0.684375)"/>
       <use xlink:href="#DejaVuSans-31" transform="translate(128.203125 38.965625) scale(0.7)"/>
      </g>
     </g>
    </g>
    <g id="ytick_3">
     <g id="line2d_13">
      <path d="M 45.478125 90.862249 
L 491.878125 90.862249 
" clip-path="url(#pb2d94138bd)" style="fill: none; stroke-dasharray: 2.96,1.28; stroke-dashoffset: 0; stroke: #b0b0b0; stroke-width: 0.8"/>
     </g>
     <g id="line2d_14">
      <g>
       <use xlink:href="#mfe334869f5" x="45.478125" y="90.862249" style="stroke: #000000; stroke-width: 0.8"/>
      </g>
     </g>
     <g id="text_12">
      <!-- $\mathdefault{10^{2}}$ -->
      <g transform="translate(20.878125 94.661467) scale(0.1 -0.1)">
       <use xlink:href="#DejaVuSans-31" transform="translate(0 0.765625)"/>
       <use xlink:href="#DejaVuSans-30" transform="translate(63.623047 0.765625)"/>
       <use xlink:href="#DejaVuSans-32" transform="translate(128.203125 39.046875) scale(0.7)"/>
      </g>
     </g>
    </g>
    <g id="ytick_4">
     <g id="line2d_15">
      <defs>
       <path id="m362a87e281" d="M 0 0 
L -2 0 
" style="stroke: #000000; stroke-width: 0.6"/>
      </defs>
      <g>
       <use xlink:href="#m362a87e281" x="45.478125" y="240.933775" style="stroke: #000000; stroke-width: 0.6"/>
      </g>
     </g>
    </g>
    <g id="ytick_5">
     <g id="line2d_16">
      <g>
       <use xlink:href="#m362a87e281" x="45.478125" y="237.272894" style="stroke: #000000; stroke-width: 0.6"/>
      </g>
     </g>
    </g>
    <g id="ytick_6">
     <g id="line2d_17">
      <g>
       <use xlink:href="#m362a87e281" x="45.478125" y="212.454029" style="stroke: #000000; stroke-width: 0.6"/>
      </g>
     </g>
    </g>
    <g id="ytick_7">
     <g id="line2d_18">
      <g>
       <use xlink:href="#m362a87e281" x="45.478125" y="199.851541" style="stroke: #000000; stroke-width: 0.6"/>
      </g>
     </g>
    </g>
    <g id="ytick_8">
     <g id="line2d_19">
      <g>
       <use xlink:href="#m362a87e281" x="45.478125" y="190.909933" style="stroke: #000000; stroke-width: 0.6"/>
      </g>
     </g>
    </g>
    <g id="ytick_9">
     <g id="line2d_20">
      <g>
       <use xlink:href="#m362a87e281" x="45.478125" y="183.974283" style="stroke: #000000; stroke-width: 0.6"/>
      </g>
     </g>
    </g>
    <g id="ytick_10">
     <g id="line2d_21">
      <g>
       <use xlink:href="#m362a87e281" x="45.478125" y="178.307444" style="stroke: #000000; stroke-width: 0.6"/>
      </g>
     </g>
    </g>
    <g id="ytick_11">
     <g id="line2d_22">
      <g>
       <use xlink:href="#m362a87e281" x="45.478125" y="173.516201" style="stroke: #000000; stroke-width: 0.6"/>
      </g>
     </g>
    </g>
    <g id="ytick_12">
     <g id="line2d_23">
      <g>
       <use xlink:href="#m362a87e281" x="45.478125" y="169.365837" style="stroke: #000000; stroke-width: 0.6"/>
      </g>
     </g>
    </g>
    <g id="ytick_13">
     <g id="line2d_24">
      <g>
       <use xlink:href="#m362a87e281" x="45.478125" y="165.704956" style="stroke: #000000; stroke-width: 0.6"/>
      </g>
     </g>
    </g>
    <g id="ytick_14">
     <g id="line2d_25">
      <g>
       <use xlink:href="#m362a87e281" x="45.478125" y="140.886091" style="stroke: #000000; stroke-width: 0.6"/>
      </g>
     </g>
    </g>
    <g id="ytick_15">
     <g id="line2d_26">
      <g>
       <use xlink:href="#m362a87e281" x="45.478125" y="128.283602" style="stroke: #000000; stroke-width: 0.6"/>
      </g>
     </g>
    </g>
    <g id="ytick_16">
     <g id="line2d_27">
      <g>
       <use xlink:href="#m362a87e281" x="45.478125" y="119.341994" style="stroke: #000000; stroke-width: 0.6"/>
      </g>
     </g>
    </g>
    <g id="ytick_17">
     <g id="line2d_28">
      <g>
       <use xlink:href="#m362a87e281" x="45.478125" y="112.406345" style="stroke: #000000; stroke-width: 0.6"/>
      </g>
     </g>
    </g>
    <g id="ytick_18">
     <g id="line2d_29">
      <g>
       <use xlink:href="#m362a87e281" x="45.478125" y="106.739506" style="stroke: #000000; stroke-width: 0.6"/>
      </g>
     </g>
    </g>
    <g id="ytick_19">
     <g id="line2d_30">
      <g>
       <use xlink:href="#m362a87e281" x="45.478125" y="101.948262" style="stroke: #000000; stroke-width: 0.6"/>
      </g>
     </g>
    </g>
    <g id="ytick_20">
     <g id="line2d_31">
      <g>
       <use xlink:href="#m362a87e281" x="45.478125" y="97.797898" style="stroke: #000000; stroke-width: 0.6"/>
      </g>
     </g>
    </g>
    <g id="ytick_21">
     <g id="line2d_32">
      <g>
       <use xlink:href="#m362a87e281" x="45.478125" y="94.137018" style="stroke: #000000; stroke-width: 0.6"/>
      </g>
     </g>
    </g>
    <g id="ytick_22">
     <g id="line2d_33">
      <g>
       <use xlink:href="#m362a87e281" x="45.478125" y="69.318152" style="stroke: #000000; stroke-width: 0.6"/>
      </g>
     </g>
    </g>
    <g id="ytick_23">
     <g id="line2d_34">
      <g>
       <use xlink:href="#m362a87e281" x="45.478125" y="56.715664" style="stroke: #000000; stroke-width: 0.6"/>
      </g>
     </g>
    </g>
    <g id="ytick_24">
     <g id="line2d_35">
      <g>
       <use xlink:href="#m362a87e281" x="45.478125" y="47.774056" style="stroke: #000000; stroke-width: 0.6"/>
      </g>
     </g>
    </g>
    <g id="ytick_25">
     <g id="line2d_36">
      <g>
       <use xlink:href="#m362a87e281" x="45.478125" y="40.838406" style="stroke: #000000; stroke-width: 0.6"/>
      </g>
     </g>
    </g>
    <g id="ytick_26">
     <g id="line2d_37">
      <g>
       <use xlink:href="#m362a87e281" x="45.478125" y="35.171568" style="stroke: #000000; stroke-width: 0.6"/>
      </g>
     </g>
    </g>
    <g id="ytick_27">
     <g id="line2d_38">
      <g>
       <use xlink:href="#m362a87e281" x="45.478125" y="30.380324" style="stroke: #000000; stroke-width: 0.6"/>
      </g>
     </g>
    </g>
    <g id="ytick_28">
     <g id="line2d_39">
      <g>
       <use xlink:href="#m362a87e281" x="45.478125" y="26.22996" style="stroke: #000000; stroke-width: 0.6"/>
      </g>
     </g>
    </g>
    <g id="ytick_29">
     <g id="line2d_40">
      <g>
       <use xlink:href="#m362a87e281" x="45.478125" y="22.56908" style="stroke: #000000; stroke-width: 0.6"/>
      </g>
     </g>
    </g>
    <g id="text_13">
     <!-- Number of cells -->
     <g transform="translate(14.798438 172.490312) rotate(-90) scale(0.1 -0.1)">
      <defs>
       <path id="DejaVuSans-4e" d="M 628 4666 
L 1478 4666 
L 3547 763 
L 3547 4666 
L 4159 4666 
L 4159 0 
L 3309 0 
L 1241 3903 
L 1241 0 
L 628 0 
L 628 4666 
z
" transform="scale(0.015625)"/>
       <path id="DejaVuSans-75" d="M 544 1381 
L 544 3500 
L 1119 3500 
L 1119 1403 
Q 1119 906 1312 657 
Q 1506 409 1894 409 
Q 2359 409 2629 706 
Q 2900 1003 2900 1516 
L 2900 3500 
L 3475 3500 
L 3475 0 
L 2900 0 
L 2900 538 
Q 2691 219 2414 64 
Q 2138 -91 1772 -91 
Q 1169 -91 856 284 
Q 544 659 544 1381 
z
M 1991 3584 
L 1991 3584 
z
" transform="scale(0.015625)"/>
       <path id="DejaVuSans-6d" d="M 3328 2828 
Q 3544 3216 3844 3400 
Q 4144 3584 4550 3584 
Q 5097 3584 5394 3201 
Q 5691 2819 5691 2113 
L 5691 0 
L 5113 0 
L 5113 2094 
Q 5113 2597 4934 2840 
Q 4756 3084 4391 3084 
Q 3944 3084 3684 2787 
Q 3425 2491 3425 1978 
L 3425 0 
L 2847 0 
L 2847 2094 
Q 2847 2600 2669 2842 
Q 2491 3084 2119 3084 
Q 1678 3084 1418 2786 
Q 1159 2488 1159 1978 
L 1159 0 
L 581 0 
L 581 3500 
L 1159 3500 
L 1159 2956 
Q 1356 3278 1631 3431 
Q 1906 3584 2284 3584 
Q 2666 3584 2933 3390 
Q 3200 3197 3328 2828 
z
" transform="scale(0.015625)"/>
       <path id="DejaVuSans-62" d="M 3116 1747 
Q 3116 2381 2855 2742 
Q 2594 3103 2138 3103 
Q 1681 3103 1420 2742 
Q 1159 2381 1159 1747 
Q 1159 1113 1420 752 
Q 1681 391 2138 391 
Q 2594 391 2855 752 
Q 3116 1113 3116 1747 
z
M 1159 2969 
Q 1341 3281 1617 3432 
Q 1894 3584 2278 3584 
Q 2916 3584 3314 3078 
Q 3713 2572 3713 1747 
Q 3713 922 3314 415 
Q 2916 -91 2278 -91 
Q 1894 -91 1617 61 
Q 1341 213 1159 525 
L 1159 0 
L 581 0 
L 581 4863 
L 1159 4863 
L 1159 2969 
z
" transform="scale(0.015625)"/>
       <path id="DejaVuSans-20" transform="scale(0.015625)"/>
       <path id="DejaVuSans-66" d="M 2375 4863 
L 2375 4384 
L 1825 4384 
Q 1516 4384 1395 4259 
Q 1275 4134 1275 3809 
L 1275 3500 
L 2222 3500 
L 2222 3053 
L 1275 3053 
L 1275 0 
L 697 0 
L 697 3053 
L 147 3053 
L 147 3500 
L 697 3500 
L 697 3744 
Q 697 4328 969 4595 
Q 1241 4863 1831 4863 
L 2375 4863 
z
" transform="scale(0.015625)"/>
       <path id="DejaVuSans-6c" d="M 603 4863 
L 1178 4863 
L 1178 0 
L 603 0 
L 603 4863 
z
" transform="scale(0.015625)"/>
       <path id="DejaVuSans-73" d="M 2834 3397 
L 2834 2853 
Q 2591 2978 2328 3040 
Q 2066 3103 1784 3103 
Q 1356 3103 1142 2972 
Q 928 2841 928 2578 
Q 928 2378 1081 2264 
Q 1234 2150 1697 2047 
L 1894 2003 
Q 2506 1872 2764 1633 
Q 3022 1394 3022 966 
Q 3022 478 2636 193 
Q 2250 -91 1575 -91 
Q 1294 -91 989 -36 
Q 684 19 347 128 
L 347 722 
Q 666 556 975 473 
Q 1284 391 1588 391 
Q 1994 391 2212 530 
Q 2431 669 2431 922 
Q 2431 1156 2273 1281 
Q 2116 1406 1581 1522 
L 1381 1569 
Q 847 1681 609 1914 
Q 372 2147 372 2553 
Q 372 3047 722 3315 
Q 1072 3584 1716 3584 
Q 2034 3584 2315 3537 
Q 2597 3491 2834 3397 
z
" transform="scale(0.015625)"/>
      </defs>
      <use xlink:href="#DejaVuSans-4e"/>
      <use xlink:href="#DejaVuSans-75" transform="translate(74.804688 0)"/>
      <use xlink:href="#DejaVuSans-6d" transform="translate(138.183594 0)"/>
      <use xlink:href="#DejaVuSans-62" transform="translate(235.595703 0)"/>
      <use xlink:href="#DejaVuSans-65" transform="translate(299.072266 0)"/>
      <use xlink:href="#DejaVuSans-72" transform="translate(360.595703 0)"/>
      <use xlink:href="#DejaVuSans-20" transform="translate(401.708984 0)"/>
      <use xlink:href="#DejaVuSans-6f" transform="translate(433.496094 0)"/>
      <use xlink:href="#DejaVuSans-66" transform="translate(494.677734 0)"/>
      <use xlink:href="#DejaVuSans-20" transform="translate(529.882812 0)"/>
      <use xlink:href="#DejaVuSans-63" transform="translate(561.669922 0)"/>
      <use xlink:href="#DejaVuSans-65" transform="translate(616.650391 0)"/>
      <use xlink:href="#DejaVuSans-6c" transform="translate(678.173828 0)"/>
      <use xlink:href="#DejaVuSans-6c" transform="translate(705.957031 0)"/>
      <use xlink:href="#DejaVuSans-73" transform="translate(733.740234 0)"/>
     </g>
    </g>
   </g>
   <g id="patch_103">
    <path d="M 45.478125 244.078125 
L 45.478125 22.318125 
" style="fill: none; stroke: #000000; stroke-width: 0.8; stroke-linejoin: miter; stroke-linecap: square"/>
   </g>
   <g id="patch_104">
    <path d="M 491.878125 244.078125 
L 491.878125 22.318125 
" style="fill: none; stroke: #000000; stroke-width: 0.8; stroke-linejoin: miter; stroke-linecap: square"/>
   </g>
   <g id="patch_105">
    <path d="M 45.478125 244.078125 
L 491.878125 244.078125 
" style="fill: none; stroke: #000000; stroke-width: 0.8; stroke-linejoin: miter; stroke-linecap: square"/>
   </g>
   <g id="patch_106">
    <path d="M 45.478125 22.318125 
L 491.878125 22.318125 
" style="fill: none; stroke: #000000; stroke-width: 0.8; stroke-linejoin: miter; stroke-linecap: square"/>
   </g>
   <g id="text_14">
    <!-- Distribution of SIGMA scores -->
    <g transform="translate(183.417188 16.318125) scale(0.12 -0.12)">
     <defs>
      <path id="DejaVuSans-44" d="M 1259 4147 
L 1259 519 
L 2022 519 
Q 2988 519 3436 956 
Q 3884 1394 3884 2338 
Q 3884 3275 3436 3711 
Q 2988 4147 2022 4147 
L 1259 4147 
z
M 628 4666 
L 1925 4666 
Q 3281 4666 3915 4102 
Q 4550 3538 4550 2338 
Q 4550 1131 3912 565 
Q 3275 0 1925 0 
L 628 0 
L 628 4666 
z
" transform="scale(0.015625)"/>
      <path id="DejaVuSans-69" d="M 603 3500 
L 1178 3500 
L 1178 0 
L 603 0 
L 603 3500 
z
M 603 4863 
L 1178 4863 
L 1178 4134 
L 603 4134 
L 603 4863 
z
" transform="scale(0.015625)"/>
      <path id="DejaVuSans-74" d="M 1172 4494 
L 1172 3500 
L 2356 3500 
L 2356 3053 
L 1172 3053 
L 1172 1153 
Q 1172 725 1289 603 
Q 1406 481 1766 481 
L 2356 481 
L 2356 0 
L 1766 0 
Q 1100 0 847 248 
Q 594 497 594 1153 
L 594 3053 
L 172 3053 
L 172 3500 
L 594 3500 
L 594 4494 
L 1172 4494 
z
" transform="scale(0.015625)"/>
      <path id="DejaVuSans-6e" d="M 3513 2113 
L 3513 0 
L 2938 0 
L 2938 2094 
Q 2938 2591 2744 2837 
Q 2550 3084 2163 3084 
Q 1697 3084 1428 2787 
Q 1159 2491 1159 1978 
L 1159 0 
L 581 0 
L 581 3500 
L 1159 3500 
L 1159 2956 
Q 1366 3272 1645 3428 
Q 1925 3584 2291 3584 
Q 2894 3584 3203 3211 
Q 3513 2838 3513 2113 
z
" transform="scale(0.015625)"/>
      <path id="DejaVuSans-49" d="M 628 4666 
L 1259 4666 
L 1259 0 
L 628 0 
L 628 4666 
z
" transform="scale(0.015625)"/>
      <path id="DejaVuSans-47" d="M 3809 666 
L 3809 1919 
L 2778 1919 
L 2778 2438 
L 4434 2438 
L 4434 434 
Q 4069 175 3628 42 
Q 3188 -91 2688 -91 
Q 1594 -91 976 548 
Q 359 1188 359 2328 
Q 359 3472 976 4111 
Q 1594 4750 2688 4750 
Q 3144 4750 3555 4637 
Q 3966 4525 4313 4306 
L 4313 3634 
Q 3963 3931 3569 4081 
Q 3175 4231 2741 4231 
Q 1884 4231 1454 3753 
Q 1025 3275 1025 2328 
Q 1025 1384 1454 906 
Q 1884 428 2741 428 
Q 3075 428 3337 486 
Q 3600 544 3809 666 
z
" transform="scale(0.015625)"/>
      <path id="DejaVuSans-4d" d="M 628 4666 
L 1569 4666 
L 2759 1491 
L 3956 4666 
L 4897 4666 
L 4897 0 
L 4281 0 
L 4281 4097 
L 3078 897 
L 2444 897 
L 1241 4097 
L 1241 0 
L 628 0 
L 628 4666 
z
" transform="scale(0.015625)"/>
      <path id="DejaVuSans-41" d="M 2188 4044 
L 1331 1722 
L 3047 1722 
L 2188 4044 
z
M 1831 4666 
L 2547 4666 
L 4325 0 
L 3669 0 
L 3244 1197 
L 1141 1197 
L 716 0 
L 50 0 
L 1831 4666 
z
" transform="scale(0.015625)"/>
     </defs>
     <use xlink:href="#DejaVuSans-44"/>
     <use xlink:href="#DejaVuSans-69" transform="translate(77.001953 0)"/>
     <use xlink:href="#DejaVuSans-73" transform="translate(104.785156 0)"/>
     <use xlink:href="#DejaVuSans-74" transform="translate(156.884766 0)"/>
     <use xlink:href="#DejaVuSans-72" transform="translate(196.09375 0)"/>
     <use xlink:href="#DejaVuSans-69" transform="translate(237.207031 0)"/>
     <use xlink:href="#DejaVuSans-62" transform="translate(264.990234 0)"/>
     <use xlink:href="#DejaVuSans-75" transform="translate(328.466797 0)"/>
     <use xlink:href="#DejaVuSans-74" transform="translate(391.845703 0)"/>
     <use xlink:href="#DejaVuSans-69" transform="translate(431.054688 0)"/>
     <use xlink:href="#DejaVuSans-6f" transform="translate(458.837891 0)"/>
     <use xlink:href="#DejaVuSans-6e" transform="translate(520.019531 0)"/>
     <use xlink:href="#DejaVuSans-20" transform="translate(583.398438 0)"/>
     <use xlink:href="#DejaVuSans-6f" transform="translate(615.185547 0)"/>
     <use xlink:href="#DejaVuSans-66" transform="translate(676.367188 0)"/>
     <use xlink:href="#DejaVuSans-20" transform="translate(711.572266 0)"/>
     <use xlink:href="#DejaVuSans-53" transform="translate(743.359375 0)"/>
     <use xlink:href="#DejaVuSans-49" transform="translate(806.835938 0)"/>
     <use xlink:href="#DejaVuSans-47" transform="translate(836.328125 0)"/>
     <use xlink:href="#DejaVuSans-4d" transform="translate(913.818359 0)"/>
     <use xlink:href="#DejaVuSans-41" transform="translate(1000.097656 0)"/>
     <use xlink:href="#DejaVuSans-20" transform="translate(1068.505859 0)"/>
     <use xlink:href="#DejaVuSans-73" transform="translate(1100.292969 0)"/>
     <use xlink:href="#DejaVuSans-63" transform="translate(1152.392578 0)"/>
     <use xlink:href="#DejaVuSans-6f" transform="translate(1207.373047 0)"/>
     <use xlink:href="#DejaVuSans-72" transform="translate(1268.554688 0)"/>
     <use xlink:href="#DejaVuSans-65" transform="translate(1307.417969 0)"/>
     <use xlink:href="#DejaVuSans-73" transform="translate(1368.941406 0)"/>
    </g>
   </g>
  </g>
 </g>
 <defs>
  <clipPath id="pb2d94138bd">
   <rect x="45.478125" y="22.318125" width="446.4" height="221.76"/>
  </clipPath>
 </defs>
</svg>
