<?xml version="1.0" encoding="utf-8" standalone="no"?>
<!DOCTYPE svg PUBLIC "-//W3C//DTD SVG 1.1//EN"
  "http://www.w3.org/Graphics/SVG/1.1/DTD/svg11.dtd">
<svg xmlns:xlink="http://www.w3.org/1999/xlink" width="1143.243541pt" height="424.474375pt" viewBox="0 0 1143.243541 424.474375" xmlns="http://www.w3.org/2000/svg" version="1.1">
 <metadata>
  <rdf:RDF xmlns:dc="http://purl.org/dc/elements/1.1/" xmlns:cc="http://creativecommons.org/ns#" xmlns:rdf="http://www.w3.org/1999/02/22-rdf-syntax-ns#">
   <cc:Work>
    <dc:type rdf:resource="http://purl.org/dc/dcmitype/StillImage"/>
    <dc:date>2026-02-23T09:55:38.413884</dc:date>
    <dc:format>image/svg+xml</dc:format>
    <dc:creator>
     <cc:Agent>
      <dc:title>Matplotlib v3.10.5, https://matplotlib.org/</dc:title>
     </cc:Agent>
    </dc:creator>
   </cc:Work>
  </rdf:RDF>
 </metadata>
 <defs>
  <style type="text/css">*{stroke-linejoin: round; stroke-linecap: butt}</style>
 </defs>
 <g id="figure_1">
  <g id="patch_1">
   <path d="M 0 424.474375 
L 1143.243541 424.474375 
L 1143.243541 0 
L 0 0 
z
" style="fill: #ffffff"/>
  </g>
  <g id="axes_1">
   <g id="patch_2">
    <path d="M 45.478125 386.918125 
L 1096.277916 386.918125 
L 1096.277916 22.318125 
L 45.478125 22.318125 
z
" style="fill: #ffffff"/>
   </g>
   <g id="patch_3">
    <path d="M 93.241752 86082.74477 
L 98.018115 86082.74477 
L 98.018115 38.890852 
L 93.241752 38.890852 
z
" clip-path="url(#p224bd53c6e)" style="fill: #1f77b4; opacity: 0.7"/>
   </g>
   <g id="patch_4">
    <path d="M 98.018115 86082.74477 
L 102.794477 86082.74477 
L 102.794477 237.999621 
L 98.018115 237.999621 
z
" clip-path="url(#p224bd53c6e)" style="fill: #1f77b4; opacity: 0.7"/>
   </g>
   <g id="patch_5">
    <path d="M 102.794477 86082.74477 
L 107.57084 86082.74477 
L 107.57084 288.554983 
L 102.794477 288.554983 
z
" clip-path="url(#p224bd53c6e)" style="fill: #1f77b4; opacity: 0.7"/>
   </g>
   <g id="patch_6">
    <path d="M 107.57084 86082.74477 
L 112.347203 86082.74477 
L 112.347203 297.910017 
L 107.57084 297.910017 
z
" clip-path="url(#p224bd53c6e)" style="fill: #1f77b4; opacity: 0.7"/>
   </g>
   <g id="patch_7">
    <path d="M 112.347203 86082.74477 
L 117.123565 86082.74477 
L 117.123565 303.648187 
L 112.347203 303.648187 
z
" clip-path="url(#p224bd53c6e)" style="fill: #1f77b4; opacity: 0.7"/>
   </g>
   <g id="patch_8">
    <path d="M 117.123565 86082.74477 
L 121.899928 86082.74477 
L 121.899928 297.910017 
L 117.123565 297.910017 
z
" clip-path="url(#p224bd53c6e)" style="fill: #1f77b4; opacity: 0.7"/>
   </g>
   <g id="patch_9">
    <path d="M 121.899928 86082.74477 
L 126.676291 86082.74477 
L 126.676291 329.45019 
L 121.899928 329.45019 
z
" clip-path="url(#p224bd53c6e)" style="fill: #1f77b4; opacity: 0.7"/>
   </g>
   <g id="patch_10">
    <path d="M 126.676291 86082.74477 
L 131.452653 86082.74477 
L 131.452653 297.910017 
L 126.676291 297.910017 
z
" clip-path="url(#p224bd53c6e)" style="fill: #1f77b4; opacity: 0.7"/>
   </g>
   <g id="patch_11">
    <path d="M 131.452653 86082.74477 
L 136.229016 86082.74477 
L 136.229016 303.648187 
L 131.452653 303.648187 
z
" clip-path="url(#p224bd53c6e)" style="fill: #1f77b4; opacity: 0.7"/>
   </g>
   <g id="patch_12">
    <path d="M 136.229016 86082.74477 
L 141.005379 86082.74477 
L 141.005379 284.632998 
L 136.229016 284.632998 
z
" clip-path="url(#p224bd53c6e)" style="fill: #1f77b4; opacity: 0.7"/>
   </g>
   <g id="patch_13">
    <path d="M 141.005379 86082.74477 
L 145.781741 86082.74477 
L 145.781741 264.880668 
L 141.005379 264.880668 
z
" clip-path="url(#p224bd53c6e)" style="fill: #1f77b4; opacity: 0.7"/>
   </g>
   <g id="patch_14">
    <path d="M 145.781741 86082.74477 
L 150.558104 86082.74477 
L 150.558104 284.632998 
L 145.781741 284.632998 
z
" clip-path="url(#p224bd53c6e)" style="fill: #1f77b4; opacity: 0.7"/>
   </g>
   <g id="patch_15">
    <path d="M 150.558104 86082.74477 
L 155.334467 86082.74477 
L 155.334467 310.435002 
L 150.558104 310.435002 
z
" clip-path="url(#p224bd53c6e)" style="fill: #1f77b4; opacity: 0.7"/>
   </g>
   <g id="patch_16">
    <path d="M 155.334467 86082.74477 
L 160.110829 86082.74477 
L 160.110829 272.108014 
L 155.334467 272.108014 
z
" clip-path="url(#p224bd53c6e)" style="fill: #1f77b4; opacity: 0.7"/>
   </g>
   <g id="patch_17">
    <path d="M 160.110829 86082.74477 
L 164.887192 86082.74477 
L 164.887192 344.543395 
L 160.110829 344.543395 
z
" clip-path="url(#p224bd53c6e)" style="fill: #1f77b4; opacity: 0.7"/>
   </g>
   <g id="patch_18">
    <path d="M 164.887192 86082.74477 
L 169.663555 86082.74477 
L 169.663555 344.543395 
L 164.887192 344.543395 
z
" clip-path="url(#p224bd53c6e)" style="fill: #1f77b4; opacity: 0.7"/>
   </g>
   <g id="patch_19">
    <path d="M 169.663555 86082.74477 
L 174.439918 86082.74477 
L 174.439918 292.939388 
L 169.663555 292.939388 
z
" clip-path="url(#p224bd53c6e)" style="fill: #1f77b4; opacity: 0.7"/>
   </g>
   <g id="patch_20">
    <path d="M 174.439918 86082.74477 
L 179.21628 86082.74477 
L 179.21628 303.648187 
L 174.439918 303.648187 
z
" clip-path="url(#p224bd53c6e)" style="fill: #1f77b4; opacity: 0.7"/>
   </g>
   <g id="patch_21">
    <path d="M 179.21628 86082.74477 
L 183.992643 86082.74477 
L 183.992643 329.45019 
L 179.21628 329.45019 
z
" clip-path="url(#p224bd53c6e)" style="fill: #1f77b4; opacity: 0.7"/>
   </g>
   <g id="patch_22">
    <path d="M 183.992643 86082.74477 
L 188.769006 86082.74477 
L 188.769006 329.45019 
L 183.992643 329.45019 
z
" clip-path="url(#p224bd53c6e)" style="fill: #1f77b4; opacity: 0.7"/>
   </g>
   <g id="patch_23">
    <path d="M 188.769006 86082.74477 
L 193.545368 86082.74477 
L 193.545368 310.435002 
L 188.769006 310.435002 
z
" clip-path="url(#p224bd53c6e)" style="fill: #1f77b4; opacity: 0.7"/>
   </g>
   <g id="patch_24">
    <path d="M 193.545368 86082.74477 
L 198.321731 86082.74477 
L 198.321731 303.648187 
L 193.545368 303.648187 
z
" clip-path="url(#p224bd53c6e)" style="fill: #1f77b4; opacity: 0.7"/>
   </g>
   <g id="patch_25">
    <path d="M 198.321731 86082.74477 
L 203.098094 86082.74477 
L 203.098094 310.435002 
L 198.321731 310.435002 
z
" clip-path="url(#p224bd53c6e)" style="fill: #1f77b4; opacity: 0.7"/>
   </g>
   <g id="patch_26">
    <path d="M 203.098094 86082.74477 
L 207.874456 86082.74477 
L 207.874456 329.45019 
L 203.098094 329.45019 
z
" clip-path="url(#p224bd53c6e)" style="fill: #1f77b4; opacity: 0.7"/>
   </g>
   <g id="patch_27">
    <path d="M 207.874456 86082.74477 
L 212.650819 86082.74477 
L 212.650819 370.345398 
L 207.874456 370.345398 
z
" clip-path="url(#p224bd53c6e)" style="fill: #1f77b4; opacity: 0.7"/>
   </g>
   <g id="patch_28">
    <path d="M 212.650819 86082.74477 
L 217.427182 86082.74477 
L 217.427182 344.543395 
L 212.650819 344.543395 
z
" clip-path="url(#p224bd53c6e)" style="fill: #1f77b4; opacity: 0.7"/>
   </g>
   <g id="patch_29">
    <path d="M 217.427182 86082.74477 
L 222.203544 86082.74477 
L 222.203544 344.543395 
L 217.427182 344.543395 
z
" clip-path="url(#p224bd53c6e)" style="fill: #1f77b4; opacity: 0.7"/>
   </g>
   <g id="patch_30">
    <path d="M 222.203544 86082.74477 
L 226.979907 86082.74477 
L 226.979907 297.910017 
L 222.203544 297.910017 
z
" clip-path="url(#p224bd53c6e)" style="fill: #1f77b4; opacity: 0.7"/>
   </g>
   <g id="patch_31">
    <path d="M 226.979907 86082.74477 
L 231.75627 86082.74477 
L 231.75627 329.45019 
L 226.979907 329.45019 
z
" clip-path="url(#p224bd53c6e)" style="fill: #1f77b4; opacity: 0.7"/>
   </g>
   <g id="patch_32">
    <path d="M 231.75627 86082.74477 
L 236.532632 86082.74477 
L 236.532632 310.435002 
L 231.75627 310.435002 
z
" clip-path="url(#p224bd53c6e)" style="fill: #1f77b4; opacity: 0.7"/>
   </g>
   <g id="patch_33">
    <path d="M 236.532632 86082.74477 
L 241.308995 86082.74477 
L 241.308995 344.543395 
L 236.532632 344.543395 
z
" clip-path="url(#p224bd53c6e)" style="fill: #1f77b4; opacity: 0.7"/>
   </g>
   <g id="patch_34">
    <path d="M 241.308995 86082.74477 
L 246.085358 86082.74477 
L 246.085358 344.543395 
L 241.308995 344.543395 
z
" clip-path="url(#p224bd53c6e)" style="fill: #1f77b4; opacity: 0.7"/>
   </g>
   <g id="patch_35">
    <path d="M 246.085358 86082.74477 
L 250.86172 86082.74477 
L 250.86172 370.345398 
L 246.085358 370.345398 
z
" clip-path="url(#p224bd53c6e)" style="fill: #1f77b4; opacity: 0.7"/>
   </g>
   <g id="patch_36">
    <path d="M 250.86172 86082.74477 
L 255.638083 86082.74477 
L 255.638083 310.435002 
L 250.86172 310.435002 
z
" clip-path="url(#p224bd53c6e)" style="fill: #1f77b4; opacity: 0.7"/>
   </g>
   <g id="patch_37">
    <path d="M 255.638083 86082.74477 
L 260.414446 86082.74477 
L 260.414446 329.45019 
L 255.638083 329.45019 
z
" clip-path="url(#p224bd53c6e)" style="fill: #1f77b4; opacity: 0.7"/>
   </g>
   <g id="patch_38">
    <path d="M 260.414446 86082.74477 
L 265.190809 86082.74477 
L 265.190809 318.741391 
L 260.414446 318.741391 
z
" clip-path="url(#p224bd53c6e)" style="fill: #1f77b4; opacity: 0.7"/>
   </g>
   <g id="patch_39">
    <path d="M 265.190809 86082.74477 
L 269.967171 86082.74477 
L 269.967171 370.345398 
L 265.190809 370.345398 
z
" clip-path="url(#p224bd53c6e)" style="fill: #1f77b4; opacity: 0.7"/>
   </g>
   <g id="patch_40">
    <path d="M 269.967171 86082.74477 
L 274.743534 86082.74477 
L 274.743534 370.345398 
L 269.967171 370.345398 
z
" clip-path="url(#p224bd53c6e)" style="fill: #1f77b4; opacity: 0.7"/>
   </g>
   <g id="patch_41">
    <path d="M 274.743534 86082.74477 
L 279.519897 86082.74477 
L 279.519897 344.543395 
L 274.743534 344.543395 
z
" clip-path="url(#p224bd53c6e)" style="fill: #1f77b4; opacity: 0.7"/>
   </g>
   <g id="patch_42">
    <path d="M 279.519897 86082.74477 
L 284.296259 86082.74477 
L 284.296259 310.435002 
L 279.519897 310.435002 
z
" clip-path="url(#p224bd53c6e)" style="fill: #1f77b4; opacity: 0.7"/>
   </g>
   <g id="patch_43">
    <path d="M 284.296259 86082.74477 
L 289.072622 86082.74477 
L 289.072622 370.345398 
L 284.296259 370.345398 
z
" clip-path="url(#p224bd53c6e)" style="fill: #1f77b4; opacity: 0.7"/>
   </g>
   <g id="patch_44">
    <path d="M 289.072622 86082.74477 
L 293.848985 86082.74477 
L 293.848985 86082.74477 
L 289.072622 86082.74477 
z
" clip-path="url(#p224bd53c6e)" style="fill: #1f77b4; opacity: 0.7"/>
   </g>
   <g id="patch_45">
    <path d="M 293.848985 86082.74477 
L 298.625347 86082.74477 
L 298.625347 318.741391 
L 293.848985 318.741391 
z
" clip-path="url(#p224bd53c6e)" style="fill: #1f77b4; opacity: 0.7"/>
   </g>
   <g id="patch_46">
    <path d="M 298.625347 86082.74477 
L 303.40171 86082.74477 
L 303.40171 329.45019 
L 298.625347 329.45019 
z
" clip-path="url(#p224bd53c6e)" style="fill: #1f77b4; opacity: 0.7"/>
   </g>
   <g id="patch_47">
    <path d="M 303.40171 86082.74477 
L 308.178073 86082.74477 
L 308.178073 329.45019 
L 303.40171 329.45019 
z
" clip-path="url(#p224bd53c6e)" style="fill: #1f77b4; opacity: 0.7"/>
   </g>
   <g id="patch_48">
    <path d="M 308.178073 86082.74477 
L 312.954435 86082.74477 
L 312.954435 344.543395 
L 308.178073 344.543395 
z
" clip-path="url(#p224bd53c6e)" style="fill: #1f77b4; opacity: 0.7"/>
   </g>
   <g id="patch_49">
    <path d="M 312.954435 86082.74477 
L 317.730798 86082.74477 
L 317.730798 310.435002 
L 312.954435 310.435002 
z
" clip-path="url(#p224bd53c6e)" style="fill: #1f77b4; opacity: 0.7"/>
   </g>
   <g id="patch_50">
    <path d="M 317.730798 86082.74477 
L 322.507161 86082.74477 
L 322.507161 318.741391 
L 317.730798 318.741391 
z
" clip-path="url(#p224bd53c6e)" style="fill: #1f77b4; opacity: 0.7"/>
   </g>
   <g id="patch_51">
    <path d="M 322.507161 86082.74477 
L 327.283523 86082.74477 
L 327.283523 318.741391 
L 322.507161 318.741391 
z
" clip-path="url(#p224bd53c6e)" style="fill: #1f77b4; opacity: 0.7"/>
   </g>
   <g id="patch_52">
    <path d="M 327.283523 86082.74477 
L 332.059886 86082.74477 
L 332.059886 329.45019 
L 327.283523 329.45019 
z
" clip-path="url(#p224bd53c6e)" style="fill: #1f77b4; opacity: 0.7"/>
   </g>
   <g id="patch_53">
    <path d="M 332.059886 86082.74477 
L 336.836249 86082.74477 
L 336.836249 86082.74477 
L 332.059886 86082.74477 
z
" clip-path="url(#p224bd53c6e)" style="fill: #1f77b4; opacity: 0.7"/>
   </g>
   <g id="patch_54">
    <path d="M 336.836249 86082.74477 
L 341.612612 86082.74477 
L 341.612612 329.45019 
L 336.836249 329.45019 
z
" clip-path="url(#p224bd53c6e)" style="fill: #1f77b4; opacity: 0.7"/>
   </g>
   <g id="patch_55">
    <path d="M 341.612612 86082.74477 
L 346.388974 86082.74477 
L 346.388974 318.741391 
L 341.612612 318.741391 
z
" clip-path="url(#p224bd53c6e)" style="fill: #1f77b4; opacity: 0.7"/>
   </g>
   <g id="patch_56">
    <path d="M 346.388974 86082.74477 
L 351.165337 86082.74477 
L 351.165337 370.345398 
L 346.388974 370.345398 
z
" clip-path="url(#p224bd53c6e)" style="fill: #1f77b4; opacity: 0.7"/>
   </g>
   <g id="patch_57">
    <path d="M 351.165337 86082.74477 
L 355.9417 86082.74477 
L 355.9417 344.543395 
L 351.165337 344.543395 
z
" clip-path="url(#p224bd53c6e)" style="fill: #1f77b4; opacity: 0.7"/>
   </g>
   <g id="patch_58">
    <path d="M 355.9417 86082.74477 
L 360.718062 86082.74477 
L 360.718062 329.45019 
L 355.9417 329.45019 
z
" clip-path="url(#p224bd53c6e)" style="fill: #1f77b4; opacity: 0.7"/>
   </g>
   <g id="patch_59">
    <path d="M 360.718062 86082.74477 
L 365.494425 86082.74477 
L 365.494425 318.741391 
L 360.718062 318.741391 
z
" clip-path="url(#p224bd53c6e)" style="fill: #1f77b4; opacity: 0.7"/>
   </g>
   <g id="patch_60">
    <path d="M 365.494425 86082.74477 
L 370.270788 86082.74477 
L 370.270788 318.741391 
L 365.494425 318.741391 
z
" clip-path="url(#p224bd53c6e)" style="fill: #1f77b4; opacity: 0.7"/>
   </g>
   <g id="patch_61">
    <path d="M 370.270788 86082.74477 
L 375.04715 86082.74477 
L 375.04715 318.741391 
L 370.270788 318.741391 
z
" clip-path="url(#p224bd53c6e)" style="fill: #1f77b4; opacity: 0.7"/>
   </g>
   <g id="patch_62">
    <path d="M 375.04715 86082.74477 
L 379.823513 86082.74477 
L 379.823513 86082.74477 
L 375.04715 86082.74477 
z
" clip-path="url(#p224bd53c6e)" style="fill: #1f77b4; opacity: 0.7"/>
   </g>
   <g id="patch_63">
    <path d="M 379.823513 86082.74477 
L 384.599876 86082.74477 
L 384.599876 86082.74477 
L 379.823513 86082.74477 
z
" clip-path="url(#p224bd53c6e)" style="fill: #1f77b4; opacity: 0.7"/>
   </g>
   <g id="patch_64">
    <path d="M 384.599876 86082.74477 
L 389.376238 86082.74477 
L 389.376238 318.741391 
L 384.599876 318.741391 
z
" clip-path="url(#p224bd53c6e)" style="fill: #1f77b4; opacity: 0.7"/>
   </g>
   <g id="patch_65">
    <path d="M 389.376238 86082.74477 
L 394.152601 86082.74477 
L 394.152601 370.345398 
L 389.376238 370.345398 
z
" clip-path="url(#p224bd53c6e)" style="fill: #1f77b4; opacity: 0.7"/>
   </g>
   <g id="patch_66">
    <path d="M 394.152601 86082.74477 
L 398.928964 86082.74477 
L 398.928964 344.543395 
L 394.152601 344.543395 
z
" clip-path="url(#p224bd53c6e)" style="fill: #1f77b4; opacity: 0.7"/>
   </g>
   <g id="patch_67">
    <path d="M 398.928964 86082.74477 
L 403.705326 86082.74477 
L 403.705326 344.543395 
L 398.928964 344.543395 
z
" clip-path="url(#p224bd53c6e)" style="fill: #1f77b4; opacity: 0.7"/>
   </g>
   <g id="patch_68">
    <path d="M 403.705326 86082.74477 
L 408.481689 86082.74477 
L 408.481689 370.345398 
L 403.705326 370.345398 
z
" clip-path="url(#p224bd53c6e)" style="fill: #1f77b4; opacity: 0.7"/>
   </g>
   <g id="patch_69">
    <path d="M 408.481689 86082.74477 
L 413.258052 86082.74477 
L 413.258052 329.45019 
L 408.481689 329.45019 
z
" clip-path="url(#p224bd53c6e)" style="fill: #1f77b4; opacity: 0.7"/>
   </g>
   <g id="patch_70">
    <path d="M 413.258052 86082.74477 
L 418.034414 86082.74477 
L 418.034414 344.543395 
L 413.258052 344.543395 
z
" clip-path="url(#p224bd53c6e)" style="fill: #1f77b4; opacity: 0.7"/>
   </g>
   <g id="patch_71">
    <path d="M 418.034414 86082.74477 
L 422.810777 86082.74477 
L 422.810777 370.345398 
L 418.034414 370.345398 
z
" clip-path="url(#p224bd53c6e)" style="fill: #1f77b4; opacity: 0.7"/>
   </g>
   <g id="patch_72">
    <path d="M 422.810777 86082.74477 
L 427.58714 86082.74477 
L 427.58714 344.543395 
L 422.810777 344.543395 
z
" clip-path="url(#p224bd53c6e)" style="fill: #1f77b4; opacity: 0.7"/>
   </g>
   <g id="patch_73">
    <path d="M 427.58714 86082.74477 
L 432.363503 86082.74477 
L 432.363503 344.543395 
L 427.58714 344.543395 
z
" clip-path="url(#p224bd53c6e)" style="fill: #1f77b4; opacity: 0.7"/>
   </g>
   <g id="patch_74">
    <path d="M 432.363503 86082.74477 
L 437.139865 86082.74477 
L 437.139865 318.741391 
L 432.363503 318.741391 
z
" clip-path="url(#p224bd53c6e)" style="fill: #1f77b4; opacity: 0.7"/>
   </g>
   <g id="patch_75">
    <path d="M 437.139865 86082.74477 
L 441.916228 86082.74477 
L 441.916228 86082.74477 
L 437.139865 86082.74477 
z
" clip-path="url(#p224bd53c6e)" style="fill: #1f77b4; opacity: 0.7"/>
   </g>
   <g id="patch_76">
    <path d="M 441.916228 86082.74477 
L 446.692591 86082.74477 
L 446.692591 310.435002 
L 441.916228 310.435002 
z
" clip-path="url(#p224bd53c6e)" style="fill: #1f77b4; opacity: 0.7"/>
   </g>
   <g id="patch_77">
    <path d="M 446.692591 86082.74477 
L 451.468953 86082.74477 
L 451.468953 370.345398 
L 446.692591 370.345398 
z
" clip-path="url(#p224bd53c6e)" style="fill: #1f77b4; opacity: 0.7"/>
   </g>
   <g id="patch_78">
    <path d="M 451.468953 86082.74477 
L 456.245316 86082.74477 
L 456.245316 344.543395 
L 451.468953 344.543395 
z
" clip-path="url(#p224bd53c6e)" style="fill: #1f77b4; opacity: 0.7"/>
   </g>
   <g id="patch_79">
    <path d="M 456.245316 86082.74477 
L 461.021679 86082.74477 
L 461.021679 318.741391 
L 456.245316 318.741391 
z
" clip-path="url(#p224bd53c6e)" style="fill: #1f77b4; opacity: 0.7"/>
   </g>
   <g id="patch_80">
    <path d="M 461.021679 86082.74477 
L 465.798041 86082.74477 
L 465.798041 310.435002 
L 461.021679 310.435002 
z
" clip-path="url(#p224bd53c6e)" style="fill: #1f77b4; opacity: 0.7"/>
   </g>
   <g id="patch_81">
    <path d="M 465.798041 86082.74477 
L 470.574404 86082.74477 
L 470.574404 86082.74477 
L 465.798041 86082.74477 
z
" clip-path="url(#p224bd53c6e)" style="fill: #1f77b4; opacity: 0.7"/>
   </g>
   <g id="patch_82">
    <path d="M 470.574404 86082.74477 
L 475.350767 86082.74477 
L 475.350767 318.741391 
L 470.574404 318.741391 
z
" clip-path="url(#p224bd53c6e)" style="fill: #1f77b4; opacity: 0.7"/>
   </g>
   <g id="patch_83">
    <path d="M 475.350767 86082.74477 
L 480.127129 86082.74477 
L 480.127129 370.345398 
L 475.350767 370.345398 
z
" clip-path="url(#p224bd53c6e)" style="fill: #1f77b4; opacity: 0.7"/>
   </g>
   <g id="patch_84">
    <path d="M 480.127129 86082.74477 
L 484.903492 86082.74477 
L 484.903492 329.45019 
L 480.127129 329.45019 
z
" clip-path="url(#p224bd53c6e)" style="fill: #1f77b4; opacity: 0.7"/>
   </g>
   <g id="patch_85">
    <path d="M 484.903492 86082.74477 
L 489.679855 86082.74477 
L 489.679855 310.435002 
L 484.903492 310.435002 
z
" clip-path="url(#p224bd53c6e)" style="fill: #1f77b4; opacity: 0.7"/>
   </g>
   <g id="patch_86">
    <path d="M 489.679855 86082.74477 
L 494.456217 86082.74477 
L 494.456217 318.741391 
L 489.679855 318.741391 
z
" clip-path="url(#p224bd53c6e)" style="fill: #1f77b4; opacity: 0.7"/>
   </g>
   <g id="patch_87">
    <path d="M 494.456217 86082.74477 
L 499.23258 86082.74477 
L 499.23258 86082.74477 
L 494.456217 86082.74477 
z
" clip-path="url(#p224bd53c6e)" style="fill: #1f77b4; opacity: 0.7"/>
   </g>
   <g id="patch_88">
    <path d="M 499.23258 86082.74477 
L 504.008943 86082.74477 
L 504.008943 344.543395 
L 499.23258 344.543395 
z
" clip-path="url(#p224bd53c6e)" style="fill: #1f77b4; opacity: 0.7"/>
   </g>
   <g id="patch_89">
    <path d="M 504.008943 86082.74477 
L 508.785305 86082.74477 
L 508.785305 344.543395 
L 504.008943 344.543395 
z
" clip-path="url(#p224bd53c6e)" style="fill: #1f77b4; opacity: 0.7"/>
   </g>
   <g id="patch_90">
    <path d="M 508.785305 86082.74477 
L 513.561668 86082.74477 
L 513.561668 318.741391 
L 508.785305 318.741391 
z
" clip-path="url(#p224bd53c6e)" style="fill: #1f77b4; opacity: 0.7"/>
   </g>
   <g id="patch_91">
    <path d="M 513.561668 86082.74477 
L 518.338031 86082.74477 
L 518.338031 344.543395 
L 513.561668 344.543395 
z
" clip-path="url(#p224bd53c6e)" style="fill: #1f77b4; opacity: 0.7"/>
   </g>
   <g id="patch_92">
    <path d="M 518.338031 86082.74477 
L 523.114394 86082.74477 
L 523.114394 310.435002 
L 518.338031 310.435002 
z
" clip-path="url(#p224bd53c6e)" style="fill: #1f77b4; opacity: 0.7"/>
   </g>
   <g id="patch_93">
    <path d="M 523.114394 86082.74477 
L 527.890756 86082.74477 
L 527.890756 329.45019 
L 523.114394 329.45019 
z
" clip-path="url(#p224bd53c6e)" style="fill: #1f77b4; opacity: 0.7"/>
   </g>
   <g id="patch_94">
    <path d="M 527.890756 86082.74477 
L 532.667119 86082.74477 
L 532.667119 329.45019 
L 527.890756 329.45019 
z
" clip-path="url(#p224bd53c6e)" style="fill: #1f77b4; opacity: 0.7"/>
   </g>
   <g id="patch_95">
    <path d="M 532.667119 86082.74477 
L 537.443482 86082.74477 
L 537.443482 310.435002 
L 532.667119 310.435002 
z
" clip-path="url(#p224bd53c6e)" style="fill: #1f77b4; opacity: 0.7"/>
   </g>
   <g id="patch_96">
    <path d="M 537.443482 86082.74477 
L 542.219844 86082.74477 
L 542.219844 86082.74477 
L 537.443482 86082.74477 
z
" clip-path="url(#p224bd53c6e)" style="fill: #1f77b4; opacity: 0.7"/>
   </g>
   <g id="patch_97">
    <path d="M 542.219844 86082.74477 
L 546.996207 86082.74477 
L 546.996207 370.345398 
L 542.219844 370.345398 
z
" clip-path="url(#p224bd53c6e)" style="fill: #1f77b4; opacity: 0.7"/>
   </g>
   <g id="patch_98">
    <path d="M 546.996207 86082.74477 
L 551.77257 86082.74477 
L 551.77257 370.345398 
L 546.996207 370.345398 
z
" clip-path="url(#p224bd53c6e)" style="fill: #1f77b4; opacity: 0.7"/>
   </g>
   <g id="patch_99">
    <path d="M 551.77257 86082.74477 
L 556.548932 86082.74477 
L 556.548932 318.741391 
L 551.77257 318.741391 
z
" clip-path="url(#p224bd53c6e)" style="fill: #1f77b4; opacity: 0.7"/>
   </g>
   <g id="patch_100">
    <path d="M 556.548932 86082.74477 
L 561.325295 86082.74477 
L 561.325295 318.741391 
L 556.548932 318.741391 
z
" clip-path="url(#p224bd53c6e)" style="fill: #1f77b4; opacity: 0.7"/>
   </g>
   <g id="patch_101">
    <path d="M 561.325295 86082.74477 
L 566.101658 86082.74477 
L 566.101658 310.435002 
L 561.325295 310.435002 
z
" clip-path="url(#p224bd53c6e)" style="fill: #1f77b4; opacity: 0.7"/>
   </g>
   <g id="patch_102">
    <path d="M 566.101658 86082.74477 
L 570.87802 86082.74477 
L 570.87802 318.741391 
L 566.101658 318.741391 
z
" clip-path="url(#p224bd53c6e)" style="fill: #1f77b4; opacity: 0.7"/>
   </g>
   <g id="patch_103">
    <path d="M 570.87802 86082.74477 
L 575.654383 86082.74477 
L 575.654383 329.45019 
L 570.87802 329.45019 
z
" clip-path="url(#p224bd53c6e)" style="fill: #1f77b4; opacity: 0.7"/>
   </g>
   <g id="patch_104">
    <path d="M 575.654383 86082.74477 
L 580.430746 86082.74477 
L 580.430746 318.741391 
L 575.654383 318.741391 
z
" clip-path="url(#p224bd53c6e)" style="fill: #1f77b4; opacity: 0.7"/>
   </g>
   <g id="patch_105">
    <path d="M 580.430746 86082.74477 
L 585.207108 86082.74477 
L 585.207108 329.45019 
L 580.430746 329.45019 
z
" clip-path="url(#p224bd53c6e)" style="fill: #1f77b4; opacity: 0.7"/>
   </g>
   <g id="patch_106">
    <path d="M 585.207108 86082.74477 
L 589.983471 86082.74477 
L 589.983471 310.435002 
L 585.207108 310.435002 
z
" clip-path="url(#p224bd53c6e)" style="fill: #1f77b4; opacity: 0.7"/>
   </g>
   <g id="patch_107">
    <path d="M 589.983471 86082.74477 
L 594.759834 86082.74477 
L 594.759834 329.45019 
L 589.983471 329.45019 
z
" clip-path="url(#p224bd53c6e)" style="fill: #1f77b4; opacity: 0.7"/>
   </g>
   <g id="patch_108">
    <path d="M 594.759834 86082.74477 
L 599.536197 86082.74477 
L 599.536197 318.741391 
L 594.759834 318.741391 
z
" clip-path="url(#p224bd53c6e)" style="fill: #1f77b4; opacity: 0.7"/>
   </g>
   <g id="patch_109">
    <path d="M 599.536197 86082.74477 
L 604.312559 86082.74477 
L 604.312559 318.741391 
L 599.536197 318.741391 
z
" clip-path="url(#p224bd53c6e)" style="fill: #1f77b4; opacity: 0.7"/>
   </g>
   <g id="patch_110">
    <path d="M 604.312559 86082.74477 
L 609.088922 86082.74477 
L 609.088922 303.648187 
L 604.312559 303.648187 
z
" clip-path="url(#p224bd53c6e)" style="fill: #1f77b4; opacity: 0.7"/>
   </g>
   <g id="patch_111">
    <path d="M 609.088922 86082.74477 
L 613.865285 86082.74477 
L 613.865285 310.435002 
L 609.088922 310.435002 
z
" clip-path="url(#p224bd53c6e)" style="fill: #1f77b4; opacity: 0.7"/>
   </g>
   <g id="patch_112">
    <path d="M 613.865285 86082.74477 
L 618.641647 86082.74477 
L 618.641647 310.435002 
L 613.865285 310.435002 
z
" clip-path="url(#p224bd53c6e)" style="fill: #1f77b4; opacity: 0.7"/>
   </g>
   <g id="patch_113">
    <path d="M 618.641647 86082.74477 
L 623.41801 86082.74477 
L 623.41801 292.939388 
L 618.641647 292.939388 
z
" clip-path="url(#p224bd53c6e)" style="fill: #1f77b4; opacity: 0.7"/>
   </g>
   <g id="patch_114">
    <path d="M 623.41801 86082.74477 
L 628.194373 86082.74477 
L 628.194373 303.648187 
L 623.41801 303.648187 
z
" clip-path="url(#p224bd53c6e)" style="fill: #1f77b4; opacity: 0.7"/>
   </g>
   <g id="patch_115">
    <path d="M 628.194373 86082.74477 
L 632.970735 86082.74477 
L 632.970735 370.345398 
L 628.194373 370.345398 
z
" clip-path="url(#p224bd53c6e)" style="fill: #1f77b4; opacity: 0.7"/>
   </g>
   <g id="patch_116">
    <path d="M 632.970735 86082.74477 
L 637.747098 86082.74477 
L 637.747098 288.554983 
L 632.970735 288.554983 
z
" clip-path="url(#p224bd53c6e)" style="fill: #1f77b4; opacity: 0.7"/>
   </g>
   <g id="patch_117">
    <path d="M 637.747098 86082.74477 
L 642.523461 86082.74477 
L 642.523461 318.741391 
L 637.747098 318.741391 
z
" clip-path="url(#p224bd53c6e)" style="fill: #1f77b4; opacity: 0.7"/>
   </g>
   <g id="patch_118">
    <path d="M 642.523461 86082.74477 
L 647.299823 86082.74477 
L 647.299823 370.345398 
L 642.523461 370.345398 
z
" clip-path="url(#p224bd53c6e)" style="fill: #1f77b4; opacity: 0.7"/>
   </g>
   <g id="patch_119">
    <path d="M 647.299823 86082.74477 
L 652.076186 86082.74477 
L 652.076186 284.632998 
L 647.299823 284.632998 
z
" clip-path="url(#p224bd53c6e)" style="fill: #1f77b4; opacity: 0.7"/>
   </g>
   <g id="patch_120">
    <path d="M 652.076186 86082.74477 
L 656.852549 86082.74477 
L 656.852549 310.435002 
L 652.076186 310.435002 
z
" clip-path="url(#p224bd53c6e)" style="fill: #1f77b4; opacity: 0.7"/>
   </g>
   <g id="patch_121">
    <path d="M 656.852549 86082.74477 
L 661.628911 86082.74477 
L 661.628911 303.648187 
L 656.852549 303.648187 
z
" clip-path="url(#p224bd53c6e)" style="fill: #1f77b4; opacity: 0.7"/>
   </g>
   <g id="patch_122">
    <path d="M 661.628911 86082.74477 
L 666.405274 86082.74477 
L 666.405274 297.910017 
L 661.628911 297.910017 
z
" clip-path="url(#p224bd53c6e)" style="fill: #1f77b4; opacity: 0.7"/>
   </g>
   <g id="patch_123">
    <path d="M 666.405274 86082.74477 
L 671.181637 86082.74477 
L 671.181637 329.45019 
L 666.405274 329.45019 
z
" clip-path="url(#p224bd53c6e)" style="fill: #1f77b4; opacity: 0.7"/>
   </g>
   <g id="patch_124">
    <path d="M 671.181637 86082.74477 
L 675.957999 86082.74477 
L 675.957999 281.085132 
L 671.181637 281.085132 
z
" clip-path="url(#p224bd53c6e)" style="fill: #1f77b4; opacity: 0.7"/>
   </g>
   <g id="patch_125">
    <path d="M 675.957999 86082.74477 
L 680.734362 86082.74477 
L 680.734362 292.939388 
L 675.957999 292.939388 
z
" clip-path="url(#p224bd53c6e)" style="fill: #1f77b4; opacity: 0.7"/>
   </g>
   <g id="patch_126">
    <path d="M 680.734362 86082.74477 
L 685.510725 86082.74477 
L 685.510725 297.910017 
L 680.734362 297.910017 
z
" clip-path="url(#p224bd53c6e)" style="fill: #1f77b4; opacity: 0.7"/>
   </g>
   <g id="patch_127">
    <path d="M 685.510725 86082.74477 
L 690.287088 86082.74477 
L 690.287088 297.910017 
L 685.510725 297.910017 
z
" clip-path="url(#p224bd53c6e)" style="fill: #1f77b4; opacity: 0.7"/>
   </g>
   <g id="patch_128">
    <path d="M 690.287088 86082.74477 
L 695.06345 86082.74477 
L 695.06345 303.648187 
L 690.287088 303.648187 
z
" clip-path="url(#p224bd53c6e)" style="fill: #1f77b4; opacity: 0.7"/>
   </g>
   <g id="patch_129">
    <path d="M 695.06345 86082.74477 
L 699.839813 86082.74477 
L 699.839813 288.554983 
L 695.06345 288.554983 
z
" clip-path="url(#p224bd53c6e)" style="fill: #1f77b4; opacity: 0.7"/>
   </g>
   <g id="patch_130">
    <path d="M 699.839813 86082.74477 
L 704.616176 86082.74477 
L 704.616176 272.108014 
L 699.839813 272.108014 
z
" clip-path="url(#p224bd53c6e)" style="fill: #1f77b4; opacity: 0.7"/>
   </g>
   <g id="patch_131">
    <path d="M 704.616176 86082.74477 
L 709.392538 86082.74477 
L 709.392538 329.45019 
L 704.616176 329.45019 
z
" clip-path="url(#p224bd53c6e)" style="fill: #1f77b4; opacity: 0.7"/>
   </g>
   <g id="patch_132">
    <path d="M 709.392538 86082.74477 
L 714.168901 86082.74477 
L 714.168901 297.910017 
L 709.392538 297.910017 
z
" clip-path="url(#p224bd53c6e)" style="fill: #1f77b4; opacity: 0.7"/>
   </g>
   <g id="patch_133">
    <path d="M 714.168901 86082.74477 
L 718.945264 86082.74477 
L 718.945264 264.880668 
L 714.168901 264.880668 
z
" clip-path="url(#p224bd53c6e)" style="fill: #1f77b4; opacity: 0.7"/>
   </g>
   <g id="patch_134">
    <path d="M 718.945264 86082.74477 
L 723.721626 86082.74477 
L 723.721626 269.539794 
L 718.945264 269.539794 
z
" clip-path="url(#p224bd53c6e)" style="fill: #1f77b4; opacity: 0.7"/>
   </g>
   <g id="patch_135">
    <path d="M 723.721626 86082.74477 
L 728.497989 86082.74477 
L 728.497989 272.108014 
L 723.721626 272.108014 
z
" clip-path="url(#p224bd53c6e)" style="fill: #1f77b4; opacity: 0.7"/>
   </g>
   <g id="patch_136">
    <path d="M 728.497989 86082.74477 
L 733.274352 86082.74477 
L 733.274352 284.632998 
L 728.497989 284.632998 
z
" clip-path="url(#p224bd53c6e)" style="fill: #1f77b4; opacity: 0.7"/>
   </g>
   <g id="patch_137">
    <path d="M 733.274352 86082.74477 
L 738.050714 86082.74477 
L 738.050714 264.880668 
L 733.274352 264.880668 
z
" clip-path="url(#p224bd53c6e)" style="fill: #1f77b4; opacity: 0.7"/>
   </g>
   <g id="patch_138">
    <path d="M 738.050714 86082.74477 
L 742.827077 86082.74477 
L 742.827077 288.554983 
L 738.050714 288.554983 
z
" clip-path="url(#p224bd53c6e)" style="fill: #1f77b4; opacity: 0.7"/>
   </g>
   <g id="patch_139">
    <path d="M 742.827077 86082.74477 
L 747.60344 86082.74477 
L 747.60344 292.939388 
L 742.827077 292.939388 
z
" clip-path="url(#p224bd53c6e)" style="fill: #1f77b4; opacity: 0.7"/>
   </g>
   <g id="patch_140">
    <path d="M 747.60344 86082.74477 
L 752.379802 86082.74477 
L 752.379802 274.86664 
L 747.60344 274.86664 
z
" clip-path="url(#p224bd53c6e)" style="fill: #1f77b4; opacity: 0.7"/>
   </g>
   <g id="patch_141">
    <path d="M 752.379802 86082.74477 
L 757.156165 86082.74477 
L 757.156165 235.931065 
L 752.379802 235.931065 
z
" clip-path="url(#p224bd53c6e)" style="fill: #1f77b4; opacity: 0.7"/>
   </g>
   <g id="patch_142">
    <path d="M 757.156165 86082.74477 
L 761.932528 86082.74477 
L 761.932528 200.054425 
L 757.156165 200.054425 
z
" clip-path="url(#p224bd53c6e)" style="fill: #1f77b4; opacity: 0.7"/>
   </g>
   <g id="patch_143">
    <path d="M 761.932528 86082.74477 
L 766.708891 86082.74477 
L 766.708891 303.648187 
L 761.932528 303.648187 
z
" clip-path="url(#p224bd53c6e)" style="fill: #1f77b4; opacity: 0.7"/>
   </g>
   <g id="patch_144">
    <path d="M 766.708891 86082.74477 
L 771.485253 86082.74477 
L 771.485253 281.085132 
L 766.708891 281.085132 
z
" clip-path="url(#p224bd53c6e)" style="fill: #1f77b4; opacity: 0.7"/>
   </g>
   <g id="patch_145">
    <path d="M 771.485253 86082.74477 
L 776.261616 86082.74477 
L 776.261616 297.910017 
L 771.485253 297.910017 
z
" clip-path="url(#p224bd53c6e)" style="fill: #1f77b4; opacity: 0.7"/>
   </g>
   <g id="patch_146">
    <path d="M 776.261616 86082.74477 
L 781.037979 86082.74477 
L 781.037979 272.108014 
L 776.261616 272.108014 
z
" clip-path="url(#p224bd53c6e)" style="fill: #1f77b4; opacity: 0.7"/>
   </g>
   <g id="patch_147">
    <path d="M 781.037979 86082.74477 
L 785.814341 86082.74477 
L 785.814341 284.632998 
L 781.037979 284.632998 
z
" clip-path="url(#p224bd53c6e)" style="fill: #1f77b4; opacity: 0.7"/>
   </g>
   <g id="patch_148">
    <path d="M 785.814341 86082.74477 
L 790.590704 86082.74477 
L 790.590704 269.539794 
L 785.814341 269.539794 
z
" clip-path="url(#p224bd53c6e)" style="fill: #1f77b4; opacity: 0.7"/>
   </g>
   <g id="patch_149">
    <path d="M 790.590704 86082.74477 
L 795.367067 86082.74477 
L 795.367067 284.632998 
L 790.590704 284.632998 
z
" clip-path="url(#p224bd53c6e)" style="fill: #1f77b4; opacity: 0.7"/>
   </g>
   <g id="patch_150">
    <path d="M 795.367067 86082.74477 
L 800.143429 86082.74477 
L 800.143429 284.632998 
L 795.367067 284.632998 
z
" clip-path="url(#p224bd53c6e)" style="fill: #1f77b4; opacity: 0.7"/>
   </g>
   <g id="patch_151">
    <path d="M 800.143429 86082.74477 
L 804.919792 86082.74477 
L 804.919792 284.632998 
L 800.143429 284.632998 
z
" clip-path="url(#p224bd53c6e)" style="fill: #1f77b4; opacity: 0.7"/>
   </g>
   <g id="patch_152">
    <path d="M 804.919792 86082.74477 
L 809.696155 86082.74477 
L 809.696155 284.632998 
L 804.919792 284.632998 
z
" clip-path="url(#p224bd53c6e)" style="fill: #1f77b4; opacity: 0.7"/>
   </g>
   <g id="patch_153">
    <path d="M 809.696155 86082.74477 
L 814.472517 86082.74477 
L 814.472517 281.085132 
L 809.696155 281.085132 
z
" clip-path="url(#p224bd53c6e)" style="fill: #1f77b4; opacity: 0.7"/>
   </g>
   <g id="patch_154">
    <path d="M 814.472517 86082.74477 
L 819.24888 86082.74477 
L 819.24888 281.085132 
L 814.472517 281.085132 
z
" clip-path="url(#p224bd53c6e)" style="fill: #1f77b4; opacity: 0.7"/>
   </g>
   <g id="patch_155">
    <path d="M 819.24888 86082.74477 
L 824.025243 86082.74477 
L 824.025243 292.939388 
L 819.24888 292.939388 
z
" clip-path="url(#p224bd53c6e)" style="fill: #1f77b4; opacity: 0.7"/>
   </g>
   <g id="patch_156">
    <path d="M 824.025243 86082.74477 
L 828.801605 86082.74477 
L 828.801605 240.189924 
L 824.025243 240.189924 
z
" clip-path="url(#p224bd53c6e)" style="fill: #1f77b4; opacity: 0.7"/>
   </g>
   <g id="patch_157">
    <path d="M 828.801605 86082.74477 
L 833.577968 86082.74477 
L 833.577968 292.939388 
L 828.801605 292.939388 
z
" clip-path="url(#p224bd53c6e)" style="fill: #1f77b4; opacity: 0.7"/>
   </g>
   <g id="patch_158">
    <path d="M 833.577968 86082.74477 
L 838.354331 86082.74477 
L 838.354331 288.554983 
L 833.577968 288.554983 
z
" clip-path="url(#p224bd53c6e)" style="fill: #1f77b4; opacity: 0.7"/>
   </g>
   <g id="patch_159">
    <path d="M 838.354331 86082.74477 
L 843.130693 86082.74477 
L 843.130693 297.910017 
L 838.354331 297.910017 
z
" clip-path="url(#p224bd53c6e)" style="fill: #1f77b4; opacity: 0.7"/>
   </g>
   <g id="patch_160">
    <path d="M 843.130693 86082.74477 
L 847.907056 86082.74477 
L 847.907056 288.554983 
L 843.130693 288.554983 
z
" clip-path="url(#p224bd53c6e)" style="fill: #1f77b4; opacity: 0.7"/>
   </g>
   <g id="patch_161">
    <path d="M 847.907056 86082.74477 
L 852.683419 86082.74477 
L 852.683419 303.648187 
L 847.907056 303.648187 
z
" clip-path="url(#p224bd53c6e)" style="fill: #1f77b4; opacity: 0.7"/>
   </g>
   <g id="patch_162">
    <path d="M 852.683419 86082.74477 
L 857.459782 86082.74477 
L 857.459782 284.632998 
L 852.683419 284.632998 
z
" clip-path="url(#p224bd53c6e)" style="fill: #1f77b4; opacity: 0.7"/>
   </g>
   <g id="patch_163">
    <path d="M 857.459782 86082.74477 
L 862.236144 86082.74477 
L 862.236144 272.108014 
L 857.459782 272.108014 
z
" clip-path="url(#p224bd53c6e)" style="fill: #1f77b4; opacity: 0.7"/>
   </g>
   <g id="patch_164">
    <path d="M 862.236144 86082.74477 
L 867.012507 86082.74477 
L 867.012507 281.085132 
L 862.236144 281.085132 
z
" clip-path="url(#p224bd53c6e)" style="fill: #1f77b4; opacity: 0.7"/>
   </g>
   <g id="patch_165">
    <path d="M 867.012507 86082.74477 
L 871.78887 86082.74477 
L 871.78887 297.910017 
L 867.012507 297.910017 
z
" clip-path="url(#p224bd53c6e)" style="fill: #1f77b4; opacity: 0.7"/>
   </g>
   <g id="patch_166">
    <path d="M 871.78887 86082.74477 
L 876.565232 86082.74477 
L 876.565232 269.539794 
L 871.78887 269.539794 
z
" clip-path="url(#p224bd53c6e)" style="fill: #1f77b4; opacity: 0.7"/>
   </g>
   <g id="patch_167">
    <path d="M 876.565232 86082.74477 
L 881.341595 86082.74477 
L 881.341595 284.632998 
L 876.565232 284.632998 
z
" clip-path="url(#p224bd53c6e)" style="fill: #1f77b4; opacity: 0.7"/>
   </g>
   <g id="patch_168">
    <path d="M 881.341595 86082.74477 
L 886.117958 86082.74477 
L 886.117958 272.108014 
L 881.341595 272.108014 
z
" clip-path="url(#p224bd53c6e)" style="fill: #1f77b4; opacity: 0.7"/>
   </g>
   <g id="patch_169">
    <path d="M 886.117958 86082.74477 
L 890.89432 86082.74477 
L 890.89432 281.085132 
L 886.117958 281.085132 
z
" clip-path="url(#p224bd53c6e)" style="fill: #1f77b4; opacity: 0.7"/>
   </g>
   <g id="patch_170">
    <path d="M 890.89432 86082.74477 
L 895.670683 86082.74477 
L 895.670683 262.752979 
L 890.89432 262.752979 
z
" clip-path="url(#p224bd53c6e)" style="fill: #1f77b4; opacity: 0.7"/>
   </g>
   <g id="patch_171">
    <path d="M 895.670683 86082.74477 
L 900.447046 86082.74477 
L 900.447046 253.628438 
L 895.670683 253.628438 
z
" clip-path="url(#p224bd53c6e)" style="fill: #1f77b4; opacity: 0.7"/>
   </g>
   <g id="patch_172">
    <path d="M 900.447046 86082.74477 
L 905.223408 86082.74477 
L 905.223408 264.880668 
L 900.447046 264.880668 
z
" clip-path="url(#p224bd53c6e)" style="fill: #1f77b4; opacity: 0.7"/>
   </g>
   <g id="patch_173">
    <path d="M 905.223408 86082.74477 
L 909.999771 86082.74477 
L 909.999771 252.044181 
L 905.223408 252.044181 
z
" clip-path="url(#p224bd53c6e)" style="fill: #1f77b4; opacity: 0.7"/>
   </g>
   <g id="patch_174">
    <path d="M 909.999771 86082.74477 
L 914.776134 86082.74477 
L 914.776134 267.137385 
L 909.999771 267.137385 
z
" clip-path="url(#p224bd53c6e)" style="fill: #1f77b4; opacity: 0.7"/>
   </g>
   <g id="patch_175">
    <path d="M 914.776134 86082.74477 
L 919.552496 86082.74477 
L 919.552496 250.524605 
L 914.776134 250.524605 
z
" clip-path="url(#p224bd53c6e)" style="fill: #1f77b4; opacity: 0.7"/>
   </g>
   <g id="patch_176">
    <path d="M 919.552496 86082.74477 
L 924.328859 86082.74477 
L 924.328859 239.078665 
L 919.552496 239.078665 
z
" clip-path="url(#p224bd53c6e)" style="fill: #1f77b4; opacity: 0.7"/>
   </g>
   <g id="patch_177">
    <path d="M 924.328859 86082.74477 
L 929.105222 86082.74477 
L 929.105222 260.740358 
L 924.328859 260.740358 
z
" clip-path="url(#p224bd53c6e)" style="fill: #1f77b4; opacity: 0.7"/>
   </g>
   <g id="patch_178">
    <path d="M 929.105222 86082.74477 
L 933.881585 86082.74477 
L 933.881585 228.644586 
L 929.105222 228.644586 
z
" clip-path="url(#p224bd53c6e)" style="fill: #1f77b4; opacity: 0.7"/>
   </g>
   <g id="patch_179">
    <path d="M 933.881585 86082.74477 
L 938.657947 86082.74477 
L 938.657947 223.985461 
L 933.881585 223.985461 
z
" clip-path="url(#p224bd53c6e)" style="fill: #1f77b4; opacity: 0.7"/>
   </g>
   <g id="patch_180">
    <path d="M 938.657947 86082.74477 
L 943.43431 86082.74477 
L 943.43431 212.197618 
L 938.657947 212.197618 
z
" clip-path="url(#p224bd53c6e)" style="fill: #1f77b4; opacity: 0.7"/>
   </g>
   <g id="patch_181">
    <path d="M 943.43431 86082.74477 
L 948.210673 86082.74477 
L 948.210673 200.054425 
L 943.43431 200.054425 
z
" clip-path="url(#p224bd53c6e)" style="fill: #1f77b4; opacity: 0.7"/>
   </g>
   <g id="patch_182">
    <path d="M 948.210673 86082.74477 
L 952.987035 86082.74477 
L 952.987035 209.136352 
L 948.210673 209.136352 
z
" clip-path="url(#p224bd53c6e)" style="fill: #1f77b4; opacity: 0.7"/>
   </g>
   <g id="patch_183">
    <path d="M 952.987035 86082.74477 
L 957.763398 86082.74477 
L 957.763398 195.035858 
L 952.987035 195.035858 
z
" clip-path="url(#p224bd53c6e)" style="fill: #1f77b4; opacity: 0.7"/>
   </g>
   <g id="patch_184">
    <path d="M 957.763398 86082.74477 
L 962.539761 86082.74477 
L 962.539761 180.505817 
L 957.763398 180.505817 
z
" clip-path="url(#p224bd53c6e)" style="fill: #1f77b4; opacity: 0.7"/>
   </g>
   <g id="patch_185">
    <path d="M 962.539761 86082.74477 
L 967.316123 86082.74477 
L 967.316123 157.1668 
L 962.539761 157.1668 
z
" clip-path="url(#p224bd53c6e)" style="fill: #1f77b4; opacity: 0.7"/>
   </g>
   <g id="patch_186">
    <path d="M 967.316123 86082.74477 
L 972.092486 86082.74477 
L 972.092486 219.845151 
L 967.316123 219.845151 
z
" clip-path="url(#p224bd53c6e)" style="fill: #1f77b4; opacity: 0.7"/>
   </g>
   <g id="patch_187">
    <path d="M 972.092486 86082.74477 
L 976.868849 86082.74477 
L 976.868849 318.741391 
L 972.092486 318.741391 
z
" clip-path="url(#p224bd53c6e)" style="fill: #1f77b4; opacity: 0.7"/>
   </g>
   <g id="patch_188">
    <path d="M 976.868849 86082.74477 
L 981.645211 86082.74477 
L 981.645211 297.910017 
L 976.868849 297.910017 
z
" clip-path="url(#p224bd53c6e)" style="fill: #1f77b4; opacity: 0.7"/>
   </g>
   <g id="patch_189">
    <path d="M 981.645211 86082.74477 
L 986.421574 86082.74477 
L 986.421574 297.910017 
L 981.645211 297.910017 
z
" clip-path="url(#p224bd53c6e)" style="fill: #1f77b4; opacity: 0.7"/>
   </g>
   <g id="patch_190">
    <path d="M 986.421574 86082.74477 
L 991.197937 86082.74477 
L 991.197937 344.543395 
L 986.421574 344.543395 
z
" clip-path="url(#p224bd53c6e)" style="fill: #1f77b4; opacity: 0.7"/>
   </g>
   <g id="patch_191">
    <path d="M 991.197937 86082.74477 
L 995.974299 86082.74477 
L 995.974299 288.554983 
L 991.197937 288.554983 
z
" clip-path="url(#p224bd53c6e)" style="fill: #1f77b4; opacity: 0.7"/>
   </g>
   <g id="patch_192">
    <path d="M 995.974299 86082.74477 
L 1000.750662 86082.74477 
L 1000.750662 284.632998 
L 995.974299 284.632998 
z
" clip-path="url(#p224bd53c6e)" style="fill: #1f77b4; opacity: 0.7"/>
   </g>
   <g id="patch_193">
    <path d="M 1000.750662 86082.74477 
L 1005.527025 86082.74477 
L 1005.527025 318.741391 
L 1000.750662 318.741391 
z
" clip-path="url(#p224bd53c6e)" style="fill: #1f77b4; opacity: 0.7"/>
   </g>
   <g id="patch_194">
    <path d="M 1005.527025 86082.74477 
L 1010.303387 86082.74477 
L 1010.303387 262.752979 
L 1005.527025 262.752979 
z
" clip-path="url(#p224bd53c6e)" style="fill: #1f77b4; opacity: 0.7"/>
   </g>
   <g id="patch_195">
    <path d="M 1010.303387 86082.74477 
L 1015.07975 86082.74477 
L 1015.07975 284.632998 
L 1010.303387 284.632998 
z
" clip-path="url(#p224bd53c6e)" style="fill: #1f77b4; opacity: 0.7"/>
   </g>
   <g id="patch_196">
    <path d="M 1015.07975 86082.74477 
L 1019.856113 86082.74477 
L 1019.856113 260.740358 
L 1015.07975 260.740358 
z
" clip-path="url(#p224bd53c6e)" style="fill: #1f77b4; opacity: 0.7"/>
   </g>
   <g id="patch_197">
    <path d="M 1019.856113 86082.74477 
L 1024.632476 86082.74477 
L 1024.632476 252.044181 
L 1019.856113 252.044181 
z
" clip-path="url(#p224bd53c6e)" style="fill: #1f77b4; opacity: 0.7"/>
   </g>
   <g id="patch_198">
    <path d="M 1024.632476 86082.74477 
L 1029.408838 86082.74477 
L 1029.408838 257.014809 
L 1024.632476 257.014809 
z
" clip-path="url(#p224bd53c6e)" style="fill: #1f77b4; opacity: 0.7"/>
   </g>
   <g id="patch_199">
    <path d="M 1029.408838 86082.74477 
L 1034.185201 86082.74477 
L 1034.185201 240.189924 
L 1029.408838 240.189924 
z
" clip-path="url(#p224bd53c6e)" style="fill: #1f77b4; opacity: 0.7"/>
   </g>
   <g id="patch_200">
    <path d="M 1034.185201 86082.74477 
L 1038.961564 86082.74477 
L 1038.961564 229.481126 
L 1034.185201 229.481126 
z
" clip-path="url(#p224bd53c6e)" style="fill: #1f77b4; opacity: 0.7"/>
   </g>
   <g id="patch_201">
    <path d="M 1038.961564 86082.74477 
L 1043.737926 86082.74477 
L 1043.737926 344.543395 
L 1038.961564 344.543395 
z
" clip-path="url(#p224bd53c6e)" style="fill: #1f77b4; opacity: 0.7"/>
   </g>
   <g id="patch_202">
    <path d="M 1043.737926 86082.74477 
L 1048.514289 86082.74477 
L 1048.514289 201.622001 
L 1043.737926 201.622001 
z
" clip-path="url(#p224bd53c6e)" style="fill: #1f77b4; opacity: 0.7"/>
   </g>
   <g id="matplotlib.axis_1">
    <g id="xtick_1">
     <g id="line2d_1">
      <defs>
       <path id="mc2be4643d9" d="M 0 0 
L 0 3.5 
" style="stroke: #000000; stroke-width: 0.8"/>
      </defs>
      <g>
       <use xlink:href="#mc2be4643d9" x="93.241752" y="386.918125" style="stroke: #000000; stroke-width: 0.8"/>
      </g>
     </g>
     <g id="text_1">
      <!-- 0.0 -->
      <g transform="translate(85.290189 401.516562) scale(0.1 -0.1)">
       <defs>
        <path id="DejaVuSans-30" d="M 2034 4250 
Q 1547 4250 1301 3770 
Q 1056 3291 1056 2328 
Q 1056 1369 1301 889 
Q 1547 409 2034 409 
Q 2525 409 2770 889 
Q 3016 1369 3016 2328 
Q 3016 3291 2770 3770 
Q 2525 4250 2034 4250 
z
M 2034 4750 
Q 2819 4750 3233 4129 
Q 3647 3509 3647 2328 
Q 3647 1150 3233 529 
Q 2819 -91 2034 -91 
Q 1250 -91 836 529 
Q 422 1150 422 2328 
Q 422 3509 836 4129 
Q 1250 4750 2034 4750 
z
" transform="scale(0.015625)"/>
        <path id="DejaVuSans-2e" d="M 684 794 
L 1344 794 
L 1344 0 
L 684 0 
L 684 794 
z
" transform="scale(0.015625)"/>
       </defs>
       <use xlink:href="#DejaVuSans-30"/>
       <use xlink:href="#DejaVuSans-2e" transform="translate(63.623047 0)"/>
       <use xlink:href="#DejaVuSans-30" transform="translate(95.410156 0)"/>
      </g>
     </g>
    </g>
    <g id="xtick_2">
     <g id="line2d_2">
      <g>
       <use xlink:href="#mc2be4643d9" x="284.299225" y="386.918125" style="stroke: #000000; stroke-width: 0.8"/>
      </g>
     </g>
     <g id="text_2">
      <!-- 0.2 -->
      <g transform="translate(276.347662 401.516562) scale(0.1 -0.1)">
       <defs>
        <path id="DejaVuSans-32" d="M 1228 531 
L 3431 531 
L 3431 0 
L 469 0 
L 469 531 
Q 828 903 1448 1529 
Q 2069 2156 2228 2338 
Q 2531 2678 2651 2914 
Q 2772 3150 2772 3378 
Q 2772 3750 2511 3984 
Q 2250 4219 1831 4219 
Q 1534 4219 1204 4116 
Q 875 4013 500 3803 
L 500 4441 
Q 881 4594 1212 4672 
Q 1544 4750 1819 4750 
Q 2544 4750 2975 4387 
Q 3406 4025 3406 3419 
Q 3406 3131 3298 2873 
Q 3191 2616 2906 2266 
Q 2828 2175 2409 1742 
Q 1991 1309 1228 531 
z
" transform="scale(0.015625)"/>
       </defs>
       <use xlink:href="#DejaVuSans-30"/>
       <use xlink:href="#DejaVuSans-2e" transform="translate(63.623047 0)"/>
       <use xlink:href="#DejaVuSans-32" transform="translate(95.410156 0)"/>
      </g>
     </g>
    </g>
    <g id="xtick_3">
     <g id="line2d_3">
      <g>
       <use xlink:href="#mc2be4643d9" x="475.356698" y="386.918125" style="stroke: #000000; stroke-width: 0.8"/>
      </g>
     </g>
     <g id="text_3">
      <!-- 0.4 -->
      <g transform="translate(467.405135 401.516562) scale(0.1 -0.1)">
       <defs>
        <path id="DejaVuSans-34" d="M 2419 4116 
L 825 1625 
L 2419 1625 
L 2419 4116 
z
M 2253 4666 
L 3047 4666 
L 3047 1625 
L 3713 1625 
L 3713 1100 
L 3047 1100 
L 3047 0 
L 2419 0 
L 2419 1100 
L 313 1100 
L 313 1709 
L 2253 4666 
z
" transform="scale(0.015625)"/>
       </defs>
       <use xlink:href="#DejaVuSans-30"/>
       <use xlink:href="#DejaVuSans-2e" transform="translate(63.623047 0)"/>
       <use xlink:href="#DejaVuSans-34" transform="translate(95.410156 0)"/>
      </g>
     </g>
    </g>
    <g id="xtick_4">
     <g id="line2d_4">
      <g>
       <use xlink:href="#mc2be4643d9" x="666.414171" y="386.918125" style="stroke: #000000; stroke-width: 0.8"/>
      </g>
     </g>
     <g id="text_4">
      <!-- 0.6 -->
      <g transform="translate(658.462608 401.516562) scale(0.1 -0.1)">
       <defs>
        <path id="DejaVuSans-36" d="M 2113 2584 
Q 1688 2584 1439 2293 
Q 1191 2003 1191 1497 
Q 1191 994 1439 701 
Q 1688 409 2113 409 
Q 2538 409 2786 701 
Q 3034 994 3034 1497 
Q 3034 2003 2786 2293 
Q 2538 2584 2113 2584 
z
M 3366 4563 
L 3366 3988 
Q 3128 4100 2886 4159 
Q 2644 4219 2406 4219 
Q 1781 4219 1451 3797 
Q 1122 3375 1075 2522 
Q 1259 2794 1537 2939 
Q 1816 3084 2150 3084 
Q 2853 3084 3261 2657 
Q 3669 2231 3669 1497 
Q 3669 778 3244 343 
Q 2819 -91 2113 -91 
Q 1303 -91 875 529 
Q 447 1150 447 2328 
Q 447 3434 972 4092 
Q 1497 4750 2381 4750 
Q 2619 4750 2861 4703 
Q 3103 4656 3366 4563 
z
" transform="scale(0.015625)"/>
       </defs>
       <use xlink:href="#DejaVuSans-30"/>
       <use xlink:href="#DejaVuSans-2e" transform="translate(63.623047 0)"/>
       <use xlink:href="#DejaVuSans-36" transform="translate(95.410156 0)"/>
      </g>
     </g>
    </g>
    <g id="xtick_5">
     <g id="line2d_5">
      <g>
       <use xlink:href="#mc2be4643d9" x="857.471644" y="386.918125" style="stroke: #000000; stroke-width: 0.8"/>
      </g>
     </g>
     <g id="text_5">
      <!-- 0.8 -->
      <g transform="translate(849.520081 401.516562) scale(0.1 -0.1)">
       <defs>
        <path id="DejaVuSans-38" d="M 2034 2216 
Q 1584 2216 1326 1975 
Q 1069 1734 1069 1313 
Q 1069 891 1326 650 
Q 1584 409 2034 409 
Q 2484 409 2743 651 
Q 3003 894 3003 1313 
Q 3003 1734 2745 1975 
Q 2488 2216 2034 2216 
z
M 1403 2484 
Q 997 2584 770 2862 
Q 544 3141 544 3541 
Q 544 4100 942 4425 
Q 1341 4750 2034 4750 
Q 2731 4750 3128 4425 
Q 3525 4100 3525 3541 
Q 3525 3141 3298 2862 
Q 3072 2584 2669 2484 
Q 3125 2378 3379 2068 
Q 3634 1759 3634 1313 
Q 3634 634 3220 271 
Q 2806 -91 2034 -91 
Q 1263 -91 848 271 
Q 434 634 434 1313 
Q 434 1759 690 2068 
Q 947 2378 1403 2484 
z
M 1172 3481 
Q 1172 3119 1398 2916 
Q 1625 2713 2034 2713 
Q 2441 2713 2670 2916 
Q 2900 3119 2900 3481 
Q 2900 3844 2670 4047 
Q 2441 4250 2034 4250 
Q 1625 4250 1398 4047 
Q 1172 3844 1172 3481 
z
" transform="scale(0.015625)"/>
       </defs>
       <use xlink:href="#DejaVuSans-30"/>
       <use xlink:href="#DejaVuSans-2e" transform="translate(63.623047 0)"/>
       <use xlink:href="#DejaVuSans-38" transform="translate(95.410156 0)"/>
      </g>
     </g>
    </g>
    <g id="xtick_6">
     <g id="line2d_6">
      <g>
       <use xlink:href="#mc2be4643d9" x="1048.529116" y="386.918125" style="stroke: #000000; stroke-width: 0.8"/>
      </g>
     </g>
     <g id="text_6">
      <!-- 1.0 -->
      <g transform="translate(1040.577554 401.516562) scale(0.1 -0.1)">
       <defs>
        <path id="DejaVuSans-31" d="M 794 531 
L 1825 531 
L 1825 4091 
L 703 3866 
L 703 4441 
L 1819 4666 
L 2450 4666 
L 2450 531 
L 3481 531 
L 3481 0 
L 794 0 
L 794 531 
z
" transform="scale(0.015625)"/>
       </defs>
       <use xlink:href="#DejaVuSans-31"/>
       <use xlink:href="#DejaVuSans-2e" transform="translate(63.623047 0)"/>
       <use xlink:href="#DejaVuSans-30" transform="translate(95.410156 0)"/>
      </g>
     </g>
    </g>
    <g id="text_7">
     <!-- Score -->
     <g transform="translate(556.875677 415.194687) scale(0.1 -0.1)">
      <defs>
       <path id="DejaVuSans-53" d="M 3425 4513 
L 3425 3897 
Q 3066 4069 2747 4153 
Q 2428 4238 2131 4238 
Q 1616 4238 1336 4038 
Q 1056 3838 1056 3469 
Q 1056 3159 1242 3001 
Q 1428 2844 1947 2747 
L 2328 2669 
Q 3034 2534 3370 2195 
Q 3706 1856 3706 1288 
Q 3706 609 3251 259 
Q 2797 -91 1919 -91 
Q 1588 -91 1214 -16 
Q 841 59 441 206 
L 441 856 
Q 825 641 1194 531 
Q 1563 422 1919 422 
Q 2459 422 2753 634 
Q 3047 847 3047 1241 
Q 3047 1584 2836 1778 
Q 2625 1972 2144 2069 
L 1759 2144 
Q 1053 2284 737 2584 
Q 422 2884 422 3419 
Q 422 4038 858 4394 
Q 1294 4750 2059 4750 
Q 2388 4750 2728 4690 
Q 3069 4631 3425 4513 
z
" transform="scale(0.015625)"/>
       <path id="DejaVuSans-63" d="M 3122 3366 
L 3122 2828 
Q 2878 2963 2633 3030 
Q 2388 3097 2138 3097 
Q 1578 3097 1268 2742 
Q 959 2388 959 1747 
Q 959 1106 1268 751 
Q 1578 397 2138 397 
Q 2388 397 2633 464 
Q 2878 531 3122 666 
L 3122 134 
Q 2881 22 2623 -34 
Q 2366 -91 2075 -91 
Q 1284 -91 818 406 
Q 353 903 353 1747 
Q 353 2603 823 3093 
Q 1294 3584 2113 3584 
Q 2378 3584 2631 3529 
Q 2884 3475 3122 3366 
z
" transform="scale(0.015625)"/>
       <path id="DejaVuSans-6f" d="M 1959 3097 
Q 1497 3097 1228 2736 
Q 959 2375 959 1747 
Q 959 1119 1226 758 
Q 1494 397 1959 397 
Q 2419 397 2687 759 
Q 2956 1122 2956 1747 
Q 2956 2369 2687 2733 
Q 2419 3097 1959 3097 
z
M 1959 3584 
Q 2709 3584 3137 3096 
Q 3566 2609 3566 1747 
Q 3566 888 3137 398 
Q 2709 -91 1959 -91 
Q 1206 -91 779 398 
Q 353 888 353 1747 
Q 353 2609 779 3096 
Q 1206 3584 1959 3584 
z
" transform="scale(0.015625)"/>
       <path id="DejaVuSans-72" d="M 2631 2963 
Q 2534 3019 2420 3045 
Q 2306 3072 2169 3072 
Q 1681 3072 1420 2755 
Q 1159 2438 1159 1844 
L 1159 0 
L 581 0 
L 581 3500 
L 1159 3500 
L 1159 2956 
Q 1341 3275 1631 3429 
Q 1922 3584 2338 3584 
Q 2397 3584 2469 3576 
Q 2541 3569 2628 3553 
L 2631 2963 
z
" transform="scale(0.015625)"/>
       <path id="DejaVuSans-65" d="M 3597 1894 
L 3597 1613 
L 953 1613 
Q 991 1019 1311 708 
Q 1631 397 2203 397 
Q 2534 397 2845 478 
Q 3156 559 3463 722 
L 3463 178 
Q 3153 47 2828 -22 
Q 2503 -91 2169 -91 
Q 1331 -91 842 396 
Q 353 884 353 1716 
Q 353 2575 817 3079 
Q 1281 3584 2069 3584 
Q 2775 3584 3186 3129 
Q 3597 2675 3597 1894 
z
M 3022 2063 
Q 3016 2534 2758 2815 
Q 2500 3097 2075 3097 
Q 1594 3097 1305 2825 
Q 1016 2553 972 2059 
L 3022 2063 
z
" transform="scale(0.015625)"/>
      </defs>
      <use xlink:href="#DejaVuSans-53"/>
      <use xlink:href="#DejaVuSans-63" transform="translate(63.476562 0)"/>
      <use xlink:href="#DejaVuSans-6f" transform="translate(118.457031 0)"/>
      <use xlink:href="#DejaVuSans-72" transform="translate(179.638672 0)"/>
      <use xlink:href="#DejaVuSans-65" transform="translate(218.501953 0)"/>
     </g>
    </g>
   </g>
   <g id="matplotlib.axis_2">
    <g id="ytick_1">
     <g id="line2d_7">
      <path d="M 45.478125 370.345398 
L 1096.277916 370.345398 
" clip-path="url(#p224bd53c6e)" style="fill: none; stroke-dasharray: 2.96,1.28; stroke-dashoffset: 0; stroke: #b0b0b0; stroke-opacity: 0.3; stroke-width: 0.8"/>
     </g>
     <g id="line2d_8">
      <defs>
       <path id="mf7133b5ca4" d="M 0 0 
L -3.5 0 
" style="stroke: #000000; stroke-width: 0.8"/>
      </defs>
      <g>
       <use xlink:href="#mf7133b5ca4" x="45.478125" y="370.345398" style="stroke: #000000; stroke-width: 0.8"/>
      </g>
     </g>
     <g id="text_8">
      <!-- $\mathdefault{10^{0}}$ -->
      <g style="fill: #1f77b4" transform="translate(20.878125 374.144616) scale(0.1 -0.1)">
       <use xlink:href="#DejaVuSans-31" transform="translate(0 0.765625)"/>
       <use xlink:href="#DejaVuSans-30" transform="translate(63.623047 0.765625)"/>
       <use xlink:href="#DejaVuSans-30" transform="translate(128.203125 39.046875) scale(0.7)"/>
      </g>
     </g>
    </g>
    <g id="ytick_2">
     <g id="line2d_9">
      <path d="M 45.478125 284.632998 
L 1096.277916 284.632998 
" clip-path="url(#p224bd53c6e)" style="fill: none; stroke-dasharray: 2.96,1.28; stroke-dashoffset: 0; stroke: #b0b0b0; stroke-opacity: 0.3; stroke-width: 0.8"/>
     </g>
     <g id="line2d_10">
      <g>
       <use xlink:href="#mf7133b5ca4" x="45.478125" y="284.632998" style="stroke: #000000; stroke-width: 0.8"/>
      </g>
     </g>
     <g id="text_9">
      <!-- $\mathdefault{10^{1}}$ -->
      <g style="fill: #1f77b4" transform="translate(20.878125 288.432217) scale(0.1 -0.1)">
       <use xlink:href="#DejaVuSans-31" transform="translate(0 0.684375)"/>
       <use xlink:href="#DejaVuSans-30" transform="translate(63.623047 0.684375)"/>
       <use xlink:href="#DejaVuSans-31" transform="translate(128.203125 38.965625) scale(0.7)"/>
      </g>
     </g>
    </g>
    <g id="ytick_3">
     <g id="line2d_11">
      <path d="M 45.478125 198.920599 
L 1096.277916 198.920599 
" clip-path="url(#p224bd53c6e)" style="fill: none; stroke-dasharray: 2.96,1.28; stroke-dashoffset: 0; stroke: #b0b0b0; stroke-opacity: 0.3; stroke-width: 0.8"/>
     </g>
     <g id="line2d_12">
      <g>
       <use xlink:href="#mf7133b5ca4" x="45.478125" y="198.920599" style="stroke: #000000; stroke-width: 0.8"/>
      </g>
     </g>
     <g id="text_10">
      <!-- $\mathdefault{10^{2}}$ -->
      <g style="fill: #1f77b4" transform="translate(20.878125 202.719818) scale(0.1 -0.1)">
       <use xlink:href="#DejaVuSans-31" transform="translate(0 0.765625)"/>
       <use xlink:href="#DejaVuSans-30" transform="translate(63.623047 0.765625)"/>
       <use xlink:href="#DejaVuSans-32" transform="translate(128.203125 39.046875) scale(0.7)"/>
      </g>
     </g>
    </g>
    <g id="ytick_4">
     <g id="line2d_13">
      <path d="M 45.478125 113.2082 
L 1096.277916 113.2082 
" clip-path="url(#p224bd53c6e)" style="fill: none; stroke-dasharray: 2.96,1.28; stroke-dashoffset: 0; stroke: #b0b0b0; stroke-opacity: 0.3; stroke-width: 0.8"/>
     </g>
     <g id="line2d_14">
      <g>
       <use xlink:href="#mf7133b5ca4" x="45.478125" y="113.2082" style="stroke: #000000; stroke-width: 0.8"/>
      </g>
     </g>
     <g id="text_11">
      <!-- $\mathdefault{10^{3}}$ -->
      <g style="fill: #1f77b4" transform="translate(20.878125 117.007418) scale(0.1 -0.1)">
       <defs>
        <path id="DejaVuSans-33" d="M 2597 2516 
Q 3050 2419 3304 2112 
Q 3559 1806 3559 1356 
Q 3559 666 3084 287 
Q 2609 -91 1734 -91 
Q 1441 -91 1130 -33 
Q 819 25 488 141 
L 488 750 
Q 750 597 1062 519 
Q 1375 441 1716 441 
Q 2309 441 2620 675 
Q 2931 909 2931 1356 
Q 2931 1769 2642 2001 
Q 2353 2234 1838 2234 
L 1294 2234 
L 1294 2753 
L 1863 2753 
Q 2328 2753 2575 2939 
Q 2822 3125 2822 3475 
Q 2822 3834 2567 4026 
Q 2313 4219 1838 4219 
Q 1578 4219 1281 4162 
Q 984 4106 628 3988 
L 628 4550 
Q 988 4650 1302 4700 
Q 1616 4750 1894 4750 
Q 2613 4750 3031 4423 
Q 3450 4097 3450 3541 
Q 3450 3153 3228 2886 
Q 3006 2619 2597 2516 
z
" transform="scale(0.015625)"/>
       </defs>
       <use xlink:href="#DejaVuSans-31" transform="translate(0 0.765625)"/>
       <use xlink:href="#DejaVuSans-30" transform="translate(63.623047 0.765625)"/>
       <use xlink:href="#DejaVuSans-33" transform="translate(128.203125 39.046875) scale(0.7)"/>
      </g>
     </g>
    </g>
    <g id="ytick_5">
     <g id="line2d_15">
      <path d="M 45.478125 27.4958 
L 1096.277916 27.4958 
" clip-path="url(#p224bd53c6e)" style="fill: none; stroke-dasharray: 2.96,1.28; stroke-dashoffset: 0; stroke: #b0b0b0; stroke-opacity: 0.3; stroke-width: 0.8"/>
     </g>
     <g id="line2d_16">
      <g>
       <use xlink:href="#mf7133b5ca4" x="45.478125" y="27.4958" style="stroke: #000000; stroke-width: 0.8"/>
      </g>
     </g>
     <g id="text_12">
      <!-- $\mathdefault{10^{4}}$ -->
      <g style="fill: #1f77b4" transform="translate(20.878125 31.295019) scale(0.1 -0.1)">
       <use xlink:href="#DejaVuSans-31" transform="translate(0 0.684375)"/>
       <use xlink:href="#DejaVuSans-30" transform="translate(63.623047 0.684375)"/>
       <use xlink:href="#DejaVuSans-34" transform="translate(128.203125 38.965625) scale(0.7)"/>
      </g>
     </g>
    </g>
    <g id="ytick_6">
     <g id="line2d_17">
      <defs>
       <path id="m679276c5d3" d="M 0 0 
L -2 0 
" style="stroke: #000000; stroke-width: 0.6"/>
      </defs>
      <g>
       <use xlink:href="#m679276c5d3" x="45.478125" y="383.622416" style="stroke: #000000; stroke-width: 0.6"/>
      </g>
     </g>
    </g>
    <g id="ytick_7">
     <g id="line2d_18">
      <g>
       <use xlink:href="#m679276c5d3" x="45.478125" y="378.651787" style="stroke: #000000; stroke-width: 0.6"/>
      </g>
     </g>
    </g>
    <g id="ytick_8">
     <g id="line2d_19">
      <g>
       <use xlink:href="#m679276c5d3" x="45.478125" y="374.267382" style="stroke: #000000; stroke-width: 0.6"/>
      </g>
     </g>
    </g>
    <g id="ytick_9">
     <g id="line2d_20">
      <g>
       <use xlink:href="#m679276c5d3" x="45.478125" y="344.543395" style="stroke: #000000; stroke-width: 0.6"/>
      </g>
     </g>
    </g>
    <g id="ytick_10">
     <g id="line2d_21">
      <g>
       <use xlink:href="#m679276c5d3" x="45.478125" y="329.45019" style="stroke: #000000; stroke-width: 0.6"/>
      </g>
     </g>
    </g>
    <g id="ytick_11">
     <g id="line2d_22">
      <g>
       <use xlink:href="#m679276c5d3" x="45.478125" y="318.741391" style="stroke: #000000; stroke-width: 0.6"/>
      </g>
     </g>
    </g>
    <g id="ytick_12">
     <g id="line2d_23">
      <g>
       <use xlink:href="#m679276c5d3" x="45.478125" y="310.435002" style="stroke: #000000; stroke-width: 0.6"/>
      </g>
     </g>
    </g>
    <g id="ytick_13">
     <g id="line2d_24">
      <g>
       <use xlink:href="#m679276c5d3" x="45.478125" y="303.648187" style="stroke: #000000; stroke-width: 0.6"/>
      </g>
     </g>
    </g>
    <g id="ytick_14">
     <g id="line2d_25">
      <g>
       <use xlink:href="#m679276c5d3" x="45.478125" y="297.910017" style="stroke: #000000; stroke-width: 0.6"/>
      </g>
     </g>
    </g>
    <g id="ytick_15">
     <g id="line2d_26">
      <g>
       <use xlink:href="#m679276c5d3" x="45.478125" y="292.939388" style="stroke: #000000; stroke-width: 0.6"/>
      </g>
     </g>
    </g>
    <g id="ytick_16">
     <g id="line2d_27">
      <g>
       <use xlink:href="#m679276c5d3" x="45.478125" y="288.554983" style="stroke: #000000; stroke-width: 0.6"/>
      </g>
     </g>
    </g>
    <g id="ytick_17">
     <g id="line2d_28">
      <g>
       <use xlink:href="#m679276c5d3" x="45.478125" y="258.830995" style="stroke: #000000; stroke-width: 0.6"/>
      </g>
     </g>
    </g>
    <g id="ytick_18">
     <g id="line2d_29">
      <g>
       <use xlink:href="#m679276c5d3" x="45.478125" y="243.737791" style="stroke: #000000; stroke-width: 0.6"/>
      </g>
     </g>
    </g>
    <g id="ytick_19">
     <g id="line2d_30">
      <g>
       <use xlink:href="#m679276c5d3" x="45.478125" y="233.028992" style="stroke: #000000; stroke-width: 0.6"/>
      </g>
     </g>
    </g>
    <g id="ytick_20">
     <g id="line2d_31">
      <g>
       <use xlink:href="#m679276c5d3" x="45.478125" y="224.722602" style="stroke: #000000; stroke-width: 0.6"/>
      </g>
     </g>
    </g>
    <g id="ytick_21">
     <g id="line2d_32">
      <g>
       <use xlink:href="#m679276c5d3" x="45.478125" y="217.935788" style="stroke: #000000; stroke-width: 0.6"/>
      </g>
     </g>
    </g>
    <g id="ytick_22">
     <g id="line2d_33">
      <g>
       <use xlink:href="#m679276c5d3" x="45.478125" y="212.197618" style="stroke: #000000; stroke-width: 0.6"/>
      </g>
     </g>
    </g>
    <g id="ytick_23">
     <g id="line2d_34">
      <g>
       <use xlink:href="#m679276c5d3" x="45.478125" y="207.226989" style="stroke: #000000; stroke-width: 0.6"/>
      </g>
     </g>
    </g>
    <g id="ytick_24">
     <g id="line2d_35">
      <g>
       <use xlink:href="#m679276c5d3" x="45.478125" y="202.842583" style="stroke: #000000; stroke-width: 0.6"/>
      </g>
     </g>
    </g>
    <g id="ytick_25">
     <g id="line2d_36">
      <g>
       <use xlink:href="#m679276c5d3" x="45.478125" y="173.118596" style="stroke: #000000; stroke-width: 0.6"/>
      </g>
     </g>
    </g>
    <g id="ytick_26">
     <g id="line2d_37">
      <g>
       <use xlink:href="#m679276c5d3" x="45.478125" y="158.025391" style="stroke: #000000; stroke-width: 0.6"/>
      </g>
     </g>
    </g>
    <g id="ytick_27">
     <g id="line2d_38">
      <g>
       <use xlink:href="#m679276c5d3" x="45.478125" y="147.316593" style="stroke: #000000; stroke-width: 0.6"/>
      </g>
     </g>
    </g>
    <g id="ytick_28">
     <g id="line2d_39">
      <g>
       <use xlink:href="#m679276c5d3" x="45.478125" y="139.010203" style="stroke: #000000; stroke-width: 0.6"/>
      </g>
     </g>
    </g>
    <g id="ytick_29">
     <g id="line2d_40">
      <g>
       <use xlink:href="#m679276c5d3" x="45.478125" y="132.223388" style="stroke: #000000; stroke-width: 0.6"/>
      </g>
     </g>
    </g>
    <g id="ytick_30">
     <g id="line2d_41">
      <g>
       <use xlink:href="#m679276c5d3" x="45.478125" y="126.485218" style="stroke: #000000; stroke-width: 0.6"/>
      </g>
     </g>
    </g>
    <g id="ytick_31">
     <g id="line2d_42">
      <g>
       <use xlink:href="#m679276c5d3" x="45.478125" y="121.514589" style="stroke: #000000; stroke-width: 0.6"/>
      </g>
     </g>
    </g>
    <g id="ytick_32">
     <g id="line2d_43">
      <g>
       <use xlink:href="#m679276c5d3" x="45.478125" y="117.130184" style="stroke: #000000; stroke-width: 0.6"/>
      </g>
     </g>
    </g>
    <g id="ytick_33">
     <g id="line2d_44">
      <g>
       <use xlink:href="#m679276c5d3" x="45.478125" y="87.406196" style="stroke: #000000; stroke-width: 0.6"/>
      </g>
     </g>
    </g>
    <g id="ytick_34">
     <g id="line2d_45">
      <g>
       <use xlink:href="#m679276c5d3" x="45.478125" y="72.312992" style="stroke: #000000; stroke-width: 0.6"/>
      </g>
     </g>
    </g>
    <g id="ytick_35">
     <g id="line2d_46">
      <g>
       <use xlink:href="#m679276c5d3" x="45.478125" y="61.604193" style="stroke: #000000; stroke-width: 0.6"/>
      </g>
     </g>
    </g>
    <g id="ytick_36">
     <g id="line2d_47">
      <g>
       <use xlink:href="#m679276c5d3" x="45.478125" y="53.297803" style="stroke: #000000; stroke-width: 0.6"/>
      </g>
     </g>
    </g>
    <g id="ytick_37">
     <g id="line2d_48">
      <g>
       <use xlink:href="#m679276c5d3" x="45.478125" y="46.510989" style="stroke: #000000; stroke-width: 0.6"/>
      </g>
     </g>
    </g>
    <g id="ytick_38">
     <g id="line2d_49">
      <g>
       <use xlink:href="#m679276c5d3" x="45.478125" y="40.772819" style="stroke: #000000; stroke-width: 0.6"/>
      </g>
     </g>
    </g>
    <g id="ytick_39">
     <g id="line2d_50">
      <g>
       <use xlink:href="#m679276c5d3" x="45.478125" y="35.80219" style="stroke: #000000; stroke-width: 0.6"/>
      </g>
     </g>
    </g>
    <g id="ytick_40">
     <g id="line2d_51">
      <g>
       <use xlink:href="#m679276c5d3" x="45.478125" y="31.417785" style="stroke: #000000; stroke-width: 0.6"/>
      </g>
     </g>
    </g>
    <g id="text_13">
     <!-- Number of cells -->
     <g style="fill: #1f77b4" transform="translate(14.798438 243.910312) rotate(-90) scale(0.1 -0.1)">
      <defs>
       <path id="DejaVuSans-4e" d="M 628 4666 
L 1478 4666 
L 3547 763 
L 3547 4666 
L 4159 4666 
L 4159 0 
L 3309 0 
L 1241 3903 
L 1241 0 
L 628 0 
L 628 4666 
z
" transform="scale(0.015625)"/>
       <path id="DejaVuSans-75" d="M 544 1381 
L 544 3500 
L 1119 3500 
L 1119 1403 
Q 1119 906 1312 657 
Q 1506 409 1894 409 
Q 2359 409 2629 706 
Q 2900 1003 2900 1516 
L 2900 3500 
L 3475 3500 
L 3475 0 
L 2900 0 
L 2900 538 
Q 2691 219 2414 64 
Q 2138 -91 1772 -91 
Q 1169 -91 856 284 
Q 544 659 544 1381 
z
M 1991 3584 
L 1991 3584 
z
" transform="scale(0.015625)"/>
       <path id="DejaVuSans-6d" d="M 3328 2828 
Q 3544 3216 3844 3400 
Q 4144 3584 4550 3584 
Q 5097 3584 5394 3201 
Q 5691 2819 5691 2113 
L 5691 0 
L 5113 0 
L 5113 2094 
Q 5113 2597 4934 2840 
Q 4756 3084 4391 3084 
Q 3944 3084 3684 2787 
Q 3425 2491 3425 1978 
L 3425 0 
L 2847 0 
L 2847 2094 
Q 2847 2600 2669 2842 
Q 2491 3084 2119 3084 
Q 1678 3084 1418 2786 
Q 1159 2488 1159 1978 
L 1159 0 
L 581 0 
L 581 3500 
L 1159 3500 
L 1159 2956 
Q 1356 3278 1631 3431 
Q 1906 3584 2284 3584 
Q 2666 3584 2933 3390 
Q 3200 3197 3328 2828 
z
" transform="scale(0.015625)"/>
       <path id="DejaVuSans-62" d="M 3116 1747 
Q 3116 2381 2855 2742 
Q 2594 3103 2138 3103 
Q 1681 3103 1420 2742 
Q 1159 2381 1159 1747 
Q 1159 1113 1420 752 
Q 1681 391 2138 391 
Q 2594 391 2855 752 
Q 3116 1113 3116 1747 
z
M 1159 2969 
Q 1341 3281 1617 3432 
Q 1894 3584 2278 3584 
Q 2916 3584 3314 3078 
Q 3713 2572 3713 1747 
Q 3713 922 3314 415 
Q 2916 -91 2278 -91 
Q 1894 -91 1617 61 
Q 1341 213 1159 525 
L 1159 0 
L 581 0 
L 581 4863 
L 1159 4863 
L 1159 2969 
z
" transform="scale(0.015625)"/>
       <path id="DejaVuSans-20" transform="scale(0.015625)"/>
       <path id="DejaVuSans-66" d="M 2375 4863 
L 2375 4384 
L 1825 4384 
Q 1516 4384 1395 4259 
Q 1275 4134 1275 3809 
L 1275 3500 
L 2222 3500 
L 2222 3053 
L 1275 3053 
L 1275 0 
L 697 0 
L 697 3053 
L 147 3053 
L 147 3500 
L 697 3500 
L 697 3744 
Q 697 4328 969 4595 
Q 1241 4863 1831 4863 
L 2375 4863 
z
" transform="scale(0.015625)"/>
       <path id="DejaVuSans-6c" d="M 603 4863 
L 1178 4863 
L 1178 0 
L 603 0 
L 603 4863 
z
" transform="scale(0.015625)"/>
       <path id="DejaVuSans-73" d="M 2834 3397 
L 2834 2853 
Q 2591 2978 2328 3040 
Q 2066 3103 1784 3103 
Q 1356 3103 1142 2972 
Q 928 2841 928 2578 
Q 928 2378 1081 2264 
Q 1234 2150 1697 2047 
L 1894 2003 
Q 2506 1872 2764 1633 
Q 3022 1394 3022 966 
Q 3022 478 2636 193 
Q 2250 -91 1575 -91 
Q 1294 -91 989 -36 
Q 684 19 347 128 
L 347 722 
Q 666 556 975 473 
Q 1284 391 1588 391 
Q 1994 391 2212 530 
Q 2431 669 2431 922 
Q 2431 1156 2273 1281 
Q 2116 1406 1581 1522 
L 1381 1569 
Q 847 1681 609 1914 
Q 372 2147 372 2553 
Q 372 3047 722 3315 
Q 1072 3584 1716 3584 
Q 2034 3584 2315 3537 
Q 2597 3491 2834 3397 
z
" transform="scale(0.015625)"/>
      </defs>
      <use xlink:href="#DejaVuSans-4e"/>
      <use xlink:href="#DejaVuSans-75" transform="translate(74.804688 0)"/>
      <use xlink:href="#DejaVuSans-6d" transform="translate(138.183594 0)"/>
      <use xlink:href="#DejaVuSans-62" transform="translate(235.595703 0)"/>
      <use xlink:href="#DejaVuSans-65" transform="translate(299.072266 0)"/>
      <use xlink:href="#DejaVuSans-72" transform="translate(360.595703 0)"/>
      <use xlink:href="#DejaVuSans-20" transform="translate(401.708984 0)"/>
      <use xlink:href="#DejaVuSans-6f" transform="translate(433.496094 0)"/>
      <use xlink:href="#DejaVuSans-66" transform="translate(494.677734 0)"/>
      <use xlink:href="#DejaVuSans-20" transform="translate(529.882812 0)"/>
      <use xlink:href="#DejaVuSans-63" transform="translate(561.669922 0)"/>
      <use xlink:href="#DejaVuSans-65" transform="translate(616.650391 0)"/>
      <use xlink:href="#DejaVuSans-6c" transform="translate(678.173828 0)"/>
      <use xlink:href="#DejaVuSans-6c" transform="translate(705.957031 0)"/>
      <use xlink:href="#DejaVuSans-73" transform="translate(733.740234 0)"/>
     </g>
    </g>
   </g>
   <g id="line2d_52">
    <path d="M 981.659001 386.918125 
L 981.659001 22.318125 
" clip-path="url(#p224bd53c6e)" style="fill: none; stroke-dasharray: 3.7,1.6; stroke-dashoffset: 0; stroke: #000000"/>
   </g>
   <g id="patch_203">
    <path d="M 45.478125 386.918125 
L 45.478125 22.318125 
" style="fill: none; stroke: #000000; stroke-width: 0.8; stroke-linejoin: miter; stroke-linecap: square"/>
   </g>
   <g id="patch_204">
    <path d="M 1096.277916 386.918125 
L 1096.277916 22.318125 
" style="fill: none; stroke: #000000; stroke-width: 0.8; stroke-linejoin: miter; stroke-linecap: square"/>
   </g>
   <g id="patch_205">
    <path d="M 45.478125 386.918125 
L 1096.277916 386.918125 
" style="fill: none; stroke: #000000; stroke-width: 0.8; stroke-linejoin: miter; stroke-linecap: square"/>
   </g>
   <g id="patch_206">
    <path d="M 45.478125 22.318125 
L 1096.277916 22.318125 
" style="fill: none; stroke: #000000; stroke-width: 0.8; stroke-linejoin: miter; stroke-linecap: square"/>
   </g>
   <g id="text_14">
    <!-- 0.93 -->
    <g transform="translate(986.435438 35.966236) scale(0.1 -0.1)">
     <defs>
      <path id="DejaVuSans-39" d="M 703 97 
L 703 672 
Q 941 559 1184 500 
Q 1428 441 1663 441 
Q 2288 441 2617 861 
Q 2947 1281 2994 2138 
Q 2813 1869 2534 1725 
Q 2256 1581 1919 1581 
Q 1219 1581 811 2004 
Q 403 2428 403 3163 
Q 403 3881 828 4315 
Q 1253 4750 1959 4750 
Q 2769 4750 3195 4129 
Q 3622 3509 3622 2328 
Q 3622 1225 3098 567 
Q 2575 -91 1691 -91 
Q 1453 -91 1209 -44 
Q 966 3 703 97 
z
M 1959 2075 
Q 2384 2075 2632 2365 
Q 2881 2656 2881 3163 
Q 2881 3666 2632 3958 
Q 2384 4250 1959 4250 
Q 1534 4250 1286 3958 
Q 1038 3666 1038 3163 
Q 1038 2656 1286 2365 
Q 1534 2075 1959 2075 
z
" transform="scale(0.015625)"/>
     </defs>
     <use xlink:href="#DejaVuSans-30"/>
     <use xlink:href="#DejaVuSans-2e" transform="translate(63.623047 0)"/>
     <use xlink:href="#DejaVuSans-39" transform="translate(95.410156 0)"/>
     <use xlink:href="#DejaVuSans-33" transform="translate(159.033203 0)"/>
    </g>
   </g>
   <g id="text_15">
    <!-- Distribution of SIGMA scores -->
    <g transform="translate(485.617083 16.318125) scale(0.12 -0.12)">
     <defs>
      <path id="DejaVuSans-44" d="M 1259 4147 
L 1259 519 
L 2022 519 
Q 2988 519 3436 956 
Q 3884 1394 3884 2338 
Q 3884 3275 3436 3711 
Q 2988 4147 2022 4147 
L 1259 4147 
z
M 628 4666 
L 1925 4666 
Q 3281 4666 3915 4102 
Q 4550 3538 4550 2338 
Q 4550 1131 3912 565 
Q 3275 0 1925 0 
L 628 0 
L 628 4666 
z
" transform="scale(0.015625)"/>
      <path id="DejaVuSans-69" d="M 603 3500 
L 1178 3500 
L 1178 0 
L 603 0 
L 603 3500 
z
M 603 4863 
L 1178 4863 
L 1178 4134 
L 603 4134 
L 603 4863 
z
" transform="scale(0.015625)"/>
      <path id="DejaVuSans-74" d="M 1172 4494 
L 1172 3500 
L 2356 3500 
L 2356 3053 
L 1172 3053 
L 1172 1153 
Q 1172 725 1289 603 
Q 1406 481 1766 481 
L 2356 481 
L 2356 0 
L 1766 0 
Q 1100 0 847 248 
Q 594 497 594 1153 
L 594 3053 
L 172 3053 
L 172 3500 
L 594 3500 
L 594 4494 
L 1172 4494 
z
" transform="scale(0.015625)"/>
      <path id="DejaVuSans-6e" d="M 3513 2113 
L 3513 0 
L 2938 0 
L 2938 2094 
Q 2938 2591 2744 2837 
Q 2550 3084 2163 3084 
Q 1697 3084 1428 2787 
Q 1159 2491 1159 1978 
L 1159 0 
L 581 0 
L 581 3500 
L 1159 3500 
L 1159 2956 
Q 1366 3272 1645 3428 
Q 1925 3584 2291 3584 
Q 2894 3584 3203 3211 
Q 3513 2838 3513 2113 
z
" transform="scale(0.015625)"/>
      <path id="DejaVuSans-49" d="M 628 4666 
L 1259 4666 
L 1259 0 
L 628 0 
L 628 4666 
z
" transform="scale(0.015625)"/>
      <path id="DejaVuSans-47" d="M 3809 666 
L 3809 1919 
L 2778 1919 
L 2778 2438 
L 4434 2438 
L 4434 434 
Q 4069 175 3628 42 
Q 3188 -91 2688 -91 
Q 1594 -91 976 548 
Q 359 1188 359 2328 
Q 359 3472 976 4111 
Q 1594 4750 2688 4750 
Q 3144 4750 3555 4637 
Q 3966 4525 4313 4306 
L 4313 3634 
Q 3963 3931 3569 4081 
Q 3175 4231 2741 4231 
Q 1884 4231 1454 3753 
Q 1025 3275 1025 2328 
Q 1025 1384 1454 906 
Q 1884 428 2741 428 
Q 3075 428 3337 486 
Q 3600 544 3809 666 
z
" transform="scale(0.015625)"/>
      <path id="DejaVuSans-4d" d="M 628 4666 
L 1569 4666 
L 2759 1491 
L 3956 4666 
L 4897 4666 
L 4897 0 
L 4281 0 
L 4281 4097 
L 3078 897 
L 2444 897 
L 1241 4097 
L 1241 0 
L 628 0 
L 628 4666 
z
" transform="scale(0.015625)"/>
      <path id="DejaVuSans-41" d="M 2188 4044 
L 1331 1722 
L 3047 1722 
L 2188 4044 
z
M 1831 4666 
L 2547 4666 
L 4325 0 
L 3669 0 
L 3244 1197 
L 1141 1197 
L 716 0 
L 50 0 
L 1831 4666 
z
" transform="scale(0.015625)"/>
     </defs>
     <use xlink:href="#DejaVuSans-44"/>
     <use xlink:href="#DejaVuSans-69" transform="translate(77.001953 0)"/>
     <use xlink:href="#DejaVuSans-73" transform="translate(104.785156 0)"/>
     <use xlink:href="#DejaVuSans-74" transform="translate(156.884766 0)"/>
     <use xlink:href="#DejaVuSans-72" transform="translate(196.09375 0)"/>
     <use xlink:href="#DejaVuSans-69" transform="translate(237.207031 0)"/>
     <use xlink:href="#DejaVuSans-62" transform="translate(264.990234 0)"/>
     <use xlink:href="#DejaVuSans-75" transform="translate(328.466797 0)"/>
     <use xlink:href="#DejaVuSans-74" transform="translate(391.845703 0)"/>
     <use xlink:href="#DejaVuSans-69" transform="translate(431.054688 0)"/>
     <use xlink:href="#DejaVuSans-6f" transform="translate(458.837891 0)"/>
     <use xlink:href="#DejaVuSans-6e" transform="translate(520.019531 0)"/>
     <use xlink:href="#DejaVuSans-20" transform="translate(583.398438 0)"/>
     <use xlink:href="#DejaVuSans-6f" transform="translate(615.185547 0)"/>
     <use xlink:href="#DejaVuSans-66" transform="translate(676.367188 0)"/>
     <use xlink:href="#DejaVuSans-20" transform="translate(711.572266 0)"/>
     <use xlink:href="#DejaVuSans-53" transform="translate(743.359375 0)"/>
     <use xlink:href="#DejaVuSans-49" transform="translate(806.835938 0)"/>
     <use xlink:href="#DejaVuSans-47" transform="translate(836.328125 0)"/>
     <use xlink:href="#DejaVuSans-4d" transform="translate(913.818359 0)"/>
     <use xlink:href="#DejaVuSans-41" transform="translate(1000.097656 0)"/>
     <use xlink:href="#DejaVuSans-20" transform="translate(1068.505859 0)"/>
     <use xlink:href="#DejaVuSans-73" transform="translate(1100.292969 0)"/>
     <use xlink:href="#DejaVuSans-63" transform="translate(1152.392578 0)"/>
     <use xlink:href="#DejaVuSans-6f" transform="translate(1207.373047 0)"/>
     <use xlink:href="#DejaVuSans-72" transform="translate(1268.554688 0)"/>
     <use xlink:href="#DejaVuSans-65" transform="translate(1307.417969 0)"/>
     <use xlink:href="#DejaVuSans-73" transform="translate(1368.941406 0)"/>
    </g>
   </g>
  </g>
  <g id="axes_2">
   <g id="matplotlib.axis_3">
    <g id="ytick_41">
     <g id="line2d_53">
      <defs>
       <path id="mee368f81ea" d="M 0 0 
L 3.5 0 
" style="stroke: #000000; stroke-width: 0.8"/>
      </defs>
      <g>
       <use xlink:href="#mee368f81ea" x="1096.277916" y="376.55611" style="stroke: #000000; stroke-width: 0.8"/>
      </g>
     </g>
     <g id="text_16">
      <!-- 75 -->
      <g style="fill: #ff0000" transform="translate(1103.277916 380.355329) scale(0.1 -0.1)">
       <defs>
        <path id="DejaVuSans-37" d="M 525 4666 
L 3525 4666 
L 3525 4397 
L 1831 0 
L 1172 0 
L 2766 4134 
L 525 4134 
L 525 4666 
z
" transform="scale(0.015625)"/>
        <path id="DejaVuSans-35" d="M 691 4666 
L 3169 4666 
L 3169 4134 
L 1269 4134 
L 1269 2991 
Q 1406 3038 1543 3061 
Q 1681 3084 1819 3084 
Q 2600 3084 3056 2656 
Q 3513 2228 3513 1497 
Q 3513 744 3044 326 
Q 2575 -91 1722 -91 
Q 1428 -91 1123 -41 
Q 819 9 494 109 
L 494 744 
Q 775 591 1075 516 
Q 1375 441 1709 441 
Q 2250 441 2565 725 
Q 2881 1009 2881 1497 
Q 2881 1984 2565 2268 
Q 2250 2553 1709 2553 
Q 1456 2553 1204 2497 
Q 953 2441 691 2322 
L 691 4666 
z
" transform="scale(0.015625)"/>
       </defs>
       <use xlink:href="#DejaVuSans-37"/>
       <use xlink:href="#DejaVuSans-35" transform="translate(63.623047 0)"/>
      </g>
     </g>
    </g>
    <g id="ytick_42">
     <g id="line2d_54">
      <g>
       <use xlink:href="#mee368f81ea" x="1096.277916" y="305.708513" style="stroke: #000000; stroke-width: 0.8"/>
      </g>
     </g>
     <g id="text_17">
      <!-- 80 -->
      <g style="fill: #ff0000" transform="translate(1103.277916 309.507732) scale(0.1 -0.1)">
       <use xlink:href="#DejaVuSans-38"/>
       <use xlink:href="#DejaVuSans-30" transform="translate(63.623047 0)"/>
      </g>
     </g>
    </g>
    <g id="ytick_43">
     <g id="line2d_55">
      <g>
       <use xlink:href="#mee368f81ea" x="1096.277916" y="234.860916" style="stroke: #000000; stroke-width: 0.8"/>
      </g>
     </g>
     <g id="text_18">
      <!-- 85 -->
      <g style="fill: #ff0000" transform="translate(1103.277916 238.660135) scale(0.1 -0.1)">
       <use xlink:href="#DejaVuSans-38"/>
       <use xlink:href="#DejaVuSans-35" transform="translate(63.623047 0)"/>
      </g>
     </g>
    </g>
    <g id="ytick_44">
     <g id="line2d_56">
      <g>
       <use xlink:href="#mee368f81ea" x="1096.277916" y="164.013319" style="stroke: #000000; stroke-width: 0.8"/>
      </g>
     </g>
     <g id="text_19">
      <!-- 90 -->
      <g style="fill: #ff0000" transform="translate(1103.277916 167.812538) scale(0.1 -0.1)">
       <use xlink:href="#DejaVuSans-39"/>
       <use xlink:href="#DejaVuSans-30" transform="translate(63.623047 0)"/>
      </g>
     </g>
    </g>
    <g id="ytick_45">
     <g id="line2d_57">
      <g>
       <use xlink:href="#mee368f81ea" x="1096.277916" y="93.165722" style="stroke: #000000; stroke-width: 0.8"/>
      </g>
     </g>
     <g id="text_20">
      <!-- 95 -->
      <g style="fill: #ff0000" transform="translate(1103.277916 96.964941) scale(0.1 -0.1)">
       <use xlink:href="#DejaVuSans-39"/>
       <use xlink:href="#DejaVuSans-35" transform="translate(63.623047 0)"/>
      </g>
     </g>
    </g>
    <g id="ytick_46">
     <g id="line2d_58">
      <g>
       <use xlink:href="#mee368f81ea" x="1096.277916" y="22.318125" style="stroke: #000000; stroke-width: 0.8"/>
      </g>
     </g>
     <g id="text_21">
      <!-- 100 -->
      <g style="fill: #ff0000" transform="translate(1103.277916 26.117344) scale(0.1 -0.1)">
       <use xlink:href="#DejaVuSans-31"/>
       <use xlink:href="#DejaVuSans-30" transform="translate(63.623047 0)"/>
       <use xlink:href="#DejaVuSans-30" transform="translate(127.246094 0)"/>
      </g>
     </g>
    </g>
    <g id="text_22">
     <!-- Cumulative percentage of cells (%) -->
     <g style="fill: #ff0000" transform="translate(1133.963853 292.655625) rotate(-90) scale(0.1 -0.1)">
      <defs>
       <path id="DejaVuSans-43" d="M 4122 4306 
L 4122 3641 
Q 3803 3938 3442 4084 
Q 3081 4231 2675 4231 
Q 1875 4231 1450 3742 
Q 1025 3253 1025 2328 
Q 1025 1406 1450 917 
Q 1875 428 2675 428 
Q 3081 428 3442 575 
Q 3803 722 4122 1019 
L 4122 359 
Q 3791 134 3420 21 
Q 3050 -91 2638 -91 
Q 1578 -91 968 557 
Q 359 1206 359 2328 
Q 359 3453 968 4101 
Q 1578 4750 2638 4750 
Q 3056 4750 3426 4639 
Q 3797 4528 4122 4306 
z
" transform="scale(0.015625)"/>
       <path id="DejaVuSans-61" d="M 2194 1759 
Q 1497 1759 1228 1600 
Q 959 1441 959 1056 
Q 959 750 1161 570 
Q 1363 391 1709 391 
Q 2188 391 2477 730 
Q 2766 1069 2766 1631 
L 2766 1759 
L 2194 1759 
z
M 3341 1997 
L 3341 0 
L 2766 0 
L 2766 531 
Q 2569 213 2275 61 
Q 1981 -91 1556 -91 
Q 1019 -91 701 211 
Q 384 513 384 1019 
Q 384 1609 779 1909 
Q 1175 2209 1959 2209 
L 2766 2209 
L 2766 2266 
Q 2766 2663 2505 2880 
Q 2244 3097 1772 3097 
Q 1472 3097 1187 3025 
Q 903 2953 641 2809 
L 641 3341 
Q 956 3463 1253 3523 
Q 1550 3584 1831 3584 
Q 2591 3584 2966 3190 
Q 3341 2797 3341 1997 
z
" transform="scale(0.015625)"/>
       <path id="DejaVuSans-76" d="M 191 3500 
L 800 3500 
L 1894 563 
L 2988 3500 
L 3597 3500 
L 2284 0 
L 1503 0 
L 191 3500 
z
" transform="scale(0.015625)"/>
       <path id="DejaVuSans-70" d="M 1159 525 
L 1159 -1331 
L 581 -1331 
L 581 3500 
L 1159 3500 
L 1159 2969 
Q 1341 3281 1617 3432 
Q 1894 3584 2278 3584 
Q 2916 3584 3314 3078 
Q 3713 2572 3713 1747 
Q 3713 922 3314 415 
Q 2916 -91 2278 -91 
Q 1894 -91 1617 61 
Q 1341 213 1159 525 
z
M 3116 1747 
Q 3116 2381 2855 2742 
Q 2594 3103 2138 3103 
Q 1681 3103 1420 2742 
Q 1159 2381 1159 1747 
Q 1159 1113 1420 752 
Q 1681 391 2138 391 
Q 2594 391 2855 752 
Q 3116 1113 3116 1747 
z
" transform="scale(0.015625)"/>
       <path id="DejaVuSans-67" d="M 2906 1791 
Q 2906 2416 2648 2759 
Q 2391 3103 1925 3103 
Q 1463 3103 1205 2759 
Q 947 2416 947 1791 
Q 947 1169 1205 825 
Q 1463 481 1925 481 
Q 2391 481 2648 825 
Q 2906 1169 2906 1791 
z
M 3481 434 
Q 3481 -459 3084 -895 
Q 2688 -1331 1869 -1331 
Q 1566 -1331 1297 -1286 
Q 1028 -1241 775 -1147 
L 775 -588 
Q 1028 -725 1275 -790 
Q 1522 -856 1778 -856 
Q 2344 -856 2625 -561 
Q 2906 -266 2906 331 
L 2906 616 
Q 2728 306 2450 153 
Q 2172 0 1784 0 
Q 1141 0 747 490 
Q 353 981 353 1791 
Q 353 2603 747 3093 
Q 1141 3584 1784 3584 
Q 2172 3584 2450 3431 
Q 2728 3278 2906 2969 
L 2906 3500 
L 3481 3500 
L 3481 434 
z
" transform="scale(0.015625)"/>
       <path id="DejaVuSans-28" d="M 1984 4856 
Q 1566 4138 1362 3434 
Q 1159 2731 1159 2009 
Q 1159 1288 1364 580 
Q 1569 -128 1984 -844 
L 1484 -844 
Q 1016 -109 783 600 
Q 550 1309 550 2009 
Q 550 2706 781 3412 
Q 1013 4119 1484 4856 
L 1984 4856 
z
" transform="scale(0.015625)"/>
       <path id="DejaVuSans-25" d="M 4653 2053 
Q 4381 2053 4226 1822 
Q 4072 1591 4072 1178 
Q 4072 772 4226 539 
Q 4381 306 4653 306 
Q 4919 306 5073 539 
Q 5228 772 5228 1178 
Q 5228 1588 5073 1820 
Q 4919 2053 4653 2053 
z
M 4653 2450 
Q 5147 2450 5437 2106 
Q 5728 1763 5728 1178 
Q 5728 594 5436 251 
Q 5144 -91 4653 -91 
Q 4153 -91 3862 251 
Q 3572 594 3572 1178 
Q 3572 1766 3864 2108 
Q 4156 2450 4653 2450 
z
M 1428 4353 
Q 1159 4353 1004 4120 
Q 850 3888 850 3481 
Q 850 3069 1003 2837 
Q 1156 2606 1428 2606 
Q 1700 2606 1854 2837 
Q 2009 3069 2009 3481 
Q 2009 3884 1853 4118 
Q 1697 4353 1428 4353 
z
M 4250 4750 
L 4750 4750 
L 1831 -91 
L 1331 -91 
L 4250 4750 
z
M 1428 4750 
Q 1922 4750 2215 4408 
Q 2509 4066 2509 3481 
Q 2509 2891 2217 2550 
Q 1925 2209 1428 2209 
Q 931 2209 642 2551 
Q 353 2894 353 3481 
Q 353 4063 643 4406 
Q 934 4750 1428 4750 
z
" transform="scale(0.015625)"/>
       <path id="DejaVuSans-29" d="M 513 4856 
L 1013 4856 
Q 1481 4119 1714 3412 
Q 1947 2706 1947 2009 
Q 1947 1309 1714 600 
Q 1481 -109 1013 -844 
L 513 -844 
Q 928 -128 1133 580 
Q 1338 1288 1338 2009 
Q 1338 2731 1133 3434 
Q 928 4138 513 4856 
z
" transform="scale(0.015625)"/>
      </defs>
      <use xlink:href="#DejaVuSans-43"/>
      <use xlink:href="#DejaVuSans-75" transform="translate(69.824219 0)"/>
      <use xlink:href="#DejaVuSans-6d" transform="translate(133.203125 0)"/>
      <use xlink:href="#DejaVuSans-75" transform="translate(230.615234 0)"/>
      <use xlink:href="#DejaVuSans-6c" transform="translate(293.994141 0)"/>
      <use xlink:href="#DejaVuSans-61" transform="translate(321.777344 0)"/>
      <use xlink:href="#DejaVuSans-74" transform="translate(383.056641 0)"/>
      <use xlink:href="#DejaVuSans-69" transform="translate(422.265625 0)"/>
      <use xlink:href="#DejaVuSans-76" transform="translate(450.048828 0)"/>
      <use xlink:href="#DejaVuSans-65" transform="translate(509.228516 0)"/>
      <use xlink:href="#DejaVuSans-20" transform="translate(570.751953 0)"/>
      <use xlink:href="#DejaVuSans-70" transform="translate(602.539062 0)"/>
      <use xlink:href="#DejaVuSans-65" transform="translate(666.015625 0)"/>
      <use xlink:href="#DejaVuSans-72" transform="translate(727.539062 0)"/>
      <use xlink:href="#DejaVuSans-63" transform="translate(766.402344 0)"/>
      <use xlink:href="#DejaVuSans-65" transform="translate(821.382812 0)"/>
      <use xlink:href="#DejaVuSans-6e" transform="translate(882.90625 0)"/>
      <use xlink:href="#DejaVuSans-74" transform="translate(946.285156 0)"/>
      <use xlink:href="#DejaVuSans-61" transform="translate(985.494141 0)"/>
      <use xlink:href="#DejaVuSans-67" transform="translate(1046.773438 0)"/>
      <use xlink:href="#DejaVuSans-65" transform="translate(1110.25 0)"/>
      <use xlink:href="#DejaVuSans-20" transform="translate(1171.773438 0)"/>
      <use xlink:href="#DejaVuSans-6f" transform="translate(1203.560547 0)"/>
      <use xlink:href="#DejaVuSans-66" transform="translate(1264.742188 0)"/>
      <use xlink:href="#DejaVuSans-20" transform="translate(1299.947266 0)"/>
      <use xlink:href="#DejaVuSans-63" transform="translate(1331.734375 0)"/>
      <use xlink:href="#DejaVuSans-65" transform="translate(1386.714844 0)"/>
      <use xlink:href="#DejaVuSans-6c" transform="translate(1448.238281 0)"/>
      <use xlink:href="#DejaVuSans-6c" transform="translate(1476.021484 0)"/>
      <use xlink:href="#DejaVuSans-73" transform="translate(1503.804688 0)"/>
      <use xlink:href="#DejaVuSans-20" transform="translate(1555.904297 0)"/>
      <use xlink:href="#DejaVuSans-28" transform="translate(1587.691406 0)"/>
      <use xlink:href="#DejaVuSans-25" transform="translate(1626.705078 0)"/>
      <use xlink:href="#DejaVuSans-29" transform="translate(1721.724609 0)"/>
     </g>
    </g>
   </g>
   <g id="line2d_59">
    <path d="M 95.629933 386.918125 
L 100.406296 381.915773 
L 105.182659 380.629454 
L 109.959021 379.628983 
L 114.735384 378.771437 
L 119.511747 377.770967 
L 124.288109 377.342194 
L 129.064472 376.341724 
L 133.840835 375.484178 
L 138.617197 374.054934 
L 143.39356 371.62522 
L 148.169923 370.195977 
L 152.946285 369.481355 
L 157.722648 367.480414 
L 167.275373 366.908717 
L 172.051736 365.765322 
L 176.828099 364.907776 
L 186.380824 364.05023 
L 191.157187 363.335608 
L 195.93355 362.478062 
L 200.709912 361.763441 
L 205.486275 361.334668 
L 210.262638 361.191743 
L 219.815363 360.620046 
L 224.591726 359.619575 
L 229.368088 359.190802 
L 234.144451 358.476181 
L 243.697176 357.904483 
L 248.473539 357.761559 
L 253.249902 357.046937 
L 258.026265 356.618164 
L 262.802627 356.046467 
L 272.355353 355.760618 
L 277.131715 355.474769 
L 281.908078 354.760148 
L 286.684441 354.617223 
L 291.460803 354.617223 
L 296.237166 354.045526 
L 305.789891 353.18798 
L 310.566254 352.902131 
L 315.342617 352.18751 
L 324.895342 351.044115 
L 329.671705 350.615342 
L 334.448067 350.615342 
L 339.22443 350.186569 
L 344.000793 349.614871 
L 348.777156 349.471947 
L 353.553518 349.186098 
L 358.329881 348.757325 
L 372.658969 347.042233 
L 382.211694 347.042233 
L 386.988057 346.470536 
L 391.76442 346.327611 
L 401.317145 345.755914 
L 406.093508 345.61299 
L 410.86987 345.184217 
L 415.646233 344.898368 
L 420.422596 344.755444 
L 429.975321 344.183746 
L 434.751684 343.612049 
L 439.528047 343.612049 
L 444.304409 342.897427 
L 449.080772 342.754503 
L 453.857135 342.468654 
L 458.633497 341.896957 
L 463.40986 341.182335 
L 468.186223 341.182335 
L 472.962585 340.610638 
L 477.738948 340.467713 
L 482.515311 340.03894 
L 487.291673 339.324319 
L 492.068036 338.752621 
L 496.844399 338.752621 
L 506.397124 338.180924 
L 511.173487 337.609227 
L 515.94985 337.323378 
L 520.726212 336.608756 
L 530.278938 335.75121 
L 535.0553 335.036588 
L 539.831663 335.036588 
L 549.384388 334.75074 
L 558.937114 333.607345 
L 563.713476 332.892723 
L 568.489839 332.321026 
L 573.266202 331.892253 
L 578.042564 331.320555 
L 582.818927 330.891782 
L 587.59529 330.177161 
L 592.371652 329.748388 
L 601.924378 328.604993 
L 606.700741 327.747447 
L 616.253466 326.318203 
L 621.029829 325.174809 
L 625.806191 324.317263 
L 630.582554 324.174338 
L 635.358917 322.888019 
L 640.135279 322.316322 
L 644.911642 322.173397 
L 649.688005 320.744154 
L 654.464367 320.029532 
L 659.24073 319.171986 
L 664.017093 318.171516 
L 668.793455 317.742743 
L 673.569818 316.170575 
L 678.346181 315.02718 
L 687.898906 313.026239 
L 692.675269 312.168693 
L 697.451632 310.882374 
L 702.227994 308.881434 
L 707.004357 308.45266 
L 711.78072 307.45219 
L 716.557082 305.022476 
L 721.333445 302.878611 
L 726.109808 300.87767 
L 730.88617 299.448427 
L 735.662533 297.018713 
L 740.438896 295.732394 
L 745.215258 294.588999 
L 749.991621 292.730983 
L 754.767984 287.442782 
L 759.544346 273.579121 
L 764.320709 272.721575 
L 769.097072 271.149407 
L 773.873435 270.148936 
L 778.649797 268.147996 
L 783.42616 266.718752 
L 788.202523 264.574887 
L 807.307973 258.857913 
L 816.860699 255.713578 
L 821.637061 254.570183 
L 826.413424 249.85368 
L 831.189787 248.710285 
L 835.966149 247.423966 
L 840.742512 246.423495 
L 845.518875 245.137176 
L 850.295238 244.27963 
L 855.0716 242.850387 
L 859.847963 240.849446 
L 864.624326 239.277278 
L 869.400688 238.276808 
L 874.177051 236.132943 
L 878.953414 234.703699 
L 883.729776 232.702758 
L 888.506139 231.130591 
L 893.282502 228.557953 
L 898.058864 225.270693 
L 902.835227 222.840979 
L 907.61159 219.410795 
L 912.387952 217.124005 
L 917.164315 213.550896 
L 921.940678 208.691469 
L 926.71704 205.975906 
L 931.493403 199.544311 
L 936.269766 192.255169 
L 941.046129 182.250465 
L 945.822491 168.386804 
L 950.598854 157.524554 
L 955.375217 141.659952 
L 960.151579 118.220359 
L 964.927942 74.342586 
L 969.704305 66.195898 
L 974.480667 65.624201 
L 984.033393 63.62326 
L 988.809755 63.337412 
L 993.586118 62.051092 
L 998.362481 60.621849 
L 1003.138843 60.050152 
L 1007.915206 57.477513 
L 1012.691569 56.04827 
L 1017.467932 53.332708 
L 1022.244294 49.902523 
L 1027.020657 46.901112 
L 1031.79702 42.184609 
L 1036.573382 35.895938 
L 1041.349745 35.610089 
L 1046.126108 22.318125 
L 1046.126108 22.318125 
" clip-path="url(#p224bd53c6e)" style="fill: none; stroke: #ff0000; stroke-width: 2; stroke-linecap: square"/>
   </g>
   <g id="patch_207">
    <path d="M 45.478125 386.918125 
L 45.478125 22.318125 
" style="fill: none; stroke: #000000; stroke-width: 0.8; stroke-linejoin: miter; stroke-linecap: square"/>
   </g>
   <g id="patch_208">
    <path d="M 1096.277916 386.918125 
L 1096.277916 22.318125 
" style="fill: none; stroke: #000000; stroke-width: 0.8; stroke-linejoin: miter; stroke-linecap: square"/>
   </g>
   <g id="patch_209">
    <path d="M 45.478125 386.918125 
L 1096.277916 386.918125 
" style="fill: none; stroke: #000000; stroke-width: 0.8; stroke-linejoin: miter; stroke-linecap: square"/>
   </g>
   <g id="patch_210">
    <path d="M 45.478125 22.318125 
L 1096.277916 22.318125 
" style="fill: none; stroke: #000000; stroke-width: 0.8; stroke-linejoin: miter; stroke-linecap: square"/>
   </g>
  </g>
 </g>
 <defs>
  <clipPath id="p224bd53c6e">
   <rect x="45.478125" y="22.318125" width="1050.799791" height="364.6"/>
  </clipPath>
 </defs>
</svg>
