<?xml version="1.0" encoding="utf-8" standalone="no"?>
<!DOCTYPE svg PUBLIC "-//W3C//DTD SVG 1.1//EN"
  "http://www.w3.org/Graphics/SVG/1.1/DTD/svg11.dtd">
<svg xmlns:xlink="http://www.w3.org/1999/xlink" width="712.433125pt" height="423.546222pt" viewBox="0 0 712.433125 423.546222" xmlns="http://www.w3.org/2000/svg" version="1.1">
 <metadata>
  <rdf:RDF xmlns:dc="http://purl.org/dc/elements/1.1/" xmlns:cc="http://creativecommons.org/ns#" xmlns:rdf="http://www.w3.org/1999/02/22-rdf-syntax-ns#">
   <cc:Work>
    <dc:type rdf:resource="http://purl.org/dc/dcmitype/StillImage"/>
    <dc:date>2025-12-04T17:01:21.676836</dc:date>
    <dc:format>image/svg+xml</dc:format>
    <dc:creator>
     <cc:Agent>
      <dc:title>Matplotlib v3.10.1, https://matplotlib.org/</dc:title>
     </cc:Agent>
    </dc:creator>
   </cc:Work>
  </rdf:RDF>
 </metadata>
 <defs>
  <style type="text/css">*{stroke-linejoin: round; stroke-linecap: butt}</style>
 </defs>
 <g id="figure_1">
  <g id="patch_1">
   <path d="M 0 423.546222 
L 712.433125 423.546222 
L 712.433125 0 
L 0 0 
z
" style="fill: #ffffff"/>
  </g>
  <g id="axes_1">
   <g id="patch_2">
    <path d="M 40.603125 373.872664 
L 349.058125 373.872664 
L 349.058125 22.318125 
L 40.603125 22.318125 
z
" style="fill: #ffffff"/>
   </g>
   <g id="patch_3">
    <path d="M 54.623807 373.872664 
L 69.27228 373.872664 
L 69.27228 276.510182 
L 54.623807 276.510182 
z
" clip-path="url(#pc1184782c1)" style="fill: #ff0000; opacity: 0.8"/>
   </g>
   <g id="patch_4">
    <path d="M 96.476588 373.872664 
L 111.125062 373.872664 
L 111.125062 188.81493 
L 96.476588 188.81493 
z
" clip-path="url(#pc1184782c1)" style="fill: #ff0000; opacity: 0.8"/>
   </g>
   <g id="patch_5">
    <path d="M 138.32937 373.872664 
L 152.977843 373.872664 
L 152.977843 365.729238 
L 138.32937 365.729238 
z
" clip-path="url(#pc1184782c1)" style="fill: #ff0000; opacity: 0.8"/>
   </g>
   <g id="patch_6">
    <path d="M 180.182151 373.872664 
L 194.830625 373.872664 
L 194.830625 297.552196 
L 180.182151 297.552196 
z
" clip-path="url(#pc1184782c1)" style="fill: #ff0000; opacity: 0.8"/>
   </g>
   <g id="patch_7">
    <path d="M 222.034933 373.872664 
L 236.683407 373.872664 
L 236.683407 235.119773 
L 222.034933 235.119773 
z
" clip-path="url(#pc1184782c1)" style="fill: #ff0000; opacity: 0.8"/>
   </g>
   <g id="patch_8">
    <path d="M 263.887715 373.872664 
L 278.536188 373.872664 
L 278.536188 193.790111 
L 263.887715 193.790111 
z
" clip-path="url(#pc1184782c1)" style="fill: #ff0000; opacity: 0.8"/>
   </g>
   <g id="patch_9">
    <path d="M 305.740496 373.872664 
L 320.38897 373.872664 
L 320.38897 327.073609 
L 305.740496 327.073609 
z
" clip-path="url(#pc1184782c1)" style="fill: #ff0000; opacity: 0.8"/>
   </g>
   <g id="patch_10">
    <path d="M 69.27228 373.872664 
L 83.920754 373.872664 
L 83.920754 312.702518 
L 69.27228 312.702518 
z
" clip-path="url(#pc1184782c1)" style="fill: #008000; opacity: 0.8"/>
   </g>
   <g id="patch_11">
    <path d="M 111.125062 373.872664 
L 125.773535 373.872664 
L 125.773535 146.065674 
L 111.125062 146.065674 
z
" clip-path="url(#pc1184782c1)" style="fill: #008000; opacity: 0.8"/>
   </g>
   <g id="patch_12">
    <path d="M 152.977843 373.872664 
L 167.626317 373.872664 
L 167.626317 364.296416 
L 152.977843 364.296416 
z
" clip-path="url(#pc1184782c1)" style="fill: #008000; opacity: 0.8"/>
   </g>
   <g id="patch_13">
    <path d="M 194.830625 373.872664 
L 209.479099 373.872664 
L 209.479099 239.606941 
L 194.830625 239.606941 
z
" clip-path="url(#pc1184782c1)" style="fill: #008000; opacity: 0.8"/>
   </g>
   <g id="patch_14">
    <path d="M 236.683407 373.872664 
L 251.33188 373.872664 
L 251.33188 220.189884 
L 236.683407 220.189884 
z
" clip-path="url(#pc1184782c1)" style="fill: #008000; opacity: 0.8"/>
   </g>
   <g id="patch_15">
    <path d="M 278.536188 373.872664 
L 293.184662 373.872664 
L 293.184662 183.058325 
L 278.536188 183.058325 
z
" clip-path="url(#pc1184782c1)" style="fill: #008000; opacity: 0.8"/>
   </g>
   <g id="patch_16">
    <path d="M 320.38897 373.872664 
L 335.037443 373.872664 
L 335.037443 329.786726 
L 320.38897 329.786726 
z
" clip-path="url(#pc1184782c1)" style="fill: #008000; opacity: 0.8"/>
   </g>
   <g id="matplotlib.axis_1">
    <g id="xtick_1">
     <g id="line2d_1">
      <defs>
       <path id="mbc676a1202" d="M 0 0 
L 0 3.5 
" style="stroke: #000000; stroke-width: 0.8"/>
      </defs>
      <g>
       <use xlink:href="#mbc676a1202" x="69.27228" y="373.872664" style="stroke: #000000; stroke-width: 0.8"/>
      </g>
     </g>
     <g id="text_1">
      <!-- GZMK -->
      <g transform="translate(46.740986 407.306304) rotate(-45) scale(0.1 -0.1)">
       <defs>
        <path id="DejaVuSans-47" d="M 3809 666 
L 3809 1919 
L 2778 1919 
L 2778 2438 
L 4434 2438 
L 4434 434 
Q 4069 175 3628 42 
Q 3188 -91 2688 -91 
Q 1594 -91 976 548 
Q 359 1188 359 2328 
Q 359 3472 976 4111 
Q 1594 4750 2688 4750 
Q 3144 4750 3555 4637 
Q 3966 4525 4313 4306 
L 4313 3634 
Q 3963 3931 3569 4081 
Q 3175 4231 2741 4231 
Q 1884 4231 1454 3753 
Q 1025 3275 1025 2328 
Q 1025 1384 1454 906 
Q 1884 428 2741 428 
Q 3075 428 3337 486 
Q 3600 544 3809 666 
z
" transform="scale(0.015625)"/>
        <path id="DejaVuSans-5a" d="M 359 4666 
L 4025 4666 
L 4025 4184 
L 1075 531 
L 4097 531 
L 4097 0 
L 288 0 
L 288 481 
L 3238 4134 
L 359 4134 
L 359 4666 
z
" transform="scale(0.015625)"/>
        <path id="DejaVuSans-4d" d="M 628 4666 
L 1569 4666 
L 2759 1491 
L 3956 4666 
L 4897 4666 
L 4897 0 
L 4281 0 
L 4281 4097 
L 3078 897 
L 2444 897 
L 1241 4097 
L 1241 0 
L 628 0 
L 628 4666 
z
" transform="scale(0.015625)"/>
        <path id="DejaVuSans-4b" d="M 628 4666 
L 1259 4666 
L 1259 2694 
L 3353 4666 
L 4166 4666 
L 1850 2491 
L 4331 0 
L 3500 0 
L 1259 2247 
L 1259 0 
L 628 0 
L 628 4666 
z
" transform="scale(0.015625)"/>
       </defs>
       <use xlink:href="#DejaVuSans-47"/>
       <use xlink:href="#DejaVuSans-5a" transform="translate(77.490234 0)"/>
       <use xlink:href="#DejaVuSans-4d" transform="translate(145.996094 0)"/>
       <use xlink:href="#DejaVuSans-4b" transform="translate(232.275391 0)"/>
      </g>
     </g>
    </g>
    <g id="xtick_2">
     <g id="line2d_2">
      <g>
       <use xlink:href="#mbc676a1202" x="111.125062" y="373.872664" style="stroke: #000000; stroke-width: 0.8"/>
      </g>
     </g>
     <g id="text_2">
      <!-- NKG7 -->
      <g transform="translate(89.749445 406.150627) rotate(-45) scale(0.1 -0.1)">
       <defs>
        <path id="DejaVuSans-4e" d="M 628 4666 
L 1478 4666 
L 3547 763 
L 3547 4666 
L 4159 4666 
L 4159 0 
L 3309 0 
L 1241 3903 
L 1241 0 
L 628 0 
L 628 4666 
z
" transform="scale(0.015625)"/>
        <path id="DejaVuSans-37" d="M 525 4666 
L 3525 4666 
L 3525 4397 
L 1831 0 
L 1172 0 
L 2766 4134 
L 525 4134 
L 525 4666 
z
" transform="scale(0.015625)"/>
       </defs>
       <use xlink:href="#DejaVuSans-4e"/>
       <use xlink:href="#DejaVuSans-4b" transform="translate(74.804688 0)"/>
       <use xlink:href="#DejaVuSans-47" transform="translate(140.380859 0)"/>
       <use xlink:href="#DejaVuSans-37" transform="translate(217.871094 0)"/>
      </g>
     </g>
    </g>
    <g id="xtick_3">
     <g id="line2d_3">
      <g>
       <use xlink:href="#mbc676a1202" x="152.977843" y="373.872664" style="stroke: #000000; stroke-width: 0.8"/>
      </g>
     </g>
     <g id="text_3">
      <!-- CX3CR1 -->
      <g transform="translate(122.877192 414.875661) rotate(-45) scale(0.1 -0.1)">
       <defs>
        <path id="DejaVuSans-43" d="M 4122 4306 
L 4122 3641 
Q 3803 3938 3442 4084 
Q 3081 4231 2675 4231 
Q 1875 4231 1450 3742 
Q 1025 3253 1025 2328 
Q 1025 1406 1450 917 
Q 1875 428 2675 428 
Q 3081 428 3442 575 
Q 3803 722 4122 1019 
L 4122 359 
Q 3791 134 3420 21 
Q 3050 -91 2638 -91 
Q 1578 -91 968 557 
Q 359 1206 359 2328 
Q 359 3453 968 4101 
Q 1578 4750 2638 4750 
Q 3056 4750 3426 4639 
Q 3797 4528 4122 4306 
z
" transform="scale(0.015625)"/>
        <path id="DejaVuSans-58" d="M 403 4666 
L 1081 4666 
L 2241 2931 
L 3406 4666 
L 4084 4666 
L 2584 2425 
L 4184 0 
L 3506 0 
L 2194 1984 
L 872 0 
L 191 0 
L 1856 2491 
L 403 4666 
z
" transform="scale(0.015625)"/>
        <path id="DejaVuSans-33" d="M 2597 2516 
Q 3050 2419 3304 2112 
Q 3559 1806 3559 1356 
Q 3559 666 3084 287 
Q 2609 -91 1734 -91 
Q 1441 -91 1130 -33 
Q 819 25 488 141 
L 488 750 
Q 750 597 1062 519 
Q 1375 441 1716 441 
Q 2309 441 2620 675 
Q 2931 909 2931 1356 
Q 2931 1769 2642 2001 
Q 2353 2234 1838 2234 
L 1294 2234 
L 1294 2753 
L 1863 2753 
Q 2328 2753 2575 2939 
Q 2822 3125 2822 3475 
Q 2822 3834 2567 4026 
Q 2313 4219 1838 4219 
Q 1578 4219 1281 4162 
Q 984 4106 628 3988 
L 628 4550 
Q 988 4650 1302 4700 
Q 1616 4750 1894 4750 
Q 2613 4750 3031 4423 
Q 3450 4097 3450 3541 
Q 3450 3153 3228 2886 
Q 3006 2619 2597 2516 
z
" transform="scale(0.015625)"/>
        <path id="DejaVuSans-52" d="M 2841 2188 
Q 3044 2119 3236 1894 
Q 3428 1669 3622 1275 
L 4263 0 
L 3584 0 
L 2988 1197 
Q 2756 1666 2539 1819 
Q 2322 1972 1947 1972 
L 1259 1972 
L 1259 0 
L 628 0 
L 628 4666 
L 2053 4666 
Q 2853 4666 3247 4331 
Q 3641 3997 3641 3322 
Q 3641 2881 3436 2590 
Q 3231 2300 2841 2188 
z
M 1259 4147 
L 1259 2491 
L 2053 2491 
Q 2509 2491 2742 2702 
Q 2975 2913 2975 3322 
Q 2975 3731 2742 3939 
Q 2509 4147 2053 4147 
L 1259 4147 
z
" transform="scale(0.015625)"/>
        <path id="DejaVuSans-31" d="M 794 531 
L 1825 531 
L 1825 4091 
L 703 3866 
L 703 4441 
L 1819 4666 
L 2450 4666 
L 2450 531 
L 3481 531 
L 3481 0 
L 794 0 
L 794 531 
z
" transform="scale(0.015625)"/>
       </defs>
       <use xlink:href="#DejaVuSans-43"/>
       <use xlink:href="#DejaVuSans-58" transform="translate(69.824219 0)"/>
       <use xlink:href="#DejaVuSans-33" transform="translate(138.330078 0)"/>
       <use xlink:href="#DejaVuSans-43" transform="translate(201.953125 0)"/>
       <use xlink:href="#DejaVuSans-52" transform="translate(271.777344 0)"/>
       <use xlink:href="#DejaVuSans-31" transform="translate(341.259766 0)"/>
      </g>
     </g>
    </g>
    <g id="xtick_4">
     <g id="line2d_4">
      <g>
       <use xlink:href="#mbc676a1202" x="194.830625" y="373.872664" style="stroke: #000000; stroke-width: 0.8"/>
      </g>
     </g>
     <g id="text_4">
      <!-- PRF1 -->
      <g transform="translate(175.617208 403.988427) rotate(-45) scale(0.1 -0.1)">
       <defs>
        <path id="DejaVuSans-50" d="M 1259 4147 
L 1259 2394 
L 2053 2394 
Q 2494 2394 2734 2622 
Q 2975 2850 2975 3272 
Q 2975 3691 2734 3919 
Q 2494 4147 2053 4147 
L 1259 4147 
z
M 628 4666 
L 2053 4666 
Q 2838 4666 3239 4311 
Q 3641 3956 3641 3272 
Q 3641 2581 3239 2228 
Q 2838 1875 2053 1875 
L 1259 1875 
L 1259 0 
L 628 0 
L 628 4666 
z
" transform="scale(0.015625)"/>
        <path id="DejaVuSans-46" d="M 628 4666 
L 3309 4666 
L 3309 4134 
L 1259 4134 
L 1259 2759 
L 3109 2759 
L 3109 2228 
L 1259 2228 
L 1259 0 
L 628 0 
L 628 4666 
z
" transform="scale(0.015625)"/>
       </defs>
       <use xlink:href="#DejaVuSans-50"/>
       <use xlink:href="#DejaVuSans-52" transform="translate(60.302734 0)"/>
       <use xlink:href="#DejaVuSans-46" transform="translate(129.785156 0)"/>
       <use xlink:href="#DejaVuSans-31" transform="translate(187.304688 0)"/>
      </g>
     </g>
    </g>
    <g id="xtick_5">
     <g id="line2d_5">
      <g>
       <use xlink:href="#mbc676a1202" x="236.683407" y="373.872664" style="stroke: #000000; stroke-width: 0.8"/>
      </g>
     </g>
     <g id="text_5">
      <!-- CD44 -->
      <g transform="translate(215.832595 405.625821) rotate(-45) scale(0.1 -0.1)">
       <defs>
        <path id="DejaVuSans-44" d="M 1259 4147 
L 1259 519 
L 2022 519 
Q 2988 519 3436 956 
Q 3884 1394 3884 2338 
Q 3884 3275 3436 3711 
Q 2988 4147 2022 4147 
L 1259 4147 
z
M 628 4666 
L 1925 4666 
Q 3281 4666 3915 4102 
Q 4550 3538 4550 2338 
Q 4550 1131 3912 565 
Q 3275 0 1925 0 
L 628 0 
L 628 4666 
z
" transform="scale(0.015625)"/>
        <path id="DejaVuSans-34" d="M 2419 4116 
L 825 1625 
L 2419 1625 
L 2419 4116 
z
M 2253 4666 
L 3047 4666 
L 3047 1625 
L 3713 1625 
L 3713 1100 
L 3047 1100 
L 3047 0 
L 2419 0 
L 2419 1100 
L 313 1100 
L 313 1709 
L 2253 4666 
z
" transform="scale(0.015625)"/>
       </defs>
       <use xlink:href="#DejaVuSans-43"/>
       <use xlink:href="#DejaVuSans-44" transform="translate(69.824219 0)"/>
       <use xlink:href="#DejaVuSans-34" transform="translate(146.826172 0)"/>
       <use xlink:href="#DejaVuSans-34" transform="translate(210.449219 0)"/>
      </g>
     </g>
    </g>
    <g id="xtick_6">
     <g id="line2d_6">
      <g>
       <use xlink:href="#mbc676a1202" x="278.536188" y="373.872664" style="stroke: #000000; stroke-width: 0.8"/>
      </g>
     </g>
     <g id="text_6">
      <!-- IL7R -->
      <g transform="translate(261.627497 401.6837) rotate(-45) scale(0.1 -0.1)">
       <defs>
        <path id="DejaVuSans-49" d="M 628 4666 
L 1259 4666 
L 1259 0 
L 628 0 
L 628 4666 
z
" transform="scale(0.015625)"/>
        <path id="DejaVuSans-4c" d="M 628 4666 
L 1259 4666 
L 1259 531 
L 3531 531 
L 3531 0 
L 628 0 
L 628 4666 
z
" transform="scale(0.015625)"/>
       </defs>
       <use xlink:href="#DejaVuSans-49"/>
       <use xlink:href="#DejaVuSans-4c" transform="translate(29.492188 0)"/>
       <use xlink:href="#DejaVuSans-37" transform="translate(85.205078 0)"/>
       <use xlink:href="#DejaVuSans-52" transform="translate(148.828125 0)"/>
      </g>
     </g>
    </g>
    <g id="xtick_7">
     <g id="line2d_7">
      <g>
       <use xlink:href="#mbc676a1202" x="320.38897" y="373.872664" style="stroke: #000000; stroke-width: 0.8"/>
      </g>
     </g>
     <g id="text_7">
      <!-- GZMB -->
      <g transform="translate(297.643333 407.520646) rotate(-45) scale(0.1 -0.1)">
       <defs>
        <path id="DejaVuSans-42" d="M 1259 2228 
L 1259 519 
L 2272 519 
Q 2781 519 3026 730 
Q 3272 941 3272 1375 
Q 3272 1813 3026 2020 
Q 2781 2228 2272 2228 
L 1259 2228 
z
M 1259 4147 
L 1259 2741 
L 2194 2741 
Q 2656 2741 2882 2914 
Q 3109 3088 3109 3444 
Q 3109 3797 2882 3972 
Q 2656 4147 2194 4147 
L 1259 4147 
z
M 628 4666 
L 2241 4666 
Q 2963 4666 3353 4366 
Q 3744 4066 3744 3513 
Q 3744 3084 3544 2831 
Q 3344 2578 2956 2516 
Q 3422 2416 3680 2098 
Q 3938 1781 3938 1306 
Q 3938 681 3513 340 
Q 3088 0 2303 0 
L 628 0 
L 628 4666 
z
" transform="scale(0.015625)"/>
       </defs>
       <use xlink:href="#DejaVuSans-47"/>
       <use xlink:href="#DejaVuSans-5a" transform="translate(77.490234 0)"/>
       <use xlink:href="#DejaVuSans-4d" transform="translate(145.996094 0)"/>
       <use xlink:href="#DejaVuSans-42" transform="translate(232.275391 0)"/>
      </g>
     </g>
    </g>
   </g>
   <g id="matplotlib.axis_2">
    <g id="ytick_1">
     <g id="line2d_8">
      <path d="M 40.603125 373.872664 
L 349.058125 373.872664 
" clip-path="url(#pc1184782c1)" style="fill: none; stroke-dasharray: 2.96,1.28; stroke-dashoffset: 0; stroke: #b0b0b0; stroke-opacity: 0.3; stroke-width: 0.8"/>
     </g>
     <g id="line2d_9">
      <defs>
       <path id="m651d6e45a3" d="M 0 0 
L -3.5 0 
" style="stroke: #000000; stroke-width: 0.8"/>
      </defs>
      <g>
       <use xlink:href="#m651d6e45a3" x="40.603125" y="373.872664" style="stroke: #000000; stroke-width: 0.8"/>
      </g>
     </g>
     <g id="text_8">
      <!-- 0 -->
      <g transform="translate(27.240625 377.671883) scale(0.1 -0.1)">
       <defs>
        <path id="DejaVuSans-30" d="M 2034 4250 
Q 1547 4250 1301 3770 
Q 1056 3291 1056 2328 
Q 1056 1369 1301 889 
Q 1547 409 2034 409 
Q 2525 409 2770 889 
Q 3016 1369 3016 2328 
Q 3016 3291 2770 3770 
Q 2525 4250 2034 4250 
z
M 2034 4750 
Q 2819 4750 3233 4129 
Q 3647 3509 3647 2328 
Q 3647 1150 3233 529 
Q 2819 -91 2034 -91 
Q 1250 -91 836 529 
Q 422 1150 422 2328 
Q 422 3509 836 4129 
Q 1250 4750 2034 4750 
z
" transform="scale(0.015625)"/>
       </defs>
       <use xlink:href="#DejaVuSans-30"/>
      </g>
     </g>
    </g>
    <g id="ytick_2">
     <g id="line2d_10">
      <path d="M 40.603125 304.181013 
L 349.058125 304.181013 
" clip-path="url(#pc1184782c1)" style="fill: none; stroke-dasharray: 2.96,1.28; stroke-dashoffset: 0; stroke: #b0b0b0; stroke-opacity: 0.3; stroke-width: 0.8"/>
     </g>
     <g id="line2d_11">
      <g>
       <use xlink:href="#m651d6e45a3" x="40.603125" y="304.181013" style="stroke: #000000; stroke-width: 0.8"/>
      </g>
     </g>
     <g id="text_9">
      <!-- 2 -->
      <g transform="translate(27.240625 307.980232) scale(0.1 -0.1)">
       <defs>
        <path id="DejaVuSans-32" d="M 1228 531 
L 3431 531 
L 3431 0 
L 469 0 
L 469 531 
Q 828 903 1448 1529 
Q 2069 2156 2228 2338 
Q 2531 2678 2651 2914 
Q 2772 3150 2772 3378 
Q 2772 3750 2511 3984 
Q 2250 4219 1831 4219 
Q 1534 4219 1204 4116 
Q 875 4013 500 3803 
L 500 4441 
Q 881 4594 1212 4672 
Q 1544 4750 1819 4750 
Q 2544 4750 2975 4387 
Q 3406 4025 3406 3419 
Q 3406 3131 3298 2873 
Q 3191 2616 2906 2266 
Q 2828 2175 2409 1742 
Q 1991 1309 1228 531 
z
" transform="scale(0.015625)"/>
       </defs>
       <use xlink:href="#DejaVuSans-32"/>
      </g>
     </g>
    </g>
    <g id="ytick_3">
     <g id="line2d_12">
      <path d="M 40.603125 234.489362 
L 349.058125 234.489362 
" clip-path="url(#pc1184782c1)" style="fill: none; stroke-dasharray: 2.96,1.28; stroke-dashoffset: 0; stroke: #b0b0b0; stroke-opacity: 0.3; stroke-width: 0.8"/>
     </g>
     <g id="line2d_13">
      <g>
       <use xlink:href="#m651d6e45a3" x="40.603125" y="234.489362" style="stroke: #000000; stroke-width: 0.8"/>
      </g>
     </g>
     <g id="text_10">
      <!-- 4 -->
      <g transform="translate(27.240625 238.288581) scale(0.1 -0.1)">
       <use xlink:href="#DejaVuSans-34"/>
      </g>
     </g>
    </g>
    <g id="ytick_4">
     <g id="line2d_14">
      <path d="M 40.603125 164.797711 
L 349.058125 164.797711 
" clip-path="url(#pc1184782c1)" style="fill: none; stroke-dasharray: 2.96,1.28; stroke-dashoffset: 0; stroke: #b0b0b0; stroke-opacity: 0.3; stroke-width: 0.8"/>
     </g>
     <g id="line2d_15">
      <g>
       <use xlink:href="#m651d6e45a3" x="40.603125" y="164.797711" style="stroke: #000000; stroke-width: 0.8"/>
      </g>
     </g>
     <g id="text_11">
      <!-- 6 -->
      <g transform="translate(27.240625 168.59693) scale(0.1 -0.1)">
       <defs>
        <path id="DejaVuSans-36" d="M 2113 2584 
Q 1688 2584 1439 2293 
Q 1191 2003 1191 1497 
Q 1191 994 1439 701 
Q 1688 409 2113 409 
Q 2538 409 2786 701 
Q 3034 994 3034 1497 
Q 3034 2003 2786 2293 
Q 2538 2584 2113 2584 
z
M 3366 4563 
L 3366 3988 
Q 3128 4100 2886 4159 
Q 2644 4219 2406 4219 
Q 1781 4219 1451 3797 
Q 1122 3375 1075 2522 
Q 1259 2794 1537 2939 
Q 1816 3084 2150 3084 
Q 2853 3084 3261 2657 
Q 3669 2231 3669 1497 
Q 3669 778 3244 343 
Q 2819 -91 2113 -91 
Q 1303 -91 875 529 
Q 447 1150 447 2328 
Q 447 3434 972 4092 
Q 1497 4750 2381 4750 
Q 2619 4750 2861 4703 
Q 3103 4656 3366 4563 
z
" transform="scale(0.015625)"/>
       </defs>
       <use xlink:href="#DejaVuSans-36"/>
      </g>
     </g>
    </g>
    <g id="ytick_5">
     <g id="line2d_16">
      <path d="M 40.603125 95.10606 
L 349.058125 95.10606 
" clip-path="url(#pc1184782c1)" style="fill: none; stroke-dasharray: 2.96,1.28; stroke-dashoffset: 0; stroke: #b0b0b0; stroke-opacity: 0.3; stroke-width: 0.8"/>
     </g>
     <g id="line2d_17">
      <g>
       <use xlink:href="#m651d6e45a3" x="40.603125" y="95.10606" style="stroke: #000000; stroke-width: 0.8"/>
      </g>
     </g>
     <g id="text_12">
      <!-- 8 -->
      <g transform="translate(27.240625 98.905279) scale(0.1 -0.1)">
       <defs>
        <path id="DejaVuSans-38" d="M 2034 2216 
Q 1584 2216 1326 1975 
Q 1069 1734 1069 1313 
Q 1069 891 1326 650 
Q 1584 409 2034 409 
Q 2484 409 2743 651 
Q 3003 894 3003 1313 
Q 3003 1734 2745 1975 
Q 2488 2216 2034 2216 
z
M 1403 2484 
Q 997 2584 770 2862 
Q 544 3141 544 3541 
Q 544 4100 942 4425 
Q 1341 4750 2034 4750 
Q 2731 4750 3128 4425 
Q 3525 4100 3525 3541 
Q 3525 3141 3298 2862 
Q 3072 2584 2669 2484 
Q 3125 2378 3379 2068 
Q 3634 1759 3634 1313 
Q 3634 634 3220 271 
Q 2806 -91 2034 -91 
Q 1263 -91 848 271 
Q 434 634 434 1313 
Q 434 1759 690 2068 
Q 947 2378 1403 2484 
z
M 1172 3481 
Q 1172 3119 1398 2916 
Q 1625 2713 2034 2713 
Q 2441 2713 2670 2916 
Q 2900 3119 2900 3481 
Q 2900 3844 2670 4047 
Q 2441 4250 2034 4250 
Q 1625 4250 1398 4047 
Q 1172 3844 1172 3481 
z
" transform="scale(0.015625)"/>
       </defs>
       <use xlink:href="#DejaVuSans-38"/>
      </g>
     </g>
    </g>
    <g id="ytick_6">
     <g id="line2d_18">
      <path d="M 40.603125 25.414409 
L 349.058125 25.414409 
" clip-path="url(#pc1184782c1)" style="fill: none; stroke-dasharray: 2.96,1.28; stroke-dashoffset: 0; stroke: #b0b0b0; stroke-opacity: 0.3; stroke-width: 0.8"/>
     </g>
     <g id="line2d_19">
      <g>
       <use xlink:href="#m651d6e45a3" x="40.603125" y="25.414409" style="stroke: #000000; stroke-width: 0.8"/>
      </g>
     </g>
     <g id="text_13">
      <!-- 10 -->
      <g transform="translate(20.878125 29.213628) scale(0.1 -0.1)">
       <use xlink:href="#DejaVuSans-31"/>
       <use xlink:href="#DejaVuSans-30" transform="translate(63.623047 0)"/>
      </g>
     </g>
    </g>
    <g id="text_14">
     <!-- Expression -->
     <g transform="translate(14.798438 225.234457) rotate(-90) scale(0.1 -0.1)">
      <defs>
       <path id="DejaVuSans-45" d="M 628 4666 
L 3578 4666 
L 3578 4134 
L 1259 4134 
L 1259 2753 
L 3481 2753 
L 3481 2222 
L 1259 2222 
L 1259 531 
L 3634 531 
L 3634 0 
L 628 0 
L 628 4666 
z
" transform="scale(0.015625)"/>
       <path id="DejaVuSans-78" d="M 3513 3500 
L 2247 1797 
L 3578 0 
L 2900 0 
L 1881 1375 
L 863 0 
L 184 0 
L 1544 1831 
L 300 3500 
L 978 3500 
L 1906 2253 
L 2834 3500 
L 3513 3500 
z
" transform="scale(0.015625)"/>
       <path id="DejaVuSans-70" d="M 1159 525 
L 1159 -1331 
L 581 -1331 
L 581 3500 
L 1159 3500 
L 1159 2969 
Q 1341 3281 1617 3432 
Q 1894 3584 2278 3584 
Q 2916 3584 3314 3078 
Q 3713 2572 3713 1747 
Q 3713 922 3314 415 
Q 2916 -91 2278 -91 
Q 1894 -91 1617 61 
Q 1341 213 1159 525 
z
M 3116 1747 
Q 3116 2381 2855 2742 
Q 2594 3103 2138 3103 
Q 1681 3103 1420 2742 
Q 1159 2381 1159 1747 
Q 1159 1113 1420 752 
Q 1681 391 2138 391 
Q 2594 391 2855 752 
Q 3116 1113 3116 1747 
z
" transform="scale(0.015625)"/>
       <path id="DejaVuSans-72" d="M 2631 2963 
Q 2534 3019 2420 3045 
Q 2306 3072 2169 3072 
Q 1681 3072 1420 2755 
Q 1159 2438 1159 1844 
L 1159 0 
L 581 0 
L 581 3500 
L 1159 3500 
L 1159 2956 
Q 1341 3275 1631 3429 
Q 1922 3584 2338 3584 
Q 2397 3584 2469 3576 
Q 2541 3569 2628 3553 
L 2631 2963 
z
" transform="scale(0.015625)"/>
       <path id="DejaVuSans-65" d="M 3597 1894 
L 3597 1613 
L 953 1613 
Q 991 1019 1311 708 
Q 1631 397 2203 397 
Q 2534 397 2845 478 
Q 3156 559 3463 722 
L 3463 178 
Q 3153 47 2828 -22 
Q 2503 -91 2169 -91 
Q 1331 -91 842 396 
Q 353 884 353 1716 
Q 353 2575 817 3079 
Q 1281 3584 2069 3584 
Q 2775 3584 3186 3129 
Q 3597 2675 3597 1894 
z
M 3022 2063 
Q 3016 2534 2758 2815 
Q 2500 3097 2075 3097 
Q 1594 3097 1305 2825 
Q 1016 2553 972 2059 
L 3022 2063 
z
" transform="scale(0.015625)"/>
       <path id="DejaVuSans-73" d="M 2834 3397 
L 2834 2853 
Q 2591 2978 2328 3040 
Q 2066 3103 1784 3103 
Q 1356 3103 1142 2972 
Q 928 2841 928 2578 
Q 928 2378 1081 2264 
Q 1234 2150 1697 2047 
L 1894 2003 
Q 2506 1872 2764 1633 
Q 3022 1394 3022 966 
Q 3022 478 2636 193 
Q 2250 -91 1575 -91 
Q 1294 -91 989 -36 
Q 684 19 347 128 
L 347 722 
Q 666 556 975 473 
Q 1284 391 1588 391 
Q 1994 391 2212 530 
Q 2431 669 2431 922 
Q 2431 1156 2273 1281 
Q 2116 1406 1581 1522 
L 1381 1569 
Q 847 1681 609 1914 
Q 372 2147 372 2553 
Q 372 3047 722 3315 
Q 1072 3584 1716 3584 
Q 2034 3584 2315 3537 
Q 2597 3491 2834 3397 
z
" transform="scale(0.015625)"/>
       <path id="DejaVuSans-69" d="M 603 3500 
L 1178 3500 
L 1178 0 
L 603 0 
L 603 3500 
z
M 603 4863 
L 1178 4863 
L 1178 4134 
L 603 4134 
L 603 4863 
z
" transform="scale(0.015625)"/>
       <path id="DejaVuSans-6f" d="M 1959 3097 
Q 1497 3097 1228 2736 
Q 959 2375 959 1747 
Q 959 1119 1226 758 
Q 1494 397 1959 397 
Q 2419 397 2687 759 
Q 2956 1122 2956 1747 
Q 2956 2369 2687 2733 
Q 2419 3097 1959 3097 
z
M 1959 3584 
Q 2709 3584 3137 3096 
Q 3566 2609 3566 1747 
Q 3566 888 3137 398 
Q 2709 -91 1959 -91 
Q 1206 -91 779 398 
Q 353 888 353 1747 
Q 353 2609 779 3096 
Q 1206 3584 1959 3584 
z
" transform="scale(0.015625)"/>
       <path id="DejaVuSans-6e" d="M 3513 2113 
L 3513 0 
L 2938 0 
L 2938 2094 
Q 2938 2591 2744 2837 
Q 2550 3084 2163 3084 
Q 1697 3084 1428 2787 
Q 1159 2491 1159 1978 
L 1159 0 
L 581 0 
L 581 3500 
L 1159 3500 
L 1159 2956 
Q 1366 3272 1645 3428 
Q 1925 3584 2291 3584 
Q 2894 3584 3203 3211 
Q 3513 2838 3513 2113 
z
" transform="scale(0.015625)"/>
      </defs>
      <use xlink:href="#DejaVuSans-45"/>
      <use xlink:href="#DejaVuSans-78" transform="translate(63.183594 0)"/>
      <use xlink:href="#DejaVuSans-70" transform="translate(122.363281 0)"/>
      <use xlink:href="#DejaVuSans-72" transform="translate(185.839844 0)"/>
      <use xlink:href="#DejaVuSans-65" transform="translate(224.703125 0)"/>
      <use xlink:href="#DejaVuSans-73" transform="translate(286.226562 0)"/>
      <use xlink:href="#DejaVuSans-73" transform="translate(338.326172 0)"/>
      <use xlink:href="#DejaVuSans-69" transform="translate(390.425781 0)"/>
      <use xlink:href="#DejaVuSans-6f" transform="translate(418.208984 0)"/>
      <use xlink:href="#DejaVuSans-6e" transform="translate(479.390625 0)"/>
     </g>
    </g>
   </g>
   <g id="LineCollection_1">
    <path d="M 61.948044 278.943132 
L 61.948044 274.077233 
" clip-path="url(#pc1184782c1)" style="fill: none; stroke: #000000; stroke-width: 1.5"/>
    <path d="M 103.800825 190.870476 
L 103.800825 186.759384 
" clip-path="url(#pc1184782c1)" style="fill: none; stroke: #000000; stroke-width: 1.5"/>
    <path d="M 145.653607 366.500429 
L 145.653607 364.958047 
" clip-path="url(#pc1184782c1)" style="fill: none; stroke: #000000; stroke-width: 1.5"/>
    <path d="M 187.506388 299.554123 
L 187.506388 295.550268 
" clip-path="url(#pc1184782c1)" style="fill: none; stroke: #000000; stroke-width: 1.5"/>
    <path d="M 229.35917 237.136232 
L 229.35917 233.103314 
" clip-path="url(#pc1184782c1)" style="fill: none; stroke: #000000; stroke-width: 1.5"/>
    <path d="M 271.211951 196.050608 
L 271.211951 191.529615 
" clip-path="url(#pc1184782c1)" style="fill: none; stroke: #000000; stroke-width: 1.5"/>
    <path d="M 313.064733 328.866881 
L 313.064733 325.280337 
" clip-path="url(#pc1184782c1)" style="fill: none; stroke: #000000; stroke-width: 1.5"/>
   </g>
   <g id="line2d_20">
    <defs>
     <path id="mf8e91a7f6d" d="M 5 0 
L -5 -0 
" style="stroke: #000000"/>
    </defs>
    <g clip-path="url(#pc1184782c1)">
     <use xlink:href="#mf8e91a7f6d" x="61.948044" y="278.943132" style="stroke: #000000"/>
     <use xlink:href="#mf8e91a7f6d" x="103.800825" y="190.870476" style="stroke: #000000"/>
     <use xlink:href="#mf8e91a7f6d" x="145.653607" y="366.500429" style="stroke: #000000"/>
     <use xlink:href="#mf8e91a7f6d" x="187.506388" y="299.554123" style="stroke: #000000"/>
     <use xlink:href="#mf8e91a7f6d" x="229.35917" y="237.136232" style="stroke: #000000"/>
     <use xlink:href="#mf8e91a7f6d" x="271.211951" y="196.050608" style="stroke: #000000"/>
     <use xlink:href="#mf8e91a7f6d" x="313.064733" y="328.866881" style="stroke: #000000"/>
    </g>
   </g>
   <g id="line2d_21">
    <g clip-path="url(#pc1184782c1)">
     <use xlink:href="#mf8e91a7f6d" x="61.948044" y="274.077233" style="stroke: #000000"/>
     <use xlink:href="#mf8e91a7f6d" x="103.800825" y="186.759384" style="stroke: #000000"/>
     <use xlink:href="#mf8e91a7f6d" x="145.653607" y="364.958047" style="stroke: #000000"/>
     <use xlink:href="#mf8e91a7f6d" x="187.506388" y="295.550268" style="stroke: #000000"/>
     <use xlink:href="#mf8e91a7f6d" x="229.35917" y="233.103314" style="stroke: #000000"/>
     <use xlink:href="#mf8e91a7f6d" x="271.211951" y="191.529615" style="stroke: #000000"/>
     <use xlink:href="#mf8e91a7f6d" x="313.064733" y="325.280337" style="stroke: #000000"/>
    </g>
   </g>
   <g id="LineCollection_2">
    <path d="M 76.596517 325.896561 
L 76.596517 299.508475 
" clip-path="url(#pc1184782c1)" style="fill: none; stroke: #000000; stroke-width: 1.5"/>
    <path d="M 118.449299 152.628377 
L 118.449299 139.502971 
" clip-path="url(#pc1184782c1)" style="fill: none; stroke: #000000; stroke-width: 1.5"/>
    <path d="M 160.30208 369.633593 
L 160.30208 358.95924 
" clip-path="url(#pc1184782c1)" style="fill: none; stroke: #000000; stroke-width: 1.5"/>
    <path d="M 202.154862 251.803834 
L 202.154862 227.410047 
" clip-path="url(#pc1184782c1)" style="fill: none; stroke: #000000; stroke-width: 1.5"/>
    <path d="M 244.007643 231.21002 
L 244.007643 209.169749 
" clip-path="url(#pc1184782c1)" style="fill: none; stroke: #000000; stroke-width: 1.5"/>
    <path d="M 285.860425 195.007576 
L 285.860425 171.109074 
" clip-path="url(#pc1184782c1)" style="fill: none; stroke: #000000; stroke-width: 1.5"/>
    <path d="M 327.713206 340.608283 
L 327.713206 318.965169 
" clip-path="url(#pc1184782c1)" style="fill: none; stroke: #000000; stroke-width: 1.5"/>
   </g>
   <g id="line2d_22">
    <g clip-path="url(#pc1184782c1)">
     <use xlink:href="#mf8e91a7f6d" x="76.596517" y="325.896561" style="stroke: #000000"/>
     <use xlink:href="#mf8e91a7f6d" x="118.449299" y="152.628377" style="stroke: #000000"/>
     <use xlink:href="#mf8e91a7f6d" x="160.30208" y="369.633593" style="stroke: #000000"/>
     <use xlink:href="#mf8e91a7f6d" x="202.154862" y="251.803834" style="stroke: #000000"/>
     <use xlink:href="#mf8e91a7f6d" x="244.007643" y="231.21002" style="stroke: #000000"/>
     <use xlink:href="#mf8e91a7f6d" x="285.860425" y="195.007576" style="stroke: #000000"/>
     <use xlink:href="#mf8e91a7f6d" x="327.713206" y="340.608283" style="stroke: #000000"/>
    </g>
   </g>
   <g id="line2d_23">
    <g clip-path="url(#pc1184782c1)">
     <use xlink:href="#mf8e91a7f6d" x="76.596517" y="299.508475" style="stroke: #000000"/>
     <use xlink:href="#mf8e91a7f6d" x="118.449299" y="139.502971" style="stroke: #000000"/>
     <use xlink:href="#mf8e91a7f6d" x="160.30208" y="358.95924" style="stroke: #000000"/>
     <use xlink:href="#mf8e91a7f6d" x="202.154862" y="227.410047" style="stroke: #000000"/>
     <use xlink:href="#mf8e91a7f6d" x="244.007643" y="209.169749" style="stroke: #000000"/>
     <use xlink:href="#mf8e91a7f6d" x="285.860425" y="171.109074" style="stroke: #000000"/>
     <use xlink:href="#mf8e91a7f6d" x="327.713206" y="318.965169" style="stroke: #000000"/>
    </g>
   </g>
   <g id="line2d_24">
    <path d="M 61.948044 268.217991 
L 61.948044 256.499506 
L 76.596517 256.499506 
L 76.596517 268.217991 
" clip-path="url(#pc1184782c1)" style="fill: none; stroke: #000000; stroke-linecap: square"/>
   </g>
   <g id="line2d_25">
    <path d="M 103.800825 133.643729 
L 103.800825 121.925244 
L 118.449299 121.925244 
L 118.449299 133.643729 
" clip-path="url(#pc1184782c1)" style="fill: none; stroke: #000000; stroke-linecap: square"/>
   </g>
   <g id="line2d_26">
    <path d="M 187.506388 221.550805 
L 187.506388 209.83232 
L 202.154862 209.83232 
L 202.154862 221.550805 
" clip-path="url(#pc1184782c1)" style="fill: none; stroke: #000000; stroke-linecap: square"/>
   </g>
   <g id="patch_17">
    <path d="M 40.603125 373.872664 
L 40.603125 22.318125 
" style="fill: none; stroke: #000000; stroke-width: 0.8; stroke-linejoin: miter; stroke-linecap: square"/>
   </g>
   <g id="patch_18">
    <path d="M 349.058125 373.872664 
L 349.058125 22.318125 
" style="fill: none; stroke: #000000; stroke-width: 0.8; stroke-linejoin: miter; stroke-linecap: square"/>
   </g>
   <g id="patch_19">
    <path d="M 40.603125 373.872664 
L 349.058125 373.872664 
" style="fill: none; stroke: #000000; stroke-width: 0.8; stroke-linejoin: miter; stroke-linecap: square"/>
   </g>
   <g id="patch_20">
    <path d="M 40.603125 22.318125 
L 349.058125 22.318125 
" style="fill: none; stroke: #000000; stroke-width: 0.8; stroke-linejoin: miter; stroke-linecap: square"/>
   </g>
   <g id="text_15">
    <!-- **** -->
    <g transform="translate(57.27228 249.316487) scale(0.12 -0.12)">
     <defs>
      <path id="DejaVuSans-2a" d="M 3009 3897 
L 1888 3291 
L 3009 2681 
L 2828 2375 
L 1778 3009 
L 1778 1831 
L 1422 1831 
L 1422 3009 
L 372 2375 
L 191 2681 
L 1313 3291 
L 191 3897 
L 372 4206 
L 1422 3572 
L 1422 4750 
L 1778 4750 
L 1778 3572 
L 2828 4206 
L 3009 3897 
z
" transform="scale(0.015625)"/>
     </defs>
     <use xlink:href="#DejaVuSans-2a"/>
     <use xlink:href="#DejaVuSans-2a" transform="translate(50 0)"/>
     <use xlink:href="#DejaVuSans-2a" transform="translate(100 0)"/>
     <use xlink:href="#DejaVuSans-2a" transform="translate(150 0)"/>
    </g>
   </g>
   <g id="text_16">
    <!-- **** -->
    <g transform="translate(99.125062 114.742226) scale(0.12 -0.12)">
     <use xlink:href="#DejaVuSans-2a"/>
     <use xlink:href="#DejaVuSans-2a" transform="translate(50 0)"/>
     <use xlink:href="#DejaVuSans-2a" transform="translate(100 0)"/>
     <use xlink:href="#DejaVuSans-2a" transform="translate(150 0)"/>
    </g>
   </g>
   <g id="text_17">
    <!-- **** -->
    <g transform="translate(182.830625 202.649301) scale(0.12 -0.12)">
     <use xlink:href="#DejaVuSans-2a"/>
     <use xlink:href="#DejaVuSans-2a" transform="translate(50 0)"/>
     <use xlink:href="#DejaVuSans-2a" transform="translate(100 0)"/>
     <use xlink:href="#DejaVuSans-2a" transform="translate(150 0)"/>
    </g>
   </g>
   <g id="text_18">
    <!-- TEM cytotoxic positive markers -->
    <g transform="translate(101.186563 16.318125) scale(0.12 -0.12)">
     <defs>
      <path id="DejaVuSans-54" d="M -19 4666 
L 3928 4666 
L 3928 4134 
L 2272 4134 
L 2272 0 
L 1638 0 
L 1638 4134 
L -19 4134 
L -19 4666 
z
" transform="scale(0.015625)"/>
      <path id="DejaVuSans-20" transform="scale(0.015625)"/>
      <path id="DejaVuSans-63" d="M 3122 3366 
L 3122 2828 
Q 2878 2963 2633 3030 
Q 2388 3097 2138 3097 
Q 1578 3097 1268 2742 
Q 959 2388 959 1747 
Q 959 1106 1268 751 
Q 1578 397 2138 397 
Q 2388 397 2633 464 
Q 2878 531 3122 666 
L 3122 134 
Q 2881 22 2623 -34 
Q 2366 -91 2075 -91 
Q 1284 -91 818 406 
Q 353 903 353 1747 
Q 353 2603 823 3093 
Q 1294 3584 2113 3584 
Q 2378 3584 2631 3529 
Q 2884 3475 3122 3366 
z
" transform="scale(0.015625)"/>
      <path id="DejaVuSans-79" d="M 2059 -325 
Q 1816 -950 1584 -1140 
Q 1353 -1331 966 -1331 
L 506 -1331 
L 506 -850 
L 844 -850 
Q 1081 -850 1212 -737 
Q 1344 -625 1503 -206 
L 1606 56 
L 191 3500 
L 800 3500 
L 1894 763 
L 2988 3500 
L 3597 3500 
L 2059 -325 
z
" transform="scale(0.015625)"/>
      <path id="DejaVuSans-74" d="M 1172 4494 
L 1172 3500 
L 2356 3500 
L 2356 3053 
L 1172 3053 
L 1172 1153 
Q 1172 725 1289 603 
Q 1406 481 1766 481 
L 2356 481 
L 2356 0 
L 1766 0 
Q 1100 0 847 248 
Q 594 497 594 1153 
L 594 3053 
L 172 3053 
L 172 3500 
L 594 3500 
L 594 4494 
L 1172 4494 
z
" transform="scale(0.015625)"/>
      <path id="DejaVuSans-76" d="M 191 3500 
L 800 3500 
L 1894 563 
L 2988 3500 
L 3597 3500 
L 2284 0 
L 1503 0 
L 191 3500 
z
" transform="scale(0.015625)"/>
      <path id="DejaVuSans-6d" d="M 3328 2828 
Q 3544 3216 3844 3400 
Q 4144 3584 4550 3584 
Q 5097 3584 5394 3201 
Q 5691 2819 5691 2113 
L 5691 0 
L 5113 0 
L 5113 2094 
Q 5113 2597 4934 2840 
Q 4756 3084 4391 3084 
Q 3944 3084 3684 2787 
Q 3425 2491 3425 1978 
L 3425 0 
L 2847 0 
L 2847 2094 
Q 2847 2600 2669 2842 
Q 2491 3084 2119 3084 
Q 1678 3084 1418 2786 
Q 1159 2488 1159 1978 
L 1159 0 
L 581 0 
L 581 3500 
L 1159 3500 
L 1159 2956 
Q 1356 3278 1631 3431 
Q 1906 3584 2284 3584 
Q 2666 3584 2933 3390 
Q 3200 3197 3328 2828 
z
" transform="scale(0.015625)"/>
      <path id="DejaVuSans-61" d="M 2194 1759 
Q 1497 1759 1228 1600 
Q 959 1441 959 1056 
Q 959 750 1161 570 
Q 1363 391 1709 391 
Q 2188 391 2477 730 
Q 2766 1069 2766 1631 
L 2766 1759 
L 2194 1759 
z
M 3341 1997 
L 3341 0 
L 2766 0 
L 2766 531 
Q 2569 213 2275 61 
Q 1981 -91 1556 -91 
Q 1019 -91 701 211 
Q 384 513 384 1019 
Q 384 1609 779 1909 
Q 1175 2209 1959 2209 
L 2766 2209 
L 2766 2266 
Q 2766 2663 2505 2880 
Q 2244 3097 1772 3097 
Q 1472 3097 1187 3025 
Q 903 2953 641 2809 
L 641 3341 
Q 956 3463 1253 3523 
Q 1550 3584 1831 3584 
Q 2591 3584 2966 3190 
Q 3341 2797 3341 1997 
z
" transform="scale(0.015625)"/>
      <path id="DejaVuSans-6b" d="M 581 4863 
L 1159 4863 
L 1159 1991 
L 2875 3500 
L 3609 3500 
L 1753 1863 
L 3688 0 
L 2938 0 
L 1159 1709 
L 1159 0 
L 581 0 
L 581 4863 
z
" transform="scale(0.015625)"/>
     </defs>
     <use xlink:href="#DejaVuSans-54"/>
     <use xlink:href="#DejaVuSans-45" transform="translate(61.083984 0)"/>
     <use xlink:href="#DejaVuSans-4d" transform="translate(124.267578 0)"/>
     <use xlink:href="#DejaVuSans-20" transform="translate(210.546875 0)"/>
     <use xlink:href="#DejaVuSans-63" transform="translate(242.333984 0)"/>
     <use xlink:href="#DejaVuSans-79" transform="translate(297.314453 0)"/>
     <use xlink:href="#DejaVuSans-74" transform="translate(356.494141 0)"/>
     <use xlink:href="#DejaVuSans-6f" transform="translate(395.703125 0)"/>
     <use xlink:href="#DejaVuSans-74" transform="translate(456.884766 0)"/>
     <use xlink:href="#DejaVuSans-6f" transform="translate(496.09375 0)"/>
     <use xlink:href="#DejaVuSans-78" transform="translate(554.150391 0)"/>
     <use xlink:href="#DejaVuSans-69" transform="translate(613.330078 0)"/>
     <use xlink:href="#DejaVuSans-63" transform="translate(641.113281 0)"/>
     <use xlink:href="#DejaVuSans-20" transform="translate(696.09375 0)"/>
     <use xlink:href="#DejaVuSans-70" transform="translate(727.880859 0)"/>
     <use xlink:href="#DejaVuSans-6f" transform="translate(791.357422 0)"/>
     <use xlink:href="#DejaVuSans-73" transform="translate(852.539062 0)"/>
     <use xlink:href="#DejaVuSans-69" transform="translate(904.638672 0)"/>
     <use xlink:href="#DejaVuSans-74" transform="translate(932.421875 0)"/>
     <use xlink:href="#DejaVuSans-69" transform="translate(971.630859 0)"/>
     <use xlink:href="#DejaVuSans-76" transform="translate(999.414062 0)"/>
     <use xlink:href="#DejaVuSans-65" transform="translate(1058.59375 0)"/>
     <use xlink:href="#DejaVuSans-20" transform="translate(1120.117188 0)"/>
     <use xlink:href="#DejaVuSans-6d" transform="translate(1151.904297 0)"/>
     <use xlink:href="#DejaVuSans-61" transform="translate(1249.316406 0)"/>
     <use xlink:href="#DejaVuSans-72" transform="translate(1310.595703 0)"/>
     <use xlink:href="#DejaVuSans-6b" transform="translate(1351.708984 0)"/>
     <use xlink:href="#DejaVuSans-65" transform="translate(1405.994141 0)"/>
     <use xlink:href="#DejaVuSans-72" transform="translate(1467.517578 0)"/>
     <use xlink:href="#DejaVuSans-73" transform="translate(1508.630859 0)"/>
    </g>
   </g>
   <g id="legend_1">
    <g id="patch_21">
     <path d="M 239.631563 74.3525 
L 342.058125 74.3525 
Q 344.058125 74.3525 344.058125 72.3525 
L 344.058125 29.318125 
Q 344.058125 27.318125 342.058125 27.318125 
L 239.631563 27.318125 
Q 237.631563 27.318125 237.631563 29.318125 
L 237.631563 72.3525 
Q 237.631563 74.3525 239.631563 74.3525 
z
" style="fill: #ffffff; opacity: 0.8; stroke: #cccccc; stroke-linejoin: miter"/>
    </g>
    <g id="text_19">
     <!-- Identified by SIGMA -->
     <g transform="translate(241.631563 38.916562) scale(0.1 -0.1)">
      <defs>
       <path id="DejaVuSans-64" d="M 2906 2969 
L 2906 4863 
L 3481 4863 
L 3481 0 
L 2906 0 
L 2906 525 
Q 2725 213 2448 61 
Q 2172 -91 1784 -91 
Q 1150 -91 751 415 
Q 353 922 353 1747 
Q 353 2572 751 3078 
Q 1150 3584 1784 3584 
Q 2172 3584 2448 3432 
Q 2725 3281 2906 2969 
z
M 947 1747 
Q 947 1113 1208 752 
Q 1469 391 1925 391 
Q 2381 391 2643 752 
Q 2906 1113 2906 1747 
Q 2906 2381 2643 2742 
Q 2381 3103 1925 3103 
Q 1469 3103 1208 2742 
Q 947 2381 947 1747 
z
" transform="scale(0.015625)"/>
       <path id="DejaVuSans-66" d="M 2375 4863 
L 2375 4384 
L 1825 4384 
Q 1516 4384 1395 4259 
Q 1275 4134 1275 3809 
L 1275 3500 
L 2222 3500 
L 2222 3053 
L 1275 3053 
L 1275 0 
L 697 0 
L 697 3053 
L 147 3053 
L 147 3500 
L 697 3500 
L 697 3744 
Q 697 4328 969 4595 
Q 1241 4863 1831 4863 
L 2375 4863 
z
" transform="scale(0.015625)"/>
       <path id="DejaVuSans-62" d="M 3116 1747 
Q 3116 2381 2855 2742 
Q 2594 3103 2138 3103 
Q 1681 3103 1420 2742 
Q 1159 2381 1159 1747 
Q 1159 1113 1420 752 
Q 1681 391 2138 391 
Q 2594 391 2855 752 
Q 3116 1113 3116 1747 
z
M 1159 2969 
Q 1341 3281 1617 3432 
Q 1894 3584 2278 3584 
Q 2916 3584 3314 3078 
Q 3713 2572 3713 1747 
Q 3713 922 3314 415 
Q 2916 -91 2278 -91 
Q 1894 -91 1617 61 
Q 1341 213 1159 525 
L 1159 0 
L 581 0 
L 581 4863 
L 1159 4863 
L 1159 2969 
z
" transform="scale(0.015625)"/>
       <path id="DejaVuSans-53" d="M 3425 4513 
L 3425 3897 
Q 3066 4069 2747 4153 
Q 2428 4238 2131 4238 
Q 1616 4238 1336 4038 
Q 1056 3838 1056 3469 
Q 1056 3159 1242 3001 
Q 1428 2844 1947 2747 
L 2328 2669 
Q 3034 2534 3370 2195 
Q 3706 1856 3706 1288 
Q 3706 609 3251 259 
Q 2797 -91 1919 -91 
Q 1588 -91 1214 -16 
Q 841 59 441 206 
L 441 856 
Q 825 641 1194 531 
Q 1563 422 1919 422 
Q 2459 422 2753 634 
Q 3047 847 3047 1241 
Q 3047 1584 2836 1778 
Q 2625 1972 2144 2069 
L 1759 2144 
Q 1053 2284 737 2584 
Q 422 2884 422 3419 
Q 422 4038 858 4394 
Q 1294 4750 2059 4750 
Q 2388 4750 2728 4690 
Q 3069 4631 3425 4513 
z
" transform="scale(0.015625)"/>
       <path id="DejaVuSans-41" d="M 2188 4044 
L 1331 1722 
L 3047 1722 
L 2188 4044 
z
M 1831 4666 
L 2547 4666 
L 4325 0 
L 3669 0 
L 3244 1197 
L 1141 1197 
L 716 0 
L 50 0 
L 1831 4666 
z
" transform="scale(0.015625)"/>
      </defs>
      <use xlink:href="#DejaVuSans-49"/>
      <use xlink:href="#DejaVuSans-64" transform="translate(29.492188 0)"/>
      <use xlink:href="#DejaVuSans-65" transform="translate(92.96875 0)"/>
      <use xlink:href="#DejaVuSans-6e" transform="translate(154.492188 0)"/>
      <use xlink:href="#DejaVuSans-74" transform="translate(217.871094 0)"/>
      <use xlink:href="#DejaVuSans-69" transform="translate(257.080078 0)"/>
      <use xlink:href="#DejaVuSans-66" transform="translate(284.863281 0)"/>
      <use xlink:href="#DejaVuSans-69" transform="translate(320.068359 0)"/>
      <use xlink:href="#DejaVuSans-65" transform="translate(347.851562 0)"/>
      <use xlink:href="#DejaVuSans-64" transform="translate(409.375 0)"/>
      <use xlink:href="#DejaVuSans-20" transform="translate(472.851562 0)"/>
      <use xlink:href="#DejaVuSans-62" transform="translate(504.638672 0)"/>
      <use xlink:href="#DejaVuSans-79" transform="translate(568.115234 0)"/>
      <use xlink:href="#DejaVuSans-20" transform="translate(627.294922 0)"/>
      <use xlink:href="#DejaVuSans-53" transform="translate(659.082031 0)"/>
      <use xlink:href="#DejaVuSans-49" transform="translate(722.558594 0)"/>
      <use xlink:href="#DejaVuSans-47" transform="translate(752.050781 0)"/>
      <use xlink:href="#DejaVuSans-4d" transform="translate(829.541016 0)"/>
      <use xlink:href="#DejaVuSans-41" transform="translate(915.820312 0)"/>
     </g>
    </g>
    <g id="patch_22">
     <path d="M 264.290938 53.594688 
L 284.290938 53.594688 
L 284.290938 46.594688 
L 264.290938 46.594688 
z
" style="fill: #ff0000; opacity: 0.8"/>
    </g>
    <g id="text_20">
     <!-- False -->
     <g transform="translate(292.290938 53.594688) scale(0.1 -0.1)">
      <defs>
       <path id="DejaVuSans-6c" d="M 603 4863 
L 1178 4863 
L 1178 0 
L 603 0 
L 603 4863 
z
" transform="scale(0.015625)"/>
      </defs>
      <use xlink:href="#DejaVuSans-46"/>
      <use xlink:href="#DejaVuSans-61" transform="translate(48.394531 0)"/>
      <use xlink:href="#DejaVuSans-6c" transform="translate(109.673828 0)"/>
      <use xlink:href="#DejaVuSans-73" transform="translate(137.457031 0)"/>
      <use xlink:href="#DejaVuSans-65" transform="translate(189.556641 0)"/>
     </g>
    </g>
    <g id="patch_23">
     <path d="M 264.290938 68.272813 
L 284.290938 68.272813 
L 284.290938 61.272813 
L 264.290938 61.272813 
z
" style="fill: #008000; opacity: 0.8"/>
    </g>
    <g id="text_21">
     <!-- True -->
     <g transform="translate(292.290938 68.272813) scale(0.1 -0.1)">
      <defs>
       <path id="DejaVuSans-75" d="M 544 1381 
L 544 3500 
L 1119 3500 
L 1119 1403 
Q 1119 906 1312 657 
Q 1506 409 1894 409 
Q 2359 409 2629 706 
Q 2900 1003 2900 1516 
L 2900 3500 
L 3475 3500 
L 3475 0 
L 2900 0 
L 2900 538 
Q 2691 219 2414 64 
Q 2138 -91 1772 -91 
Q 1169 -91 856 284 
Q 544 659 544 1381 
z
M 1991 3584 
L 1991 3584 
z
" transform="scale(0.015625)"/>
      </defs>
      <use xlink:href="#DejaVuSans-54"/>
      <use xlink:href="#DejaVuSans-72" transform="translate(46.333984 0)"/>
      <use xlink:href="#DejaVuSans-75" transform="translate(87.447266 0)"/>
      <use xlink:href="#DejaVuSans-65" transform="translate(150.826172 0)"/>
     </g>
    </g>
   </g>
  </g>
  <g id="axes_2">
   <g id="patch_24">
    <path d="M 396.778125 373.872664 
L 705.233125 373.872664 
L 705.233125 22.318125 
L 396.778125 22.318125 
z
" style="fill: #ffffff"/>
   </g>
   <g id="patch_25">
    <path d="M 410.798807 373.872664 
L 420.916825 373.872664 
L 420.916825 363.953534 
L 410.798807 363.953534 
z
" clip-path="url(#pb1623e5485)" style="fill: #ff0000; opacity: 0.8"/>
   </g>
   <g id="patch_26">
    <path d="M 439.707429 373.872664 
L 449.825447 373.872664 
L 449.825447 334.580991 
L 439.707429 334.580991 
z
" clip-path="url(#pb1623e5485)" style="fill: #ff0000; opacity: 0.8"/>
   </g>
   <g id="patch_27">
    <path d="M 468.616051 373.872664 
L 478.734069 373.872664 
L 478.734069 266.70935 
L 468.616051 266.70935 
z
" clip-path="url(#pb1623e5485)" style="fill: #ff0000; opacity: 0.8"/>
   </g>
   <g id="patch_28">
    <path d="M 497.524674 373.872664 
L 507.642692 373.872664 
L 507.642692 348.584394 
L 497.524674 348.584394 
z
" clip-path="url(#pb1623e5485)" style="fill: #ff0000; opacity: 0.8"/>
   </g>
   <g id="patch_29">
    <path d="M 526.433296 373.872664 
L 536.551314 373.872664 
L 536.551314 370.126335 
L 526.433296 370.126335 
z
" clip-path="url(#pb1623e5485)" style="fill: #ff0000; opacity: 0.8"/>
   </g>
   <g id="patch_30">
    <path d="M 555.341918 373.872664 
L 565.459936 373.872664 
L 565.459936 321.426282 
L 555.341918 321.426282 
z
" clip-path="url(#pb1623e5485)" style="fill: #ff0000; opacity: 0.8"/>
   </g>
   <g id="patch_31">
    <path d="M 584.250541 373.872664 
L 594.368558 373.872664 
L 594.368558 342.981248 
L 584.250541 342.981248 
z
" clip-path="url(#pb1623e5485)" style="fill: #ff0000; opacity: 0.8"/>
   </g>
   <g id="patch_32">
    <path d="M 613.159163 373.872664 
L 623.277181 373.872664 
L 623.277181 197.351887 
L 613.159163 197.351887 
z
" clip-path="url(#pb1623e5485)" style="fill: #ff0000; opacity: 0.8"/>
   </g>
   <g id="patch_33">
    <path d="M 642.067785 373.872664 
L 652.185803 373.872664 
L 652.185803 316.552296 
L 642.067785 316.552296 
z
" clip-path="url(#pb1623e5485)" style="fill: #ff0000; opacity: 0.8"/>
   </g>
   <g id="patch_34">
    <path d="M 670.976408 373.872664 
L 681.094425 373.872664 
L 681.094425 144.498044 
L 670.976408 144.498044 
z
" clip-path="url(#pb1623e5485)" style="fill: #ff0000; opacity: 0.8"/>
   </g>
   <g id="patch_35">
    <path d="M 420.916825 373.872664 
L 431.034842 373.872664 
L 431.034842 373.872664 
L 420.916825 373.872664 
z
" clip-path="url(#pb1623e5485)" style="fill: #008000; opacity: 0.8"/>
   </g>
   <g id="patch_36">
    <path d="M 449.825447 373.872664 
L 459.943465 373.872664 
L 459.943465 373.872664 
L 449.825447 373.872664 
z
" clip-path="url(#pb1623e5485)" style="fill: #008000; opacity: 0.8"/>
   </g>
   <g id="patch_37">
    <path d="M 478.734069 373.872664 
L 488.852087 373.872664 
L 488.852087 373.872664 
L 478.734069 373.872664 
z
" clip-path="url(#pb1623e5485)" style="fill: #008000; opacity: 0.8"/>
   </g>
   <g id="patch_38">
    <path d="M 507.642692 373.872664 
L 517.760709 373.872664 
L 517.760709 373.872664 
L 507.642692 373.872664 
z
" clip-path="url(#pb1623e5485)" style="fill: #008000; opacity: 0.8"/>
   </g>
   <g id="patch_39">
    <path d="M 536.551314 373.872664 
L 546.669332 373.872664 
L 546.669332 373.872664 
L 536.551314 373.872664 
z
" clip-path="url(#pb1623e5485)" style="fill: #008000; opacity: 0.8"/>
   </g>
   <g id="patch_40">
    <path d="M 565.459936 373.872664 
L 575.577954 373.872664 
L 575.577954 373.872664 
L 565.459936 373.872664 
z
" clip-path="url(#pb1623e5485)" style="fill: #008000; opacity: 0.8"/>
   </g>
   <g id="patch_41">
    <path d="M 594.368558 373.872664 
L 604.486576 373.872664 
L 604.486576 373.872664 
L 594.368558 373.872664 
z
" clip-path="url(#pb1623e5485)" style="fill: #008000; opacity: 0.8"/>
   </g>
   <g id="patch_42">
    <path d="M 623.277181 373.872664 
L 633.395199 373.872664 
L 633.395199 373.872664 
L 623.277181 373.872664 
z
" clip-path="url(#pb1623e5485)" style="fill: #008000; opacity: 0.8"/>
   </g>
   <g id="patch_43">
    <path d="M 652.185803 373.872664 
L 662.303821 373.872664 
L 662.303821 373.872664 
L 652.185803 373.872664 
z
" clip-path="url(#pb1623e5485)" style="fill: #008000; opacity: 0.8"/>
   </g>
   <g id="patch_44">
    <path d="M 681.094425 373.872664 
L 691.212443 373.872664 
L 691.212443 373.872664 
L 681.094425 373.872664 
z
" clip-path="url(#pb1623e5485)" style="fill: #008000; opacity: 0.8"/>
   </g>
   <g id="matplotlib.axis_3">
    <g id="xtick_8">
     <g id="line2d_27">
      <g>
       <use xlink:href="#mbc676a1202" x="420.916825" y="373.872664" style="stroke: #000000; stroke-width: 0.8"/>
      </g>
     </g>
     <g id="text_22">
      <!-- CXCR5 -->
      <g transform="translate(395.827792 409.864042) rotate(-45) scale(0.1 -0.1)">
       <defs>
        <path id="DejaVuSans-35" d="M 691 4666 
L 3169 4666 
L 3169 4134 
L 1269 4134 
L 1269 2991 
Q 1406 3038 1543 3061 
Q 1681 3084 1819 3084 
Q 2600 3084 3056 2656 
Q 3513 2228 3513 1497 
Q 3513 744 3044 326 
Q 2575 -91 1722 -91 
Q 1428 -91 1123 -41 
Q 819 9 494 109 
L 494 744 
Q 775 591 1075 516 
Q 1375 441 1709 441 
Q 2250 441 2565 725 
Q 2881 1009 2881 1497 
Q 2881 1984 2565 2268 
Q 2250 2553 1709 2553 
Q 1456 2553 1204 2497 
Q 953 2441 691 2322 
L 691 4666 
z
" transform="scale(0.015625)"/>
       </defs>
       <use xlink:href="#DejaVuSans-43"/>
       <use xlink:href="#DejaVuSans-58" transform="translate(69.824219 0)"/>
       <use xlink:href="#DejaVuSans-43" transform="translate(131.080078 0)"/>
       <use xlink:href="#DejaVuSans-52" transform="translate(200.904297 0)"/>
       <use xlink:href="#DejaVuSans-35" transform="translate(270.386719 0)"/>
      </g>
     </g>
    </g>
    <g id="xtick_9">
     <g id="line2d_28">
      <g>
       <use xlink:href="#mbc676a1202" x="449.825447" y="373.872664" style="stroke: #000000; stroke-width: 0.8"/>
      </g>
     </g>
     <g id="text_23">
      <!-- LEF1 -->
      <g transform="translate(431.381008 403.219448) rotate(-45) scale(0.1 -0.1)">
       <use xlink:href="#DejaVuSans-4c"/>
       <use xlink:href="#DejaVuSans-45" transform="translate(55.712891 0)"/>
       <use xlink:href="#DejaVuSans-46" transform="translate(118.896484 0)"/>
       <use xlink:href="#DejaVuSans-31" transform="translate(176.416016 0)"/>
      </g>
     </g>
    </g>
    <g id="xtick_10">
     <g id="line2d_29">
      <g>
       <use xlink:href="#mbc676a1202" x="478.734069" y="373.872664" style="stroke: #000000; stroke-width: 0.8"/>
      </g>
     </g>
     <g id="text_24">
      <!-- CD27 -->
      <g transform="translate(457.883258 405.625821) rotate(-45) scale(0.1 -0.1)">
       <use xlink:href="#DejaVuSans-43"/>
       <use xlink:href="#DejaVuSans-44" transform="translate(69.824219 0)"/>
       <use xlink:href="#DejaVuSans-32" transform="translate(146.826172 0)"/>
       <use xlink:href="#DejaVuSans-37" transform="translate(210.449219 0)"/>
      </g>
     </g>
    </g>
    <g id="xtick_11">
     <g id="line2d_30">
      <g>
       <use xlink:href="#mbc676a1202" x="507.642692" y="373.872664" style="stroke: #000000; stroke-width: 0.8"/>
      </g>
     </g>
     <g id="text_25">
      <!-- TRDC -->
      <g transform="translate(486.557651 405.86005) rotate(-45) scale(0.1 -0.1)">
       <use xlink:href="#DejaVuSans-54"/>
       <use xlink:href="#DejaVuSans-52" transform="translate(61.083984 0)"/>
       <use xlink:href="#DejaVuSans-44" transform="translate(130.566406 0)"/>
       <use xlink:href="#DejaVuSans-43" transform="translate(207.568359 0)"/>
      </g>
     </g>
    </g>
    <g id="xtick_12">
     <g id="line2d_31">
      <g>
       <use xlink:href="#mbc676a1202" x="536.551314" y="373.872664" style="stroke: #000000; stroke-width: 0.8"/>
      </g>
     </g>
     <g id="text_26">
      <!-- FOXP3 -->
      <g transform="translate(512.292027 409.034296) rotate(-45) scale(0.1 -0.1)">
       <defs>
        <path id="DejaVuSans-4f" d="M 2522 4238 
Q 1834 4238 1429 3725 
Q 1025 3213 1025 2328 
Q 1025 1447 1429 934 
Q 1834 422 2522 422 
Q 3209 422 3611 934 
Q 4013 1447 4013 2328 
Q 4013 3213 3611 3725 
Q 3209 4238 2522 4238 
z
M 2522 4750 
Q 3503 4750 4090 4092 
Q 4678 3434 4678 2328 
Q 4678 1225 4090 567 
Q 3503 -91 2522 -91 
Q 1538 -91 948 565 
Q 359 1222 359 2328 
Q 359 3434 948 4092 
Q 1538 4750 2522 4750 
z
" transform="scale(0.015625)"/>
       </defs>
       <use xlink:href="#DejaVuSans-46"/>
       <use xlink:href="#DejaVuSans-4f" transform="translate(57.519531 0)"/>
       <use xlink:href="#DejaVuSans-58" transform="translate(129.855469 0)"/>
       <use xlink:href="#DejaVuSans-50" transform="translate(198.361328 0)"/>
       <use xlink:href="#DejaVuSans-33" transform="translate(258.664062 0)"/>
      </g>
     </g>
    </g>
    <g id="xtick_13">
     <g id="line2d_32">
      <g>
       <use xlink:href="#mbc676a1202" x="565.459936" y="373.872664" style="stroke: #000000; stroke-width: 0.8"/>
      </g>
     </g>
     <g id="text_27">
      <!-- TRGC1 -->
      <g transform="translate(539.841678 410.393267) rotate(-45) scale(0.1 -0.1)">
       <use xlink:href="#DejaVuSans-54"/>
       <use xlink:href="#DejaVuSans-52" transform="translate(61.083984 0)"/>
       <use xlink:href="#DejaVuSans-47" transform="translate(130.566406 0)"/>
       <use xlink:href="#DejaVuSans-43" transform="translate(208.056641 0)"/>
       <use xlink:href="#DejaVuSans-31" transform="translate(277.880859 0)"/>
      </g>
     </g>
    </g>
    <g id="xtick_14">
     <g id="line2d_33">
      <g>
       <use xlink:href="#mbc676a1202" x="594.368558" y="373.872664" style="stroke: #000000; stroke-width: 0.8"/>
      </g>
     </g>
     <g id="text_28">
      <!-- CCR7 -->
      <g transform="translate(573.610555 405.533013) rotate(-45) scale(0.1 -0.1)">
       <use xlink:href="#DejaVuSans-43"/>
       <use xlink:href="#DejaVuSans-43" transform="translate(69.824219 0)"/>
       <use xlink:href="#DejaVuSans-52" transform="translate(139.648438 0)"/>
       <use xlink:href="#DejaVuSans-37" transform="translate(209.130859 0)"/>
      </g>
     </g>
    </g>
    <g id="xtick_15">
     <g id="line2d_34">
      <g>
       <use xlink:href="#mbc676a1202" x="623.277181" y="373.872664" style="stroke: #000000; stroke-width: 0.8"/>
      </g>
     </g>
     <g id="text_29">
      <!-- TCF7 -->
      <g transform="translate(604.399639 403.652551) rotate(-45) scale(0.1 -0.1)">
       <use xlink:href="#DejaVuSans-54"/>
       <use xlink:href="#DejaVuSans-43" transform="translate(55.208984 0)"/>
       <use xlink:href="#DejaVuSans-46" transform="translate(125.033203 0)"/>
       <use xlink:href="#DejaVuSans-37" transform="translate(182.552734 0)"/>
      </g>
     </g>
    </g>
    <g id="xtick_16">
     <g id="line2d_35">
      <g>
       <use xlink:href="#mbc676a1202" x="652.185803" y="373.872664" style="stroke: #000000; stroke-width: 0.8"/>
      </g>
     </g>
     <g id="text_30">
      <!-- SELL -->
      <g transform="translate(633.878367 403.082446) rotate(-45) scale(0.1 -0.1)">
       <use xlink:href="#DejaVuSans-53"/>
       <use xlink:href="#DejaVuSans-45" transform="translate(63.476562 0)"/>
       <use xlink:href="#DejaVuSans-4c" transform="translate(126.660156 0)"/>
       <use xlink:href="#DejaVuSans-4c" transform="translate(182.373047 0)"/>
      </g>
     </g>
    </g>
    <g id="xtick_17">
     <g id="line2d_36">
      <g>
       <use xlink:href="#mbc676a1202" x="681.094425" y="373.872664" style="stroke: #000000; stroke-width: 0.8"/>
      </g>
     </g>
     <g id="text_31">
      <!-- TRGC2 -->
      <g transform="translate(655.476168 410.393267) rotate(-45) scale(0.1 -0.1)">
       <use xlink:href="#DejaVuSans-54"/>
       <use xlink:href="#DejaVuSans-52" transform="translate(61.083984 0)"/>
       <use xlink:href="#DejaVuSans-47" transform="translate(130.566406 0)"/>
       <use xlink:href="#DejaVuSans-43" transform="translate(208.056641 0)"/>
       <use xlink:href="#DejaVuSans-32" transform="translate(277.880859 0)"/>
      </g>
     </g>
    </g>
   </g>
   <g id="matplotlib.axis_4">
    <g id="ytick_7">
     <g id="line2d_37">
      <path d="M 396.778125 373.872664 
L 705.233125 373.872664 
" clip-path="url(#pb1623e5485)" style="fill: none; stroke-dasharray: 2.96,1.28; stroke-dashoffset: 0; stroke: #b0b0b0; stroke-opacity: 0.3; stroke-width: 0.8"/>
     </g>
     <g id="line2d_38">
      <g>
       <use xlink:href="#m651d6e45a3" x="396.778125" y="373.872664" style="stroke: #000000; stroke-width: 0.8"/>
      </g>
     </g>
     <g id="text_32">
      <!-- 0.0 -->
      <g transform="translate(373.875 377.671883) scale(0.1 -0.1)">
       <defs>
        <path id="DejaVuSans-2e" d="M 684 794 
L 1344 794 
L 1344 0 
L 684 0 
L 684 794 
z
" transform="scale(0.015625)"/>
       </defs>
       <use xlink:href="#DejaVuSans-30"/>
       <use xlink:href="#DejaVuSans-2e" transform="translate(63.623047 0)"/>
       <use xlink:href="#DejaVuSans-30" transform="translate(95.410156 0)"/>
      </g>
     </g>
    </g>
    <g id="ytick_8">
     <g id="line2d_39">
      <path d="M 396.778125 332.432993 
L 705.233125 332.432993 
" clip-path="url(#pb1623e5485)" style="fill: none; stroke-dasharray: 2.96,1.28; stroke-dashoffset: 0; stroke: #b0b0b0; stroke-opacity: 0.3; stroke-width: 0.8"/>
     </g>
     <g id="line2d_40">
      <g>
       <use xlink:href="#m651d6e45a3" x="396.778125" y="332.432993" style="stroke: #000000; stroke-width: 0.8"/>
      </g>
     </g>
     <g id="text_33">
      <!-- 0.5 -->
      <g transform="translate(373.875 336.232212) scale(0.1 -0.1)">
       <use xlink:href="#DejaVuSans-30"/>
       <use xlink:href="#DejaVuSans-2e" transform="translate(63.623047 0)"/>
       <use xlink:href="#DejaVuSans-35" transform="translate(95.410156 0)"/>
      </g>
     </g>
    </g>
    <g id="ytick_9">
     <g id="line2d_41">
      <path d="M 396.778125 290.993322 
L 705.233125 290.993322 
" clip-path="url(#pb1623e5485)" style="fill: none; stroke-dasharray: 2.96,1.28; stroke-dashoffset: 0; stroke: #b0b0b0; stroke-opacity: 0.3; stroke-width: 0.8"/>
     </g>
     <g id="line2d_42">
      <g>
       <use xlink:href="#m651d6e45a3" x="396.778125" y="290.993322" style="stroke: #000000; stroke-width: 0.8"/>
      </g>
     </g>
     <g id="text_34">
      <!-- 1.0 -->
      <g transform="translate(373.875 294.792541) scale(0.1 -0.1)">
       <use xlink:href="#DejaVuSans-31"/>
       <use xlink:href="#DejaVuSans-2e" transform="translate(63.623047 0)"/>
       <use xlink:href="#DejaVuSans-30" transform="translate(95.410156 0)"/>
      </g>
     </g>
    </g>
    <g id="ytick_10">
     <g id="line2d_43">
      <path d="M 396.778125 249.553651 
L 705.233125 249.553651 
" clip-path="url(#pb1623e5485)" style="fill: none; stroke-dasharray: 2.96,1.28; stroke-dashoffset: 0; stroke: #b0b0b0; stroke-opacity: 0.3; stroke-width: 0.8"/>
     </g>
     <g id="line2d_44">
      <g>
       <use xlink:href="#m651d6e45a3" x="396.778125" y="249.553651" style="stroke: #000000; stroke-width: 0.8"/>
      </g>
     </g>
     <g id="text_35">
      <!-- 1.5 -->
      <g transform="translate(373.875 253.35287) scale(0.1 -0.1)">
       <use xlink:href="#DejaVuSans-31"/>
       <use xlink:href="#DejaVuSans-2e" transform="translate(63.623047 0)"/>
       <use xlink:href="#DejaVuSans-35" transform="translate(95.410156 0)"/>
      </g>
     </g>
    </g>
    <g id="ytick_11">
     <g id="line2d_45">
      <path d="M 396.778125 208.11398 
L 705.233125 208.11398 
" clip-path="url(#pb1623e5485)" style="fill: none; stroke-dasharray: 2.96,1.28; stroke-dashoffset: 0; stroke: #b0b0b0; stroke-opacity: 0.3; stroke-width: 0.8"/>
     </g>
     <g id="line2d_46">
      <g>
       <use xlink:href="#m651d6e45a3" x="396.778125" y="208.11398" style="stroke: #000000; stroke-width: 0.8"/>
      </g>
     </g>
     <g id="text_36">
      <!-- 2.0 -->
      <g transform="translate(373.875 211.913198) scale(0.1 -0.1)">
       <use xlink:href="#DejaVuSans-32"/>
       <use xlink:href="#DejaVuSans-2e" transform="translate(63.623047 0)"/>
       <use xlink:href="#DejaVuSans-30" transform="translate(95.410156 0)"/>
      </g>
     </g>
    </g>
    <g id="ytick_12">
     <g id="line2d_47">
      <path d="M 396.778125 166.674309 
L 705.233125 166.674309 
" clip-path="url(#pb1623e5485)" style="fill: none; stroke-dasharray: 2.96,1.28; stroke-dashoffset: 0; stroke: #b0b0b0; stroke-opacity: 0.3; stroke-width: 0.8"/>
     </g>
     <g id="line2d_48">
      <g>
       <use xlink:href="#m651d6e45a3" x="396.778125" y="166.674309" style="stroke: #000000; stroke-width: 0.8"/>
      </g>
     </g>
     <g id="text_37">
      <!-- 2.5 -->
      <g transform="translate(373.875 170.473527) scale(0.1 -0.1)">
       <use xlink:href="#DejaVuSans-32"/>
       <use xlink:href="#DejaVuSans-2e" transform="translate(63.623047 0)"/>
       <use xlink:href="#DejaVuSans-35" transform="translate(95.410156 0)"/>
      </g>
     </g>
    </g>
    <g id="ytick_13">
     <g id="line2d_49">
      <path d="M 396.778125 125.234638 
L 705.233125 125.234638 
" clip-path="url(#pb1623e5485)" style="fill: none; stroke-dasharray: 2.96,1.28; stroke-dashoffset: 0; stroke: #b0b0b0; stroke-opacity: 0.3; stroke-width: 0.8"/>
     </g>
     <g id="line2d_50">
      <g>
       <use xlink:href="#m651d6e45a3" x="396.778125" y="125.234638" style="stroke: #000000; stroke-width: 0.8"/>
      </g>
     </g>
     <g id="text_38">
      <!-- 3.0 -->
      <g transform="translate(373.875 129.033856) scale(0.1 -0.1)">
       <use xlink:href="#DejaVuSans-33"/>
       <use xlink:href="#DejaVuSans-2e" transform="translate(63.623047 0)"/>
       <use xlink:href="#DejaVuSans-30" transform="translate(95.410156 0)"/>
      </g>
     </g>
    </g>
    <g id="ytick_14">
     <g id="line2d_51">
      <path d="M 396.778125 83.794966 
L 705.233125 83.794966 
" clip-path="url(#pb1623e5485)" style="fill: none; stroke-dasharray: 2.96,1.28; stroke-dashoffset: 0; stroke: #b0b0b0; stroke-opacity: 0.3; stroke-width: 0.8"/>
     </g>
     <g id="line2d_52">
      <g>
       <use xlink:href="#m651d6e45a3" x="396.778125" y="83.794966" style="stroke: #000000; stroke-width: 0.8"/>
      </g>
     </g>
     <g id="text_39">
      <!-- 3.5 -->
      <g transform="translate(373.875 87.594185) scale(0.1 -0.1)">
       <use xlink:href="#DejaVuSans-33"/>
       <use xlink:href="#DejaVuSans-2e" transform="translate(63.623047 0)"/>
       <use xlink:href="#DejaVuSans-35" transform="translate(95.410156 0)"/>
      </g>
     </g>
    </g>
    <g id="ytick_15">
     <g id="line2d_53">
      <path d="M 396.778125 42.355295 
L 705.233125 42.355295 
" clip-path="url(#pb1623e5485)" style="fill: none; stroke-dasharray: 2.96,1.28; stroke-dashoffset: 0; stroke: #b0b0b0; stroke-opacity: 0.3; stroke-width: 0.8"/>
     </g>
     <g id="line2d_54">
      <g>
       <use xlink:href="#m651d6e45a3" x="396.778125" y="42.355295" style="stroke: #000000; stroke-width: 0.8"/>
      </g>
     </g>
     <g id="text_40">
      <!-- 4.0 -->
      <g transform="translate(373.875 46.154514) scale(0.1 -0.1)">
       <use xlink:href="#DejaVuSans-34"/>
       <use xlink:href="#DejaVuSans-2e" transform="translate(63.623047 0)"/>
       <use xlink:href="#DejaVuSans-30" transform="translate(95.410156 0)"/>
      </g>
     </g>
    </g>
    <g id="text_41">
     <!-- Expression -->
     <g transform="translate(367.795313 225.234457) rotate(-90) scale(0.1 -0.1)">
      <use xlink:href="#DejaVuSans-45"/>
      <use xlink:href="#DejaVuSans-78" transform="translate(63.183594 0)"/>
      <use xlink:href="#DejaVuSans-70" transform="translate(122.363281 0)"/>
      <use xlink:href="#DejaVuSans-72" transform="translate(185.839844 0)"/>
      <use xlink:href="#DejaVuSans-65" transform="translate(224.703125 0)"/>
      <use xlink:href="#DejaVuSans-73" transform="translate(286.226562 0)"/>
      <use xlink:href="#DejaVuSans-73" transform="translate(338.326172 0)"/>
      <use xlink:href="#DejaVuSans-69" transform="translate(390.425781 0)"/>
      <use xlink:href="#DejaVuSans-6f" transform="translate(418.208984 0)"/>
      <use xlink:href="#DejaVuSans-6e" transform="translate(479.390625 0)"/>
     </g>
    </g>
   </g>
   <g id="LineCollection_3">
    <path d="M 415.857816 365.282553 
L 415.857816 362.624515 
" clip-path="url(#pb1623e5485)" style="fill: none; stroke: #000000; stroke-width: 1.5"/>
    <path d="M 444.766438 337.178418 
L 444.766438 331.983564 
" clip-path="url(#pb1623e5485)" style="fill: none; stroke: #000000; stroke-width: 1.5"/>
    <path d="M 473.67506 270.697365 
L 473.67506 262.721335 
" clip-path="url(#pb1623e5485)" style="fill: none; stroke: #000000; stroke-width: 1.5"/>
    <path d="M 502.583683 350.809371 
L 502.583683 346.359417 
" clip-path="url(#pb1623e5485)" style="fill: none; stroke: #000000; stroke-width: 1.5"/>
    <path d="M 531.492305 370.949256 
L 531.492305 369.303415 
" clip-path="url(#pb1623e5485)" style="fill: none; stroke: #000000; stroke-width: 1.5"/>
    <path d="M 560.400927 324.386497 
L 560.400927 318.466066 
" clip-path="url(#pb1623e5485)" style="fill: none; stroke: #000000; stroke-width: 1.5"/>
    <path d="M 589.30955 345.333972 
L 589.30955 340.628524 
" clip-path="url(#pb1623e5485)" style="fill: none; stroke: #000000; stroke-width: 1.5"/>
    <path d="M 618.218172 201.952709 
L 618.218172 192.751065 
" clip-path="url(#pb1623e5485)" style="fill: none; stroke: #000000; stroke-width: 1.5"/>
    <path d="M 647.126794 319.707396 
L 647.126794 313.397196 
" clip-path="url(#pb1623e5485)" style="fill: none; stroke: #000000; stroke-width: 1.5"/>
    <path d="M 676.035416 149.493117 
L 676.035416 139.502971 
" clip-path="url(#pb1623e5485)" style="fill: none; stroke: #000000; stroke-width: 1.5"/>
   </g>
   <g id="line2d_55">
    <g clip-path="url(#pb1623e5485)">
     <use xlink:href="#mf8e91a7f6d" x="415.857816" y="365.282553" style="stroke: #000000"/>
     <use xlink:href="#mf8e91a7f6d" x="444.766438" y="337.178418" style="stroke: #000000"/>
     <use xlink:href="#mf8e91a7f6d" x="473.67506" y="270.697365" style="stroke: #000000"/>
     <use xlink:href="#mf8e91a7f6d" x="502.583683" y="350.809371" style="stroke: #000000"/>
     <use xlink:href="#mf8e91a7f6d" x="531.492305" y="370.949256" style="stroke: #000000"/>
     <use xlink:href="#mf8e91a7f6d" x="560.400927" y="324.386497" style="stroke: #000000"/>
     <use xlink:href="#mf8e91a7f6d" x="589.30955" y="345.333972" style="stroke: #000000"/>
     <use xlink:href="#mf8e91a7f6d" x="618.218172" y="201.952709" style="stroke: #000000"/>
     <use xlink:href="#mf8e91a7f6d" x="647.126794" y="319.707396" style="stroke: #000000"/>
     <use xlink:href="#mf8e91a7f6d" x="676.035416" y="149.493117" style="stroke: #000000"/>
    </g>
   </g>
   <g id="line2d_56">
    <g clip-path="url(#pb1623e5485)">
     <use xlink:href="#mf8e91a7f6d" x="415.857816" y="362.624515" style="stroke: #000000"/>
     <use xlink:href="#mf8e91a7f6d" x="444.766438" y="331.983564" style="stroke: #000000"/>
     <use xlink:href="#mf8e91a7f6d" x="473.67506" y="262.721335" style="stroke: #000000"/>
     <use xlink:href="#mf8e91a7f6d" x="502.583683" y="346.359417" style="stroke: #000000"/>
     <use xlink:href="#mf8e91a7f6d" x="531.492305" y="369.303415" style="stroke: #000000"/>
     <use xlink:href="#mf8e91a7f6d" x="560.400927" y="318.466066" style="stroke: #000000"/>
     <use xlink:href="#mf8e91a7f6d" x="589.30955" y="340.628524" style="stroke: #000000"/>
     <use xlink:href="#mf8e91a7f6d" x="618.218172" y="192.751065" style="stroke: #000000"/>
     <use xlink:href="#mf8e91a7f6d" x="647.126794" y="313.397196" style="stroke: #000000"/>
     <use xlink:href="#mf8e91a7f6d" x="676.035416" y="139.502971" style="stroke: #000000"/>
    </g>
   </g>
   <g id="LineCollection_4">
    <path d="M 425.975834 373.872664 
L 425.975834 373.872664 
" clip-path="url(#pb1623e5485)" style="fill: none; stroke: #000000; stroke-width: 1.5"/>
    <path d="M 454.884456 373.872664 
L 454.884456 373.872664 
" clip-path="url(#pb1623e5485)" style="fill: none; stroke: #000000; stroke-width: 1.5"/>
    <path d="M 483.793078 373.872664 
L 483.793078 373.872664 
" clip-path="url(#pb1623e5485)" style="fill: none; stroke: #000000; stroke-width: 1.5"/>
    <path d="M 512.7017 373.872664 
L 512.7017 373.872664 
" clip-path="url(#pb1623e5485)" style="fill: none; stroke: #000000; stroke-width: 1.5"/>
    <path d="M 541.610323 373.872664 
L 541.610323 373.872664 
" clip-path="url(#pb1623e5485)" style="fill: none; stroke: #000000; stroke-width: 1.5"/>
    <path d="M 570.518945 373.872664 
L 570.518945 373.872664 
" clip-path="url(#pb1623e5485)" style="fill: none; stroke: #000000; stroke-width: 1.5"/>
    <path d="M 599.427567 373.872664 
L 599.427567 373.872664 
" clip-path="url(#pb1623e5485)" style="fill: none; stroke: #000000; stroke-width: 1.5"/>
    <path d="M 628.33619 373.872664 
L 628.33619 373.872664 
" clip-path="url(#pb1623e5485)" style="fill: none; stroke: #000000; stroke-width: 1.5"/>
    <path d="M 657.244812 373.872664 
L 657.244812 373.872664 
" clip-path="url(#pb1623e5485)" style="fill: none; stroke: #000000; stroke-width: 1.5"/>
    <path d="M 686.153434 373.872664 
L 686.153434 373.872664 
" clip-path="url(#pb1623e5485)" style="fill: none; stroke: #000000; stroke-width: 1.5"/>
   </g>
   <g id="line2d_57">
    <g clip-path="url(#pb1623e5485)">
     <use xlink:href="#mf8e91a7f6d" x="425.975834" y="373.872664" style="stroke: #000000"/>
     <use xlink:href="#mf8e91a7f6d" x="454.884456" y="373.872664" style="stroke: #000000"/>
     <use xlink:href="#mf8e91a7f6d" x="483.793078" y="373.872664" style="stroke: #000000"/>
     <use xlink:href="#mf8e91a7f6d" x="512.7017" y="373.872664" style="stroke: #000000"/>
     <use xlink:href="#mf8e91a7f6d" x="541.610323" y="373.872664" style="stroke: #000000"/>
     <use xlink:href="#mf8e91a7f6d" x="570.518945" y="373.872664" style="stroke: #000000"/>
     <use xlink:href="#mf8e91a7f6d" x="599.427567" y="373.872664" style="stroke: #000000"/>
     <use xlink:href="#mf8e91a7f6d" x="628.33619" y="373.872664" style="stroke: #000000"/>
     <use xlink:href="#mf8e91a7f6d" x="657.244812" y="373.872664" style="stroke: #000000"/>
     <use xlink:href="#mf8e91a7f6d" x="686.153434" y="373.872664" style="stroke: #000000"/>
    </g>
   </g>
   <g id="line2d_58">
    <g clip-path="url(#pb1623e5485)">
     <use xlink:href="#mf8e91a7f6d" x="425.975834" y="373.872664" style="stroke: #000000"/>
     <use xlink:href="#mf8e91a7f6d" x="454.884456" y="373.872664" style="stroke: #000000"/>
     <use xlink:href="#mf8e91a7f6d" x="483.793078" y="373.872664" style="stroke: #000000"/>
     <use xlink:href="#mf8e91a7f6d" x="512.7017" y="373.872664" style="stroke: #000000"/>
     <use xlink:href="#mf8e91a7f6d" x="541.610323" y="373.872664" style="stroke: #000000"/>
     <use xlink:href="#mf8e91a7f6d" x="570.518945" y="373.872664" style="stroke: #000000"/>
     <use xlink:href="#mf8e91a7f6d" x="599.427567" y="373.872664" style="stroke: #000000"/>
     <use xlink:href="#mf8e91a7f6d" x="628.33619" y="373.872664" style="stroke: #000000"/>
     <use xlink:href="#mf8e91a7f6d" x="657.244812" y="373.872664" style="stroke: #000000"/>
     <use xlink:href="#mf8e91a7f6d" x="686.153434" y="373.872664" style="stroke: #000000"/>
    </g>
   </g>
   <g id="line2d_59">
    <path d="M 415.857816 356.765272 
L 415.857816 345.046788 
L 425.975834 345.046788 
L 425.975834 356.765272 
" clip-path="url(#pb1623e5485)" style="fill: none; stroke: #000000; stroke-linecap: square"/>
   </g>
   <g id="line2d_60">
    <path d="M 444.766438 326.124322 
L 444.766438 314.405837 
L 454.884456 314.405837 
L 454.884456 326.124322 
" clip-path="url(#pb1623e5485)" style="fill: none; stroke: #000000; stroke-linecap: square"/>
   </g>
   <g id="line2d_61">
    <path d="M 473.67506 256.862093 
L 473.67506 245.143608 
L 483.793078 245.143608 
L 483.793078 256.862093 
" clip-path="url(#pb1623e5485)" style="fill: none; stroke: #000000; stroke-linecap: square"/>
   </g>
   <g id="line2d_62">
    <path d="M 502.583683 340.500175 
L 502.583683 328.78169 
L 512.7017 328.78169 
L 512.7017 340.500175 
" clip-path="url(#pb1623e5485)" style="fill: none; stroke: #000000; stroke-linecap: square"/>
   </g>
   <g id="line2d_63">
    <path d="M 560.400927 312.606824 
L 560.400927 300.888339 
L 570.518945 300.888339 
L 570.518945 312.606824 
" clip-path="url(#pb1623e5485)" style="fill: none; stroke: #000000; stroke-linecap: square"/>
   </g>
   <g id="line2d_64">
    <path d="M 589.30955 334.769282 
L 589.30955 323.050797 
L 599.427567 323.050797 
L 599.427567 334.769282 
" clip-path="url(#pb1623e5485)" style="fill: none; stroke: #000000; stroke-linecap: square"/>
   </g>
   <g id="line2d_65">
    <path d="M 618.218172 186.891823 
L 618.218172 175.173338 
L 628.33619 175.173338 
L 628.33619 186.891823 
" clip-path="url(#pb1623e5485)" style="fill: none; stroke: #000000; stroke-linecap: square"/>
   </g>
   <g id="line2d_66">
    <path d="M 647.126794 307.537954 
L 647.126794 295.819469 
L 657.244812 295.819469 
L 657.244812 307.537954 
" clip-path="url(#pb1623e5485)" style="fill: none; stroke: #000000; stroke-linecap: square"/>
   </g>
   <g id="line2d_67">
    <path d="M 676.035416 133.643729 
L 676.035416 121.925244 
L 686.153434 121.925244 
L 686.153434 133.643729 
" clip-path="url(#pb1623e5485)" style="fill: none; stroke: #000000; stroke-linecap: square"/>
   </g>
   <g id="patch_45">
    <path d="M 396.778125 373.872664 
L 396.778125 22.318125 
" style="fill: none; stroke: #000000; stroke-width: 0.8; stroke-linejoin: miter; stroke-linecap: square"/>
   </g>
   <g id="patch_46">
    <path d="M 705.233125 373.872664 
L 705.233125 22.318125 
" style="fill: none; stroke: #000000; stroke-width: 0.8; stroke-linejoin: miter; stroke-linecap: square"/>
   </g>
   <g id="patch_47">
    <path d="M 396.778125 373.872664 
L 705.233125 373.872664 
" style="fill: none; stroke: #000000; stroke-width: 0.8; stroke-linejoin: miter; stroke-linecap: square"/>
   </g>
   <g id="patch_48">
    <path d="M 396.778125 22.318125 
L 705.233125 22.318125 
" style="fill: none; stroke: #000000; stroke-width: 0.8; stroke-linejoin: miter; stroke-linecap: square"/>
   </g>
   <g id="text_42">
    <!-- * -->
    <g transform="translate(417.916825 337.863769) scale(0.12 -0.12)">
     <use xlink:href="#DejaVuSans-2a"/>
    </g>
   </g>
   <g id="text_43">
    <!-- **** -->
    <g transform="translate(437.825447 307.222818) scale(0.12 -0.12)">
     <use xlink:href="#DejaVuSans-2a"/>
     <use xlink:href="#DejaVuSans-2a" transform="translate(50 0)"/>
     <use xlink:href="#DejaVuSans-2a" transform="translate(100 0)"/>
     <use xlink:href="#DejaVuSans-2a" transform="translate(150 0)"/>
    </g>
   </g>
   <g id="text_44">
    <!-- **** -->
    <g transform="translate(466.734069 237.960589) scale(0.12 -0.12)">
     <use xlink:href="#DejaVuSans-2a"/>
     <use xlink:href="#DejaVuSans-2a" transform="translate(50 0)"/>
     <use xlink:href="#DejaVuSans-2a" transform="translate(100 0)"/>
     <use xlink:href="#DejaVuSans-2a" transform="translate(150 0)"/>
    </g>
   </g>
   <g id="text_45">
    <!-- *** -->
    <g transform="translate(498.642692 321.598671) scale(0.12 -0.12)">
     <use xlink:href="#DejaVuSans-2a"/>
     <use xlink:href="#DejaVuSans-2a" transform="translate(50 0)"/>
     <use xlink:href="#DejaVuSans-2a" transform="translate(100 0)"/>
    </g>
   </g>
   <g id="text_46">
    <!-- **** -->
    <g transform="translate(553.459936 293.705321) scale(0.12 -0.12)">
     <use xlink:href="#DejaVuSans-2a"/>
     <use xlink:href="#DejaVuSans-2a" transform="translate(50 0)"/>
     <use xlink:href="#DejaVuSans-2a" transform="translate(100 0)"/>
     <use xlink:href="#DejaVuSans-2a" transform="translate(150 0)"/>
    </g>
   </g>
   <g id="text_47">
    <!-- **** -->
    <g transform="translate(582.368558 315.867778) scale(0.12 -0.12)">
     <use xlink:href="#DejaVuSans-2a"/>
     <use xlink:href="#DejaVuSans-2a" transform="translate(50 0)"/>
     <use xlink:href="#DejaVuSans-2a" transform="translate(100 0)"/>
     <use xlink:href="#DejaVuSans-2a" transform="translate(150 0)"/>
    </g>
   </g>
   <g id="text_48">
    <!-- **** -->
    <g transform="translate(611.277181 167.990319) scale(0.12 -0.12)">
     <use xlink:href="#DejaVuSans-2a"/>
     <use xlink:href="#DejaVuSans-2a" transform="translate(50 0)"/>
     <use xlink:href="#DejaVuSans-2a" transform="translate(100 0)"/>
     <use xlink:href="#DejaVuSans-2a" transform="translate(150 0)"/>
    </g>
   </g>
   <g id="text_49">
    <!-- **** -->
    <g transform="translate(640.185803 288.636451) scale(0.12 -0.12)">
     <use xlink:href="#DejaVuSans-2a"/>
     <use xlink:href="#DejaVuSans-2a" transform="translate(50 0)"/>
     <use xlink:href="#DejaVuSans-2a" transform="translate(100 0)"/>
     <use xlink:href="#DejaVuSans-2a" transform="translate(150 0)"/>
    </g>
   </g>
   <g id="text_50">
    <!-- **** -->
    <g transform="translate(669.094425 114.742226) scale(0.12 -0.12)">
     <use xlink:href="#DejaVuSans-2a"/>
     <use xlink:href="#DejaVuSans-2a" transform="translate(50 0)"/>
     <use xlink:href="#DejaVuSans-2a" transform="translate(100 0)"/>
     <use xlink:href="#DejaVuSans-2a" transform="translate(150 0)"/>
    </g>
   </g>
   <g id="text_51">
    <!-- TEM cytotoxic negative markers -->
    <g transform="translate(454.654063 16.318125) scale(0.12 -0.12)">
     <defs>
      <path id="DejaVuSans-67" d="M 2906 1791 
Q 2906 2416 2648 2759 
Q 2391 3103 1925 3103 
Q 1463 3103 1205 2759 
Q 947 2416 947 1791 
Q 947 1169 1205 825 
Q 1463 481 1925 481 
Q 2391 481 2648 825 
Q 2906 1169 2906 1791 
z
M 3481 434 
Q 3481 -459 3084 -895 
Q 2688 -1331 1869 -1331 
Q 1566 -1331 1297 -1286 
Q 1028 -1241 775 -1147 
L 775 -588 
Q 1028 -725 1275 -790 
Q 1522 -856 1778 -856 
Q 2344 -856 2625 -561 
Q 2906 -266 2906 331 
L 2906 616 
Q 2728 306 2450 153 
Q 2172 0 1784 0 
Q 1141 0 747 490 
Q 353 981 353 1791 
Q 353 2603 747 3093 
Q 1141 3584 1784 3584 
Q 2172 3584 2450 3431 
Q 2728 3278 2906 2969 
L 2906 3500 
L 3481 3500 
L 3481 434 
z
" transform="scale(0.015625)"/>
     </defs>
     <use xlink:href="#DejaVuSans-54"/>
     <use xlink:href="#DejaVuSans-45" transform="translate(61.083984 0)"/>
     <use xlink:href="#DejaVuSans-4d" transform="translate(124.267578 0)"/>
     <use xlink:href="#DejaVuSans-20" transform="translate(210.546875 0)"/>
     <use xlink:href="#DejaVuSans-63" transform="translate(242.333984 0)"/>
     <use xlink:href="#DejaVuSans-79" transform="translate(297.314453 0)"/>
     <use xlink:href="#DejaVuSans-74" transform="translate(356.494141 0)"/>
     <use xlink:href="#DejaVuSans-6f" transform="translate(395.703125 0)"/>
     <use xlink:href="#DejaVuSans-74" transform="translate(456.884766 0)"/>
     <use xlink:href="#DejaVuSans-6f" transform="translate(496.09375 0)"/>
     <use xlink:href="#DejaVuSans-78" transform="translate(554.150391 0)"/>
     <use xlink:href="#DejaVuSans-69" transform="translate(613.330078 0)"/>
     <use xlink:href="#DejaVuSans-63" transform="translate(641.113281 0)"/>
     <use xlink:href="#DejaVuSans-20" transform="translate(696.09375 0)"/>
     <use xlink:href="#DejaVuSans-6e" transform="translate(727.880859 0)"/>
     <use xlink:href="#DejaVuSans-65" transform="translate(791.259766 0)"/>
     <use xlink:href="#DejaVuSans-67" transform="translate(852.783203 0)"/>
     <use xlink:href="#DejaVuSans-61" transform="translate(916.259766 0)"/>
     <use xlink:href="#DejaVuSans-74" transform="translate(977.539062 0)"/>
     <use xlink:href="#DejaVuSans-69" transform="translate(1016.748047 0)"/>
     <use xlink:href="#DejaVuSans-76" transform="translate(1044.53125 0)"/>
     <use xlink:href="#DejaVuSans-65" transform="translate(1103.710938 0)"/>
     <use xlink:href="#DejaVuSans-20" transform="translate(1165.234375 0)"/>
     <use xlink:href="#DejaVuSans-6d" transform="translate(1197.021484 0)"/>
     <use xlink:href="#DejaVuSans-61" transform="translate(1294.433594 0)"/>
     <use xlink:href="#DejaVuSans-72" transform="translate(1355.712891 0)"/>
     <use xlink:href="#DejaVuSans-6b" transform="translate(1396.826172 0)"/>
     <use xlink:href="#DejaVuSans-65" transform="translate(1451.111328 0)"/>
     <use xlink:href="#DejaVuSans-72" transform="translate(1512.634766 0)"/>
     <use xlink:href="#DejaVuSans-73" transform="translate(1553.748047 0)"/>
    </g>
   </g>
   <g id="legend_2">
    <g id="patch_49">
     <path d="M 595.806563 74.3525 
L 698.233125 74.3525 
Q 700.233125 74.3525 700.233125 72.3525 
L 700.233125 29.318125 
Q 700.233125 27.318125 698.233125 27.318125 
L 595.806563 27.318125 
Q 593.806563 27.318125 593.806563 29.318125 
L 593.806563 72.3525 
Q 593.806563 74.3525 595.806563 74.3525 
z
" style="fill: #ffffff; opacity: 0.8; stroke: #cccccc; stroke-linejoin: miter"/>
    </g>
    <g id="text_52">
     <!-- Identified by SIGMA -->
     <g transform="translate(597.806563 38.916562) scale(0.1 -0.1)">
      <use xlink:href="#DejaVuSans-49"/>
      <use xlink:href="#DejaVuSans-64" transform="translate(29.492188 0)"/>
      <use xlink:href="#DejaVuSans-65" transform="translate(92.96875 0)"/>
      <use xlink:href="#DejaVuSans-6e" transform="translate(154.492188 0)"/>
      <use xlink:href="#DejaVuSans-74" transform="translate(217.871094 0)"/>
      <use xlink:href="#DejaVuSans-69" transform="translate(257.080078 0)"/>
      <use xlink:href="#DejaVuSans-66" transform="translate(284.863281 0)"/>
      <use xlink:href="#DejaVuSans-69" transform="translate(320.068359 0)"/>
      <use xlink:href="#DejaVuSans-65" transform="translate(347.851562 0)"/>
      <use xlink:href="#DejaVuSans-64" transform="translate(409.375 0)"/>
      <use xlink:href="#DejaVuSans-20" transform="translate(472.851562 0)"/>
      <use xlink:href="#DejaVuSans-62" transform="translate(504.638672 0)"/>
      <use xlink:href="#DejaVuSans-79" transform="translate(568.115234 0)"/>
      <use xlink:href="#DejaVuSans-20" transform="translate(627.294922 0)"/>
      <use xlink:href="#DejaVuSans-53" transform="translate(659.082031 0)"/>
      <use xlink:href="#DejaVuSans-49" transform="translate(722.558594 0)"/>
      <use xlink:href="#DejaVuSans-47" transform="translate(752.050781 0)"/>
      <use xlink:href="#DejaVuSans-4d" transform="translate(829.541016 0)"/>
      <use xlink:href="#DejaVuSans-41" transform="translate(915.820312 0)"/>
     </g>
    </g>
    <g id="patch_50">
     <path d="M 620.465938 53.594688 
L 640.465938 53.594688 
L 640.465938 46.594688 
L 620.465938 46.594688 
z
" style="fill: #ff0000; opacity: 0.8"/>
    </g>
    <g id="text_53">
     <!-- False -->
     <g transform="translate(648.465938 53.594688) scale(0.1 -0.1)">
      <use xlink:href="#DejaVuSans-46"/>
      <use xlink:href="#DejaVuSans-61" transform="translate(48.394531 0)"/>
      <use xlink:href="#DejaVuSans-6c" transform="translate(109.673828 0)"/>
      <use xlink:href="#DejaVuSans-73" transform="translate(137.457031 0)"/>
      <use xlink:href="#DejaVuSans-65" transform="translate(189.556641 0)"/>
     </g>
    </g>
    <g id="patch_51">
     <path d="M 620.465938 68.272813 
L 640.465938 68.272813 
L 640.465938 61.272813 
L 620.465938 61.272813 
z
" style="fill: #008000; opacity: 0.8"/>
    </g>
    <g id="text_54">
     <!-- True -->
     <g transform="translate(648.465938 68.272813) scale(0.1 -0.1)">
      <use xlink:href="#DejaVuSans-54"/>
      <use xlink:href="#DejaVuSans-72" transform="translate(46.333984 0)"/>
      <use xlink:href="#DejaVuSans-75" transform="translate(87.447266 0)"/>
      <use xlink:href="#DejaVuSans-65" transform="translate(150.826172 0)"/>
     </g>
    </g>
   </g>
  </g>
 </g>
 <defs>
  <clipPath id="pc1184782c1">
   <rect x="40.603125" y="22.318125" width="308.455" height="351.554539"/>
  </clipPath>
  <clipPath id="pb1623e5485">
   <rect x="396.778125" y="22.318125" width="308.455" height="351.554539"/>
  </clipPath>
 </defs>
</svg>
