<?xml version="1.0" encoding="utf-8" standalone="no"?>
<!DOCTYPE svg PUBLIC "-//W3C//DTD SVG 1.1//EN"
  "http://www.w3.org/Graphics/SVG/1.1/DTD/svg11.dtd">
<svg xmlns:xlink="http://www.w3.org/1999/xlink" width="729.639062pt" height="377.39625pt" viewBox="0 0 729.639062 377.39625" xmlns="http://www.w3.org/2000/svg" version="1.1">
 <metadata>
  <rdf:RDF xmlns:dc="http://purl.org/dc/elements/1.1/" xmlns:cc="http://creativecommons.org/ns#" xmlns:rdf="http://www.w3.org/1999/02/22-rdf-syntax-ns#">
   <cc:Work>
    <dc:type rdf:resource="http://purl.org/dc/dcmitype/StillImage"/>
    <dc:date>2026-02-23T11:42:17.580677</dc:date>
    <dc:format>image/svg+xml</dc:format>
    <dc:creator>
     <cc:Agent>
      <dc:title>Matplotlib v3.10.5, https://matplotlib.org/</dc:title>
     </cc:Agent>
    </dc:creator>
   </cc:Work>
  </rdf:RDF>
 </metadata>
 <defs>
  <style type="text/css">*{stroke-linejoin: round; stroke-linecap: butt}</style>
 </defs>
 <g id="figure_1">
  <g id="patch_1">
   <path d="M 0 377.39625 
L 729.639062 377.39625 
L 729.639062 0 
L 0 0 
z
" style="fill: #ffffff"/>
  </g>
  <g id="axes_1">
   <g id="patch_2">
    <path d="M 52.839063 339.84 
L 722.439062 339.84 
L 722.439062 7.2 
L 52.839063 7.2 
z
" style="fill: #ffffff"/>
   </g>
   <g id="FillBetweenPolyCollection_1">
    <defs>
     <path id="m9efe89fcfc" d="M 20.688131 -288.03417 
L 20.688131 -294.432308 
L 26.903518 -300.899533 
L 33.118905 -310.311761 
L 39.334292 -321.253599 
L 45.549679 -330.691519 
L 51.765066 -335.204978 
L 57.980453 -332.953216 
L 64.19584 -324.869578 
L 70.411227 -314.046436 
L 76.626614 -303.852792 
L 82.842001 -296.318109 
L 89.057388 -291.769963 
L 95.272775 -289.484967 
L 101.488163 -288.519356 
L 107.70355 -288.173899 
L 113.918937 -288.068823 
L 120.134324 -288.041571 
L 126.349711 -288.035531 
L 132.565098 -288.034386 
L 138.780485 -288.034199 
L 144.995872 -288.034173 
L 151.211259 -288.03417 
L 157.426646 -288.03417 
L 163.642033 -288.03417 
L 169.85742 -288.03417 
L 176.072807 -288.03417 
L 182.288194 -288.03417 
L 188.503581 -288.03417 
L 194.718968 -288.03417 
L 200.934355 -288.03417 
L 207.149742 -288.03417 
L 213.365129 -288.03417 
L 219.580516 -288.03417 
L 225.795903 -288.03417 
L 232.01129 -288.03417 
L 238.226678 -288.03417 
L 244.442065 -288.03417 
L 250.657452 -288.03417 
L 256.872839 -288.03417 
L 263.088226 -288.03417 
L 269.303613 -288.03417 
L 275.519 -288.03417 
L 281.734387 -288.03417 
L 287.949774 -288.03417 
L 294.165161 -288.03417 
L 300.380548 -288.03417 
L 306.595935 -288.03417 
L 312.811322 -288.03417 
L 319.026709 -288.03417 
L 325.242096 -288.034171 
L 331.457483 -288.034175 
L 337.67287 -288.034201 
L 343.888257 -288.034335 
L 350.103644 -288.034929 
L 356.319031 -288.037214 
L 362.534418 -288.044805 
L 368.749805 -288.066631 
L 374.965192 -288.121009 
L 381.18058 -288.23849 
L 387.395967 -288.45861 
L 393.611354 -288.815886 
L 399.826741 -289.316564 
L 406.042128 -289.918146 
L 412.257515 -290.529267 
L 418.472902 -291.037874 
L 424.688289 -291.353492 
L 430.903676 -291.43553 
L 437.119063 -291.292638 
L 443.33445 -290.966027 
L 449.549837 -290.518337 
L 455.765224 -290.029216 
L 461.980611 -289.581828 
L 468.195998 -289.237486 
L 474.411385 -289.018289 
L 480.626772 -288.913797 
L 486.842159 -288.901062 
L 493.057546 -288.954923 
L 499.272933 -289.043491 
L 505.48832 -289.125456 
L 511.703707 -289.16156 
L 517.919095 -289.13092 
L 524.134482 -289.03542 
L 530.349869 -288.890664 
L 536.565256 -288.716359 
L 542.780643 -288.533966 
L 548.99603 -288.366551 
L 555.211417 -288.234575 
L 561.426804 -288.150323 
L 567.642191 -288.117214 
L 573.857578 -288.13376 
L 580.072965 -288.195555 
L 586.288352 -288.291059 
L 592.503739 -288.395779 
L 598.719126 -288.474658 
L 604.934513 -288.496649 
L 611.1499 -288.452383 
L 617.365287 -288.359851 
L 623.580674 -288.252578 
L 629.796061 -288.160301 
L 636.011448 -288.096897 
L 636.011448 -288.03417 
L 636.011448 -288.03417 
L 629.796061 -288.03417 
L 623.580674 -288.03417 
L 617.365287 -288.03417 
L 611.1499 -288.03417 
L 604.934513 -288.03417 
L 598.719126 -288.03417 
L 592.503739 -288.03417 
L 586.288352 -288.03417 
L 580.072965 -288.03417 
L 573.857578 -288.03417 
L 567.642191 -288.03417 
L 561.426804 -288.03417 
L 555.211417 -288.03417 
L 548.99603 -288.03417 
L 542.780643 -288.03417 
L 536.565256 -288.03417 
L 530.349869 -288.03417 
L 524.134482 -288.03417 
L 517.919095 -288.03417 
L 511.703707 -288.03417 
L 505.48832 -288.03417 
L 499.272933 -288.03417 
L 493.057546 -288.03417 
L 486.842159 -288.03417 
L 480.626772 -288.03417 
L 474.411385 -288.03417 
L 468.195998 -288.03417 
L 461.980611 -288.03417 
L 455.765224 -288.03417 
L 449.549837 -288.03417 
L 443.33445 -288.03417 
L 437.119063 -288.03417 
L 430.903676 -288.03417 
L 424.688289 -288.03417 
L 418.472902 -288.03417 
L 412.257515 -288.03417 
L 406.042128 -288.03417 
L 399.826741 -288.03417 
L 393.611354 -288.03417 
L 387.395967 -288.03417 
L 381.18058 -288.03417 
L 374.965192 -288.03417 
L 368.749805 -288.03417 
L 362.534418 -288.03417 
L 356.319031 -288.03417 
L 350.103644 -288.03417 
L 343.888257 -288.03417 
L 337.67287 -288.03417 
L 331.457483 -288.03417 
L 325.242096 -288.03417 
L 319.026709 -288.03417 
L 312.811322 -288.03417 
L 306.595935 -288.03417 
L 300.380548 -288.03417 
L 294.165161 -288.03417 
L 287.949774 -288.03417 
L 281.734387 -288.03417 
L 275.519 -288.03417 
L 269.303613 -288.03417 
L 263.088226 -288.03417 
L 256.872839 -288.03417 
L 250.657452 -288.03417 
L 244.442065 -288.03417 
L 238.226678 -288.03417 
L 232.01129 -288.03417 
L 225.795903 -288.03417 
L 219.580516 -288.03417 
L 213.365129 -288.03417 
L 207.149742 -288.03417 
L 200.934355 -288.03417 
L 194.718968 -288.03417 
L 188.503581 -288.03417 
L 182.288194 -288.03417 
L 176.072807 -288.03417 
L 169.85742 -288.03417 
L 163.642033 -288.03417 
L 157.426646 -288.03417 
L 151.211259 -288.03417 
L 144.995872 -288.03417 
L 138.780485 -288.03417 
L 132.565098 -288.03417 
L 126.349711 -288.03417 
L 120.134324 -288.03417 
L 113.918937 -288.03417 
L 107.70355 -288.03417 
L 101.488163 -288.03417 
L 95.272775 -288.03417 
L 89.057388 -288.03417 
L 82.842001 -288.03417 
L 76.626614 -288.03417 
L 70.411227 -288.03417 
L 64.19584 -288.03417 
L 57.980453 -288.03417 
L 51.765066 -288.03417 
L 45.549679 -288.03417 
L 39.334292 -288.03417 
L 33.118905 -288.03417 
L 26.903518 -288.03417 
L 20.688131 -288.03417 
z
" style="stroke: #4c4c4c; stroke-width: 1.25"/>
    </defs>
    <g clip-path="url(#p36f2f72592)">
     <use xlink:href="#m9efe89fcfc" x="0" y="377.39625" style="fill: #df9c20; stroke: #4c4c4c; stroke-width: 1.25"/>
    </g>
   </g>
   <g id="FillBetweenPolyCollection_2">
    <defs>
     <path id="med461b9310" d="M 6.334735 -278.305861 
L 6.334735 -286.03833 
L 13.223113 -286.03833 
L 20.111491 -286.03833 
L 26.999868 -286.03833 
L 33.888246 -286.03833 
L 40.776624 -286.03833 
L 47.665002 -286.03833 
L 54.55338 -286.03833 
L 61.441758 -286.03833 
L 68.330136 -286.03833 
L 75.218514 -286.03833 
L 82.106892 -286.03833 
L 88.99527 -286.03833 
L 95.883648 -286.03833 
L 102.772026 -286.03833 
L 109.660404 -286.03833 
L 116.548782 -286.03833 
L 123.43716 -286.03833 
L 130.325538 -286.03833 
L 137.213915 -286.03833 
L 144.102293 -286.03833 
L 150.990671 -286.03833 
L 157.879049 -286.03833 
L 164.767427 -286.03833 
L 171.655805 -286.03833 
L 178.544183 -286.03833 
L 185.432561 -286.03833 
L 192.320939 -286.03833 
L 199.209317 -286.03833 
L 206.097695 -286.03833 
L 212.986073 -286.03833 
L 219.874451 -286.03833 
L 226.762829 -286.03833 
L 233.651207 -286.03833 
L 240.539585 -286.03833 
L 247.427962 -286.03833 
L 254.31634 -286.03833 
L 261.204718 -286.03833 
L 268.093096 -286.03833 
L 274.981474 -286.03833 
L 281.869852 -286.03833 
L 288.75823 -286.03833 
L 295.646608 -286.03833 
L 302.534986 -286.03833 
L 309.423364 -286.03833 
L 316.311742 -286.03833 
L 323.20012 -286.03833 
L 330.088498 -286.03833 
L 336.976876 -286.03833 
L 343.865254 -286.03833 
L 350.753632 -286.03833 
L 357.642009 -286.03833 
L 364.530387 -286.03833 
L 371.418765 -286.03833 
L 378.307143 -286.03833 
L 385.195521 -286.03833 
L 392.083899 -286.03833 
L 398.972277 -286.03833 
L 405.860655 -286.03833 
L 412.749033 -286.03833 
L 419.637411 -286.03833 
L 426.525789 -286.03833 
L 433.414167 -286.03833 
L 440.302545 -286.03833 
L 447.190923 -286.03833 
L 454.079301 -286.03833 
L 460.967679 -286.03833 
L 467.856056 -286.03833 
L 474.744434 -286.03833 
L 481.632812 -286.03833 
L 488.52119 -286.03833 
L 495.409568 -286.03833 
L 502.297946 -286.03833 
L 509.186324 -286.03833 
L 516.074702 -286.03833 
L 522.96308 -286.03833 
L 529.851458 -286.03833 
L 536.739836 -286.03833 
L 543.628214 -286.03833 
L 550.516592 -286.03833 
L 557.40497 -286.03833 
L 564.293348 -286.03833 
L 571.181726 -286.03833 
L 578.070103 -286.03833 
L 584.958481 -286.03833 
L 591.846859 -286.03833 
L 598.735237 -286.03833 
L 605.623615 -286.03833 
L 612.511993 -286.03833 
L 619.400371 -286.03833 
L 626.288749 -286.03833 
L 633.177127 -286.03833 
L 640.065505 -286.03833 
L 646.953883 -286.03833 
L 653.842261 -286.03833 
L 660.730639 -286.03833 
L 667.619017 -286.03833 
L 674.507395 -286.03833 
L 681.395773 -286.03833 
L 688.284151 -286.03833 
L 688.284151 -285.849426 
L 688.284151 -285.849426 
L 681.395773 -285.701817 
L 674.507395 -285.482964 
L 667.619017 -285.185632 
L 660.730639 -284.813773 
L 653.842261 -284.382657 
L 646.953883 -283.914928 
L 640.065505 -283.43471 
L 633.177127 -282.962665 
L 626.288749 -282.512744 
L 619.400371 -282.087946 
L 612.511993 -281.671433 
L 605.623615 -281.21327 
L 598.735237 -280.619982 
L 591.846859 -279.758787 
L 584.958481 -278.485537 
L 578.070103 -276.693996 
L 571.181726 -274.368777 
L 564.293348 -271.614493 
L 557.40497 -268.638081 
L 550.516592 -265.681465 
L 543.628214 -262.928429 
L 536.739836 -260.427392 
L 529.851458 -258.069447 
L 522.96308 -255.639151 
L 516.074702 -252.92467 
L 509.186324 -249.846438 
L 502.297946 -246.54925 
L 495.409568 -243.409103 
L 488.52119 -240.937143 
L 481.632812 -239.611362 
L 474.744434 -239.708602 
L 467.856056 -241.215856 
L 460.967679 -243.860133 
L 454.079301 -247.231919 
L 447.190923 -250.930543 
L 440.302545 -254.659768 
L 433.414167 -258.243524 
L 426.525789 -261.581888 
L 419.637411 -264.59419 
L 412.749033 -267.190056 
L 405.860655 -269.282835 
L 398.972277 -270.831861 
L 392.083899 -271.88329 
L 385.195521 -272.579378 
L 378.307143 -273.123006 
L 371.418765 -273.71061 
L 364.530387 -274.467332 
L 357.642009 -275.418241 
L 350.753632 -276.507075 
L 343.865254 -277.644667 
L 336.976876 -278.754553 
L 330.088498 -279.792766 
L 323.20012 -280.7419 
L 316.311742 -281.596216 
L 309.423364 -282.353457 
L 302.534986 -283.016045 
L 295.646608 -283.593841 
L 288.75823 -284.101359 
L 281.869852 -284.550235 
L 274.981474 -284.943399 
L 268.093096 -285.275794 
L 261.204718 -285.540632 
L 254.31634 -285.736152 
L 247.427962 -285.868562 
L 240.539585 -285.950388 
L 233.651207 -285.996426 
L 226.762829 -286.019991 
L 219.874451 -286.030966 
L 212.986073 -286.035618 
L 206.097695 -286.037415 
L 199.209317 -286.038047 
L 192.320939 -286.038249 
L 185.432561 -286.038304 
L 178.544183 -286.038299 
L 171.655805 -286.038207 
L 164.767427 -286.037799 
L 157.879049 -286.036214 
L 150.990671 -286.030609 
L 144.102293 -286.012524 
L 137.213915 -285.959326 
L 130.325538 -285.816791 
L 123.43716 -285.469294 
L 116.548782 -284.699534 
L 109.660404 -283.153141 
L 102.772026 -280.342993 
L 95.883648 -275.740397 
L 88.99527 -268.982768 
L 82.106892 -260.164102 
L 75.218514 -250.083754 
L 68.330136 -240.274083 
L 61.441758 -232.682257 
L 54.55338 -229.05776 
L 47.665002 -230.299852 
L 40.776624 -236.095999 
L 33.888246 -245.049275 
L 26.999868 -255.224024 
L 20.111491 -264.81946 
L 13.223113 -272.654589 
L 6.334735 -278.305861 
z
" style="stroke: #4c4c4c; stroke-width: 1.25"/>
    </defs>
    <g clip-path="url(#p36f2f72592)">
     <use xlink:href="#med461b9310" x="0" y="377.39625" style="fill: #df20df; stroke: #4c4c4c; stroke-width: 1.25"/>
    </g>
   </g>
   <g id="FillBetweenPolyCollection_3">
    <defs>
     <path id="m000eb7389b" d="M 28.286761 -121.71417 
L 28.286761 -130.585292 
L 33.631423 -140.988361 
L 38.976085 -156.360302 
L 44.320747 -173.23873 
L 49.665408 -185.109136 
L 55.01007 -186.24633 
L 60.354732 -176.061546 
L 65.699394 -159.581258 
L 71.044056 -143.542786 
L 76.388718 -132.124666 
L 81.733379 -125.821859 
L 87.078041 -123.055096 
L 92.422703 -122.076324 
L 97.767365 -121.795091 
L 103.112027 -121.729129 
L 108.456688 -121.716458 
L 113.80135 -121.71446 
L 119.146012 -121.7142 
L 124.490674 -121.714173 
L 129.835336 -121.71417 
L 135.179998 -121.71417 
L 140.524659 -121.71417 
L 145.869321 -121.71417 
L 151.213983 -121.71417 
L 156.558645 -121.71417 
L 161.903307 -121.71417 
L 167.247968 -121.71417 
L 172.59263 -121.71417 
L 177.937292 -121.71417 
L 183.281954 -121.71417 
L 188.626616 -121.71417 
L 193.971277 -121.71417 
L 199.315939 -121.71417 
L 204.660601 -121.71417 
L 210.005263 -121.71417 
L 215.349925 -121.71417 
L 220.694587 -121.71417 
L 226.039248 -121.71417 
L 231.38391 -121.71417 
L 236.728572 -121.71417 
L 242.073234 -121.71417 
L 247.417896 -121.71417 
L 252.762557 -121.71417 
L 258.107219 -121.71417 
L 263.451881 -121.71417 
L 268.796543 -121.71417 
L 274.141205 -121.71417 
L 279.485867 -121.71417 
L 284.830528 -121.71417 
L 290.17519 -121.71417 
L 295.519852 -121.714172 
L 300.864514 -121.714183 
L 306.209176 -121.714257 
L 311.553837 -121.714662 
L 316.898499 -121.716483 
L 322.243161 -121.723167 
L 327.587823 -121.743124 
L 332.932485 -121.791259 
L 338.277146 -121.883994 
L 343.621808 -122.023782 
L 348.96647 -122.181657 
L 354.311132 -122.300269 
L 359.655794 -122.32971 
L 365.000456 -122.271632 
L 370.345117 -122.187087 
L 375.689779 -122.154268 
L 381.034441 -122.212091 
L 386.379103 -122.339145 
L 391.723765 -122.485246 
L 397.068426 -122.624805 
L 402.413088 -122.77741 
L 407.75775 -122.97125 
L 413.102412 -123.186908 
L 418.447074 -123.343318 
L 423.791735 -123.346384 
L 429.136397 -123.161915 
L 434.481059 -122.852402 
L 439.825721 -122.544734 
L 445.170383 -122.350866 
L 450.515045 -122.300978 
L 455.859706 -122.337339 
L 461.204368 -122.370583 
L 466.54903 -122.353966 
L 471.893692 -122.316223 
L 477.238354 -122.326947 
L 482.583015 -122.428046 
L 487.927677 -122.592718 
L 493.272339 -122.742301 
L 498.617001 -122.79992 
L 503.961663 -122.739088 
L 509.306325 -122.599026 
L 514.650986 -122.459063 
L 519.995648 -122.383996 
L 525.34031 -122.376468 
L 530.684972 -122.378417 
L 536.029634 -122.324593 
L 541.374295 -122.198112 
L 546.718957 -122.036639 
L 552.063619 -121.892973 
L 557.408281 -121.796367 
L 557.408281 -121.71417 
L 557.408281 -121.71417 
L 552.063619 -121.71417 
L 546.718957 -121.71417 
L 541.374295 -121.71417 
L 536.029634 -121.71417 
L 530.684972 -121.71417 
L 525.34031 -121.71417 
L 519.995648 -121.71417 
L 514.650986 -121.71417 
L 509.306325 -121.71417 
L 503.961663 -121.71417 
L 498.617001 -121.71417 
L 493.272339 -121.71417 
L 487.927677 -121.71417 
L 482.583015 -121.71417 
L 477.238354 -121.71417 
L 471.893692 -121.71417 
L 466.54903 -121.71417 
L 461.204368 -121.71417 
L 455.859706 -121.71417 
L 450.515045 -121.71417 
L 445.170383 -121.71417 
L 439.825721 -121.71417 
L 434.481059 -121.71417 
L 429.136397 -121.71417 
L 423.791735 -121.71417 
L 418.447074 -121.71417 
L 413.102412 -121.71417 
L 407.75775 -121.71417 
L 402.413088 -121.71417 
L 397.068426 -121.71417 
L 391.723765 -121.71417 
L 386.379103 -121.71417 
L 381.034441 -121.71417 
L 375.689779 -121.71417 
L 370.345117 -121.71417 
L 365.000456 -121.71417 
L 359.655794 -121.71417 
L 354.311132 -121.71417 
L 348.96647 -121.71417 
L 343.621808 -121.71417 
L 338.277146 -121.71417 
L 332.932485 -121.71417 
L 327.587823 -121.71417 
L 322.243161 -121.71417 
L 316.898499 -121.71417 
L 311.553837 -121.71417 
L 306.209176 -121.71417 
L 300.864514 -121.71417 
L 295.519852 -121.71417 
L 290.17519 -121.71417 
L 284.830528 -121.71417 
L 279.485867 -121.71417 
L 274.141205 -121.71417 
L 268.796543 -121.71417 
L 263.451881 -121.71417 
L 258.107219 -121.71417 
L 252.762557 -121.71417 
L 247.417896 -121.71417 
L 242.073234 -121.71417 
L 236.728572 -121.71417 
L 231.38391 -121.71417 
L 226.039248 -121.71417 
L 220.694587 -121.71417 
L 215.349925 -121.71417 
L 210.005263 -121.71417 
L 204.660601 -121.71417 
L 199.315939 -121.71417 
L 193.971277 -121.71417 
L 188.626616 -121.71417 
L 183.281954 -121.71417 
L 177.937292 -121.71417 
L 172.59263 -121.71417 
L 167.247968 -121.71417 
L 161.903307 -121.71417 
L 156.558645 -121.71417 
L 151.213983 -121.71417 
L 145.869321 -121.71417 
L 140.524659 -121.71417 
L 135.179998 -121.71417 
L 129.835336 -121.71417 
L 124.490674 -121.71417 
L 119.146012 -121.71417 
L 113.80135 -121.71417 
L 108.456688 -121.71417 
L 103.112027 -121.71417 
L 97.767365 -121.71417 
L 92.422703 -121.71417 
L 87.078041 -121.71417 
L 81.733379 -121.71417 
L 76.388718 -121.71417 
L 71.044056 -121.71417 
L 65.699394 -121.71417 
L 60.354732 -121.71417 
L 55.01007 -121.71417 
L 49.665408 -121.71417 
L 44.320747 -121.71417 
L 38.976085 -121.71417 
L 33.631423 -121.71417 
L 28.286761 -121.71417 
z
" style="stroke: #4c4c4c; stroke-width: 1.25"/>
    </defs>
    <g clip-path="url(#p36f2f72592)">
     <use xlink:href="#m000eb7389b" x="0" y="377.39625" style="fill: #df9c20; stroke: #4c4c4c; stroke-width: 1.25"/>
    </g>
   </g>
   <g id="FillBetweenPolyCollection_4">
    <defs>
     <path id="m0c0b7cf639" d="M 5.185911 -110.971767 
L 5.185911 -119.71833 
L 11.807252 -119.71833 
L 18.428593 -119.71833 
L 25.049934 -119.71833 
L 31.671275 -119.71833 
L 38.292616 -119.71833 
L 44.913958 -119.71833 
L 51.535299 -119.71833 
L 58.15664 -119.71833 
L 64.777981 -119.71833 
L 71.399322 -119.71833 
L 78.020663 -119.71833 
L 84.642005 -119.71833 
L 91.263346 -119.71833 
L 97.884687 -119.71833 
L 104.506028 -119.71833 
L 111.127369 -119.71833 
L 117.74871 -119.71833 
L 124.370052 -119.71833 
L 130.991393 -119.71833 
L 137.612734 -119.71833 
L 144.234075 -119.71833 
L 150.855416 -119.71833 
L 157.476758 -119.71833 
L 164.098099 -119.71833 
L 170.71944 -119.71833 
L 177.340781 -119.71833 
L 183.962122 -119.71833 
L 190.583463 -119.71833 
L 197.204805 -119.71833 
L 203.826146 -119.71833 
L 210.447487 -119.71833 
L 217.068828 -119.71833 
L 223.690169 -119.71833 
L 230.31151 -119.71833 
L 236.932852 -119.71833 
L 243.554193 -119.71833 
L 250.175534 -119.71833 
L 256.796875 -119.71833 
L 263.418216 -119.71833 
L 270.039557 -119.71833 
L 276.660899 -119.71833 
L 283.28224 -119.71833 
L 289.903581 -119.71833 
L 296.524922 -119.71833 
L 303.146263 -119.71833 
L 309.767605 -119.71833 
L 316.388946 -119.71833 
L 323.010287 -119.71833 
L 329.631628 -119.71833 
L 336.252969 -119.71833 
L 342.87431 -119.71833 
L 349.495652 -119.71833 
L 356.116993 -119.71833 
L 362.738334 -119.71833 
L 369.359675 -119.71833 
L 375.981016 -119.71833 
L 382.602357 -119.71833 
L 389.223699 -119.71833 
L 395.84504 -119.71833 
L 402.466381 -119.71833 
L 409.087722 -119.71833 
L 415.709063 -119.71833 
L 422.330404 -119.71833 
L 428.951746 -119.71833 
L 435.573087 -119.71833 
L 442.194428 -119.71833 
L 448.815769 -119.71833 
L 455.43711 -119.71833 
L 462.058452 -119.71833 
L 468.679793 -119.71833 
L 475.301134 -119.71833 
L 481.922475 -119.71833 
L 488.543816 -119.71833 
L 495.165157 -119.71833 
L 501.786499 -119.71833 
L 508.40784 -119.71833 
L 515.029181 -119.71833 
L 521.650522 -119.71833 
L 528.271863 -119.71833 
L 534.893204 -119.71833 
L 541.514546 -119.71833 
L 548.135887 -119.71833 
L 554.757228 -119.71833 
L 561.378569 -119.71833 
L 567.99991 -119.71833 
L 574.621251 -119.71833 
L 581.242593 -119.71833 
L 587.863934 -119.71833 
L 594.485275 -119.71833 
L 601.106616 -119.71833 
L 607.727957 -119.71833 
L 614.349299 -119.71833 
L 620.97064 -119.71833 
L 627.591981 -119.71833 
L 634.213322 -119.71833 
L 640.834663 -119.71833 
L 647.456004 -119.71833 
L 654.077346 -119.71833 
L 660.698687 -119.71833 
L 660.698687 -119.391465 
L 660.698687 -119.391465 
L 654.077346 -119.1561 
L 647.456004 -118.819197 
L 640.834663 -118.379453 
L 634.213322 -117.857971 
L 627.591981 -117.298334 
L 620.97064 -116.755877 
L 614.349299 -116.276498 
L 607.727957 -115.870527 
L 601.106616 -115.490763 
L 594.485275 -115.023865 
L 587.863934 -114.301244 
L 581.242593 -113.130576 
L 574.621251 -111.343519 
L 567.99991 -108.849585 
L 561.378569 -105.681129 
L 554.757228 -102.012245 
L 548.135887 -98.138025 
L 541.514546 -94.411724 
L 534.893204 -91.153718 
L 528.271863 -88.561044 
L 521.650522 -86.65193 
L 515.029181 -85.270785 
L 508.40784 -84.15731 
L 501.786499 -83.056868 
L 495.165157 -81.830276 
L 488.543816 -80.519459 
L 481.922475 -79.343216 
L 475.301134 -78.626713 
L 468.679793 -78.694808 
L 462.058452 -79.770042 
L 455.43711 -81.907808 
L 448.815769 -84.981538 
L 442.194428 -88.712133 
L 435.573087 -92.726417 
L 428.951746 -96.628885 
L 422.330404 -100.073659 
L 415.709063 -102.825036 
L 409.087722 -104.794953 
L 402.466381 -106.047622 
L 395.84504 -106.767943 
L 389.223699 -107.200867 
L 382.602357 -107.579869 
L 375.981016 -108.068333 
L 369.359675 -108.733469 
L 362.738334 -109.558352 
L 356.116993 -110.480323 
L 349.495652 -111.433147 
L 342.87431 -112.372628 
L 336.252969 -113.278806 
L 329.631628 -114.142893 
L 323.010287 -114.953917 
L 316.388946 -115.695559 
L 309.767605 -116.353129 
L 303.146263 -116.922649 
L 296.524922 -117.413743 
L 289.903581 -117.844017 
L 283.28224 -118.229298 
L 276.660899 -118.576416 
L 270.039557 -118.88247 
L 263.418216 -119.139739 
L 256.796875 -119.342208 
L 250.175534 -119.489831 
L 243.554193 -119.589029 
L 236.932852 -119.650326 
L 230.31151 -119.685136 
L 223.690169 -119.703306 
L 217.068828 -119.712028 
L 210.447487 -119.715882 
L 203.826146 -119.717449 
L 197.204805 -119.718036 
L 190.583463 -119.718236 
L 183.962122 -119.718287 
L 177.340781 -119.718247 
L 170.71944 -119.718016 
L 164.098099 -119.717139 
L 157.476758 -119.714138 
L 150.855416 -119.704663 
L 144.234075 -119.677083 
L 137.612734 -119.6031 
L 130.991393 -119.420341 
L 124.370052 -119.004989 
L 117.74871 -118.13761 
L 111.127369 -116.475878 
L 104.506028 -113.561559 
L 97.884687 -108.896688 
L 91.263346 -102.110975 
L 84.642005 -93.199409 
L 78.020663 -82.745869 
L 71.399322 -72.002591 
L 64.777981 -62.714278 
L 58.15664 -56.679147 
L 51.535299 -55.18617 
L 44.913958 -58.567464 
L 38.292616 -66.078203 
L 31.671275 -76.163356 
L 25.049934 -86.980755 
L 18.428593 -96.940307 
L 11.807252 -105.047782 
L 5.185911 -110.971767 
z
" style="stroke: #4c4c4c; stroke-width: 1.25"/>
    </defs>
    <g clip-path="url(#p36f2f72592)">
     <use xlink:href="#m0c0b7cf639" x="0" y="377.39625" style="fill: #df20df; stroke: #4c4c4c; stroke-width: 1.25"/>
    </g>
   </g>
   <g id="patch_3">
    <path d="M 52.839063 90.36 
L 52.839063 90.36 
L 52.839063 90.36 
L 52.839063 90.36 
z
" clip-path="url(#p36f2f72592)" style="fill: #df9c20; stroke: #4c4c4c; stroke-width: 1.25; stroke-linejoin: miter"/>
   </g>
   <g id="patch_4">
    <path d="M 52.839063 90.36 
L 52.839063 90.36 
L 52.839063 90.36 
L 52.839063 90.36 
z
" clip-path="url(#p36f2f72592)" style="fill: #df20df; stroke: #4c4c4c; stroke-width: 1.25; stroke-linejoin: miter"/>
   </g>
   <g id="matplotlib.axis_1">
    <g id="xtick_1">
     <g id="line2d_1">
      <defs>
       <path id="m973783a98d" d="M 0 0 
L 0 3.5 
" style="stroke: #000000; stroke-width: 0.8"/>
      </defs>
      <g>
       <use xlink:href="#m973783a98d" x="52.839063" y="339.84" style="stroke: #000000; stroke-width: 0.8"/>
      </g>
     </g>
     <g id="text_1">
      <!-- 0 -->
      <g transform="translate(49.657813 354.438437) scale(0.1 -0.1)">
       <defs>
        <path id="DejaVuSans-30" d="M 2034 4250 
Q 1547 4250 1301 3770 
Q 1056 3291 1056 2328 
Q 1056 1369 1301 889 
Q 1547 409 2034 409 
Q 2525 409 2770 889 
Q 3016 1369 3016 2328 
Q 3016 3291 2770 3770 
Q 2525 4250 2034 4250 
z
M 2034 4750 
Q 2819 4750 3233 4129 
Q 3647 3509 3647 2328 
Q 3647 1150 3233 529 
Q 2819 -91 2034 -91 
Q 1250 -91 836 529 
Q 422 1150 422 2328 
Q 422 3509 836 4129 
Q 1250 4750 2034 4750 
z
" transform="scale(0.015625)"/>
       </defs>
       <use xlink:href="#DejaVuSans-30"/>
      </g>
     </g>
    </g>
    <g id="xtick_2">
     <g id="line2d_2">
      <g>
       <use xlink:href="#m973783a98d" x="184.628736" y="339.84" style="stroke: #000000; stroke-width: 0.8"/>
      </g>
     </g>
     <g id="text_2">
      <!-- 2 -->
      <g transform="translate(181.447486 354.438437) scale(0.1 -0.1)">
       <defs>
        <path id="DejaVuSans-32" d="M 1228 531 
L 3431 531 
L 3431 0 
L 469 0 
L 469 531 
Q 828 903 1448 1529 
Q 2069 2156 2228 2338 
Q 2531 2678 2651 2914 
Q 2772 3150 2772 3378 
Q 2772 3750 2511 3984 
Q 2250 4219 1831 4219 
Q 1534 4219 1204 4116 
Q 875 4013 500 3803 
L 500 4441 
Q 881 4594 1212 4672 
Q 1544 4750 1819 4750 
Q 2544 4750 2975 4387 
Q 3406 4025 3406 3419 
Q 3406 3131 3298 2873 
Q 3191 2616 2906 2266 
Q 2828 2175 2409 1742 
Q 1991 1309 1228 531 
z
" transform="scale(0.015625)"/>
       </defs>
       <use xlink:href="#DejaVuSans-32"/>
      </g>
     </g>
    </g>
    <g id="xtick_3">
     <g id="line2d_3">
      <g>
       <use xlink:href="#m973783a98d" x="316.41841" y="339.84" style="stroke: #000000; stroke-width: 0.8"/>
      </g>
     </g>
     <g id="text_3">
      <!-- 4 -->
      <g transform="translate(313.23716 354.438437) scale(0.1 -0.1)">
       <defs>
        <path id="DejaVuSans-34" d="M 2419 4116 
L 825 1625 
L 2419 1625 
L 2419 4116 
z
M 2253 4666 
L 3047 4666 
L 3047 1625 
L 3713 1625 
L 3713 1100 
L 3047 1100 
L 3047 0 
L 2419 0 
L 2419 1100 
L 313 1100 
L 313 1709 
L 2253 4666 
z
" transform="scale(0.015625)"/>
       </defs>
       <use xlink:href="#DejaVuSans-34"/>
      </g>
     </g>
    </g>
    <g id="xtick_4">
     <g id="line2d_4">
      <g>
       <use xlink:href="#m973783a98d" x="448.208084" y="339.84" style="stroke: #000000; stroke-width: 0.8"/>
      </g>
     </g>
     <g id="text_4">
      <!-- 6 -->
      <g transform="translate(445.026834 354.438437) scale(0.1 -0.1)">
       <defs>
        <path id="DejaVuSans-36" d="M 2113 2584 
Q 1688 2584 1439 2293 
Q 1191 2003 1191 1497 
Q 1191 994 1439 701 
Q 1688 409 2113 409 
Q 2538 409 2786 701 
Q 3034 994 3034 1497 
Q 3034 2003 2786 2293 
Q 2538 2584 2113 2584 
z
M 3366 4563 
L 3366 3988 
Q 3128 4100 2886 4159 
Q 2644 4219 2406 4219 
Q 1781 4219 1451 3797 
Q 1122 3375 1075 2522 
Q 1259 2794 1537 2939 
Q 1816 3084 2150 3084 
Q 2853 3084 3261 2657 
Q 3669 2231 3669 1497 
Q 3669 778 3244 343 
Q 2819 -91 2113 -91 
Q 1303 -91 875 529 
Q 447 1150 447 2328 
Q 447 3434 972 4092 
Q 1497 4750 2381 4750 
Q 2619 4750 2861 4703 
Q 3103 4656 3366 4563 
z
" transform="scale(0.015625)"/>
       </defs>
       <use xlink:href="#DejaVuSans-36"/>
      </g>
     </g>
    </g>
    <g id="xtick_5">
     <g id="line2d_5">
      <g>
       <use xlink:href="#m973783a98d" x="579.997757" y="339.84" style="stroke: #000000; stroke-width: 0.8"/>
      </g>
     </g>
     <g id="text_5">
      <!-- 8 -->
      <g transform="translate(576.816507 354.438437) scale(0.1 -0.1)">
       <defs>
        <path id="DejaVuSans-38" d="M 2034 2216 
Q 1584 2216 1326 1975 
Q 1069 1734 1069 1313 
Q 1069 891 1326 650 
Q 1584 409 2034 409 
Q 2484 409 2743 651 
Q 3003 894 3003 1313 
Q 3003 1734 2745 1975 
Q 2488 2216 2034 2216 
z
M 1403 2484 
Q 997 2584 770 2862 
Q 544 3141 544 3541 
Q 544 4100 942 4425 
Q 1341 4750 2034 4750 
Q 2731 4750 3128 4425 
Q 3525 4100 3525 3541 
Q 3525 3141 3298 2862 
Q 3072 2584 2669 2484 
Q 3125 2378 3379 2068 
Q 3634 1759 3634 1313 
Q 3634 634 3220 271 
Q 2806 -91 2034 -91 
Q 1263 -91 848 271 
Q 434 634 434 1313 
Q 434 1759 690 2068 
Q 947 2378 1403 2484 
z
M 1172 3481 
Q 1172 3119 1398 2916 
Q 1625 2713 2034 2713 
Q 2441 2713 2670 2916 
Q 2900 3119 2900 3481 
Q 2900 3844 2670 4047 
Q 2441 4250 2034 4250 
Q 1625 4250 1398 4047 
Q 1172 3844 1172 3481 
z
" transform="scale(0.015625)"/>
       </defs>
       <use xlink:href="#DejaVuSans-38"/>
      </g>
     </g>
    </g>
    <g id="xtick_6">
     <g id="line2d_6">
      <g>
       <use xlink:href="#m973783a98d" x="711.787431" y="339.84" style="stroke: #000000; stroke-width: 0.8"/>
      </g>
     </g>
     <g id="text_6">
      <!-- 10 -->
      <g transform="translate(705.424931 354.438437) scale(0.1 -0.1)">
       <defs>
        <path id="DejaVuSans-31" d="M 794 531 
L 1825 531 
L 1825 4091 
L 703 3866 
L 703 4441 
L 1819 4666 
L 2450 4666 
L 2450 531 
L 3481 531 
L 3481 0 
L 794 0 
L 794 531 
z
" transform="scale(0.015625)"/>
       </defs>
       <use xlink:href="#DejaVuSans-31"/>
       <use xlink:href="#DejaVuSans-30" transform="translate(63.623047 0)"/>
      </g>
     </g>
    </g>
    <g id="text_7">
     <!-- expression -->
     <g transform="translate(360.670313 368.116562) scale(0.1 -0.1)">
      <defs>
       <path id="DejaVuSans-65" d="M 3597 1894 
L 3597 1613 
L 953 1613 
Q 991 1019 1311 708 
Q 1631 397 2203 397 
Q 2534 397 2845 478 
Q 3156 559 3463 722 
L 3463 178 
Q 3153 47 2828 -22 
Q 2503 -91 2169 -91 
Q 1331 -91 842 396 
Q 353 884 353 1716 
Q 353 2575 817 3079 
Q 1281 3584 2069 3584 
Q 2775 3584 3186 3129 
Q 3597 2675 3597 1894 
z
M 3022 2063 
Q 3016 2534 2758 2815 
Q 2500 3097 2075 3097 
Q 1594 3097 1305 2825 
Q 1016 2553 972 2059 
L 3022 2063 
z
" transform="scale(0.015625)"/>
       <path id="DejaVuSans-78" d="M 3513 3500 
L 2247 1797 
L 3578 0 
L 2900 0 
L 1881 1375 
L 863 0 
L 184 0 
L 1544 1831 
L 300 3500 
L 978 3500 
L 1906 2253 
L 2834 3500 
L 3513 3500 
z
" transform="scale(0.015625)"/>
       <path id="DejaVuSans-70" d="M 1159 525 
L 1159 -1331 
L 581 -1331 
L 581 3500 
L 1159 3500 
L 1159 2969 
Q 1341 3281 1617 3432 
Q 1894 3584 2278 3584 
Q 2916 3584 3314 3078 
Q 3713 2572 3713 1747 
Q 3713 922 3314 415 
Q 2916 -91 2278 -91 
Q 1894 -91 1617 61 
Q 1341 213 1159 525 
z
M 3116 1747 
Q 3116 2381 2855 2742 
Q 2594 3103 2138 3103 
Q 1681 3103 1420 2742 
Q 1159 2381 1159 1747 
Q 1159 1113 1420 752 
Q 1681 391 2138 391 
Q 2594 391 2855 752 
Q 3116 1113 3116 1747 
z
" transform="scale(0.015625)"/>
       <path id="DejaVuSans-72" d="M 2631 2963 
Q 2534 3019 2420 3045 
Q 2306 3072 2169 3072 
Q 1681 3072 1420 2755 
Q 1159 2438 1159 1844 
L 1159 0 
L 581 0 
L 581 3500 
L 1159 3500 
L 1159 2956 
Q 1341 3275 1631 3429 
Q 1922 3584 2338 3584 
Q 2397 3584 2469 3576 
Q 2541 3569 2628 3553 
L 2631 2963 
z
" transform="scale(0.015625)"/>
       <path id="DejaVuSans-73" d="M 2834 3397 
L 2834 2853 
Q 2591 2978 2328 3040 
Q 2066 3103 1784 3103 
Q 1356 3103 1142 2972 
Q 928 2841 928 2578 
Q 928 2378 1081 2264 
Q 1234 2150 1697 2047 
L 1894 2003 
Q 2506 1872 2764 1633 
Q 3022 1394 3022 966 
Q 3022 478 2636 193 
Q 2250 -91 1575 -91 
Q 1294 -91 989 -36 
Q 684 19 347 128 
L 347 722 
Q 666 556 975 473 
Q 1284 391 1588 391 
Q 1994 391 2212 530 
Q 2431 669 2431 922 
Q 2431 1156 2273 1281 
Q 2116 1406 1581 1522 
L 1381 1569 
Q 847 1681 609 1914 
Q 372 2147 372 2553 
Q 372 3047 722 3315 
Q 1072 3584 1716 3584 
Q 2034 3584 2315 3537 
Q 2597 3491 2834 3397 
z
" transform="scale(0.015625)"/>
       <path id="DejaVuSans-69" d="M 603 3500 
L 1178 3500 
L 1178 0 
L 603 0 
L 603 3500 
z
M 603 4863 
L 1178 4863 
L 1178 4134 
L 603 4134 
L 603 4863 
z
" transform="scale(0.015625)"/>
       <path id="DejaVuSans-6f" d="M 1959 3097 
Q 1497 3097 1228 2736 
Q 959 2375 959 1747 
Q 959 1119 1226 758 
Q 1494 397 1959 397 
Q 2419 397 2687 759 
Q 2956 1122 2956 1747 
Q 2956 2369 2687 2733 
Q 2419 3097 1959 3097 
z
M 1959 3584 
Q 2709 3584 3137 3096 
Q 3566 2609 3566 1747 
Q 3566 888 3137 398 
Q 2709 -91 1959 -91 
Q 1206 -91 779 398 
Q 353 888 353 1747 
Q 353 2609 779 3096 
Q 1206 3584 1959 3584 
z
" transform="scale(0.015625)"/>
       <path id="DejaVuSans-6e" d="M 3513 2113 
L 3513 0 
L 2938 0 
L 2938 2094 
Q 2938 2591 2744 2837 
Q 2550 3084 2163 3084 
Q 1697 3084 1428 2787 
Q 1159 2491 1159 1978 
L 1159 0 
L 581 0 
L 581 3500 
L 1159 3500 
L 1159 2956 
Q 1366 3272 1645 3428 
Q 1925 3584 2291 3584 
Q 2894 3584 3203 3211 
Q 3513 2838 3513 2113 
z
" transform="scale(0.015625)"/>
      </defs>
      <use xlink:href="#DejaVuSans-65"/>
      <use xlink:href="#DejaVuSans-78" transform="translate(59.773438 0)"/>
      <use xlink:href="#DejaVuSans-70" transform="translate(118.953125 0)"/>
      <use xlink:href="#DejaVuSans-72" transform="translate(182.429688 0)"/>
      <use xlink:href="#DejaVuSans-65" transform="translate(221.292969 0)"/>
      <use xlink:href="#DejaVuSans-73" transform="translate(282.816406 0)"/>
      <use xlink:href="#DejaVuSans-73" transform="translate(334.916016 0)"/>
      <use xlink:href="#DejaVuSans-69" transform="translate(387.015625 0)"/>
      <use xlink:href="#DejaVuSans-6f" transform="translate(414.798828 0)"/>
      <use xlink:href="#DejaVuSans-6e" transform="translate(475.980469 0)"/>
     </g>
    </g>
   </g>
   <g id="matplotlib.axis_2">
    <g id="ytick_1">
     <g id="line2d_7">
      <defs>
       <path id="m355d5bbda0" d="M 0 0 
L -3.5 0 
" style="stroke: #000000; stroke-width: 0.8"/>
      </defs>
      <g>
       <use xlink:href="#m355d5bbda0" x="52.839063" y="90.36" style="stroke: #000000; stroke-width: 0.8"/>
      </g>
     </g>
     <g id="text_8">
      <!-- S100A9 -->
      <g transform="translate(7.2 94.159219) scale(0.1 -0.1)">
       <defs>
        <path id="DejaVuSans-53" d="M 3425 4513 
L 3425 3897 
Q 3066 4069 2747 4153 
Q 2428 4238 2131 4238 
Q 1616 4238 1336 4038 
Q 1056 3838 1056 3469 
Q 1056 3159 1242 3001 
Q 1428 2844 1947 2747 
L 2328 2669 
Q 3034 2534 3370 2195 
Q 3706 1856 3706 1288 
Q 3706 609 3251 259 
Q 2797 -91 1919 -91 
Q 1588 -91 1214 -16 
Q 841 59 441 206 
L 441 856 
Q 825 641 1194 531 
Q 1563 422 1919 422 
Q 2459 422 2753 634 
Q 3047 847 3047 1241 
Q 3047 1584 2836 1778 
Q 2625 1972 2144 2069 
L 1759 2144 
Q 1053 2284 737 2584 
Q 422 2884 422 3419 
Q 422 4038 858 4394 
Q 1294 4750 2059 4750 
Q 2388 4750 2728 4690 
Q 3069 4631 3425 4513 
z
" transform="scale(0.015625)"/>
        <path id="DejaVuSans-41" d="M 2188 4044 
L 1331 1722 
L 3047 1722 
L 2188 4044 
z
M 1831 4666 
L 2547 4666 
L 4325 0 
L 3669 0 
L 3244 1197 
L 1141 1197 
L 716 0 
L 50 0 
L 1831 4666 
z
" transform="scale(0.015625)"/>
        <path id="DejaVuSans-39" d="M 703 97 
L 703 672 
Q 941 559 1184 500 
Q 1428 441 1663 441 
Q 2288 441 2617 861 
Q 2947 1281 2994 2138 
Q 2813 1869 2534 1725 
Q 2256 1581 1919 1581 
Q 1219 1581 811 2004 
Q 403 2428 403 3163 
Q 403 3881 828 4315 
Q 1253 4750 1959 4750 
Q 2769 4750 3195 4129 
Q 3622 3509 3622 2328 
Q 3622 1225 3098 567 
Q 2575 -91 1691 -91 
Q 1453 -91 1209 -44 
Q 966 3 703 97 
z
M 1959 2075 
Q 2384 2075 2632 2365 
Q 2881 2656 2881 3163 
Q 2881 3666 2632 3958 
Q 2384 4250 1959 4250 
Q 1534 4250 1286 3958 
Q 1038 3666 1038 3163 
Q 1038 2656 1286 2365 
Q 1534 2075 1959 2075 
z
" transform="scale(0.015625)"/>
       </defs>
       <use xlink:href="#DejaVuSans-53"/>
       <use xlink:href="#DejaVuSans-31" transform="translate(63.476562 0)"/>
       <use xlink:href="#DejaVuSans-30" transform="translate(127.099609 0)"/>
       <use xlink:href="#DejaVuSans-30" transform="translate(190.722656 0)"/>
       <use xlink:href="#DejaVuSans-41" transform="translate(254.345703 0)"/>
       <use xlink:href="#DejaVuSans-39" transform="translate(322.753906 0)"/>
      </g>
     </g>
    </g>
    <g id="ytick_2">
     <g id="line2d_8">
      <g>
       <use xlink:href="#m355d5bbda0" x="52.839063" y="256.68" style="stroke: #000000; stroke-width: 0.8"/>
      </g>
     </g>
     <g id="text_9">
      <!-- S100A8 -->
      <g transform="translate(7.2 260.479219) scale(0.1 -0.1)">
       <use xlink:href="#DejaVuSans-53"/>
       <use xlink:href="#DejaVuSans-31" transform="translate(63.476562 0)"/>
       <use xlink:href="#DejaVuSans-30" transform="translate(127.099609 0)"/>
       <use xlink:href="#DejaVuSans-30" transform="translate(190.722656 0)"/>
       <use xlink:href="#DejaVuSans-41" transform="translate(254.345703 0)"/>
       <use xlink:href="#DejaVuSans-38" transform="translate(322.753906 0)"/>
      </g>
     </g>
    </g>
   </g>
   <g id="line2d_9">
    <path d="M 52.839063 42.580368 
L 52.839063 89.36208 
" clip-path="url(#p36f2f72592)" style="fill: none; stroke-dasharray: 1.5625,0.9375; stroke-dashoffset: 0; stroke: #4c4c4c; stroke-width: 1.25"/>
   </g>
   <g id="line2d_10">
    <path d="M 52.839063 42.580368 
L 52.839063 89.36208 
" clip-path="url(#p36f2f72592)" style="fill: none; stroke-dasharray: 3.125,1.25; stroke-dashoffset: 0; stroke: #4c4c4c; stroke-width: 1.25"/>
   </g>
   <g id="line2d_11">
    <path d="M 52.839063 42.580368 
L 52.839063 89.36208 
" clip-path="url(#p36f2f72592)" style="fill: none; stroke-dasharray: 1.5625,0.9375; stroke-dashoffset: 0; stroke: #4c4c4c; stroke-width: 1.25"/>
   </g>
   <g id="line2d_12">
    <path d="M 52.839063 91.35792 
L 52.839063 148.029369 
" clip-path="url(#p36f2f72592)" style="fill: none; stroke-dasharray: 1.5625,0.9375; stroke-dashoffset: 0; stroke: #4c4c4c; stroke-width: 1.25"/>
   </g>
   <g id="line2d_13">
    <path d="M 437.739938 91.35792 
L 437.739938 121.403257 
" clip-path="url(#p36f2f72592)" style="fill: none; stroke-dasharray: 3.125,1.25; stroke-dashoffset: 0; stroke: #4c4c4c; stroke-width: 1.25"/>
   </g>
   <g id="line2d_14">
    <path d="M 487.043118 91.35792 
L 487.043118 136.743586 
" clip-path="url(#p36f2f72592)" style="fill: none; stroke-dasharray: 1.5625,0.9375; stroke-dashoffset: 0; stroke: #4c4c4c; stroke-width: 1.25"/>
   </g>
   <g id="line2d_15">
    <path d="M 52.839063 191.61185 
L 52.839063 255.68208 
" clip-path="url(#p36f2f72592)" style="fill: none; stroke-dasharray: 1.5625,0.9375; stroke-dashoffset: 0; stroke: #4c4c4c; stroke-width: 1.25"/>
   </g>
   <g id="line2d_16">
    <path d="M 52.839063 191.61185 
L 52.839063 255.68208 
" clip-path="url(#p36f2f72592)" style="fill: none; stroke-dasharray: 3.125,1.25; stroke-dashoffset: 0; stroke: #4c4c4c; stroke-width: 1.25"/>
   </g>
   <g id="line2d_17">
    <path d="M 52.839063 191.61185 
L 52.839063 255.68208 
" clip-path="url(#p36f2f72592)" style="fill: none; stroke-dasharray: 1.5625,0.9375; stroke-dashoffset: 0; stroke: #4c4c4c; stroke-width: 1.25"/>
   </g>
   <g id="line2d_18">
    <path d="M 52.839063 257.67792 
L 52.839063 321.916108 
" clip-path="url(#p36f2f72592)" style="fill: none; stroke-dasharray: 1.5625,0.9375; stroke-dashoffset: 0; stroke: #4c4c4c; stroke-width: 1.25"/>
   </g>
   <g id="line2d_19">
    <path d="M 430.275948 257.67792 
L 430.275948 281.54782 
" clip-path="url(#p36f2f72592)" style="fill: none; stroke-dasharray: 3.125,1.25; stroke-dashoffset: 0; stroke: #4c4c4c; stroke-width: 1.25"/>
   </g>
   <g id="line2d_20">
    <path d="M 483.961171 257.67792 
L 483.961171 297.690872 
" clip-path="url(#p36f2f72592)" style="fill: none; stroke-dasharray: 1.5625,0.9375; stroke-dashoffset: 0; stroke: #4c4c4c; stroke-width: 1.25"/>
   </g>
   <g id="patch_5">
    <path d="M 52.839063 339.84 
L 52.839063 7.2 
" style="fill: none; stroke: #000000; stroke-width: 0.8; stroke-linejoin: miter; stroke-linecap: square"/>
   </g>
   <g id="patch_6">
    <path d="M 722.439062 339.84 
L 722.439062 7.2 
" style="fill: none; stroke: #000000; stroke-width: 0.8; stroke-linejoin: miter; stroke-linecap: square"/>
   </g>
   <g id="patch_7">
    <path d="M 52.839063 339.84 
L 722.439062 339.84 
" style="fill: none; stroke: #000000; stroke-width: 0.8; stroke-linejoin: miter; stroke-linecap: square"/>
   </g>
   <g id="patch_8">
    <path d="M 52.839063 7.2 
L 722.439062 7.2 
" style="fill: none; stroke: #000000; stroke-width: 0.8; stroke-linejoin: miter; stroke-linecap: square"/>
   </g>
   <g id="text_10">
    <!-- **** -->
    <g transform="translate(696.081128 93.119375) scale(0.1 -0.1)">
     <defs>
      <path id="DejaVuSans-2a" d="M 3009 3897 
L 1888 3291 
L 3009 2681 
L 2828 2375 
L 1778 3009 
L 1778 1831 
L 1422 1831 
L 1422 3009 
L 372 2375 
L 191 2681 
L 1313 3291 
L 191 3897 
L 372 4206 
L 1422 3572 
L 1422 4750 
L 1778 4750 
L 1778 3572 
L 2828 4206 
L 3009 3897 
z
" transform="scale(0.015625)"/>
     </defs>
     <use xlink:href="#DejaVuSans-2a"/>
     <use xlink:href="#DejaVuSans-2a" transform="translate(50 0)"/>
     <use xlink:href="#DejaVuSans-2a" transform="translate(100 0)"/>
     <use xlink:href="#DejaVuSans-2a" transform="translate(150 0)"/>
    </g>
   </g>
   <g id="text_11">
    <!-- **** -->
    <g transform="translate(696.081128 259.439375) scale(0.1 -0.1)">
     <use xlink:href="#DejaVuSans-2a"/>
     <use xlink:href="#DejaVuSans-2a" transform="translate(50 0)"/>
     <use xlink:href="#DejaVuSans-2a" transform="translate(100 0)"/>
     <use xlink:href="#DejaVuSans-2a" transform="translate(150 0)"/>
    </g>
   </g>
   <g id="legend_1">
    <g id="patch_9">
     <path d="M 645.865625 59.234375 
L 715.439062 59.234375 
Q 717.439062 59.234375 717.439062 57.234375 
L 717.439062 14.2 
Q 717.439062 12.2 715.439062 12.2 
L 645.865625 12.2 
Q 643.865625 12.2 643.865625 14.2 
L 643.865625 57.234375 
Q 643.865625 59.234375 645.865625 59.234375 
z
" style="fill: #ffffff; opacity: 0.8; stroke: #cccccc; stroke-linejoin: miter"/>
    </g>
    <g id="text_12">
     <!-- disease -->
     <g transform="translate(661.6625 23.798437) scale(0.1 -0.1)">
      <defs>
       <path id="DejaVuSans-64" d="M 2906 2969 
L 2906 4863 
L 3481 4863 
L 3481 0 
L 2906 0 
L 2906 525 
Q 2725 213 2448 61 
Q 2172 -91 1784 -91 
Q 1150 -91 751 415 
Q 353 922 353 1747 
Q 353 2572 751 3078 
Q 1150 3584 1784 3584 
Q 2172 3584 2448 3432 
Q 2725 3281 2906 2969 
z
M 947 1747 
Q 947 1113 1208 752 
Q 1469 391 1925 391 
Q 2381 391 2643 752 
Q 2906 1113 2906 1747 
Q 2906 2381 2643 2742 
Q 2381 3103 1925 3103 
Q 1469 3103 1208 2742 
Q 947 2381 947 1747 
z
" transform="scale(0.015625)"/>
       <path id="DejaVuSans-61" d="M 2194 1759 
Q 1497 1759 1228 1600 
Q 959 1441 959 1056 
Q 959 750 1161 570 
Q 1363 391 1709 391 
Q 2188 391 2477 730 
Q 2766 1069 2766 1631 
L 2766 1759 
L 2194 1759 
z
M 3341 1997 
L 3341 0 
L 2766 0 
L 2766 531 
Q 2569 213 2275 61 
Q 1981 -91 1556 -91 
Q 1019 -91 701 211 
Q 384 513 384 1019 
Q 384 1609 779 1909 
Q 1175 2209 1959 2209 
L 2766 2209 
L 2766 2266 
Q 2766 2663 2505 2880 
Q 2244 3097 1772 3097 
Q 1472 3097 1187 3025 
Q 903 2953 641 2809 
L 641 3341 
Q 956 3463 1253 3523 
Q 1550 3584 1831 3584 
Q 2591 3584 2966 3190 
Q 3341 2797 3341 1997 
z
" transform="scale(0.015625)"/>
      </defs>
      <use xlink:href="#DejaVuSans-64"/>
      <use xlink:href="#DejaVuSans-69" transform="translate(63.476562 0)"/>
      <use xlink:href="#DejaVuSans-73" transform="translate(91.259766 0)"/>
      <use xlink:href="#DejaVuSans-65" transform="translate(143.359375 0)"/>
      <use xlink:href="#DejaVuSans-61" transform="translate(204.882812 0)"/>
      <use xlink:href="#DejaVuSans-73" transform="translate(266.162109 0)"/>
      <use xlink:href="#DejaVuSans-65" transform="translate(318.261719 0)"/>
     </g>
    </g>
    <g id="patch_10">
     <path d="M 647.865625 38.476562 
L 667.865625 38.476562 
L 667.865625 31.476562 
L 647.865625 31.476562 
z
" style="fill: #df9c20; stroke: #4c4c4c; stroke-width: 1.25; stroke-linejoin: miter"/>
    </g>
    <g id="text_13">
     <!-- healthy -->
     <g transform="translate(675.865625 38.476562) scale(0.1 -0.1)">
      <defs>
       <path id="DejaVuSans-68" d="M 3513 2113 
L 3513 0 
L 2938 0 
L 2938 2094 
Q 2938 2591 2744 2837 
Q 2550 3084 2163 3084 
Q 1697 3084 1428 2787 
Q 1159 2491 1159 1978 
L 1159 0 
L 581 0 
L 581 4863 
L 1159 4863 
L 1159 2956 
Q 1366 3272 1645 3428 
Q 1925 3584 2291 3584 
Q 2894 3584 3203 3211 
Q 3513 2838 3513 2113 
z
" transform="scale(0.015625)"/>
       <path id="DejaVuSans-6c" d="M 603 4863 
L 1178 4863 
L 1178 0 
L 603 0 
L 603 4863 
z
" transform="scale(0.015625)"/>
       <path id="DejaVuSans-74" d="M 1172 4494 
L 1172 3500 
L 2356 3500 
L 2356 3053 
L 1172 3053 
L 1172 1153 
Q 1172 725 1289 603 
Q 1406 481 1766 481 
L 2356 481 
L 2356 0 
L 1766 0 
Q 1100 0 847 248 
Q 594 497 594 1153 
L 594 3053 
L 172 3053 
L 172 3500 
L 594 3500 
L 594 4494 
L 1172 4494 
z
" transform="scale(0.015625)"/>
       <path id="DejaVuSans-79" d="M 2059 -325 
Q 1816 -950 1584 -1140 
Q 1353 -1331 966 -1331 
L 506 -1331 
L 506 -850 
L 844 -850 
Q 1081 -850 1212 -737 
Q 1344 -625 1503 -206 
L 1606 56 
L 191 3500 
L 800 3500 
L 1894 763 
L 2988 3500 
L 3597 3500 
L 2059 -325 
z
" transform="scale(0.015625)"/>
      </defs>
      <use xlink:href="#DejaVuSans-68"/>
      <use xlink:href="#DejaVuSans-65" transform="translate(63.378906 0)"/>
      <use xlink:href="#DejaVuSans-61" transform="translate(124.902344 0)"/>
      <use xlink:href="#DejaVuSans-6c" transform="translate(186.181641 0)"/>
      <use xlink:href="#DejaVuSans-74" transform="translate(213.964844 0)"/>
      <use xlink:href="#DejaVuSans-68" transform="translate(253.173828 0)"/>
      <use xlink:href="#DejaVuSans-79" transform="translate(316.552734 0)"/>
     </g>
    </g>
    <g id="patch_11">
     <path d="M 647.865625 53.154687 
L 667.865625 53.154687 
L 667.865625 46.154687 
L 647.865625 46.154687 
z
" style="fill: #df20df; stroke: #4c4c4c; stroke-width: 1.25; stroke-linejoin: miter"/>
    </g>
    <g id="text_14">
     <!-- covid -->
     <g transform="translate(675.865625 53.154687) scale(0.1 -0.1)">
      <defs>
       <path id="DejaVuSans-63" d="M 3122 3366 
L 3122 2828 
Q 2878 2963 2633 3030 
Q 2388 3097 2138 3097 
Q 1578 3097 1268 2742 
Q 959 2388 959 1747 
Q 959 1106 1268 751 
Q 1578 397 2138 397 
Q 2388 397 2633 464 
Q 2878 531 3122 666 
L 3122 134 
Q 2881 22 2623 -34 
Q 2366 -91 2075 -91 
Q 1284 -91 818 406 
Q 353 903 353 1747 
Q 353 2603 823 3093 
Q 1294 3584 2113 3584 
Q 2378 3584 2631 3529 
Q 2884 3475 3122 3366 
z
" transform="scale(0.015625)"/>
       <path id="DejaVuSans-76" d="M 191 3500 
L 800 3500 
L 1894 563 
L 2988 3500 
L 3597 3500 
L 2284 0 
L 1503 0 
L 191 3500 
z
" transform="scale(0.015625)"/>
      </defs>
      <use xlink:href="#DejaVuSans-63"/>
      <use xlink:href="#DejaVuSans-6f" transform="translate(54.980469 0)"/>
      <use xlink:href="#DejaVuSans-76" transform="translate(116.162109 0)"/>
      <use xlink:href="#DejaVuSans-69" transform="translate(175.341797 0)"/>
      <use xlink:href="#DejaVuSans-64" transform="translate(203.125 0)"/>
     </g>
    </g>
   </g>
  </g>
 </g>
 <defs>
  <clipPath id="p36f2f72592">
   <rect x="52.839063" y="7.2" width="669.6" height="332.64"/>
  </clipPath>
 </defs>
</svg>
