<?xml version="1.0" encoding="utf-8" standalone="no"?>
<!DOCTYPE svg PUBLIC "-//W3C//DTD SVG 1.1//EN"
  "http://www.w3.org/Graphics/SVG/1.1/DTD/svg11.dtd">
<svg xmlns:xlink="http://www.w3.org/1999/xlink" width="713.040553pt" height="496.438125pt" viewBox="0 0 713.040553 496.438125" xmlns="http://www.w3.org/2000/svg" version="1.1">
 <metadata>
  <rdf:RDF xmlns:dc="http://purl.org/dc/elements/1.1/" xmlns:cc="http://creativecommons.org/ns#" xmlns:rdf="http://www.w3.org/1999/02/22-rdf-syntax-ns#">
   <cc:Work>
    <dc:type rdf:resource="http://purl.org/dc/dcmitype/StillImage"/>
    <dc:date>2026-02-23T16:10:32.646429</dc:date>
    <dc:format>image/svg+xml</dc:format>
    <dc:creator>
     <cc:Agent>
      <dc:title>Matplotlib v3.10.5, https://matplotlib.org/</dc:title>
     </cc:Agent>
    </dc:creator>
   </cc:Work>
  </rdf:RDF>
 </metadata>
 <defs>
  <style type="text/css">*{stroke-linejoin: round; stroke-linecap: butt}</style>
 </defs>
 <g id="figure_1">
  <g id="patch_1">
   <path d="M 0 496.438125 
L 713.040553 496.438125 
L 713.040553 0 
L 0 0 
z
" style="fill: #ffffff"/>
  </g>
  <g id="axes_1">
   <g id="patch_2">
    <path d="M 67.300625 443.396875 
L 643.062428 443.396875 
L 643.062428 28.396875 
L 67.300625 28.396875 
z
" style="fill: #ffffff"/>
   </g>
   <g id="patch_3">
    <path d="M 93.471616 97985.273062 
L 96.088715 97985.273062 
L 96.088715 47.260511 
L 93.471616 47.260511 
z
" clip-path="url(#pa246479f4c)" style="fill: #1f77b4; opacity: 0.7"/>
   </g>
   <g id="patch_4">
    <path d="M 96.088715 97985.273062 
L 98.705814 97985.273062 
L 98.705814 273.892818 
L 96.088715 273.892818 
z
" clip-path="url(#pa246479f4c)" style="fill: #1f77b4; opacity: 0.7"/>
   </g>
   <g id="patch_5">
    <path d="M 98.705814 97985.273062 
L 101.322913 97985.273062 
L 101.322913 331.436633 
L 98.705814 331.436633 
z
" clip-path="url(#pa246479f4c)" style="fill: #1f77b4; opacity: 0.7"/>
   </g>
   <g id="patch_6">
    <path d="M 101.322913 97985.273062 
L 103.940012 97985.273062 
L 103.940012 342.084849 
L 101.322913 342.084849 
z
" clip-path="url(#pa246479f4c)" style="fill: #1f77b4; opacity: 0.7"/>
   </g>
   <g id="patch_7">
    <path d="M 103.940012 97985.273062 
L 106.557112 97985.273062 
L 106.557112 348.616227 
L 103.940012 348.616227 
z
" clip-path="url(#pa246479f4c)" style="fill: #1f77b4; opacity: 0.7"/>
   </g>
   <g id="patch_8">
    <path d="M 106.557112 97985.273062 
L 109.174211 97985.273062 
L 109.174211 342.084849 
L 106.557112 342.084849 
z
" clip-path="url(#pa246479f4c)" style="fill: #1f77b4; opacity: 0.7"/>
   </g>
   <g id="patch_9">
    <path d="M 109.174211 97985.273062 
L 111.79131 97985.273062 
L 111.79131 377.984936 
L 109.174211 377.984936 
z
" clip-path="url(#pa246479f4c)" style="fill: #1f77b4; opacity: 0.7"/>
   </g>
   <g id="patch_10">
    <path d="M 111.79131 97985.273062 
L 114.408409 97985.273062 
L 114.408409 342.084849 
L 111.79131 342.084849 
z
" clip-path="url(#pa246479f4c)" style="fill: #1f77b4; opacity: 0.7"/>
   </g>
   <g id="patch_11">
    <path d="M 114.408409 97985.273062 
L 117.025508 97985.273062 
L 117.025508 348.616227 
L 114.408409 348.616227 
z
" clip-path="url(#pa246479f4c)" style="fill: #1f77b4; opacity: 0.7"/>
   </g>
   <g id="patch_12">
    <path d="M 117.025508 97985.273062 
L 119.642607 97985.273062 
L 119.642607 326.972499 
L 117.025508 326.972499 
z
" clip-path="url(#pa246479f4c)" style="fill: #1f77b4; opacity: 0.7"/>
   </g>
   <g id="patch_13">
    <path d="M 119.642607 97985.273062 
L 122.259706 97985.273062 
L 122.259706 304.489732 
L 119.642607 304.489732 
z
" clip-path="url(#pa246479f4c)" style="fill: #1f77b4; opacity: 0.7"/>
   </g>
   <g id="patch_14">
    <path d="M 122.259706 97985.273062 
L 124.876805 97985.273062 
L 124.876805 326.972499 
L 122.259706 326.972499 
z
" clip-path="url(#pa246479f4c)" style="fill: #1f77b4; opacity: 0.7"/>
   </g>
   <g id="patch_15">
    <path d="M 124.876805 97985.273062 
L 127.493904 97985.273062 
L 127.493904 356.341208 
L 124.876805 356.341208 
z
" clip-path="url(#pa246479f4c)" style="fill: #1f77b4; opacity: 0.7"/>
   </g>
   <g id="patch_16">
    <path d="M 127.493904 97985.273062 
L 130.111004 97985.273062 
L 130.111004 312.71614 
L 127.493904 312.71614 
z
" clip-path="url(#pa246479f4c)" style="fill: #1f77b4; opacity: 0.7"/>
   </g>
   <g id="patch_17">
    <path d="M 130.111004 97985.273062 
L 132.728103 97985.273062 
L 132.728103 395.16453 
L 130.111004 395.16453 
z
" clip-path="url(#pa246479f4c)" style="fill: #1f77b4; opacity: 0.7"/>
   </g>
   <g id="patch_18">
    <path d="M 132.728103 97985.273062 
L 135.345202 97985.273062 
L 135.345202 395.16453 
L 132.728103 395.16453 
z
" clip-path="url(#pa246479f4c)" style="fill: #1f77b4; opacity: 0.7"/>
   </g>
   <g id="patch_19">
    <path d="M 135.345202 97985.273062 
L 137.962301 97985.273062 
L 137.962301 336.427111 
L 135.345202 336.427111 
z
" clip-path="url(#pa246479f4c)" style="fill: #1f77b4; opacity: 0.7"/>
   </g>
   <g id="patch_20">
    <path d="M 137.962301 97985.273062 
L 140.5794 97985.273062 
L 140.5794 348.616227 
L 137.962301 348.616227 
z
" clip-path="url(#pa246479f4c)" style="fill: #1f77b4; opacity: 0.7"/>
   </g>
   <g id="patch_21">
    <path d="M 140.5794 97985.273062 
L 143.196499 97985.273062 
L 143.196499 377.984936 
L 140.5794 377.984936 
z
" clip-path="url(#pa246479f4c)" style="fill: #1f77b4; opacity: 0.7"/>
   </g>
   <g id="patch_22">
    <path d="M 143.196499 97985.273062 
L 145.813598 97985.273062 
L 145.813598 377.984936 
L 143.196499 377.984936 
z
" clip-path="url(#pa246479f4c)" style="fill: #1f77b4; opacity: 0.7"/>
   </g>
   <g id="patch_23">
    <path d="M 145.813598 97985.273062 
L 148.430697 97985.273062 
L 148.430697 356.341208 
L 145.813598 356.341208 
z
" clip-path="url(#pa246479f4c)" style="fill: #1f77b4; opacity: 0.7"/>
   </g>
   <g id="patch_24">
    <path d="M 148.430697 97985.273062 
L 151.047796 97985.273062 
L 151.047796 348.616227 
L 148.430697 348.616227 
z
" clip-path="url(#pa246479f4c)" style="fill: #1f77b4; opacity: 0.7"/>
   </g>
   <g id="patch_25">
    <path d="M 151.047796 97985.273062 
L 153.664895 97985.273062 
L 153.664895 356.341208 
L 151.047796 356.341208 
z
" clip-path="url(#pa246479f4c)" style="fill: #1f77b4; opacity: 0.7"/>
   </g>
   <g id="patch_26">
    <path d="M 153.664895 97985.273062 
L 156.281995 97985.273062 
L 156.281995 377.984936 
L 153.664895 377.984936 
z
" clip-path="url(#pa246479f4c)" style="fill: #1f77b4; opacity: 0.7"/>
   </g>
   <g id="patch_27">
    <path d="M 156.281995 97985.273062 
L 158.899094 97985.273062 
L 158.899094 424.533239 
L 156.281995 424.533239 
z
" clip-path="url(#pa246479f4c)" style="fill: #1f77b4; opacity: 0.7"/>
   </g>
   <g id="patch_28">
    <path d="M 158.899094 97985.273062 
L 161.516193 97985.273062 
L 161.516193 395.16453 
L 158.899094 395.16453 
z
" clip-path="url(#pa246479f4c)" style="fill: #1f77b4; opacity: 0.7"/>
   </g>
   <g id="patch_29">
    <path d="M 161.516193 97985.273062 
L 164.133292 97985.273062 
L 164.133292 395.16453 
L 161.516193 395.16453 
z
" clip-path="url(#pa246479f4c)" style="fill: #1f77b4; opacity: 0.7"/>
   </g>
   <g id="patch_30">
    <path d="M 164.133292 97985.273062 
L 166.750391 97985.273062 
L 166.750391 342.084849 
L 164.133292 342.084849 
z
" clip-path="url(#pa246479f4c)" style="fill: #1f77b4; opacity: 0.7"/>
   </g>
   <g id="patch_31">
    <path d="M 166.750391 97985.273062 
L 169.36749 97985.273062 
L 169.36749 377.984936 
L 166.750391 377.984936 
z
" clip-path="url(#pa246479f4c)" style="fill: #1f77b4; opacity: 0.7"/>
   </g>
   <g id="patch_32">
    <path d="M 169.36749 97985.273062 
L 171.984589 97985.273062 
L 171.984589 356.341208 
L 169.36749 356.341208 
z
" clip-path="url(#pa246479f4c)" style="fill: #1f77b4; opacity: 0.7"/>
   </g>
   <g id="patch_33">
    <path d="M 171.984589 97985.273062 
L 174.601688 97985.273062 
L 174.601688 395.16453 
L 171.984589 395.16453 
z
" clip-path="url(#pa246479f4c)" style="fill: #1f77b4; opacity: 0.7"/>
   </g>
   <g id="patch_34">
    <path d="M 174.601688 97985.273062 
L 177.218787 97985.273062 
L 177.218787 395.16453 
L 174.601688 395.16453 
z
" clip-path="url(#pa246479f4c)" style="fill: #1f77b4; opacity: 0.7"/>
   </g>
   <g id="patch_35">
    <path d="M 177.218787 97985.273062 
L 179.835887 97985.273062 
L 179.835887 424.533239 
L 177.218787 424.533239 
z
" clip-path="url(#pa246479f4c)" style="fill: #1f77b4; opacity: 0.7"/>
   </g>
   <g id="patch_36">
    <path d="M 179.835887 97985.273062 
L 182.452986 97985.273062 
L 182.452986 356.341208 
L 179.835887 356.341208 
z
" clip-path="url(#pa246479f4c)" style="fill: #1f77b4; opacity: 0.7"/>
   </g>
   <g id="patch_37">
    <path d="M 182.452986 97985.273062 
L 185.070085 97985.273062 
L 185.070085 377.984936 
L 182.452986 377.984936 
z
" clip-path="url(#pa246479f4c)" style="fill: #1f77b4; opacity: 0.7"/>
   </g>
   <g id="patch_38">
    <path d="M 185.070085 97985.273062 
L 187.687184 97985.273062 
L 187.687184 365.79582 
L 185.070085 365.79582 
z
" clip-path="url(#pa246479f4c)" style="fill: #1f77b4; opacity: 0.7"/>
   </g>
   <g id="patch_39">
    <path d="M 187.687184 97985.273062 
L 190.304283 97985.273062 
L 190.304283 424.533239 
L 187.687184 424.533239 
z
" clip-path="url(#pa246479f4c)" style="fill: #1f77b4; opacity: 0.7"/>
   </g>
   <g id="patch_40">
    <path d="M 190.304283 97985.273062 
L 192.921382 97985.273062 
L 192.921382 424.533239 
L 190.304283 424.533239 
z
" clip-path="url(#pa246479f4c)" style="fill: #1f77b4; opacity: 0.7"/>
   </g>
   <g id="patch_41">
    <path d="M 192.921382 97985.273062 
L 195.538481 97985.273062 
L 195.538481 395.16453 
L 192.921382 395.16453 
z
" clip-path="url(#pa246479f4c)" style="fill: #1f77b4; opacity: 0.7"/>
   </g>
   <g id="patch_42">
    <path d="M 195.538481 97985.273062 
L 198.15558 97985.273062 
L 198.15558 356.341208 
L 195.538481 356.341208 
z
" clip-path="url(#pa246479f4c)" style="fill: #1f77b4; opacity: 0.7"/>
   </g>
   <g id="patch_43">
    <path d="M 198.15558 97985.273062 
L 200.772679 97985.273062 
L 200.772679 424.533239 
L 198.15558 424.533239 
z
" clip-path="url(#pa246479f4c)" style="fill: #1f77b4; opacity: 0.7"/>
   </g>
   <g id="patch_44">
    <path d="M 200.772679 97985.273062 
L 203.389778 97985.273062 
L 203.389778 97985.273062 
L 200.772679 97985.273062 
z
" clip-path="url(#pa246479f4c)" style="fill: #1f77b4; opacity: 0.7"/>
   </g>
   <g id="patch_45">
    <path d="M 203.389778 97985.273062 
L 206.006878 97985.273062 
L 206.006878 365.79582 
L 203.389778 365.79582 
z
" clip-path="url(#pa246479f4c)" style="fill: #1f77b4; opacity: 0.7"/>
   </g>
   <g id="patch_46">
    <path d="M 206.006878 97985.273062 
L 208.623977 97985.273062 
L 208.623977 377.984936 
L 206.006878 377.984936 
z
" clip-path="url(#pa246479f4c)" style="fill: #1f77b4; opacity: 0.7"/>
   </g>
   <g id="patch_47">
    <path d="M 208.623977 97985.273062 
L 211.241076 97985.273062 
L 211.241076 377.984936 
L 208.623977 377.984936 
z
" clip-path="url(#pa246479f4c)" style="fill: #1f77b4; opacity: 0.7"/>
   </g>
   <g id="patch_48">
    <path d="M 211.241076 97985.273062 
L 213.858175 97985.273062 
L 213.858175 395.16453 
L 211.241076 395.16453 
z
" clip-path="url(#pa246479f4c)" style="fill: #1f77b4; opacity: 0.7"/>
   </g>
   <g id="patch_49">
    <path d="M 213.858175 97985.273062 
L 216.475274 97985.273062 
L 216.475274 356.341208 
L 213.858175 356.341208 
z
" clip-path="url(#pa246479f4c)" style="fill: #1f77b4; opacity: 0.7"/>
   </g>
   <g id="patch_50">
    <path d="M 216.475274 97985.273062 
L 219.092373 97985.273062 
L 219.092373 365.79582 
L 216.475274 365.79582 
z
" clip-path="url(#pa246479f4c)" style="fill: #1f77b4; opacity: 0.7"/>
   </g>
   <g id="patch_51">
    <path d="M 219.092373 97985.273062 
L 221.709472 97985.273062 
L 221.709472 365.79582 
L 219.092373 365.79582 
z
" clip-path="url(#pa246479f4c)" style="fill: #1f77b4; opacity: 0.7"/>
   </g>
   <g id="patch_52">
    <path d="M 221.709472 97985.273062 
L 224.326571 97985.273062 
L 224.326571 377.984936 
L 221.709472 377.984936 
z
" clip-path="url(#pa246479f4c)" style="fill: #1f77b4; opacity: 0.7"/>
   </g>
   <g id="patch_53">
    <path d="M 224.326571 97985.273062 
L 226.94367 97985.273062 
L 226.94367 97985.273062 
L 224.326571 97985.273062 
z
" clip-path="url(#pa246479f4c)" style="fill: #1f77b4; opacity: 0.7"/>
   </g>
   <g id="patch_54">
    <path d="M 226.94367 97985.273062 
L 229.56077 97985.273062 
L 229.56077 377.984936 
L 226.94367 377.984936 
z
" clip-path="url(#pa246479f4c)" style="fill: #1f77b4; opacity: 0.7"/>
   </g>
   <g id="patch_55">
    <path d="M 229.56077 97985.273062 
L 232.177869 97985.273062 
L 232.177869 365.79582 
L 229.56077 365.79582 
z
" clip-path="url(#pa246479f4c)" style="fill: #1f77b4; opacity: 0.7"/>
   </g>
   <g id="patch_56">
    <path d="M 232.177869 97985.273062 
L 234.794968 97985.273062 
L 234.794968 424.533239 
L 232.177869 424.533239 
z
" clip-path="url(#pa246479f4c)" style="fill: #1f77b4; opacity: 0.7"/>
   </g>
   <g id="patch_57">
    <path d="M 234.794968 97985.273062 
L 237.412067 97985.273062 
L 237.412067 395.16453 
L 234.794968 395.16453 
z
" clip-path="url(#pa246479f4c)" style="fill: #1f77b4; opacity: 0.7"/>
   </g>
   <g id="patch_58">
    <path d="M 237.412067 97985.273062 
L 240.029166 97985.273062 
L 240.029166 377.984936 
L 237.412067 377.984936 
z
" clip-path="url(#pa246479f4c)" style="fill: #1f77b4; opacity: 0.7"/>
   </g>
   <g id="patch_59">
    <path d="M 240.029166 97985.273062 
L 242.646265 97985.273062 
L 242.646265 365.79582 
L 240.029166 365.79582 
z
" clip-path="url(#pa246479f4c)" style="fill: #1f77b4; opacity: 0.7"/>
   </g>
   <g id="patch_60">
    <path d="M 242.646265 97985.273062 
L 245.263364 97985.273062 
L 245.263364 365.79582 
L 242.646265 365.79582 
z
" clip-path="url(#pa246479f4c)" style="fill: #1f77b4; opacity: 0.7"/>
   </g>
   <g id="patch_61">
    <path d="M 245.263364 97985.273062 
L 247.880463 97985.273062 
L 247.880463 365.79582 
L 245.263364 365.79582 
z
" clip-path="url(#pa246479f4c)" style="fill: #1f77b4; opacity: 0.7"/>
   </g>
   <g id="patch_62">
    <path d="M 247.880463 97985.273062 
L 250.497562 97985.273062 
L 250.497562 97985.273062 
L 247.880463 97985.273062 
z
" clip-path="url(#pa246479f4c)" style="fill: #1f77b4; opacity: 0.7"/>
   </g>
   <g id="patch_63">
    <path d="M 250.497562 97985.273062 
L 253.114661 97985.273062 
L 253.114661 97985.273062 
L 250.497562 97985.273062 
z
" clip-path="url(#pa246479f4c)" style="fill: #1f77b4; opacity: 0.7"/>
   </g>
   <g id="patch_64">
    <path d="M 253.114661 97985.273062 
L 255.731761 97985.273062 
L 255.731761 365.79582 
L 253.114661 365.79582 
z
" clip-path="url(#pa246479f4c)" style="fill: #1f77b4; opacity: 0.7"/>
   </g>
   <g id="patch_65">
    <path d="M 255.731761 97985.273062 
L 258.34886 97985.273062 
L 258.34886 424.533239 
L 255.731761 424.533239 
z
" clip-path="url(#pa246479f4c)" style="fill: #1f77b4; opacity: 0.7"/>
   </g>
   <g id="patch_66">
    <path d="M 258.34886 97985.273062 
L 260.965959 97985.273062 
L 260.965959 395.16453 
L 258.34886 395.16453 
z
" clip-path="url(#pa246479f4c)" style="fill: #1f77b4; opacity: 0.7"/>
   </g>
   <g id="patch_67">
    <path d="M 260.965959 97985.273062 
L 263.583058 97985.273062 
L 263.583058 395.16453 
L 260.965959 395.16453 
z
" clip-path="url(#pa246479f4c)" style="fill: #1f77b4; opacity: 0.7"/>
   </g>
   <g id="patch_68">
    <path d="M 263.583058 97985.273062 
L 266.200157 97985.273062 
L 266.200157 424.533239 
L 263.583058 424.533239 
z
" clip-path="url(#pa246479f4c)" style="fill: #1f77b4; opacity: 0.7"/>
   </g>
   <g id="patch_69">
    <path d="M 266.200157 97985.273062 
L 268.817256 97985.273062 
L 268.817256 377.984936 
L 266.200157 377.984936 
z
" clip-path="url(#pa246479f4c)" style="fill: #1f77b4; opacity: 0.7"/>
   </g>
   <g id="patch_70">
    <path d="M 268.817256 97985.273062 
L 271.434355 97985.273062 
L 271.434355 395.16453 
L 268.817256 395.16453 
z
" clip-path="url(#pa246479f4c)" style="fill: #1f77b4; opacity: 0.7"/>
   </g>
   <g id="patch_71">
    <path d="M 271.434355 97985.273062 
L 274.051454 97985.273062 
L 274.051454 424.533239 
L 271.434355 424.533239 
z
" clip-path="url(#pa246479f4c)" style="fill: #1f77b4; opacity: 0.7"/>
   </g>
   <g id="patch_72">
    <path d="M 274.051454 97985.273062 
L 276.668553 97985.273062 
L 276.668553 395.16453 
L 274.051454 395.16453 
z
" clip-path="url(#pa246479f4c)" style="fill: #1f77b4; opacity: 0.7"/>
   </g>
   <g id="patch_73">
    <path d="M 276.668553 97985.273062 
L 279.285653 97985.273062 
L 279.285653 395.16453 
L 276.668553 395.16453 
z
" clip-path="url(#pa246479f4c)" style="fill: #1f77b4; opacity: 0.7"/>
   </g>
   <g id="patch_74">
    <path d="M 279.285653 97985.273062 
L 281.902752 97985.273062 
L 281.902752 365.79582 
L 279.285653 365.79582 
z
" clip-path="url(#pa246479f4c)" style="fill: #1f77b4; opacity: 0.7"/>
   </g>
   <g id="patch_75">
    <path d="M 281.902752 97985.273062 
L 284.519851 97985.273062 
L 284.519851 97985.273062 
L 281.902752 97985.273062 
z
" clip-path="url(#pa246479f4c)" style="fill: #1f77b4; opacity: 0.7"/>
   </g>
   <g id="patch_76">
    <path d="M 284.519851 97985.273062 
L 287.13695 97985.273062 
L 287.13695 356.341208 
L 284.519851 356.341208 
z
" clip-path="url(#pa246479f4c)" style="fill: #1f77b4; opacity: 0.7"/>
   </g>
   <g id="patch_77">
    <path d="M 287.13695 97985.273062 
L 289.754049 97985.273062 
L 289.754049 424.533239 
L 287.13695 424.533239 
z
" clip-path="url(#pa246479f4c)" style="fill: #1f77b4; opacity: 0.7"/>
   </g>
   <g id="patch_78">
    <path d="M 289.754049 97985.273062 
L 292.371148 97985.273062 
L 292.371148 395.16453 
L 289.754049 395.16453 
z
" clip-path="url(#pa246479f4c)" style="fill: #1f77b4; opacity: 0.7"/>
   </g>
   <g id="patch_79">
    <path d="M 292.371148 97985.273062 
L 294.988247 97985.273062 
L 294.988247 365.79582 
L 292.371148 365.79582 
z
" clip-path="url(#pa246479f4c)" style="fill: #1f77b4; opacity: 0.7"/>
   </g>
   <g id="patch_80">
    <path d="M 294.988247 97985.273062 
L 297.605346 97985.273062 
L 297.605346 356.341208 
L 294.988247 356.341208 
z
" clip-path="url(#pa246479f4c)" style="fill: #1f77b4; opacity: 0.7"/>
   </g>
   <g id="patch_81">
    <path d="M 297.605346 97985.273062 
L 300.222445 97985.273062 
L 300.222445 97985.273062 
L 297.605346 97985.273062 
z
" clip-path="url(#pa246479f4c)" style="fill: #1f77b4; opacity: 0.7"/>
   </g>
   <g id="patch_82">
    <path d="M 300.222445 97985.273062 
L 302.839544 97985.273062 
L 302.839544 365.79582 
L 300.222445 365.79582 
z
" clip-path="url(#pa246479f4c)" style="fill: #1f77b4; opacity: 0.7"/>
   </g>
   <g id="patch_83">
    <path d="M 302.839544 97985.273062 
L 305.456644 97985.273062 
L 305.456644 424.533239 
L 302.839544 424.533239 
z
" clip-path="url(#pa246479f4c)" style="fill: #1f77b4; opacity: 0.7"/>
   </g>
   <g id="patch_84">
    <path d="M 305.456644 97985.273062 
L 308.073743 97985.273062 
L 308.073743 377.984936 
L 305.456644 377.984936 
z
" clip-path="url(#pa246479f4c)" style="fill: #1f77b4; opacity: 0.7"/>
   </g>
   <g id="patch_85">
    <path d="M 308.073743 97985.273062 
L 310.690842 97985.273062 
L 310.690842 356.341208 
L 308.073743 356.341208 
z
" clip-path="url(#pa246479f4c)" style="fill: #1f77b4; opacity: 0.7"/>
   </g>
   <g id="patch_86">
    <path d="M 310.690842 97985.273062 
L 313.307941 97985.273062 
L 313.307941 365.79582 
L 310.690842 365.79582 
z
" clip-path="url(#pa246479f4c)" style="fill: #1f77b4; opacity: 0.7"/>
   </g>
   <g id="patch_87">
    <path d="M 313.307941 97985.273062 
L 315.92504 97985.273062 
L 315.92504 97985.273062 
L 313.307941 97985.273062 
z
" clip-path="url(#pa246479f4c)" style="fill: #1f77b4; opacity: 0.7"/>
   </g>
   <g id="patch_88">
    <path d="M 315.92504 97985.273062 
L 318.542139 97985.273062 
L 318.542139 395.16453 
L 315.92504 395.16453 
z
" clip-path="url(#pa246479f4c)" style="fill: #1f77b4; opacity: 0.7"/>
   </g>
   <g id="patch_89">
    <path d="M 318.542139 97985.273062 
L 321.159238 97985.273062 
L 321.159238 395.16453 
L 318.542139 395.16453 
z
" clip-path="url(#pa246479f4c)" style="fill: #1f77b4; opacity: 0.7"/>
   </g>
   <g id="patch_90">
    <path d="M 321.159238 97985.273062 
L 323.776337 97985.273062 
L 323.776337 365.79582 
L 321.159238 365.79582 
z
" clip-path="url(#pa246479f4c)" style="fill: #1f77b4; opacity: 0.7"/>
   </g>
   <g id="patch_91">
    <path d="M 323.776337 97985.273062 
L 326.393436 97985.273062 
L 326.393436 395.16453 
L 323.776337 395.16453 
z
" clip-path="url(#pa246479f4c)" style="fill: #1f77b4; opacity: 0.7"/>
   </g>
   <g id="patch_92">
    <path d="M 326.393436 97985.273062 
L 329.010536 97985.273062 
L 329.010536 356.341208 
L 326.393436 356.341208 
z
" clip-path="url(#pa246479f4c)" style="fill: #1f77b4; opacity: 0.7"/>
   </g>
   <g id="patch_93">
    <path d="M 329.010536 97985.273062 
L 331.627635 97985.273062 
L 331.627635 377.984936 
L 329.010536 377.984936 
z
" clip-path="url(#pa246479f4c)" style="fill: #1f77b4; opacity: 0.7"/>
   </g>
   <g id="patch_94">
    <path d="M 331.627635 97985.273062 
L 334.244734 97985.273062 
L 334.244734 377.984936 
L 331.627635 377.984936 
z
" clip-path="url(#pa246479f4c)" style="fill: #1f77b4; opacity: 0.7"/>
   </g>
   <g id="patch_95">
    <path d="M 334.244734 97985.273062 
L 336.861833 97985.273062 
L 336.861833 356.341208 
L 334.244734 356.341208 
z
" clip-path="url(#pa246479f4c)" style="fill: #1f77b4; opacity: 0.7"/>
   </g>
   <g id="patch_96">
    <path d="M 336.861833 97985.273062 
L 339.478932 97985.273062 
L 339.478932 97985.273062 
L 336.861833 97985.273062 
z
" clip-path="url(#pa246479f4c)" style="fill: #1f77b4; opacity: 0.7"/>
   </g>
   <g id="patch_97">
    <path d="M 339.478932 97985.273062 
L 342.096031 97985.273062 
L 342.096031 424.533239 
L 339.478932 424.533239 
z
" clip-path="url(#pa246479f4c)" style="fill: #1f77b4; opacity: 0.7"/>
   </g>
   <g id="patch_98">
    <path d="M 342.096031 97985.273062 
L 344.71313 97985.273062 
L 344.71313 424.533239 
L 342.096031 424.533239 
z
" clip-path="url(#pa246479f4c)" style="fill: #1f77b4; opacity: 0.7"/>
   </g>
   <g id="patch_99">
    <path d="M 344.71313 97985.273062 
L 347.330229 97985.273062 
L 347.330229 365.79582 
L 344.71313 365.79582 
z
" clip-path="url(#pa246479f4c)" style="fill: #1f77b4; opacity: 0.7"/>
   </g>
   <g id="patch_100">
    <path d="M 347.330229 97985.273062 
L 349.947328 97985.273062 
L 349.947328 365.79582 
L 347.330229 365.79582 
z
" clip-path="url(#pa246479f4c)" style="fill: #1f77b4; opacity: 0.7"/>
   </g>
   <g id="patch_101">
    <path d="M 349.947328 97985.273062 
L 352.564427 97985.273062 
L 352.564427 356.341208 
L 349.947328 356.341208 
z
" clip-path="url(#pa246479f4c)" style="fill: #1f77b4; opacity: 0.7"/>
   </g>
   <g id="patch_102">
    <path d="M 352.564427 97985.273062 
L 355.181527 97985.273062 
L 355.181527 365.79582 
L 352.564427 365.79582 
z
" clip-path="url(#pa246479f4c)" style="fill: #1f77b4; opacity: 0.7"/>
   </g>
   <g id="patch_103">
    <path d="M 355.181527 97985.273062 
L 357.798626 97985.273062 
L 357.798626 377.984936 
L 355.181527 377.984936 
z
" clip-path="url(#pa246479f4c)" style="fill: #1f77b4; opacity: 0.7"/>
   </g>
   <g id="patch_104">
    <path d="M 357.798626 97985.273062 
L 360.415725 97985.273062 
L 360.415725 365.79582 
L 357.798626 365.79582 
z
" clip-path="url(#pa246479f4c)" style="fill: #1f77b4; opacity: 0.7"/>
   </g>
   <g id="patch_105">
    <path d="M 360.415725 97985.273062 
L 363.032824 97985.273062 
L 363.032824 377.984936 
L 360.415725 377.984936 
z
" clip-path="url(#pa246479f4c)" style="fill: #1f77b4; opacity: 0.7"/>
   </g>
   <g id="patch_106">
    <path d="M 363.032824 97985.273062 
L 365.649923 97985.273062 
L 365.649923 356.341208 
L 363.032824 356.341208 
z
" clip-path="url(#pa246479f4c)" style="fill: #1f77b4; opacity: 0.7"/>
   </g>
   <g id="patch_107">
    <path d="M 365.649923 97985.273062 
L 368.267022 97985.273062 
L 368.267022 377.984936 
L 365.649923 377.984936 
z
" clip-path="url(#pa246479f4c)" style="fill: #1f77b4; opacity: 0.7"/>
   </g>
   <g id="patch_108">
    <path d="M 368.267022 97985.273062 
L 370.884121 97985.273062 
L 370.884121 365.79582 
L 368.267022 365.79582 
z
" clip-path="url(#pa246479f4c)" style="fill: #1f77b4; opacity: 0.7"/>
   </g>
   <g id="patch_109">
    <path d="M 370.884121 97985.273062 
L 373.50122 97985.273062 
L 373.50122 365.79582 
L 370.884121 365.79582 
z
" clip-path="url(#pa246479f4c)" style="fill: #1f77b4; opacity: 0.7"/>
   </g>
   <g id="patch_110">
    <path d="M 373.50122 97985.273062 
L 376.118319 97985.273062 
L 376.118319 348.616227 
L 373.50122 348.616227 
z
" clip-path="url(#pa246479f4c)" style="fill: #1f77b4; opacity: 0.7"/>
   </g>
   <g id="patch_111">
    <path d="M 376.118319 97985.273062 
L 378.735419 97985.273062 
L 378.735419 356.341208 
L 376.118319 356.341208 
z
" clip-path="url(#pa246479f4c)" style="fill: #1f77b4; opacity: 0.7"/>
   </g>
   <g id="patch_112">
    <path d="M 378.735419 97985.273062 
L 381.352518 97985.273062 
L 381.352518 356.341208 
L 378.735419 356.341208 
z
" clip-path="url(#pa246479f4c)" style="fill: #1f77b4; opacity: 0.7"/>
   </g>
   <g id="patch_113">
    <path d="M 381.352518 97985.273062 
L 383.969617 97985.273062 
L 383.969617 336.427111 
L 381.352518 336.427111 
z
" clip-path="url(#pa246479f4c)" style="fill: #1f77b4; opacity: 0.7"/>
   </g>
   <g id="patch_114">
    <path d="M 383.969617 97985.273062 
L 386.586716 97985.273062 
L 386.586716 348.616227 
L 383.969617 348.616227 
z
" clip-path="url(#pa246479f4c)" style="fill: #1f77b4; opacity: 0.7"/>
   </g>
   <g id="patch_115">
    <path d="M 386.586716 97985.273062 
L 389.203815 97985.273062 
L 389.203815 424.533239 
L 386.586716 424.533239 
z
" clip-path="url(#pa246479f4c)" style="fill: #1f77b4; opacity: 0.7"/>
   </g>
   <g id="patch_116">
    <path d="M 389.203815 97985.273062 
L 391.820914 97985.273062 
L 391.820914 331.436633 
L 389.203815 331.436633 
z
" clip-path="url(#pa246479f4c)" style="fill: #1f77b4; opacity: 0.7"/>
   </g>
   <g id="patch_117">
    <path d="M 391.820914 97985.273062 
L 394.438013 97985.273062 
L 394.438013 365.79582 
L 391.820914 365.79582 
z
" clip-path="url(#pa246479f4c)" style="fill: #1f77b4; opacity: 0.7"/>
   </g>
   <g id="patch_118">
    <path d="M 394.438013 97985.273062 
L 397.055112 97985.273062 
L 397.055112 424.533239 
L 394.438013 424.533239 
z
" clip-path="url(#pa246479f4c)" style="fill: #1f77b4; opacity: 0.7"/>
   </g>
   <g id="patch_119">
    <path d="M 397.055112 97985.273062 
L 399.672211 97985.273062 
L 399.672211 326.972499 
L 397.055112 326.972499 
z
" clip-path="url(#pa246479f4c)" style="fill: #1f77b4; opacity: 0.7"/>
   </g>
   <g id="patch_120">
    <path d="M 399.672211 97985.273062 
L 402.28931 97985.273062 
L 402.28931 356.341208 
L 399.672211 356.341208 
z
" clip-path="url(#pa246479f4c)" style="fill: #1f77b4; opacity: 0.7"/>
   </g>
   <g id="patch_121">
    <path d="M 402.28931 97985.273062 
L 404.90641 97985.273062 
L 404.90641 348.616227 
L 402.28931 348.616227 
z
" clip-path="url(#pa246479f4c)" style="fill: #1f77b4; opacity: 0.7"/>
   </g>
   <g id="patch_122">
    <path d="M 404.90641 97985.273062 
L 407.523509 97985.273062 
L 407.523509 342.084849 
L 404.90641 342.084849 
z
" clip-path="url(#pa246479f4c)" style="fill: #1f77b4; opacity: 0.7"/>
   </g>
   <g id="patch_123">
    <path d="M 407.523509 97985.273062 
L 410.140608 97985.273062 
L 410.140608 377.984936 
L 407.523509 377.984936 
z
" clip-path="url(#pa246479f4c)" style="fill: #1f77b4; opacity: 0.7"/>
   </g>
   <g id="patch_124">
    <path d="M 410.140608 97985.273062 
L 412.757707 97985.273062 
L 412.757707 322.934198 
L 410.140608 322.934198 
z
" clip-path="url(#pa246479f4c)" style="fill: #1f77b4; opacity: 0.7"/>
   </g>
   <g id="patch_125">
    <path d="M 412.757707 97985.273062 
L 415.374806 97985.273062 
L 415.374806 336.427111 
L 412.757707 336.427111 
z
" clip-path="url(#pa246479f4c)" style="fill: #1f77b4; opacity: 0.7"/>
   </g>
   <g id="patch_126">
    <path d="M 415.374806 97985.273062 
L 417.991905 97985.273062 
L 417.991905 342.084849 
L 415.374806 342.084849 
z
" clip-path="url(#pa246479f4c)" style="fill: #1f77b4; opacity: 0.7"/>
   </g>
   <g id="patch_127">
    <path d="M 417.991905 97985.273062 
L 420.609004 97985.273062 
L 420.609004 342.084849 
L 417.991905 342.084849 
z
" clip-path="url(#pa246479f4c)" style="fill: #1f77b4; opacity: 0.7"/>
   </g>
   <g id="patch_128">
    <path d="M 420.609004 97985.273062 
L 423.226103 97985.273062 
L 423.226103 348.616227 
L 420.609004 348.616227 
z
" clip-path="url(#pa246479f4c)" style="fill: #1f77b4; opacity: 0.7"/>
   </g>
   <g id="patch_129">
    <path d="M 423.226103 97985.273062 
L 425.843202 97985.273062 
L 425.843202 331.436633 
L 423.226103 331.436633 
z
" clip-path="url(#pa246479f4c)" style="fill: #1f77b4; opacity: 0.7"/>
   </g>
   <g id="patch_130">
    <path d="M 425.843202 97985.273062 
L 428.460302 97985.273062 
L 428.460302 312.71614 
L 425.843202 312.71614 
z
" clip-path="url(#pa246479f4c)" style="fill: #1f77b4; opacity: 0.7"/>
   </g>
   <g id="patch_131">
    <path d="M 428.460302 97985.273062 
L 431.077401 97985.273062 
L 431.077401 377.984936 
L 428.460302 377.984936 
z
" clip-path="url(#pa246479f4c)" style="fill: #1f77b4; opacity: 0.7"/>
   </g>
   <g id="patch_132">
    <path d="M 431.077401 97985.273062 
L 433.6945 97985.273062 
L 433.6945 342.084849 
L 431.077401 342.084849 
z
" clip-path="url(#pa246479f4c)" style="fill: #1f77b4; opacity: 0.7"/>
   </g>
   <g id="patch_133">
    <path d="M 433.6945 97985.273062 
L 436.311599 97985.273062 
L 436.311599 304.489732 
L 433.6945 304.489732 
z
" clip-path="url(#pa246479f4c)" style="fill: #1f77b4; opacity: 0.7"/>
   </g>
   <g id="patch_134">
    <path d="M 436.311599 97985.273062 
L 438.928698 97985.273062 
L 438.928698 309.792905 
L 436.311599 309.792905 
z
" clip-path="url(#pa246479f4c)" style="fill: #1f77b4; opacity: 0.7"/>
   </g>
   <g id="patch_135">
    <path d="M 438.928698 97985.273062 
L 441.545797 97985.273062 
L 441.545797 312.71614 
L 438.928698 312.71614 
z
" clip-path="url(#pa246479f4c)" style="fill: #1f77b4; opacity: 0.7"/>
   </g>
   <g id="patch_136">
    <path d="M 441.545797 97985.273062 
L 444.162896 97985.273062 
L 444.162896 326.972499 
L 441.545797 326.972499 
z
" clip-path="url(#pa246479f4c)" style="fill: #1f77b4; opacity: 0.7"/>
   </g>
   <g id="patch_137">
    <path d="M 444.162896 97985.273062 
L 446.779995 97985.273062 
L 446.779995 304.489732 
L 444.162896 304.489732 
z
" clip-path="url(#pa246479f4c)" style="fill: #1f77b4; opacity: 0.7"/>
   </g>
   <g id="patch_138">
    <path d="M 446.779995 97985.273062 
L 449.397094 97985.273062 
L 449.397094 331.436633 
L 446.779995 331.436633 
z
" clip-path="url(#pa246479f4c)" style="fill: #1f77b4; opacity: 0.7"/>
   </g>
   <g id="patch_139">
    <path d="M 449.397094 97985.273062 
L 452.014193 97985.273062 
L 452.014193 336.427111 
L 449.397094 336.427111 
z
" clip-path="url(#pa246479f4c)" style="fill: #1f77b4; opacity: 0.7"/>
   </g>
   <g id="patch_140">
    <path d="M 452.014193 97985.273062 
L 454.631293 97985.273062 
L 454.631293 315.856101 
L 452.014193 315.856101 
z
" clip-path="url(#pa246479f4c)" style="fill: #1f77b4; opacity: 0.7"/>
   </g>
   <g id="patch_141">
    <path d="M 454.631293 97985.273062 
L 457.248392 97985.273062 
L 457.248392 271.538318 
L 454.631293 271.538318 
z
" clip-path="url(#pa246479f4c)" style="fill: #1f77b4; opacity: 0.7"/>
   </g>
   <g id="patch_142">
    <path d="M 457.248392 97985.273062 
L 459.865491 97985.273062 
L 459.865491 230.702318 
L 457.248392 230.702318 
z
" clip-path="url(#pa246479f4c)" style="fill: #1f77b4; opacity: 0.7"/>
   </g>
   <g id="patch_143">
    <path d="M 459.865491 97985.273062 
L 462.48259 97985.273062 
L 462.48259 348.616227 
L 459.865491 348.616227 
z
" clip-path="url(#pa246479f4c)" style="fill: #1f77b4; opacity: 0.7"/>
   </g>
   <g id="patch_144">
    <path d="M 462.48259 97985.273062 
L 465.099689 97985.273062 
L 465.099689 322.934198 
L 462.48259 322.934198 
z
" clip-path="url(#pa246479f4c)" style="fill: #1f77b4; opacity: 0.7"/>
   </g>
   <g id="patch_145">
    <path d="M 465.099689 97985.273062 
L 467.716788 97985.273062 
L 467.716788 342.084849 
L 465.099689 342.084849 
z
" clip-path="url(#pa246479f4c)" style="fill: #1f77b4; opacity: 0.7"/>
   </g>
   <g id="patch_146">
    <path d="M 467.716788 97985.273062 
L 470.333887 97985.273062 
L 470.333887 312.71614 
L 467.716788 312.71614 
z
" clip-path="url(#pa246479f4c)" style="fill: #1f77b4; opacity: 0.7"/>
   </g>
   <g id="patch_147">
    <path d="M 470.333887 97985.273062 
L 472.950986 97985.273062 
L 472.950986 326.972499 
L 470.333887 326.972499 
z
" clip-path="url(#pa246479f4c)" style="fill: #1f77b4; opacity: 0.7"/>
   </g>
   <g id="patch_148">
    <path d="M 472.950986 97985.273062 
L 475.568085 97985.273062 
L 475.568085 309.792905 
L 472.950986 309.792905 
z
" clip-path="url(#pa246479f4c)" style="fill: #1f77b4; opacity: 0.7"/>
   </g>
   <g id="patch_149">
    <path d="M 475.568085 97985.273062 
L 478.185185 97985.273062 
L 478.185185 326.972499 
L 475.568085 326.972499 
z
" clip-path="url(#pa246479f4c)" style="fill: #1f77b4; opacity: 0.7"/>
   </g>
   <g id="patch_150">
    <path d="M 478.185185 97985.273062 
L 480.802284 97985.273062 
L 480.802284 326.972499 
L 478.185185 326.972499 
z
" clip-path="url(#pa246479f4c)" style="fill: #1f77b4; opacity: 0.7"/>
   </g>
   <g id="patch_151">
    <path d="M 480.802284 97985.273062 
L 483.419383 97985.273062 
L 483.419383 326.972499 
L 480.802284 326.972499 
z
" clip-path="url(#pa246479f4c)" style="fill: #1f77b4; opacity: 0.7"/>
   </g>
   <g id="patch_152">
    <path d="M 483.419383 97985.273062 
L 486.036482 97985.273062 
L 486.036482 326.972499 
L 483.419383 326.972499 
z
" clip-path="url(#pa246479f4c)" style="fill: #1f77b4; opacity: 0.7"/>
   </g>
   <g id="patch_153">
    <path d="M 486.036482 97985.273062 
L 488.653581 97985.273062 
L 488.653581 322.934198 
L 486.036482 322.934198 
z
" clip-path="url(#pa246479f4c)" style="fill: #1f77b4; opacity: 0.7"/>
   </g>
   <g id="patch_154">
    <path d="M 488.653581 97985.273062 
L 491.27068 97985.273062 
L 491.27068 322.934198 
L 488.653581 322.934198 
z
" clip-path="url(#pa246479f4c)" style="fill: #1f77b4; opacity: 0.7"/>
   </g>
   <g id="patch_155">
    <path d="M 491.27068 97985.273062 
L 493.887779 97985.273062 
L 493.887779 336.427111 
L 491.27068 336.427111 
z
" clip-path="url(#pa246479f4c)" style="fill: #1f77b4; opacity: 0.7"/>
   </g>
   <g id="patch_156">
    <path d="M 493.887779 97985.273062 
L 496.504878 97985.273062 
L 496.504878 276.385895 
L 493.887779 276.385895 
z
" clip-path="url(#pa246479f4c)" style="fill: #1f77b4; opacity: 0.7"/>
   </g>
   <g id="patch_157">
    <path d="M 496.504878 97985.273062 
L 499.121977 97985.273062 
L 499.121977 336.427111 
L 496.504878 336.427111 
z
" clip-path="url(#pa246479f4c)" style="fill: #1f77b4; opacity: 0.7"/>
   </g>
   <g id="patch_158">
    <path d="M 499.121977 97985.273062 
L 501.739076 97985.273062 
L 501.739076 331.436633 
L 499.121977 331.436633 
z
" clip-path="url(#pa246479f4c)" style="fill: #1f77b4; opacity: 0.7"/>
   </g>
   <g id="patch_159">
    <path d="M 501.739076 97985.273062 
L 504.356176 97985.273062 
L 504.356176 342.084849 
L 501.739076 342.084849 
z
" clip-path="url(#pa246479f4c)" style="fill: #1f77b4; opacity: 0.7"/>
   </g>
   <g id="patch_160">
    <path d="M 504.356176 97985.273062 
L 506.973275 97985.273062 
L 506.973275 331.436633 
L 504.356176 331.436633 
z
" clip-path="url(#pa246479f4c)" style="fill: #1f77b4; opacity: 0.7"/>
   </g>
   <g id="patch_161">
    <path d="M 506.973275 97985.273062 
L 509.590374 97985.273062 
L 509.590374 348.616227 
L 506.973275 348.616227 
z
" clip-path="url(#pa246479f4c)" style="fill: #1f77b4; opacity: 0.7"/>
   </g>
   <g id="patch_162">
    <path d="M 509.590374 97985.273062 
L 512.207473 97985.273062 
L 512.207473 326.972499 
L 509.590374 326.972499 
z
" clip-path="url(#pa246479f4c)" style="fill: #1f77b4; opacity: 0.7"/>
   </g>
   <g id="patch_163">
    <path d="M 512.207473 97985.273062 
L 514.824572 97985.273062 
L 514.824572 312.71614 
L 512.207473 312.71614 
z
" clip-path="url(#pa246479f4c)" style="fill: #1f77b4; opacity: 0.7"/>
   </g>
   <g id="patch_164">
    <path d="M 514.824572 97985.273062 
L 517.441671 97985.273062 
L 517.441671 322.934198 
L 514.824572 322.934198 
z
" clip-path="url(#pa246479f4c)" style="fill: #1f77b4; opacity: 0.7"/>
   </g>
   <g id="patch_165">
    <path d="M 517.441671 97985.273062 
L 520.05877 97985.273062 
L 520.05877 342.084849 
L 517.441671 342.084849 
z
" clip-path="url(#pa246479f4c)" style="fill: #1f77b4; opacity: 0.7"/>
   </g>
   <g id="patch_166">
    <path d="M 520.05877 97985.273062 
L 522.675869 97985.273062 
L 522.675869 309.792905 
L 520.05877 309.792905 
z
" clip-path="url(#pa246479f4c)" style="fill: #1f77b4; opacity: 0.7"/>
   </g>
   <g id="patch_167">
    <path d="M 522.675869 97985.273062 
L 525.292968 97985.273062 
L 525.292968 326.972499 
L 522.675869 326.972499 
z
" clip-path="url(#pa246479f4c)" style="fill: #1f77b4; opacity: 0.7"/>
   </g>
   <g id="patch_168">
    <path d="M 525.292968 97985.273062 
L 527.910068 97985.273062 
L 527.910068 312.71614 
L 525.292968 312.71614 
z
" clip-path="url(#pa246479f4c)" style="fill: #1f77b4; opacity: 0.7"/>
   </g>
   <g id="patch_169">
    <path d="M 527.910068 97985.273062 
L 530.527167 97985.273062 
L 530.527167 322.934198 
L 527.910068 322.934198 
z
" clip-path="url(#pa246479f4c)" style="fill: #1f77b4; opacity: 0.7"/>
   </g>
   <g id="patch_170">
    <path d="M 530.527167 97985.273062 
L 533.144266 97985.273062 
L 533.144266 302.067924 
L 530.527167 302.067924 
z
" clip-path="url(#pa246479f4c)" style="fill: #1f77b4; opacity: 0.7"/>
   </g>
   <g id="patch_171">
    <path d="M 533.144266 97985.273062 
L 535.761365 97985.273062 
L 535.761365 291.682064 
L 533.144266 291.682064 
z
" clip-path="url(#pa246479f4c)" style="fill: #1f77b4; opacity: 0.7"/>
   </g>
   <g id="patch_172">
    <path d="M 535.761365 97985.273062 
L 538.378464 97985.273062 
L 538.378464 304.489732 
L 535.761365 304.489732 
z
" clip-path="url(#pa246479f4c)" style="fill: #1f77b4; opacity: 0.7"/>
   </g>
   <g id="patch_173">
    <path d="M 538.378464 97985.273062 
L 540.995563 97985.273062 
L 540.995563 289.878809 
L 538.378464 289.878809 
z
" clip-path="url(#pa246479f4c)" style="fill: #1f77b4; opacity: 0.7"/>
   </g>
   <g id="patch_174">
    <path d="M 540.995563 97985.273062 
L 543.612662 97985.273062 
L 543.612662 307.058402 
L 540.995563 307.058402 
z
" clip-path="url(#pa246479f4c)" style="fill: #1f77b4; opacity: 0.7"/>
   </g>
   <g id="patch_175">
    <path d="M 543.612662 97985.273062 
L 546.229761 97985.273062 
L 546.229761 288.149177 
L 543.612662 288.149177 
z
" clip-path="url(#pa246479f4c)" style="fill: #1f77b4; opacity: 0.7"/>
   </g>
   <g id="patch_176">
    <path d="M 546.229761 97985.273062 
L 548.84686 97985.273062 
L 548.84686 275.121022 
L 546.229761 275.121022 
z
" clip-path="url(#pa246479f4c)" style="fill: #1f77b4; opacity: 0.7"/>
   </g>
   <g id="patch_177">
    <path d="M 548.84686 97985.273062 
L 551.463959 97985.273062 
L 551.463959 299.777091 
L 548.84686 299.777091 
z
" clip-path="url(#pa246479f4c)" style="fill: #1f77b4; opacity: 0.7"/>
   </g>
   <g id="patch_178">
    <path d="M 551.463959 97985.273062 
L 554.081059 97985.273062 
L 554.081059 263.244603 
L 551.463959 263.244603 
z
" clip-path="url(#pa246479f4c)" style="fill: #1f77b4; opacity: 0.7"/>
   </g>
   <g id="patch_179">
    <path d="M 554.081059 97985.273062 
L 556.698158 97985.273062 
L 556.698158 257.941429 
L 554.081059 257.941429 
z
" clip-path="url(#pa246479f4c)" style="fill: #1f77b4; opacity: 0.7"/>
   </g>
   <g id="patch_180">
    <path d="M 556.698158 97985.273062 
L 559.315257 97985.273062 
L 559.315257 244.524109 
L 556.698158 244.524109 
z
" clip-path="url(#pa246479f4c)" style="fill: #1f77b4; opacity: 0.7"/>
   </g>
   <g id="patch_181">
    <path d="M 559.315257 97985.273062 
L 561.932356 97985.273062 
L 561.932356 230.702318 
L 559.315257 230.702318 
z
" clip-path="url(#pa246479f4c)" style="fill: #1f77b4; opacity: 0.7"/>
   </g>
   <g id="patch_182">
    <path d="M 561.932356 97985.273062 
L 564.549455 97985.273062 
L 564.549455 241.039673 
L 561.932356 241.039673 
z
" clip-path="url(#pa246479f4c)" style="fill: #1f77b4; opacity: 0.7"/>
   </g>
   <g id="patch_183">
    <path d="M 564.549455 97985.273062 
L 567.166554 97985.273062 
L 567.166554 224.990016 
L 564.549455 224.990016 
z
" clip-path="url(#pa246479f4c)" style="fill: #1f77b4; opacity: 0.7"/>
   </g>
   <g id="patch_184">
    <path d="M 567.166554 97985.273062 
L 569.783653 97985.273062 
L 569.783653 208.451434 
L 567.166554 208.451434 
z
" clip-path="url(#pa246479f4c)" style="fill: #1f77b4; opacity: 0.7"/>
   </g>
   <g id="patch_185">
    <path d="M 569.783653 97985.273062 
L 572.400752 97985.273062 
L 572.400752 181.886179 
L 569.783653 181.886179 
z
" clip-path="url(#pa246479f4c)" style="fill: #1f77b4; opacity: 0.7"/>
   </g>
   <g id="patch_186">
    <path d="M 572.400752 97985.273062 
L 575.017851 97985.273062 
L 575.017851 253.228789 
L 572.400752 253.228789 
z
" clip-path="url(#pa246479f4c)" style="fill: #1f77b4; opacity: 0.7"/>
   </g>
   <g id="patch_187">
    <path d="M 575.017851 97985.273062 
L 577.63495 97985.273062 
L 577.63495 365.79582 
L 575.017851 365.79582 
z
" clip-path="url(#pa246479f4c)" style="fill: #1f77b4; opacity: 0.7"/>
   </g>
   <g id="patch_188">
    <path d="M 577.63495 97985.273062 
L 580.25205 97985.273062 
L 580.25205 342.084849 
L 577.63495 342.084849 
z
" clip-path="url(#pa246479f4c)" style="fill: #1f77b4; opacity: 0.7"/>
   </g>
   <g id="patch_189">
    <path d="M 580.25205 97985.273062 
L 582.869149 97985.273062 
L 582.869149 342.084849 
L 580.25205 342.084849 
z
" clip-path="url(#pa246479f4c)" style="fill: #1f77b4; opacity: 0.7"/>
   </g>
   <g id="patch_190">
    <path d="M 582.869149 97985.273062 
L 585.486248 97985.273062 
L 585.486248 395.16453 
L 582.869149 395.16453 
z
" clip-path="url(#pa246479f4c)" style="fill: #1f77b4; opacity: 0.7"/>
   </g>
   <g id="patch_191">
    <path d="M 585.486248 97985.273062 
L 588.103347 97985.273062 
L 588.103347 331.436633 
L 585.486248 331.436633 
z
" clip-path="url(#pa246479f4c)" style="fill: #1f77b4; opacity: 0.7"/>
   </g>
   <g id="patch_192">
    <path d="M 588.103347 97985.273062 
L 590.720446 97985.273062 
L 590.720446 326.972499 
L 588.103347 326.972499 
z
" clip-path="url(#pa246479f4c)" style="fill: #1f77b4; opacity: 0.7"/>
   </g>
   <g id="patch_193">
    <path d="M 590.720446 97985.273062 
L 593.337545 97985.273062 
L 593.337545 365.79582 
L 590.720446 365.79582 
z
" clip-path="url(#pa246479f4c)" style="fill: #1f77b4; opacity: 0.7"/>
   </g>
   <g id="patch_194">
    <path d="M 593.337545 97985.273062 
L 595.954644 97985.273062 
L 595.954644 302.067924 
L 593.337545 302.067924 
z
" clip-path="url(#pa246479f4c)" style="fill: #1f77b4; opacity: 0.7"/>
   </g>
   <g id="patch_195">
    <path d="M 595.954644 97985.273062 
L 598.571743 97985.273062 
L 598.571743 326.972499 
L 595.954644 326.972499 
z
" clip-path="url(#pa246479f4c)" style="fill: #1f77b4; opacity: 0.7"/>
   </g>
   <g id="patch_196">
    <path d="M 598.571743 97985.273062 
L 601.188842 97985.273062 
L 601.188842 299.777091 
L 598.571743 299.777091 
z
" clip-path="url(#pa246479f4c)" style="fill: #1f77b4; opacity: 0.7"/>
   </g>
   <g id="patch_197">
    <path d="M 601.188842 97985.273062 
L 603.805942 97985.273062 
L 603.805942 289.878809 
L 601.188842 289.878809 
z
" clip-path="url(#pa246479f4c)" style="fill: #1f77b4; opacity: 0.7"/>
   </g>
   <g id="patch_198">
    <path d="M 603.805942 97985.273062 
L 606.423041 97985.273062 
L 606.423041 295.536546 
L 603.805942 295.536546 
z
" clip-path="url(#pa246479f4c)" style="fill: #1f77b4; opacity: 0.7"/>
   </g>
   <g id="patch_199">
    <path d="M 606.423041 97985.273062 
L 609.04014 97985.273062 
L 609.04014 276.385895 
L 606.423041 276.385895 
z
" clip-path="url(#pa246479f4c)" style="fill: #1f77b4; opacity: 0.7"/>
   </g>
   <g id="patch_200">
    <path d="M 609.04014 97985.273062 
L 611.657239 97985.273062 
L 611.657239 264.19678 
L 609.04014 264.19678 
z
" clip-path="url(#pa246479f4c)" style="fill: #1f77b4; opacity: 0.7"/>
   </g>
   <g id="patch_201">
    <path d="M 611.657239 97985.273062 
L 614.274338 97985.273062 
L 614.274338 395.16453 
L 611.657239 395.16453 
z
" clip-path="url(#pa246479f4c)" style="fill: #1f77b4; opacity: 0.7"/>
   </g>
   <g id="patch_202">
    <path d="M 614.274338 97985.273062 
L 616.891437 97985.273062 
L 616.891437 232.486586 
L 614.274338 232.486586 
z
" clip-path="url(#pa246479f4c)" style="fill: #1f77b4; opacity: 0.7"/>
   </g>
   <g id="matplotlib.axis_1">
    <g id="xtick_1">
     <g id="line2d_1">
      <defs>
       <path id="m7e3788eba4" d="M 0 0 
L 0 3.5 
" style="stroke: #000000; stroke-width: 0.8"/>
      </defs>
      <g>
       <use xlink:href="#m7e3788eba4" x="93.471616" y="443.396875" style="stroke: #000000; stroke-width: 0.8"/>
      </g>
     </g>
     <g id="text_1">
      <!-- 0.0 -->
      <g transform="translate(79.158804 464.074062) scale(0.18 -0.18)">
       <defs>
        <path id="DejaVuSans-30" d="M 2034 4250 
Q 1547 4250 1301 3770 
Q 1056 3291 1056 2328 
Q 1056 1369 1301 889 
Q 1547 409 2034 409 
Q 2525 409 2770 889 
Q 3016 1369 3016 2328 
Q 3016 3291 2770 3770 
Q 2525 4250 2034 4250 
z
M 2034 4750 
Q 2819 4750 3233 4129 
Q 3647 3509 3647 2328 
Q 3647 1150 3233 529 
Q 2819 -91 2034 -91 
Q 1250 -91 836 529 
Q 422 1150 422 2328 
Q 422 3509 836 4129 
Q 1250 4750 2034 4750 
z
" transform="scale(0.015625)"/>
        <path id="DejaVuSans-2e" d="M 684 794 
L 1344 794 
L 1344 0 
L 684 0 
L 684 794 
z
" transform="scale(0.015625)"/>
       </defs>
       <use xlink:href="#DejaVuSans-30"/>
       <use xlink:href="#DejaVuSans-2e" transform="translate(63.623047 0)"/>
       <use xlink:href="#DejaVuSans-30" transform="translate(95.410156 0)"/>
      </g>
     </g>
    </g>
    <g id="xtick_2">
     <g id="line2d_2">
      <g>
       <use xlink:href="#m7e3788eba4" x="198.157205" y="443.396875" style="stroke: #000000; stroke-width: 0.8"/>
      </g>
     </g>
     <g id="text_2">
      <!-- 0.2 -->
      <g transform="translate(183.844393 464.074062) scale(0.18 -0.18)">
       <defs>
        <path id="DejaVuSans-32" d="M 1228 531 
L 3431 531 
L 3431 0 
L 469 0 
L 469 531 
Q 828 903 1448 1529 
Q 2069 2156 2228 2338 
Q 2531 2678 2651 2914 
Q 2772 3150 2772 3378 
Q 2772 3750 2511 3984 
Q 2250 4219 1831 4219 
Q 1534 4219 1204 4116 
Q 875 4013 500 3803 
L 500 4441 
Q 881 4594 1212 4672 
Q 1544 4750 1819 4750 
Q 2544 4750 2975 4387 
Q 3406 4025 3406 3419 
Q 3406 3131 3298 2873 
Q 3191 2616 2906 2266 
Q 2828 2175 2409 1742 
Q 1991 1309 1228 531 
z
" transform="scale(0.015625)"/>
       </defs>
       <use xlink:href="#DejaVuSans-30"/>
       <use xlink:href="#DejaVuSans-2e" transform="translate(63.623047 0)"/>
       <use xlink:href="#DejaVuSans-32" transform="translate(95.410156 0)"/>
      </g>
     </g>
    </g>
    <g id="xtick_3">
     <g id="line2d_3">
      <g>
       <use xlink:href="#m7e3788eba4" x="302.842794" y="443.396875" style="stroke: #000000; stroke-width: 0.8"/>
      </g>
     </g>
     <g id="text_3">
      <!-- 0.4 -->
      <g transform="translate(288.529982 464.074062) scale(0.18 -0.18)">
       <defs>
        <path id="DejaVuSans-34" d="M 2419 4116 
L 825 1625 
L 2419 1625 
L 2419 4116 
z
M 2253 4666 
L 3047 4666 
L 3047 1625 
L 3713 1625 
L 3713 1100 
L 3047 1100 
L 3047 0 
L 2419 0 
L 2419 1100 
L 313 1100 
L 313 1709 
L 2253 4666 
z
" transform="scale(0.015625)"/>
       </defs>
       <use xlink:href="#DejaVuSans-30"/>
       <use xlink:href="#DejaVuSans-2e" transform="translate(63.623047 0)"/>
       <use xlink:href="#DejaVuSans-34" transform="translate(95.410156 0)"/>
      </g>
     </g>
    </g>
    <g id="xtick_4">
     <g id="line2d_4">
      <g>
       <use xlink:href="#m7e3788eba4" x="407.528383" y="443.396875" style="stroke: #000000; stroke-width: 0.8"/>
      </g>
     </g>
     <g id="text_4">
      <!-- 0.6 -->
      <g transform="translate(393.215571 464.074062) scale(0.18 -0.18)">
       <defs>
        <path id="DejaVuSans-36" d="M 2113 2584 
Q 1688 2584 1439 2293 
Q 1191 2003 1191 1497 
Q 1191 994 1439 701 
Q 1688 409 2113 409 
Q 2538 409 2786 701 
Q 3034 994 3034 1497 
Q 3034 2003 2786 2293 
Q 2538 2584 2113 2584 
z
M 3366 4563 
L 3366 3988 
Q 3128 4100 2886 4159 
Q 2644 4219 2406 4219 
Q 1781 4219 1451 3797 
Q 1122 3375 1075 2522 
Q 1259 2794 1537 2939 
Q 1816 3084 2150 3084 
Q 2853 3084 3261 2657 
Q 3669 2231 3669 1497 
Q 3669 778 3244 343 
Q 2819 -91 2113 -91 
Q 1303 -91 875 529 
Q 447 1150 447 2328 
Q 447 3434 972 4092 
Q 1497 4750 2381 4750 
Q 2619 4750 2861 4703 
Q 3103 4656 3366 4563 
z
" transform="scale(0.015625)"/>
       </defs>
       <use xlink:href="#DejaVuSans-30"/>
       <use xlink:href="#DejaVuSans-2e" transform="translate(63.623047 0)"/>
       <use xlink:href="#DejaVuSans-36" transform="translate(95.410156 0)"/>
      </g>
     </g>
    </g>
    <g id="xtick_5">
     <g id="line2d_5">
      <g>
       <use xlink:href="#m7e3788eba4" x="512.213972" y="443.396875" style="stroke: #000000; stroke-width: 0.8"/>
      </g>
     </g>
     <g id="text_5">
      <!-- 0.8 -->
      <g transform="translate(497.90116 464.074062) scale(0.18 -0.18)">
       <defs>
        <path id="DejaVuSans-38" d="M 2034 2216 
Q 1584 2216 1326 1975 
Q 1069 1734 1069 1313 
Q 1069 891 1326 650 
Q 1584 409 2034 409 
Q 2484 409 2743 651 
Q 3003 894 3003 1313 
Q 3003 1734 2745 1975 
Q 2488 2216 2034 2216 
z
M 1403 2484 
Q 997 2584 770 2862 
Q 544 3141 544 3541 
Q 544 4100 942 4425 
Q 1341 4750 2034 4750 
Q 2731 4750 3128 4425 
Q 3525 4100 3525 3541 
Q 3525 3141 3298 2862 
Q 3072 2584 2669 2484 
Q 3125 2378 3379 2068 
Q 3634 1759 3634 1313 
Q 3634 634 3220 271 
Q 2806 -91 2034 -91 
Q 1263 -91 848 271 
Q 434 634 434 1313 
Q 434 1759 690 2068 
Q 947 2378 1403 2484 
z
M 1172 3481 
Q 1172 3119 1398 2916 
Q 1625 2713 2034 2713 
Q 2441 2713 2670 2916 
Q 2900 3119 2900 3481 
Q 2900 3844 2670 4047 
Q 2441 4250 2034 4250 
Q 1625 4250 1398 4047 
Q 1172 3844 1172 3481 
z
" transform="scale(0.015625)"/>
       </defs>
       <use xlink:href="#DejaVuSans-30"/>
       <use xlink:href="#DejaVuSans-2e" transform="translate(63.623047 0)"/>
       <use xlink:href="#DejaVuSans-38" transform="translate(95.410156 0)"/>
      </g>
     </g>
    </g>
    <g id="xtick_6">
     <g id="line2d_6">
      <g>
       <use xlink:href="#m7e3788eba4" x="616.899561" y="443.396875" style="stroke: #000000; stroke-width: 0.8"/>
      </g>
     </g>
     <g id="text_6">
      <!-- 1.0 -->
      <g transform="translate(602.586749 464.074062) scale(0.18 -0.18)">
       <defs>
        <path id="DejaVuSans-31" d="M 794 531 
L 1825 531 
L 1825 4091 
L 703 3866 
L 703 4441 
L 1819 4666 
L 2450 4666 
L 2450 531 
L 3481 531 
L 3481 0 
L 794 0 
L 794 531 
z
" transform="scale(0.015625)"/>
       </defs>
       <use xlink:href="#DejaVuSans-31"/>
       <use xlink:href="#DejaVuSans-2e" transform="translate(63.623047 0)"/>
       <use xlink:href="#DejaVuSans-30" transform="translate(95.410156 0)"/>
      </g>
     </g>
    </g>
    <g id="text_7">
     <!-- Score -->
     <g transform="translate(329.977308 485.494687) scale(0.18 -0.18)">
      <defs>
       <path id="DejaVuSans-53" d="M 3425 4513 
L 3425 3897 
Q 3066 4069 2747 4153 
Q 2428 4238 2131 4238 
Q 1616 4238 1336 4038 
Q 1056 3838 1056 3469 
Q 1056 3159 1242 3001 
Q 1428 2844 1947 2747 
L 2328 2669 
Q 3034 2534 3370 2195 
Q 3706 1856 3706 1288 
Q 3706 609 3251 259 
Q 2797 -91 1919 -91 
Q 1588 -91 1214 -16 
Q 841 59 441 206 
L 441 856 
Q 825 641 1194 531 
Q 1563 422 1919 422 
Q 2459 422 2753 634 
Q 3047 847 3047 1241 
Q 3047 1584 2836 1778 
Q 2625 1972 2144 2069 
L 1759 2144 
Q 1053 2284 737 2584 
Q 422 2884 422 3419 
Q 422 4038 858 4394 
Q 1294 4750 2059 4750 
Q 2388 4750 2728 4690 
Q 3069 4631 3425 4513 
z
" transform="scale(0.015625)"/>
       <path id="DejaVuSans-63" d="M 3122 3366 
L 3122 2828 
Q 2878 2963 2633 3030 
Q 2388 3097 2138 3097 
Q 1578 3097 1268 2742 
Q 959 2388 959 1747 
Q 959 1106 1268 751 
Q 1578 397 2138 397 
Q 2388 397 2633 464 
Q 2878 531 3122 666 
L 3122 134 
Q 2881 22 2623 -34 
Q 2366 -91 2075 -91 
Q 1284 -91 818 406 
Q 353 903 353 1747 
Q 353 2603 823 3093 
Q 1294 3584 2113 3584 
Q 2378 3584 2631 3529 
Q 2884 3475 3122 3366 
z
" transform="scale(0.015625)"/>
       <path id="DejaVuSans-6f" d="M 1959 3097 
Q 1497 3097 1228 2736 
Q 959 2375 959 1747 
Q 959 1119 1226 758 
Q 1494 397 1959 397 
Q 2419 397 2687 759 
Q 2956 1122 2956 1747 
Q 2956 2369 2687 2733 
Q 2419 3097 1959 3097 
z
M 1959 3584 
Q 2709 3584 3137 3096 
Q 3566 2609 3566 1747 
Q 3566 888 3137 398 
Q 2709 -91 1959 -91 
Q 1206 -91 779 398 
Q 353 888 353 1747 
Q 353 2609 779 3096 
Q 1206 3584 1959 3584 
z
" transform="scale(0.015625)"/>
       <path id="DejaVuSans-72" d="M 2631 2963 
Q 2534 3019 2420 3045 
Q 2306 3072 2169 3072 
Q 1681 3072 1420 2755 
Q 1159 2438 1159 1844 
L 1159 0 
L 581 0 
L 581 3500 
L 1159 3500 
L 1159 2956 
Q 1341 3275 1631 3429 
Q 1922 3584 2338 3584 
Q 2397 3584 2469 3576 
Q 2541 3569 2628 3553 
L 2631 2963 
z
" transform="scale(0.015625)"/>
       <path id="DejaVuSans-65" d="M 3597 1894 
L 3597 1613 
L 953 1613 
Q 991 1019 1311 708 
Q 1631 397 2203 397 
Q 2534 397 2845 478 
Q 3156 559 3463 722 
L 3463 178 
Q 3153 47 2828 -22 
Q 2503 -91 2169 -91 
Q 1331 -91 842 396 
Q 353 884 353 1716 
Q 353 2575 817 3079 
Q 1281 3584 2069 3584 
Q 2775 3584 3186 3129 
Q 3597 2675 3597 1894 
z
M 3022 2063 
Q 3016 2534 2758 2815 
Q 2500 3097 2075 3097 
Q 1594 3097 1305 2825 
Q 1016 2553 972 2059 
L 3022 2063 
z
" transform="scale(0.015625)"/>
      </defs>
      <use xlink:href="#DejaVuSans-53"/>
      <use xlink:href="#DejaVuSans-63" transform="translate(63.476562 0)"/>
      <use xlink:href="#DejaVuSans-6f" transform="translate(118.457031 0)"/>
      <use xlink:href="#DejaVuSans-72" transform="translate(179.638672 0)"/>
      <use xlink:href="#DejaVuSans-65" transform="translate(218.501953 0)"/>
     </g>
    </g>
   </g>
   <g id="matplotlib.axis_2">
    <g id="ytick_1">
     <g id="line2d_7">
      <path d="M 67.300625 424.533239 
L 643.062428 424.533239 
" clip-path="url(#pa246479f4c)" style="fill: none; stroke-dasharray: 2.96,1.28; stroke-dashoffset: 0; stroke: #b0b0b0; stroke-opacity: 0.3; stroke-width: 0.8"/>
     </g>
     <g id="line2d_8">
      <defs>
       <path id="mc8469130fb" d="M 0 0 
L -3.5 0 
" style="stroke: #000000; stroke-width: 0.8"/>
      </defs>
      <g>
       <use xlink:href="#mc8469130fb" x="67.300625" y="424.533239" style="stroke: #000000; stroke-width: 0.8"/>
      </g>
     </g>
     <g id="text_8">
      <!-- $\mathdefault{10^{0}}$ -->
      <g style="fill: #1f77b4" transform="translate(28.620625 431.371832) scale(0.18 -0.18)">
       <use xlink:href="#DejaVuSans-31" transform="translate(0 0.765625)"/>
       <use xlink:href="#DejaVuSans-30" transform="translate(63.623047 0.765625)"/>
       <use xlink:href="#DejaVuSans-30" transform="translate(128.203125 39.046875) scale(0.7)"/>
      </g>
     </g>
    </g>
    <g id="ytick_2">
     <g id="line2d_9">
      <path d="M 67.300625 326.972499 
L 643.062428 326.972499 
" clip-path="url(#pa246479f4c)" style="fill: none; stroke-dasharray: 2.96,1.28; stroke-dashoffset: 0; stroke: #b0b0b0; stroke-opacity: 0.3; stroke-width: 0.8"/>
     </g>
     <g id="line2d_10">
      <g>
       <use xlink:href="#mc8469130fb" x="67.300625" y="326.972499" style="stroke: #000000; stroke-width: 0.8"/>
      </g>
     </g>
     <g id="text_9">
      <!-- $\mathdefault{10^{1}}$ -->
      <g style="fill: #1f77b4" transform="translate(28.620625 333.811093) scale(0.18 -0.18)">
       <use xlink:href="#DejaVuSans-31" transform="translate(0 0.684375)"/>
       <use xlink:href="#DejaVuSans-30" transform="translate(63.623047 0.684375)"/>
       <use xlink:href="#DejaVuSans-31" transform="translate(128.203125 38.965625) scale(0.7)"/>
      </g>
     </g>
    </g>
    <g id="ytick_3">
     <g id="line2d_11">
      <path d="M 67.300625 229.411759 
L 643.062428 229.411759 
" clip-path="url(#pa246479f4c)" style="fill: none; stroke-dasharray: 2.96,1.28; stroke-dashoffset: 0; stroke: #b0b0b0; stroke-opacity: 0.3; stroke-width: 0.8"/>
     </g>
     <g id="line2d_12">
      <g>
       <use xlink:href="#mc8469130fb" x="67.300625" y="229.411759" style="stroke: #000000; stroke-width: 0.8"/>
      </g>
     </g>
     <g id="text_10">
      <!-- $\mathdefault{10^{2}}$ -->
      <g style="fill: #1f77b4" transform="translate(28.620625 236.250353) scale(0.18 -0.18)">
       <use xlink:href="#DejaVuSans-31" transform="translate(0 0.765625)"/>
       <use xlink:href="#DejaVuSans-30" transform="translate(63.623047 0.765625)"/>
       <use xlink:href="#DejaVuSans-32" transform="translate(128.203125 39.046875) scale(0.7)"/>
      </g>
     </g>
    </g>
    <g id="ytick_4">
     <g id="line2d_13">
      <path d="M 67.300625 131.851019 
L 643.062428 131.851019 
" clip-path="url(#pa246479f4c)" style="fill: none; stroke-dasharray: 2.96,1.28; stroke-dashoffset: 0; stroke: #b0b0b0; stroke-opacity: 0.3; stroke-width: 0.8"/>
     </g>
     <g id="line2d_14">
      <g>
       <use xlink:href="#mc8469130fb" x="67.300625" y="131.851019" style="stroke: #000000; stroke-width: 0.8"/>
      </g>
     </g>
     <g id="text_11">
      <!-- $\mathdefault{10^{3}}$ -->
      <g style="fill: #1f77b4" transform="translate(28.620625 138.689613) scale(0.18 -0.18)">
       <defs>
        <path id="DejaVuSans-33" d="M 2597 2516 
Q 3050 2419 3304 2112 
Q 3559 1806 3559 1356 
Q 3559 666 3084 287 
Q 2609 -91 1734 -91 
Q 1441 -91 1130 -33 
Q 819 25 488 141 
L 488 750 
Q 750 597 1062 519 
Q 1375 441 1716 441 
Q 2309 441 2620 675 
Q 2931 909 2931 1356 
Q 2931 1769 2642 2001 
Q 2353 2234 1838 2234 
L 1294 2234 
L 1294 2753 
L 1863 2753 
Q 2328 2753 2575 2939 
Q 2822 3125 2822 3475 
Q 2822 3834 2567 4026 
Q 2313 4219 1838 4219 
Q 1578 4219 1281 4162 
Q 984 4106 628 3988 
L 628 4550 
Q 988 4650 1302 4700 
Q 1616 4750 1894 4750 
Q 2613 4750 3031 4423 
Q 3450 4097 3450 3541 
Q 3450 3153 3228 2886 
Q 3006 2619 2597 2516 
z
" transform="scale(0.015625)"/>
       </defs>
       <use xlink:href="#DejaVuSans-31" transform="translate(0 0.765625)"/>
       <use xlink:href="#DejaVuSans-30" transform="translate(63.623047 0.765625)"/>
       <use xlink:href="#DejaVuSans-33" transform="translate(128.203125 39.046875) scale(0.7)"/>
      </g>
     </g>
    </g>
    <g id="ytick_5">
     <g id="line2d_15">
      <path d="M 67.300625 34.290279 
L 643.062428 34.290279 
" clip-path="url(#pa246479f4c)" style="fill: none; stroke-dasharray: 2.96,1.28; stroke-dashoffset: 0; stroke: #b0b0b0; stroke-opacity: 0.3; stroke-width: 0.8"/>
     </g>
     <g id="line2d_16">
      <g>
       <use xlink:href="#mc8469130fb" x="67.300625" y="34.290279" style="stroke: #000000; stroke-width: 0.8"/>
      </g>
     </g>
     <g id="text_12">
      <!-- $\mathdefault{10^{4}}$ -->
      <g style="fill: #1f77b4" transform="translate(28.620625 41.128873) scale(0.18 -0.18)">
       <use xlink:href="#DejaVuSans-31" transform="translate(0 0.684375)"/>
       <use xlink:href="#DejaVuSans-30" transform="translate(63.623047 0.684375)"/>
       <use xlink:href="#DejaVuSans-34" transform="translate(128.203125 38.965625) scale(0.7)"/>
      </g>
     </g>
    </g>
    <g id="ytick_6">
     <g id="line2d_17">
      <defs>
       <path id="ma906d3327d" d="M 0 0 
L -2 0 
" style="stroke: #000000; stroke-width: 0.6"/>
      </defs>
      <g>
       <use xlink:href="#ma906d3327d" x="67.300625" y="439.645588" style="stroke: #000000; stroke-width: 0.6"/>
      </g>
     </g>
    </g>
    <g id="ytick_7">
     <g id="line2d_18">
      <g>
       <use xlink:href="#ma906d3327d" x="67.300625" y="433.987851" style="stroke: #000000; stroke-width: 0.6"/>
      </g>
     </g>
    </g>
    <g id="ytick_8">
     <g id="line2d_19">
      <g>
       <use xlink:href="#ma906d3327d" x="67.300625" y="428.997373" style="stroke: #000000; stroke-width: 0.6"/>
      </g>
     </g>
    </g>
    <g id="ytick_9">
     <g id="line2d_20">
      <g>
       <use xlink:href="#ma906d3327d" x="67.300625" y="395.16453" style="stroke: #000000; stroke-width: 0.6"/>
      </g>
     </g>
    </g>
    <g id="ytick_10">
     <g id="line2d_21">
      <g>
       <use xlink:href="#ma906d3327d" x="67.300625" y="377.984936" style="stroke: #000000; stroke-width: 0.6"/>
      </g>
     </g>
    </g>
    <g id="ytick_11">
     <g id="line2d_22">
      <g>
       <use xlink:href="#ma906d3327d" x="67.300625" y="365.79582" style="stroke: #000000; stroke-width: 0.6"/>
      </g>
     </g>
    </g>
    <g id="ytick_12">
     <g id="line2d_23">
      <g>
       <use xlink:href="#ma906d3327d" x="67.300625" y="356.341208" style="stroke: #000000; stroke-width: 0.6"/>
      </g>
     </g>
    </g>
    <g id="ytick_13">
     <g id="line2d_24">
      <g>
       <use xlink:href="#ma906d3327d" x="67.300625" y="348.616227" style="stroke: #000000; stroke-width: 0.6"/>
      </g>
     </g>
    </g>
    <g id="ytick_14">
     <g id="line2d_25">
      <g>
       <use xlink:href="#ma906d3327d" x="67.300625" y="342.084849" style="stroke: #000000; stroke-width: 0.6"/>
      </g>
     </g>
    </g>
    <g id="ytick_15">
     <g id="line2d_26">
      <g>
       <use xlink:href="#ma906d3327d" x="67.300625" y="336.427111" style="stroke: #000000; stroke-width: 0.6"/>
      </g>
     </g>
    </g>
    <g id="ytick_16">
     <g id="line2d_27">
      <g>
       <use xlink:href="#ma906d3327d" x="67.300625" y="331.436633" style="stroke: #000000; stroke-width: 0.6"/>
      </g>
     </g>
    </g>
    <g id="ytick_17">
     <g id="line2d_28">
      <g>
       <use xlink:href="#ma906d3327d" x="67.300625" y="297.60379" style="stroke: #000000; stroke-width: 0.6"/>
      </g>
     </g>
    </g>
    <g id="ytick_18">
     <g id="line2d_29">
      <g>
       <use xlink:href="#ma906d3327d" x="67.300625" y="280.424196" style="stroke: #000000; stroke-width: 0.6"/>
      </g>
     </g>
    </g>
    <g id="ytick_19">
     <g id="line2d_30">
      <g>
       <use xlink:href="#ma906d3327d" x="67.300625" y="268.235081" style="stroke: #000000; stroke-width: 0.6"/>
      </g>
     </g>
    </g>
    <g id="ytick_20">
     <g id="line2d_31">
      <g>
       <use xlink:href="#ma906d3327d" x="67.300625" y="258.780468" style="stroke: #000000; stroke-width: 0.6"/>
      </g>
     </g>
    </g>
    <g id="ytick_21">
     <g id="line2d_32">
      <g>
       <use xlink:href="#ma906d3327d" x="67.300625" y="251.055487" style="stroke: #000000; stroke-width: 0.6"/>
      </g>
     </g>
    </g>
    <g id="ytick_22">
     <g id="line2d_33">
      <g>
       <use xlink:href="#ma906d3327d" x="67.300625" y="244.524109" style="stroke: #000000; stroke-width: 0.6"/>
      </g>
     </g>
    </g>
    <g id="ytick_23">
     <g id="line2d_34">
      <g>
       <use xlink:href="#ma906d3327d" x="67.300625" y="238.866372" style="stroke: #000000; stroke-width: 0.6"/>
      </g>
     </g>
    </g>
    <g id="ytick_24">
     <g id="line2d_35">
      <g>
       <use xlink:href="#ma906d3327d" x="67.300625" y="233.875894" style="stroke: #000000; stroke-width: 0.6"/>
      </g>
     </g>
    </g>
    <g id="ytick_25">
     <g id="line2d_36">
      <g>
       <use xlink:href="#ma906d3327d" x="67.300625" y="200.04305" style="stroke: #000000; stroke-width: 0.6"/>
      </g>
     </g>
    </g>
    <g id="ytick_26">
     <g id="line2d_37">
      <g>
       <use xlink:href="#ma906d3327d" x="67.300625" y="182.863456" style="stroke: #000000; stroke-width: 0.6"/>
      </g>
     </g>
    </g>
    <g id="ytick_27">
     <g id="line2d_38">
      <g>
       <use xlink:href="#ma906d3327d" x="67.300625" y="170.674341" style="stroke: #000000; stroke-width: 0.6"/>
      </g>
     </g>
    </g>
    <g id="ytick_28">
     <g id="line2d_39">
      <g>
       <use xlink:href="#ma906d3327d" x="67.300625" y="161.219728" style="stroke: #000000; stroke-width: 0.6"/>
      </g>
     </g>
    </g>
    <g id="ytick_29">
     <g id="line2d_40">
      <g>
       <use xlink:href="#ma906d3327d" x="67.300625" y="153.494747" style="stroke: #000000; stroke-width: 0.6"/>
      </g>
     </g>
    </g>
    <g id="ytick_30">
     <g id="line2d_41">
      <g>
       <use xlink:href="#ma906d3327d" x="67.300625" y="146.963369" style="stroke: #000000; stroke-width: 0.6"/>
      </g>
     </g>
    </g>
    <g id="ytick_31">
     <g id="line2d_42">
      <g>
       <use xlink:href="#ma906d3327d" x="67.300625" y="141.305632" style="stroke: #000000; stroke-width: 0.6"/>
      </g>
     </g>
    </g>
    <g id="ytick_32">
     <g id="line2d_43">
      <g>
       <use xlink:href="#ma906d3327d" x="67.300625" y="136.315154" style="stroke: #000000; stroke-width: 0.6"/>
      </g>
     </g>
    </g>
    <g id="ytick_33">
     <g id="line2d_44">
      <g>
       <use xlink:href="#ma906d3327d" x="67.300625" y="102.48231" style="stroke: #000000; stroke-width: 0.6"/>
      </g>
     </g>
    </g>
    <g id="ytick_34">
     <g id="line2d_45">
      <g>
       <use xlink:href="#ma906d3327d" x="67.300625" y="85.302717" style="stroke: #000000; stroke-width: 0.6"/>
      </g>
     </g>
    </g>
    <g id="ytick_35">
     <g id="line2d_46">
      <g>
       <use xlink:href="#ma906d3327d" x="67.300625" y="73.113601" style="stroke: #000000; stroke-width: 0.6"/>
      </g>
     </g>
    </g>
    <g id="ytick_36">
     <g id="line2d_47">
      <g>
       <use xlink:href="#ma906d3327d" x="67.300625" y="63.658988" style="stroke: #000000; stroke-width: 0.6"/>
      </g>
     </g>
    </g>
    <g id="ytick_37">
     <g id="line2d_48">
      <g>
       <use xlink:href="#ma906d3327d" x="67.300625" y="55.934007" style="stroke: #000000; stroke-width: 0.6"/>
      </g>
     </g>
    </g>
    <g id="ytick_38">
     <g id="line2d_49">
      <g>
       <use xlink:href="#ma906d3327d" x="67.300625" y="49.402629" style="stroke: #000000; stroke-width: 0.6"/>
      </g>
     </g>
    </g>
    <g id="ytick_39">
     <g id="line2d_50">
      <g>
       <use xlink:href="#ma906d3327d" x="67.300625" y="43.744892" style="stroke: #000000; stroke-width: 0.6"/>
      </g>
     </g>
    </g>
    <g id="ytick_40">
     <g id="line2d_51">
      <g>
       <use xlink:href="#ma906d3327d" x="67.300625" y="38.754414" style="stroke: #000000; stroke-width: 0.6"/>
      </g>
     </g>
    </g>
    <g id="text_13">
     <!-- Number of cells -->
     <g style="fill: #1f77b4" transform="translate(20.877187 306.622812) rotate(-90) scale(0.18 -0.18)">
      <defs>
       <path id="DejaVuSans-4e" d="M 628 4666 
L 1478 4666 
L 3547 763 
L 3547 4666 
L 4159 4666 
L 4159 0 
L 3309 0 
L 1241 3903 
L 1241 0 
L 628 0 
L 628 4666 
z
" transform="scale(0.015625)"/>
       <path id="DejaVuSans-75" d="M 544 1381 
L 544 3500 
L 1119 3500 
L 1119 1403 
Q 1119 906 1312 657 
Q 1506 409 1894 409 
Q 2359 409 2629 706 
Q 2900 1003 2900 1516 
L 2900 3500 
L 3475 3500 
L 3475 0 
L 2900 0 
L 2900 538 
Q 2691 219 2414 64 
Q 2138 -91 1772 -91 
Q 1169 -91 856 284 
Q 544 659 544 1381 
z
M 1991 3584 
L 1991 3584 
z
" transform="scale(0.015625)"/>
       <path id="DejaVuSans-6d" d="M 3328 2828 
Q 3544 3216 3844 3400 
Q 4144 3584 4550 3584 
Q 5097 3584 5394 3201 
Q 5691 2819 5691 2113 
L 5691 0 
L 5113 0 
L 5113 2094 
Q 5113 2597 4934 2840 
Q 4756 3084 4391 3084 
Q 3944 3084 3684 2787 
Q 3425 2491 3425 1978 
L 3425 0 
L 2847 0 
L 2847 2094 
Q 2847 2600 2669 2842 
Q 2491 3084 2119 3084 
Q 1678 3084 1418 2786 
Q 1159 2488 1159 1978 
L 1159 0 
L 581 0 
L 581 3500 
L 1159 3500 
L 1159 2956 
Q 1356 3278 1631 3431 
Q 1906 3584 2284 3584 
Q 2666 3584 2933 3390 
Q 3200 3197 3328 2828 
z
" transform="scale(0.015625)"/>
       <path id="DejaVuSans-62" d="M 3116 1747 
Q 3116 2381 2855 2742 
Q 2594 3103 2138 3103 
Q 1681 3103 1420 2742 
Q 1159 2381 1159 1747 
Q 1159 1113 1420 752 
Q 1681 391 2138 391 
Q 2594 391 2855 752 
Q 3116 1113 3116 1747 
z
M 1159 2969 
Q 1341 3281 1617 3432 
Q 1894 3584 2278 3584 
Q 2916 3584 3314 3078 
Q 3713 2572 3713 1747 
Q 3713 922 3314 415 
Q 2916 -91 2278 -91 
Q 1894 -91 1617 61 
Q 1341 213 1159 525 
L 1159 0 
L 581 0 
L 581 4863 
L 1159 4863 
L 1159 2969 
z
" transform="scale(0.015625)"/>
       <path id="DejaVuSans-20" transform="scale(0.015625)"/>
       <path id="DejaVuSans-66" d="M 2375 4863 
L 2375 4384 
L 1825 4384 
Q 1516 4384 1395 4259 
Q 1275 4134 1275 3809 
L 1275 3500 
L 2222 3500 
L 2222 3053 
L 1275 3053 
L 1275 0 
L 697 0 
L 697 3053 
L 147 3053 
L 147 3500 
L 697 3500 
L 697 3744 
Q 697 4328 969 4595 
Q 1241 4863 1831 4863 
L 2375 4863 
z
" transform="scale(0.015625)"/>
       <path id="DejaVuSans-6c" d="M 603 4863 
L 1178 4863 
L 1178 0 
L 603 0 
L 603 4863 
z
" transform="scale(0.015625)"/>
       <path id="DejaVuSans-73" d="M 2834 3397 
L 2834 2853 
Q 2591 2978 2328 3040 
Q 2066 3103 1784 3103 
Q 1356 3103 1142 2972 
Q 928 2841 928 2578 
Q 928 2378 1081 2264 
Q 1234 2150 1697 2047 
L 1894 2003 
Q 2506 1872 2764 1633 
Q 3022 1394 3022 966 
Q 3022 478 2636 193 
Q 2250 -91 1575 -91 
Q 1294 -91 989 -36 
Q 684 19 347 128 
L 347 722 
Q 666 556 975 473 
Q 1284 391 1588 391 
Q 1994 391 2212 530 
Q 2431 669 2431 922 
Q 2431 1156 2273 1281 
Q 2116 1406 1581 1522 
L 1381 1569 
Q 847 1681 609 1914 
Q 372 2147 372 2553 
Q 372 3047 722 3315 
Q 1072 3584 1716 3584 
Q 2034 3584 2315 3537 
Q 2597 3491 2834 3397 
z
" transform="scale(0.015625)"/>
      </defs>
      <use xlink:href="#DejaVuSans-4e"/>
      <use xlink:href="#DejaVuSans-75" transform="translate(74.804688 0)"/>
      <use xlink:href="#DejaVuSans-6d" transform="translate(138.183594 0)"/>
      <use xlink:href="#DejaVuSans-62" transform="translate(235.595703 0)"/>
      <use xlink:href="#DejaVuSans-65" transform="translate(299.072266 0)"/>
      <use xlink:href="#DejaVuSans-72" transform="translate(360.595703 0)"/>
      <use xlink:href="#DejaVuSans-20" transform="translate(401.708984 0)"/>
      <use xlink:href="#DejaVuSans-6f" transform="translate(433.496094 0)"/>
      <use xlink:href="#DejaVuSans-66" transform="translate(494.677734 0)"/>
      <use xlink:href="#DejaVuSans-20" transform="translate(529.882812 0)"/>
      <use xlink:href="#DejaVuSans-63" transform="translate(561.669922 0)"/>
      <use xlink:href="#DejaVuSans-65" transform="translate(616.650391 0)"/>
      <use xlink:href="#DejaVuSans-6c" transform="translate(678.173828 0)"/>
      <use xlink:href="#DejaVuSans-6c" transform="translate(705.957031 0)"/>
      <use xlink:href="#DejaVuSans-73" transform="translate(733.740234 0)"/>
     </g>
    </g>
   </g>
   <g id="line2d_52">
    <path d="M 575.025326 443.396875 
L 575.025326 28.396875 
" clip-path="url(#pa246479f4c)" style="fill: none; stroke-dasharray: 3.7,1.6; stroke-dashoffset: 0; stroke: #000000"/>
   </g>
   <g id="patch_203">
    <path d="M 67.300625 443.396875 
L 67.300625 28.396875 
" style="fill: none; stroke: #000000; stroke-width: 0.8; stroke-linejoin: miter; stroke-linecap: square"/>
   </g>
   <g id="patch_204">
    <path d="M 643.062428 443.396875 
L 643.062428 28.396875 
" style="fill: none; stroke: #000000; stroke-width: 0.8; stroke-linejoin: miter; stroke-linecap: square"/>
   </g>
   <g id="patch_205">
    <path d="M 67.300625 443.396875 
L 643.062428 443.396875 
" style="fill: none; stroke: #000000; stroke-width: 0.8; stroke-linejoin: miter; stroke-linecap: square"/>
   </g>
   <g id="patch_206">
    <path d="M 67.300625 28.396875 
L 643.062428 28.396875 
" style="fill: none; stroke: #000000; stroke-width: 0.8; stroke-linejoin: miter; stroke-linecap: square"/>
   </g>
   <g id="text_14">
    <!-- 0.92 -->
    <g transform="translate(530.53395 48.960004) scale(0.18 -0.18)">
     <defs>
      <path id="DejaVuSans-39" d="M 703 97 
L 703 672 
Q 941 559 1184 500 
Q 1428 441 1663 441 
Q 2288 441 2617 861 
Q 2947 1281 2994 2138 
Q 2813 1869 2534 1725 
Q 2256 1581 1919 1581 
Q 1219 1581 811 2004 
Q 403 2428 403 3163 
Q 403 3881 828 4315 
Q 1253 4750 1959 4750 
Q 2769 4750 3195 4129 
Q 3622 3509 3622 2328 
Q 3622 1225 3098 567 
Q 2575 -91 1691 -91 
Q 1453 -91 1209 -44 
Q 966 3 703 97 
z
M 1959 2075 
Q 2384 2075 2632 2365 
Q 2881 2656 2881 3163 
Q 2881 3666 2632 3958 
Q 2384 4250 1959 4250 
Q 1534 4250 1286 3958 
Q 1038 3666 1038 3163 
Q 1038 2656 1286 2365 
Q 1534 2075 1959 2075 
z
" transform="scale(0.015625)"/>
     </defs>
     <use xlink:href="#DejaVuSans-30"/>
     <use xlink:href="#DejaVuSans-2e" transform="translate(63.623047 0)"/>
     <use xlink:href="#DejaVuSans-39" transform="translate(95.410156 0)"/>
     <use xlink:href="#DejaVuSans-32" transform="translate(159.033203 0)"/>
    </g>
   </g>
   <g id="text_15">
    <!-- Distribution of SIGMA scores -->
    <g transform="translate(213.079964 22.396875) scale(0.2 -0.2)">
     <defs>
      <path id="DejaVuSans-44" d="M 1259 4147 
L 1259 519 
L 2022 519 
Q 2988 519 3436 956 
Q 3884 1394 3884 2338 
Q 3884 3275 3436 3711 
Q 2988 4147 2022 4147 
L 1259 4147 
z
M 628 4666 
L 1925 4666 
Q 3281 4666 3915 4102 
Q 4550 3538 4550 2338 
Q 4550 1131 3912 565 
Q 3275 0 1925 0 
L 628 0 
L 628 4666 
z
" transform="scale(0.015625)"/>
      <path id="DejaVuSans-69" d="M 603 3500 
L 1178 3500 
L 1178 0 
L 603 0 
L 603 3500 
z
M 603 4863 
L 1178 4863 
L 1178 4134 
L 603 4134 
L 603 4863 
z
" transform="scale(0.015625)"/>
      <path id="DejaVuSans-74" d="M 1172 4494 
L 1172 3500 
L 2356 3500 
L 2356 3053 
L 1172 3053 
L 1172 1153 
Q 1172 725 1289 603 
Q 1406 481 1766 481 
L 2356 481 
L 2356 0 
L 1766 0 
Q 1100 0 847 248 
Q 594 497 594 1153 
L 594 3053 
L 172 3053 
L 172 3500 
L 594 3500 
L 594 4494 
L 1172 4494 
z
" transform="scale(0.015625)"/>
      <path id="DejaVuSans-6e" d="M 3513 2113 
L 3513 0 
L 2938 0 
L 2938 2094 
Q 2938 2591 2744 2837 
Q 2550 3084 2163 3084 
Q 1697 3084 1428 2787 
Q 1159 2491 1159 1978 
L 1159 0 
L 581 0 
L 581 3500 
L 1159 3500 
L 1159 2956 
Q 1366 3272 1645 3428 
Q 1925 3584 2291 3584 
Q 2894 3584 3203 3211 
Q 3513 2838 3513 2113 
z
" transform="scale(0.015625)"/>
      <path id="DejaVuSans-49" d="M 628 4666 
L 1259 4666 
L 1259 0 
L 628 0 
L 628 4666 
z
" transform="scale(0.015625)"/>
      <path id="DejaVuSans-47" d="M 3809 666 
L 3809 1919 
L 2778 1919 
L 2778 2438 
L 4434 2438 
L 4434 434 
Q 4069 175 3628 42 
Q 3188 -91 2688 -91 
Q 1594 -91 976 548 
Q 359 1188 359 2328 
Q 359 3472 976 4111 
Q 1594 4750 2688 4750 
Q 3144 4750 3555 4637 
Q 3966 4525 4313 4306 
L 4313 3634 
Q 3963 3931 3569 4081 
Q 3175 4231 2741 4231 
Q 1884 4231 1454 3753 
Q 1025 3275 1025 2328 
Q 1025 1384 1454 906 
Q 1884 428 2741 428 
Q 3075 428 3337 486 
Q 3600 544 3809 666 
z
" transform="scale(0.015625)"/>
      <path id="DejaVuSans-4d" d="M 628 4666 
L 1569 4666 
L 2759 1491 
L 3956 4666 
L 4897 4666 
L 4897 0 
L 4281 0 
L 4281 4097 
L 3078 897 
L 2444 897 
L 1241 4097 
L 1241 0 
L 628 0 
L 628 4666 
z
" transform="scale(0.015625)"/>
      <path id="DejaVuSans-41" d="M 2188 4044 
L 1331 1722 
L 3047 1722 
L 2188 4044 
z
M 1831 4666 
L 2547 4666 
L 4325 0 
L 3669 0 
L 3244 1197 
L 1141 1197 
L 716 0 
L 50 0 
L 1831 4666 
z
" transform="scale(0.015625)"/>
     </defs>
     <use xlink:href="#DejaVuSans-44"/>
     <use xlink:href="#DejaVuSans-69" transform="translate(77.001953 0)"/>
     <use xlink:href="#DejaVuSans-73" transform="translate(104.785156 0)"/>
     <use xlink:href="#DejaVuSans-74" transform="translate(156.884766 0)"/>
     <use xlink:href="#DejaVuSans-72" transform="translate(196.09375 0)"/>
     <use xlink:href="#DejaVuSans-69" transform="translate(237.207031 0)"/>
     <use xlink:href="#DejaVuSans-62" transform="translate(264.990234 0)"/>
     <use xlink:href="#DejaVuSans-75" transform="translate(328.466797 0)"/>
     <use xlink:href="#DejaVuSans-74" transform="translate(391.845703 0)"/>
     <use xlink:href="#DejaVuSans-69" transform="translate(431.054688 0)"/>
     <use xlink:href="#DejaVuSans-6f" transform="translate(458.837891 0)"/>
     <use xlink:href="#DejaVuSans-6e" transform="translate(520.019531 0)"/>
     <use xlink:href="#DejaVuSans-20" transform="translate(583.398438 0)"/>
     <use xlink:href="#DejaVuSans-6f" transform="translate(615.185547 0)"/>
     <use xlink:href="#DejaVuSans-66" transform="translate(676.367188 0)"/>
     <use xlink:href="#DejaVuSans-20" transform="translate(711.572266 0)"/>
     <use xlink:href="#DejaVuSans-53" transform="translate(743.359375 0)"/>
     <use xlink:href="#DejaVuSans-49" transform="translate(806.835938 0)"/>
     <use xlink:href="#DejaVuSans-47" transform="translate(836.328125 0)"/>
     <use xlink:href="#DejaVuSans-4d" transform="translate(913.818359 0)"/>
     <use xlink:href="#DejaVuSans-41" transform="translate(1000.097656 0)"/>
     <use xlink:href="#DejaVuSans-20" transform="translate(1068.505859 0)"/>
     <use xlink:href="#DejaVuSans-73" transform="translate(1100.292969 0)"/>
     <use xlink:href="#DejaVuSans-63" transform="translate(1152.392578 0)"/>
     <use xlink:href="#DejaVuSans-6f" transform="translate(1207.373047 0)"/>
     <use xlink:href="#DejaVuSans-72" transform="translate(1268.554688 0)"/>
     <use xlink:href="#DejaVuSans-65" transform="translate(1307.417969 0)"/>
     <use xlink:href="#DejaVuSans-73" transform="translate(1368.941406 0)"/>
    </g>
   </g>
  </g>
  <g id="axes_2">
   <g id="matplotlib.axis_3">
    <g id="ytick_41">
     <g id="line2d_53">
      <defs>
       <path id="ma673f16034" d="M 0 0 
L 3.5 0 
" style="stroke: #000000; stroke-width: 0.8"/>
      </defs>
      <g>
       <use xlink:href="#ma673f16034" x="643.062428" y="431.602481" style="stroke: #000000; stroke-width: 0.8"/>
      </g>
     </g>
     <g id="text_16">
      <!-- 75 -->
      <g style="fill: #ff0000" transform="translate(650.062428 438.441074) scale(0.18 -0.18)">
       <defs>
        <path id="DejaVuSans-37" d="M 525 4666 
L 3525 4666 
L 3525 4397 
L 1831 0 
L 1172 0 
L 2766 4134 
L 525 4134 
L 525 4666 
z
" transform="scale(0.015625)"/>
        <path id="DejaVuSans-35" d="M 691 4666 
L 3169 4666 
L 3169 4134 
L 1269 4134 
L 1269 2991 
Q 1406 3038 1543 3061 
Q 1681 3084 1819 3084 
Q 2600 3084 3056 2656 
Q 3513 2228 3513 1497 
Q 3513 744 3044 326 
Q 2575 -91 1722 -91 
Q 1428 -91 1123 -41 
Q 819 9 494 109 
L 494 744 
Q 775 591 1075 516 
Q 1375 441 1709 441 
Q 2250 441 2565 725 
Q 2881 1009 2881 1497 
Q 2881 1984 2565 2268 
Q 2250 2553 1709 2553 
Q 1456 2553 1204 2497 
Q 953 2441 691 2322 
L 691 4666 
z
" transform="scale(0.015625)"/>
       </defs>
       <use xlink:href="#DejaVuSans-37"/>
       <use xlink:href="#DejaVuSans-35" transform="translate(63.623047 0)"/>
      </g>
     </g>
    </g>
    <g id="ytick_42">
     <g id="line2d_54">
      <g>
       <use xlink:href="#ma673f16034" x="643.062428" y="350.96136" style="stroke: #000000; stroke-width: 0.8"/>
      </g>
     </g>
     <g id="text_17">
      <!-- 80 -->
      <g style="fill: #ff0000" transform="translate(650.062428 357.799953) scale(0.18 -0.18)">
       <use xlink:href="#DejaVuSans-38"/>
       <use xlink:href="#DejaVuSans-30" transform="translate(63.623047 0)"/>
      </g>
     </g>
    </g>
    <g id="ytick_43">
     <g id="line2d_55">
      <g>
       <use xlink:href="#ma673f16034" x="643.062428" y="270.320238" style="stroke: #000000; stroke-width: 0.8"/>
      </g>
     </g>
     <g id="text_18">
      <!-- 85 -->
      <g style="fill: #ff0000" transform="translate(650.062428 277.158832) scale(0.18 -0.18)">
       <use xlink:href="#DejaVuSans-38"/>
       <use xlink:href="#DejaVuSans-35" transform="translate(63.623047 0)"/>
      </g>
     </g>
    </g>
    <g id="ytick_44">
     <g id="line2d_56">
      <g>
       <use xlink:href="#ma673f16034" x="643.062428" y="189.679117" style="stroke: #000000; stroke-width: 0.8"/>
      </g>
     </g>
     <g id="text_19">
      <!-- 90 -->
      <g style="fill: #ff0000" transform="translate(650.062428 196.517711) scale(0.18 -0.18)">
       <use xlink:href="#DejaVuSans-39"/>
       <use xlink:href="#DejaVuSans-30" transform="translate(63.623047 0)"/>
      </g>
     </g>
    </g>
    <g id="ytick_45">
     <g id="line2d_57">
      <g>
       <use xlink:href="#ma673f16034" x="643.062428" y="109.037996" style="stroke: #000000; stroke-width: 0.8"/>
      </g>
     </g>
     <g id="text_20">
      <!-- 95 -->
      <g style="fill: #ff0000" transform="translate(650.062428 115.87659) scale(0.18 -0.18)">
       <use xlink:href="#DejaVuSans-39"/>
       <use xlink:href="#DejaVuSans-35" transform="translate(63.623047 0)"/>
      </g>
     </g>
    </g>
    <g id="ytick_46">
     <g id="line2d_58">
      <g>
       <use xlink:href="#ma673f16034" x="643.062428" y="28.396875" style="stroke: #000000; stroke-width: 0.8"/>
      </g>
     </g>
     <g id="text_21">
      <!-- 100 -->
      <g style="fill: #ff0000" transform="translate(650.062428 35.235469) scale(0.18 -0.18)">
       <use xlink:href="#DejaVuSans-31"/>
       <use xlink:href="#DejaVuSans-30" transform="translate(63.623047 0)"/>
       <use xlink:href="#DejaVuSans-30" transform="translate(127.246094 0)"/>
      </g>
     </g>
    </g>
    <g id="text_22">
     <!-- Cumulative percentage of cells (%) -->
     <g style="fill: #ff0000" transform="translate(702.097116 394.364375) rotate(-90) scale(0.18 -0.18)">
      <defs>
       <path id="DejaVuSans-43" d="M 4122 4306 
L 4122 3641 
Q 3803 3938 3442 4084 
Q 3081 4231 2675 4231 
Q 1875 4231 1450 3742 
Q 1025 3253 1025 2328 
Q 1025 1406 1450 917 
Q 1875 428 2675 428 
Q 3081 428 3442 575 
Q 3803 722 4122 1019 
L 4122 359 
Q 3791 134 3420 21 
Q 3050 -91 2638 -91 
Q 1578 -91 968 557 
Q 359 1206 359 2328 
Q 359 3453 968 4101 
Q 1578 4750 2638 4750 
Q 3056 4750 3426 4639 
Q 3797 4528 4122 4306 
z
" transform="scale(0.015625)"/>
       <path id="DejaVuSans-61" d="M 2194 1759 
Q 1497 1759 1228 1600 
Q 959 1441 959 1056 
Q 959 750 1161 570 
Q 1363 391 1709 391 
Q 2188 391 2477 730 
Q 2766 1069 2766 1631 
L 2766 1759 
L 2194 1759 
z
M 3341 1997 
L 3341 0 
L 2766 0 
L 2766 531 
Q 2569 213 2275 61 
Q 1981 -91 1556 -91 
Q 1019 -91 701 211 
Q 384 513 384 1019 
Q 384 1609 779 1909 
Q 1175 2209 1959 2209 
L 2766 2209 
L 2766 2266 
Q 2766 2663 2505 2880 
Q 2244 3097 1772 3097 
Q 1472 3097 1187 3025 
Q 903 2953 641 2809 
L 641 3341 
Q 956 3463 1253 3523 
Q 1550 3584 1831 3584 
Q 2591 3584 2966 3190 
Q 3341 2797 3341 1997 
z
" transform="scale(0.015625)"/>
       <path id="DejaVuSans-76" d="M 191 3500 
L 800 3500 
L 1894 563 
L 2988 3500 
L 3597 3500 
L 2284 0 
L 1503 0 
L 191 3500 
z
" transform="scale(0.015625)"/>
       <path id="DejaVuSans-70" d="M 1159 525 
L 1159 -1331 
L 581 -1331 
L 581 3500 
L 1159 3500 
L 1159 2969 
Q 1341 3281 1617 3432 
Q 1894 3584 2278 3584 
Q 2916 3584 3314 3078 
Q 3713 2572 3713 1747 
Q 3713 922 3314 415 
Q 2916 -91 2278 -91 
Q 1894 -91 1617 61 
Q 1341 213 1159 525 
z
M 3116 1747 
Q 3116 2381 2855 2742 
Q 2594 3103 2138 3103 
Q 1681 3103 1420 2742 
Q 1159 2381 1159 1747 
Q 1159 1113 1420 752 
Q 1681 391 2138 391 
Q 2594 391 2855 752 
Q 3116 1113 3116 1747 
z
" transform="scale(0.015625)"/>
       <path id="DejaVuSans-67" d="M 2906 1791 
Q 2906 2416 2648 2759 
Q 2391 3103 1925 3103 
Q 1463 3103 1205 2759 
Q 947 2416 947 1791 
Q 947 1169 1205 825 
Q 1463 481 1925 481 
Q 2391 481 2648 825 
Q 2906 1169 2906 1791 
z
M 3481 434 
Q 3481 -459 3084 -895 
Q 2688 -1331 1869 -1331 
Q 1566 -1331 1297 -1286 
Q 1028 -1241 775 -1147 
L 775 -588 
Q 1028 -725 1275 -790 
Q 1522 -856 1778 -856 
Q 2344 -856 2625 -561 
Q 2906 -266 2906 331 
L 2906 616 
Q 2728 306 2450 153 
Q 2172 0 1784 0 
Q 1141 0 747 490 
Q 353 981 353 1791 
Q 353 2603 747 3093 
Q 1141 3584 1784 3584 
Q 2172 3584 2450 3431 
Q 2728 3278 2906 2969 
L 2906 3500 
L 3481 3500 
L 3481 434 
z
" transform="scale(0.015625)"/>
       <path id="DejaVuSans-28" d="M 1984 4856 
Q 1566 4138 1362 3434 
Q 1159 2731 1159 2009 
Q 1159 1288 1364 580 
Q 1569 -128 1984 -844 
L 1484 -844 
Q 1016 -109 783 600 
Q 550 1309 550 2009 
Q 550 2706 781 3412 
Q 1013 4119 1484 4856 
L 1984 4856 
z
" transform="scale(0.015625)"/>
       <path id="DejaVuSans-25" d="M 4653 2053 
Q 4381 2053 4226 1822 
Q 4072 1591 4072 1178 
Q 4072 772 4226 539 
Q 4381 306 4653 306 
Q 4919 306 5073 539 
Q 5228 772 5228 1178 
Q 5228 1588 5073 1820 
Q 4919 2053 4653 2053 
z
M 4653 2450 
Q 5147 2450 5437 2106 
Q 5728 1763 5728 1178 
Q 5728 594 5436 251 
Q 5144 -91 4653 -91 
Q 4153 -91 3862 251 
Q 3572 594 3572 1178 
Q 3572 1766 3864 2108 
Q 4156 2450 4653 2450 
z
M 1428 4353 
Q 1159 4353 1004 4120 
Q 850 3888 850 3481 
Q 850 3069 1003 2837 
Q 1156 2606 1428 2606 
Q 1700 2606 1854 2837 
Q 2009 3069 2009 3481 
Q 2009 3884 1853 4118 
Q 1697 4353 1428 4353 
z
M 4250 4750 
L 4750 4750 
L 1831 -91 
L 1331 -91 
L 4250 4750 
z
M 1428 4750 
Q 1922 4750 2215 4408 
Q 2509 4066 2509 3481 
Q 2509 2891 2217 2550 
Q 1925 2209 1428 2209 
Q 931 2209 642 2551 
Q 353 2894 353 3481 
Q 353 4063 643 4406 
Q 934 4750 1428 4750 
z
" transform="scale(0.015625)"/>
       <path id="DejaVuSans-29" d="M 513 4856 
L 1013 4856 
Q 1481 4119 1714 3412 
Q 1947 2706 1947 2009 
Q 1947 1309 1714 600 
Q 1481 -109 1013 -844 
L 513 -844 
Q 928 -128 1133 580 
Q 1338 1288 1338 2009 
Q 1338 2731 1133 3434 
Q 928 4138 513 4856 
z
" transform="scale(0.015625)"/>
      </defs>
      <use xlink:href="#DejaVuSans-43"/>
      <use xlink:href="#DejaVuSans-75" transform="translate(69.824219 0)"/>
      <use xlink:href="#DejaVuSans-6d" transform="translate(133.203125 0)"/>
      <use xlink:href="#DejaVuSans-75" transform="translate(230.615234 0)"/>
      <use xlink:href="#DejaVuSans-6c" transform="translate(293.994141 0)"/>
      <use xlink:href="#DejaVuSans-61" transform="translate(321.777344 0)"/>
      <use xlink:href="#DejaVuSans-74" transform="translate(383.056641 0)"/>
      <use xlink:href="#DejaVuSans-69" transform="translate(422.265625 0)"/>
      <use xlink:href="#DejaVuSans-76" transform="translate(450.048828 0)"/>
      <use xlink:href="#DejaVuSans-65" transform="translate(509.228516 0)"/>
      <use xlink:href="#DejaVuSans-20" transform="translate(570.751953 0)"/>
      <use xlink:href="#DejaVuSans-70" transform="translate(602.539062 0)"/>
      <use xlink:href="#DejaVuSans-65" transform="translate(666.015625 0)"/>
      <use xlink:href="#DejaVuSans-72" transform="translate(727.539062 0)"/>
      <use xlink:href="#DejaVuSans-63" transform="translate(766.402344 0)"/>
      <use xlink:href="#DejaVuSans-65" transform="translate(821.382812 0)"/>
      <use xlink:href="#DejaVuSans-6e" transform="translate(882.90625 0)"/>
      <use xlink:href="#DejaVuSans-74" transform="translate(946.285156 0)"/>
      <use xlink:href="#DejaVuSans-61" transform="translate(985.494141 0)"/>
      <use xlink:href="#DejaVuSans-67" transform="translate(1046.773438 0)"/>
      <use xlink:href="#DejaVuSans-65" transform="translate(1110.25 0)"/>
      <use xlink:href="#DejaVuSans-20" transform="translate(1171.773438 0)"/>
      <use xlink:href="#DejaVuSans-6f" transform="translate(1203.560547 0)"/>
      <use xlink:href="#DejaVuSans-66" transform="translate(1264.742188 0)"/>
      <use xlink:href="#DejaVuSans-20" transform="translate(1299.947266 0)"/>
      <use xlink:href="#DejaVuSans-63" transform="translate(1331.734375 0)"/>
      <use xlink:href="#DejaVuSans-65" transform="translate(1386.714844 0)"/>
      <use xlink:href="#DejaVuSans-6c" transform="translate(1448.238281 0)"/>
      <use xlink:href="#DejaVuSans-6c" transform="translate(1476.021484 0)"/>
      <use xlink:href="#DejaVuSans-73" transform="translate(1503.804688 0)"/>
      <use xlink:href="#DejaVuSans-20" transform="translate(1555.904297 0)"/>
      <use xlink:href="#DejaVuSans-28" transform="translate(1587.691406 0)"/>
      <use xlink:href="#DejaVuSans-25" transform="translate(1626.705078 0)"/>
      <use xlink:href="#DejaVuSans-29" transform="translate(1721.724609 0)"/>
     </g>
    </g>
   </g>
   <g id="line2d_59">
    <path d="M 94.780166 443.396875 
L 97.397265 437.703029 
L 100.014364 436.238898 
L 102.631463 435.100129 
L 105.248562 434.124041 
L 107.865661 432.985272 
L 110.48276 432.497228 
L 113.099859 431.358459 
L 115.716958 430.382371 
L 118.334058 428.755558 
L 120.951157 425.989976 
L 123.568256 424.363163 
L 126.185355 423.549756 
L 128.802454 421.272218 
L 134.036652 420.621493 
L 136.653751 419.320042 
L 139.27085 418.343955 
L 144.505049 417.367867 
L 147.122148 416.55446 
L 149.739247 415.578372 
L 152.356346 414.764966 
L 154.973445 414.276922 
L 157.590544 414.114241 
L 162.824742 413.463516 
L 165.441841 412.324746 
L 168.058941 411.836703 
L 170.67604 411.023296 
L 175.910238 410.372571 
L 178.527337 410.20989 
L 181.144436 409.396483 
L 183.761535 408.908439 
L 186.378634 408.257714 
L 191.612832 407.932351 
L 194.229932 407.606989 
L 196.847031 406.793582 
L 199.46413 406.630901 
L 202.081229 406.630901 
L 204.698328 405.980176 
L 209.932526 405.004088 
L 212.549625 404.678725 
L 215.166724 403.865319 
L 220.400923 402.563868 
L 223.018022 402.075824 
L 225.635121 402.075824 
L 228.25222 401.587781 
L 230.869319 400.937055 
L 233.486418 400.774374 
L 236.103517 400.449011 
L 238.720616 399.960968 
L 246.571914 398.008792 
L 251.806112 398.008792 
L 254.423211 397.358067 
L 257.04031 397.195385 
L 262.274508 396.54466 
L 264.891607 396.381979 
L 267.508707 395.893935 
L 270.125806 395.568572 
L 272.742905 395.405891 
L 277.977103 394.755166 
L 280.594202 394.104441 
L 283.211301 394.104441 
L 285.8284 393.291034 
L 288.445499 393.128353 
L 291.062598 392.80299 
L 293.679698 392.152265 
L 296.296797 391.338859 
L 298.913896 391.338859 
L 301.530995 390.688133 
L 304.148094 390.525452 
L 306.765193 390.037408 
L 309.382292 389.224002 
L 311.999391 388.573276 
L 314.61649 388.573276 
L 319.850689 387.922551 
L 322.467788 387.271826 
L 325.084887 386.946463 
L 327.701986 386.133057 
L 332.936184 385.156969 
L 335.553283 384.343563 
L 338.170382 384.343563 
L 343.404581 384.0182 
L 348.638779 382.71675 
L 351.255878 381.903343 
L 353.872977 381.252618 
L 356.490076 380.764574 
L 359.107175 380.113849 
L 361.724274 379.625805 
L 364.341373 378.812398 
L 366.958473 378.324354 
L 372.192671 377.022904 
L 374.80977 376.046816 
L 380.043968 374.420003 
L 382.661067 373.118553 
L 385.278166 372.142465 
L 387.895265 371.979784 
L 390.512364 370.515652 
L 393.129464 369.864927 
L 395.746563 369.702245 
L 398.363662 368.075432 
L 400.980761 367.262026 
L 403.59786 366.285938 
L 406.214959 365.147169 
L 408.832058 364.659125 
L 411.449157 362.869631 
L 414.066256 361.56818 
L 419.300455 359.290642 
L 421.917554 358.314554 
L 424.534653 356.850423 
L 427.151752 354.572884 
L 429.768851 354.084841 
L 432.38595 352.946071 
L 435.003049 350.180489 
L 437.620148 347.74027 
L 440.237247 345.462732 
L 442.854347 343.835919 
L 445.471446 341.070336 
L 448.088545 339.606205 
L 450.705644 338.304754 
L 453.322743 336.189897 
L 455.939842 330.170689 
L 458.556941 314.390603 
L 461.17404 313.414515 
L 463.791139 311.625021 
L 466.408239 310.486252 
L 469.025338 308.208713 
L 471.642437 306.5819 
L 474.259536 304.141681 
L 484.727932 297.634429 
L 489.96213 294.05544 
L 492.57923 292.75399 
L 495.196329 287.385507 
L 497.813428 286.084056 
L 500.430527 284.619925 
L 503.047626 283.481156 
L 505.664725 282.017024 
L 508.281824 281.040936 
L 510.898923 279.414123 
L 513.516022 277.136585 
L 516.133122 275.347091 
L 518.750221 274.208321 
L 521.36732 271.768102 
L 523.984419 270.141289 
L 526.601518 267.863751 
L 529.218617 266.074256 
L 531.835716 263.145993 
L 534.452815 259.404323 
L 537.069914 256.638741 
L 539.687013 252.73439 
L 542.304113 250.131489 
L 544.921212 246.064456 
L 547.538311 240.533292 
L 550.15541 237.442347 
L 552.772509 230.121689 
L 555.389608 221.824942 
L 558.006707 210.437251 
L 560.623806 194.657165 
L 563.240905 182.293386 
L 565.858005 164.235762 
L 568.475104 137.556028 
L 571.092203 87.612869 
L 573.709302 78.340035 
L 576.326401 77.689309 
L 581.560599 75.411771 
L 584.177698 75.086409 
L 586.794797 73.622277 
L 589.411896 71.995464 
L 592.028996 71.344739 
L 594.646095 68.416475 
L 597.263194 66.789662 
L 599.880293 63.698717 
L 602.497392 59.794366 
L 605.114491 56.378059 
L 607.73159 51.009576 
L 610.348689 43.851599 
L 612.965788 43.526236 
L 615.582888 28.396875 
L 615.582888 28.396875 
" clip-path="url(#pa246479f4c)" style="fill: none; stroke: #ff0000; stroke-width: 2; stroke-linecap: square"/>
   </g>
   <g id="patch_207">
    <path d="M 67.300625 443.396875 
L 67.300625 28.396875 
" style="fill: none; stroke: #000000; stroke-width: 0.8; stroke-linejoin: miter; stroke-linecap: square"/>
   </g>
   <g id="patch_208">
    <path d="M 643.062428 443.396875 
L 643.062428 28.396875 
" style="fill: none; stroke: #000000; stroke-width: 0.8; stroke-linejoin: miter; stroke-linecap: square"/>
   </g>
   <g id="patch_209">
    <path d="M 67.300625 443.396875 
L 643.062428 443.396875 
" style="fill: none; stroke: #000000; stroke-width: 0.8; stroke-linejoin: miter; stroke-linecap: square"/>
   </g>
   <g id="patch_210">
    <path d="M 67.300625 28.396875 
L 643.062428 28.396875 
" style="fill: none; stroke: #000000; stroke-width: 0.8; stroke-linejoin: miter; stroke-linecap: square"/>
   </g>
  </g>
 </g>
 <defs>
  <clipPath id="pa246479f4c">
   <rect x="67.300625" y="28.396875" width="575.761803" height="415"/>
  </clipPath>
 </defs>
</svg>
